<svg width="1395" height="434" viewBox="0 0 1395 434" fill="none" xmlns="http://www.w3.org/2000/svg">
<mask id="mask0_1_22529" style="mask-type:alpha" maskUnits="userSpaceOnUse" x="0" y="0" width="1395" height="434">
<rect x="0.0532227" width="1394.45" height="434" rx="35" fill="#008D91"/>
</mask>
<g mask="url(#mask0_1_22529)">
<g opacity="0.2">
<mask id="mask1_1_22529" style="mask-type:luminance" maskUnits="userSpaceOnUse" x="-5" y="3" width="1309" height="337">
<path d="M1303.43 3.1523H-4.85254V339.689H649.288H1303.43V3.1523Z" fill="white"/>
</mask>
<g mask="url(#mask1_1_22529)">
<g opacity="0.2">
<g opacity="0.2">
<g opacity="0.2">
<g opacity="0.2">
<g opacity="0.2">
<path opacity="0.2" d="M549.108 211.991L548.445 213.023L582.747 231.289L558.235 265.829L559.413 266.763L584.881 231.068L549.108 211.991Z" fill="black"/>
</g>
<g opacity="0.2">
<path opacity="0.2" d="M621.219 158.201L620.973 158.717L583.261 231.141L584.561 231.608L622.004 160.143L720.323 202.575L698.456 255.725L699.857 256.389L722.183 201.887L721.526 201.641L621.219 158.201Z" fill="black"/>
</g>
<g opacity="0.2">
<path opacity="0.2" d="M793.101 141.239L720.001 202.182L774.594 236.87L775.041 236.649L831.422 214.278L860.671 250.071L861.355 249.654L924.685 203.682L945.493 239.623L946.84 238.517L925.053 201.838L924.442 202.232L861.263 248.252L831.764 212.729L831.225 212.778L774.916 235.026L722.552 202.477L793.929 142.271L793.101 141.239Z" fill="black"/>
</g>
<g opacity="0.2">
<path opacity="0.2" d="M996.948 91.6776L995.942 94.726L965.635 193.357L924.736 201.985L924.835 203.436L966.838 194.684L966.891 194.241L996.357 98.02L1002.76 144.14L1003.42 143.968L1066.68 139.641L1116.02 154.465L1164.06 185.293L1190.34 206.558L1191.05 205.378L1164.97 184.236L1116.56 153.112L1066.75 138.289L1003.82 142.541L996.948 91.6776Z" fill="black"/>
</g>
<g opacity="0.2">
<path opacity="0.2" d="M1166.52 188.219L1149.71 211.499L1151.04 212.09L1167.74 188.637L1166.52 188.219Z" fill="black"/>
</g>
<g opacity="0.2">
<path opacity="0.2" d="M1150.35 76.8052L1150.08 77.6163L1115.9 153.678L1116.98 154.096L1151.04 78.8949L1189.88 100.16L1190.56 98.9303L1150.35 76.8052Z" fill="black"/>
</g>
<g opacity="0.2">
<path opacity="0.2" d="M868.205 115.377L866.831 115.254L865.187 168.626L831.448 212.483L777.395 183.597L776.757 184.949L831.718 214.401L832.06 214.057L866.509 169.265L868.205 115.377Z" fill="black"/>
</g>
<g opacity="0.2">
<path opacity="0.2" d="M570.38 58.6373L569.767 59.719L639.548 100.504L720.638 104.658L720.691 104.388L782.298 81.1316L781.542 79.8037L720.717 102.987L639.598 99.1266L570.38 58.6373Z" fill="black"/>
</g>
<g opacity="0.2">
<path opacity="0.2" d="M625.512 15.8616L624.114 16.1812L633.339 101.364L634.738 101.168L625.512 15.8616Z" fill="black"/>
</g>
<g opacity="0.2">
<path opacity="0.2" d="M1062.85 20.6555L1061.48 21.0489L1070.6 71.8878L1066.09 138.756L1030.71 189.423L1031.86 190.259L1067.48 139.051L1067.39 138.879L1072.24 71.9128L1062.85 20.6555Z" fill="black"/>
</g>
<g opacity="0.2">
<path opacity="0.2" d="M565.669 266.518C566.061 262.634 562.946 259.29 559.02 259.315C555.192 259.29 551.634 262.019 551.536 266.026C551.438 270.279 554.726 273.328 558.456 273.574C562.626 273.647 565.841 270.427 565.669 266.518Z" fill="black"/>
</g>
<g opacity="0.2">
<path opacity="0.2" d="M558.014 214.204C558.136 210.024 554.873 206.78 551.021 206.583C547.267 206.632 543.733 209.532 543.733 213.565C543.586 217.645 546.85 220.866 550.726 220.841C554.284 221.014 557.891 218.014 558.014 214.204Z" fill="black"/>
</g>
<g opacity="0.2">
<path opacity="0.2" d="M598.132 234.485C598.23 227.233 592.709 221.112 585.397 220.915C578.404 220.817 572.246 226.422 572.148 233.649C572.025 240.705 577.398 246.826 584.833 246.875C591.924 247.17 597.886 241.615 598.132 234.485Z" fill="black"/>
</g>
<g opacity="0.2">
<path opacity="0.2" d="M643.254 164.716C643.671 152.523 634.028 142.001 621.76 141.682C609.345 141.362 599.162 150.974 598.77 163.389C598.352 175.656 608.045 186.03 620.337 186.178C632.9 186.621 642.96 176.959 643.254 164.716Z" fill="black"/>
</g>
<g opacity="0.2">
<path opacity="0.2" d="M595.235 61.2431C595.309 48.902 585.838 38.7243 573.349 38.1835C560.933 38.1343 550.825 47.5253 550.481 59.9647C549.941 72.134 559.952 82.7785 572.171 82.9263C584.365 83.2704 594.745 73.5597 595.235 61.2431Z" fill="black"/>
</g>
<g opacity="0.2">
<path opacity="0.2" d="M649.462 99.8398C649.584 93.1776 644.039 87.2035 637.243 87.0807C630.225 86.8101 624.385 92.5629 624.435 99.0282C624.312 106.035 629.563 111.812 636.31 112.206C643.229 112.402 648.897 106.723 649.462 99.8398Z" fill="black"/>
</g>
<g opacity="0.2">
<path opacity="0.2" d="M637.856 18.32C637.929 10.109 631.673 3.34844 623.404 3.15177C615.282 2.83218 608.437 9.22397 608.363 17.3366C608.02 25.4984 614.571 32.2836 622.644 32.6278C630.789 32.8982 637.537 26.4327 637.856 18.32Z" fill="black"/>
</g>
<g opacity="0.2">
<path opacity="0.2" d="M982.69 192.743C982.959 182.417 974.787 173.911 964.387 173.714C954.157 173.42 945.519 181.36 945.026 191.537C944.809 202.06 953.053 210.713 963.427 211.131C973.808 211.279 982.276 202.969 982.69 192.743Z" fill="black"/>
</g>
<g opacity="0.2">
<path opacity="0.2" d="M1009.14 98.464C1009.16 90.4495 1003.16 83.7137 995.325 83.4431C987.403 83.4431 980.875 89.6136 980.408 97.4809C980.283 105.495 986.516 112.034 994.471 112.059C1002.1 112.403 1008.95 106.306 1009.14 98.464Z" fill="black"/>
</g>
<g opacity="0.2">
<path opacity="0.2" d="M1014.44 144.902C1014.66 139.223 1009.93 134.109 1004.04 133.986C998.073 133.814 993.215 138.583 992.873 144.41C992.801 150.138 997.436 155.522 1003.3 155.448C1009.19 155.595 1014.07 150.9 1014.44 144.902Z" fill="black"/>
</g>
<g opacity="0.2">
<path opacity="0.2" d="M1051.96 186.842C1052.28 177.525 1045.09 170.076 1035.86 169.928C1026.71 169.486 1019.12 176.812 1018.98 185.858C1018.71 194.857 1025.8 202.6 1035.2 202.994C1044.13 202.969 1051.74 195.741 1051.96 186.842Z" fill="black"/>
</g>
<g opacity="0.2">
<path opacity="0.2" d="M1077.47 138.633C1077.65 133.102 1073.16 128.283 1067.51 128.037C1061.84 127.988 1057.11 132.586 1056.96 137.994C1056.62 143.746 1061.21 148.835 1066.95 148.885C1072.69 149.007 1077.4 144.41 1077.47 138.633Z" fill="black"/>
</g>
<g opacity="0.2">
<path opacity="0.2" d="M1086.38 76.9522C1086.53 67.6349 1079.46 59.9893 1070.58 59.8172C1061.23 59.8172 1053.57 66.5778 1053.4 75.9199C1052.99 84.9417 1060.44 92.4643 1069.52 92.8334C1078.48 93.0054 1086.09 85.9498 1086.38 76.9522Z" fill="black"/>
</g>
<g opacity="0.2">
<path opacity="0.2" d="M1076.08 23.7772C1076.17 16.9921 1070.85 11.5836 1064.2 11.4361C1057.62 11.2395 1051.95 16.525 1051.84 23.1626C1051.61 30.0461 1056.94 35.3807 1063.56 35.4791C1070.07 35.7741 1075.75 30.464 1076.08 23.7772Z" fill="black"/>
</g>
<g opacity="0.2">
<path opacity="0.2" d="M1163.38 77.2476C1163.42 70.5111 1158.15 65.103 1151.5 64.9063C1144.68 64.5868 1139.41 69.7493 1139.31 76.6079C1138.84 83.2459 1144 88.7773 1150.74 89.195C1157.29 89.4656 1163.18 83.8849 1163.38 77.2476Z" fill="black"/>
</g>
<g opacity="0.2">
<path opacity="0.2" d="M1199.17 99.7168C1199.25 94.7757 1195.42 90.6949 1190.56 90.6207C1185.49 90.4244 1181.63 94.2346 1181.34 99.127C1181.19 104.364 1185.02 108.591 1189.9 108.419C1194.81 108.764 1199.05 104.806 1199.17 99.7168Z" fill="black"/>
</g>
<g opacity="0.2">
<path opacity="0.2" d="M1133.12 155.645C1133.46 146.082 1126.11 138.387 1116.71 138.042C1107.48 137.551 1099.61 145.098 1099.41 154.686C1099 164.077 1106.35 171.846 1115.95 172.14C1125.34 172.386 1133 165.036 1133.12 155.645Z" fill="black"/>
</g>
<g opacity="0.2">
<path opacity="0.2" d="M1180.13 185.268C1180.33 178.68 1175.27 173.272 1168.85 173.247C1162.32 172.903 1157 177.844 1156.8 184.531C1156.83 190.849 1161.68 195.864 1168.11 196.356C1174.61 196.823 1179.82 191.611 1180.13 185.268Z" fill="black"/>
</g>
<g opacity="0.2">
<path opacity="0.2" d="M1156.21 211.303C1156.31 208.255 1153.71 205.23 1150.54 205.452C1147.38 205.304 1144.63 207.664 1144.58 210.959C1144.44 214.154 1147.03 217.08 1150.22 217.055C1153.56 217.055 1156.09 214.646 1156.21 211.303Z" fill="black"/>
</g>
<g opacity="0.2">
<path opacity="0.2" d="M1196.13 208.845C1195.91 205.526 1193.6 202.97 1190.32 203.019C1187.05 202.773 1184.33 205.231 1184.23 208.354C1184.23 211.599 1186.76 214.45 1189.97 214.426C1193.28 214.795 1195.91 211.992 1196.13 208.845Z" fill="black"/>
</g>
<g opacity="0.2">
<path opacity="0.2" d="M799.675 85.4828C799.918 76.7316 792.949 69.6267 784.39 69.4297C775.797 69.0613 768.638 76.1169 768.289 84.6475C768.171 93.3994 774.942 100.479 783.673 100.578C792.213 100.996 799.425 94.3333 799.675 85.4828Z" fill="black"/>
</g>
<g opacity="0.2">
<path opacity="0.2" d="M808.091 146.918C808.406 139.37 802.595 133.003 794.962 132.831C787.651 132.708 781.59 138.485 781.465 145.959C781.195 153.408 786.816 159.333 794.298 159.701C801.885 159.947 807.769 154.047 808.091 146.918Z" fill="black"/>
</g>
<g opacity="0.2">
<path opacity="0.2" d="M788.189 187.285C788.189 181.188 783.554 175.878 777.617 175.755C771.234 175.484 766.132 180.45 766.079 186.449C765.639 192.718 770.524 197.954 776.881 198.028C782.765 198.225 787.972 193.382 788.189 187.285Z" fill="black"/>
</g>
<g opacity="0.2">
<path opacity="0.2" d="M877.204 117.024C877.428 111.296 872.523 106.059 866.337 105.863C860.23 105.715 855.273 110.608 854.904 116.63C854.878 122.949 859.592 128.037 865.798 128.037C871.761 128.283 877.158 123.268 877.204 117.024Z" fill="black"/>
</g>
<g opacity="0.2">
<path opacity="0.2" d="M954.966 241.098C954.986 236.304 951.311 231.904 946.4 232.199C941.075 231.855 937.301 235.739 937.104 240.705C936.782 245.45 940.634 249.776 945.617 249.825C950.765 249.899 954.769 246.113 954.966 241.098Z" fill="black"/>
</g>
<g opacity="0.2">
<path opacity="0.2" d="M938.057 205.353C938.281 198.961 933.1 193.627 926.868 193.406C920.491 193.184 915.04 198.322 915.021 204.714C914.501 211.057 919.61 216.392 926.256 216.539C932.515 216.859 937.84 211.794 938.057 205.353Z" fill="black"/>
</g>
<g opacity="0.2">
<path opacity="0.2" d="M842.782 214.965C842.953 208.967 838.193 203.73 831.915 203.657C825.88 203.436 820.601 208.278 820.384 214.744C820.206 220.693 825.064 225.708 831.027 226.077C837.457 226.126 842.539 221.381 842.782 214.965Z" fill="black"/>
</g>
<g opacity="0.2">
<path opacity="0.2" d="M710.311 256.07C710.409 249.727 705.649 244.491 699.371 244.417C693.382 244.417 688.451 249.653 688.03 255.48C688.011 261.552 692.672 266.542 698.977 267.084C705.058 267.108 710.067 262.412 710.311 256.07Z" fill="black"/>
</g>
<g opacity="0.2">
<path opacity="0.2" d="M792.016 239.525C792.365 230.502 785.028 222.956 775.975 222.586C766.797 222.464 759.309 229.494 759.04 238.615C758.797 247.686 765.811 255.48 774.969 255.677C784.121 256.094 791.701 248.817 792.016 239.525Z" fill="black"/>
</g>
<g opacity="0.2">
<path opacity="0.2" d="M738.678 205.033C738.652 195.913 731.611 188.341 722.459 187.899C713.525 187.628 705.82 194.979 705.452 203.878C705.235 213.22 712.42 220.866 721.598 221.087C730.605 221.431 738.408 214.105 738.678 205.033Z" fill="black"/>
</g>
<g opacity="0.2">
<path opacity="0.2" d="M878.408 249.727C878.605 240.558 871.439 232.814 862.288 232.666C853.064 232.249 845.681 239.378 845.313 248.744C845.037 257.791 852.255 265.51 861.551 265.707C870.459 266.322 878.112 258.848 878.408 249.727Z" fill="black"/>
</g>
<g opacity="0.2">
<path opacity="0.2" d="M882.017 169.51C882.26 161.447 875.515 153.776 866.679 153.481C858.264 153.383 850.882 160.291 850.757 168.896C850.461 177.5 857.456 184.654 865.845 184.678C874.634 184.924 881.721 178.385 882.017 169.51Z" fill="black"/>
</g>
<g opacity="0.2">
<path opacity="0.2" d="M739.092 105.617C739.533 94.2597 730.48 84.5247 718.824 84.2541C707.194 83.713 697.674 92.809 697.431 104.56C696.964 116.164 705.892 125.85 717.548 126.268C729.251 126.489 738.869 117.369 739.092 105.617Z" fill="black"/>
</g>
</g>
</g>
</g>
</g>
<path d="M1298.13 273.476L1298.74 274.705L1263.65 291.619L1287.04 326.798L1285.76 328.15L1261.81 291.471L1298.13 273.476Z" fill="black"/>
<path d="M1227.73 217.301L1228.08 217.744L1263.14 291.225L1261.96 291.987L1227 218.924L1127.09 258.16L1146.96 312.195L1145.69 312.662L1125.25 257.398L1126.03 257.029L1227.73 217.301Z" fill="black"/>
<path d="M1056.47 194.414L1127.3 257.938L1071.73 290.34L1071.19 290.365L1015.81 265.879L985.141 300.886L984.628 300.616L923.041 252.383L900.76 287.365L899.807 286.529L922.528 250.342L923.382 250.612L984.674 298.919L1015.54 264.527H1015.86L1071.8 288.767L1125.05 257.742L1055.56 195.471L1056.47 194.414Z" fill="black"/>
<path d="M854.483 137.822L855.64 140.698L882.358 240.607L922.967 250.662L922.797 252.063L881.03 241.984V241.738L854.95 144.066L846.929 190.333L846.265 189.891L783.231 183.351L733.398 196.627L684.078 225.783L657.432 246.065L656.571 245.032L683.467 224.628L732.807 195.176L783.087 181.95L845.753 188.784L854.483 137.822Z" fill="black"/>
<path d="M681.896 228.364L697.628 252.432L696.425 253.341L680.449 228.979L681.896 228.364Z" fill="black"/>
<path d="M701.723 117.884L702.092 118.548L733.569 195.643L732.419 196.159L701.132 119.802L661.482 139.862L660.72 138.559L701.723 117.884Z" fill="black"/>
<path d="M982.294 165.774L983.767 166.02L983.425 219.072L1015.72 264.454L1070.55 237.337L1071.39 238.616L1015.4 266.101L1014.98 265.781L982.222 219.637L982.294 165.774Z" fill="black"/>
<path d="M1282.06 119.606L1282.55 120.442L1211.71 158.866L1130.33 160.071L1130.1 160.022L1069.42 134.652L1070.09 133.349L1130.37 158.744L1211.37 157.613L1282.06 119.606Z" fill="black"/>
<path d="M1228.17 74.8882L1229.57 75.0353L1217.77 160.046L1216.23 159.849L1228.17 74.8882Z" fill="black"/>
<path d="M791.01 64.5868L792.437 64.8081L781.517 115.844L783.7 182.466L817.367 234.362L816.065 235.198L782.28 182.982L782.299 182.663L780.044 115.623L791.01 64.5868Z" fill="black"/>
<path d="M1289.1 275.098C1289.02 271.336 1292.31 268.141 1296.32 268.264C1300.34 268.067 1303.65 271.435 1303.4 275.319C1303.4 279.105 1300.14 282.424 1296.07 282.498C1292.24 282.473 1289.15 279.154 1289.1 275.098Z" fill="black"/>
<path d="M1248.37 293.954C1248.22 286.973 1254.29 281.146 1261.35 281.195C1268.47 281.367 1274.35 286.948 1274.18 294.053C1274.03 301.526 1268.34 307.401 1261.08 307.229C1253.84 307.131 1248.2 301.427 1248.37 293.954Z" fill="black"/>
<path d="M1205.51 222.981C1205.33 210.541 1215.49 200.708 1228.06 200.708C1240.17 200.978 1250.07 210.885 1249.97 223.03C1250.01 235.519 1239.83 245.352 1227.46 245.278C1215.27 245.303 1205.31 235.42 1205.51 222.981Z" fill="black"/>
<path d="M1257.15 121.204C1257.35 108.813 1267.17 98.8817 1279.75 99.0045C1291.94 98.9795 1301.98 108.936 1301.83 121.646C1301.81 133.79 1291.56 143.87 1279.46 143.796C1267.07 143.894 1257.11 133.594 1257.15 121.204Z" fill="black"/>
<path d="M1201.65 157.834C1201.87 151.098 1207.32 145.591 1214.23 145.64C1221.26 145.689 1226.75 151.54 1226.73 158.128C1226.78 164.938 1221.16 170.642 1214.09 170.789C1207.25 170.617 1201.6 165.036 1201.65 157.834Z" fill="black"/>
<path d="M1215.89 76.7801C1215.96 68.5693 1222.66 62.03 1230.75 61.9808C1238.9 62.1037 1245.45 68.7413 1245.42 76.7801C1245.35 85.0651 1238.61 91.6046 1230.43 91.7024C1222.34 91.5061 1215.93 84.8931 1215.89 76.7801Z" fill="black"/>
<path d="M865.403 239.452C865.548 229.25 873.969 220.695 884.245 221.137C894.231 220.916 902.824 229.544 903.067 239.551C902.844 250.072 894.133 258.505 884.074 258.308C873.549 258.21 865.259 249.826 865.403 239.452Z" fill="black"/>
<path d="M842.045 144.042C842.216 136.028 848.646 129.612 856.325 129.833C864.47 129.956 870.584 136.298 870.584 144.116C870.558 152.13 864.352 158.719 856.325 158.522C848.6 158.35 842.216 152.007 842.045 144.042Z" fill="black"/>
<path d="M835.373 190.432C835.229 184.63 840.179 179.885 845.971 179.959C851.96 179.909 856.667 184.802 856.694 190.751C856.648 196.602 851.862 201.494 845.899 201.248C840.034 201.273 835.275 196.504 835.373 190.432Z" fill="black"/>
<path d="M796.236 231.241C796.282 221.726 803.77 214.597 812.652 214.72C821.929 214.72 829.167 222.095 829.259 231.314C829.213 240.46 821.85 247.859 812.527 247.539C803.6 247.712 796.138 240.263 796.236 231.241Z" fill="black"/>
<path d="M772.41 182.27C772.384 176.738 776.973 171.92 782.811 171.821C788.53 172.067 793.146 176.885 793.021 182.245C793.073 187.85 788.235 192.521 782.64 192.546C776.828 192.447 772.384 187.752 772.41 182.27Z" fill="black"/>
<path d="M765.712 120.073C765.567 110.903 773.075 103.676 782.029 103.774C791.181 103.774 798.715 111.002 798.616 120.221C798.445 129.341 790.964 136.618 781.885 136.593C772.977 136.766 765.712 129.194 765.712 120.073Z" fill="black"/>
<path d="M777.834 67.3405C777.88 60.5799 783.304 55.4419 790.003 55.2207C796.657 55.4173 801.857 60.8503 801.857 67.488C801.804 74.0516 796.604 79.3617 789.879 79.5588C783.186 79.411 777.834 73.9288 777.834 67.3405Z" fill="black"/>
<path d="M688.793 117.836C688.668 110.903 694.289 106.011 701.232 105.962C707.464 106.061 712.96 111.247 713.059 117.688C712.835 124.548 707.536 130.079 700.863 130.005C694.237 130.005 688.819 124.474 688.793 117.836Z" fill="black"/>
<path d="M652.163 139.126C652.138 134.012 655.967 130.079 661.121 130.226C665.901 130.251 669.977 134.307 669.78 139.298C669.905 144.215 665.829 148.443 661.141 148.123C655.895 148.173 652.138 144.067 652.163 139.126Z" fill="black"/>
<path d="M716.103 197.29C716.05 187.629 723.683 180.082 733.176 180.205C742.604 180.278 750.184 187.752 750.013 197.364C749.987 206.681 742.157 214.229 732.933 214.474C723.315 214.057 716.05 206.436 716.103 197.29Z" fill="black"/>
<path d="M668.156 225.316C668.11 218.531 673.626 213.442 679.76 213.54C686.36 213.368 691.613 218.679 691.488 225.365C691.343 231.511 686.288 236.796 679.714 236.575C673.356 236.871 668.084 231.363 668.156 225.316Z" fill="black"/>
<path d="M691.318 252.136C691.245 248.793 693.921 246.138 696.985 246.384C700.226 246.212 703.02 248.842 703.046 252.161C703.02 255.283 700.002 258.037 696.886 257.766C693.822 257.889 691.173 255.136 691.318 252.136Z" fill="black"/>
<path d="M651.496 248.204C651.472 245.107 654.172 242.452 657.335 242.353C660.549 242.722 663.37 244.91 663.225 248.179C663.225 251.474 660.549 253.932 657.164 254.006C654.192 254.276 651.422 251.425 651.496 248.204Z" fill="black"/>
<path d="M1051.96 138.633C1051.96 129.709 1059.02 122.899 1067.66 122.826C1076.2 122.801 1083.34 130.029 1083.19 138.682C1083.07 147.41 1076.15 154.195 1067.48 154.195C1058.8 154.096 1051.9 147.115 1051.96 138.633Z" fill="black"/>
<path d="M1041.4 199.356C1041.18 191.833 1047.56 185.785 1054.93 185.761C1062.24 185.884 1067.95 192.005 1067.83 199.381C1068.05 206.878 1062.16 212.582 1054.56 212.68C1046.97 212.656 1041.04 206.559 1041.4 199.356Z" fill="black"/>
<path d="M1059.81 240.656C1059.88 234.191 1065.01 229.175 1071.02 229.323C1077.35 229.594 1082.23 234.289 1082.21 240.754C1082.16 246.703 1077.3 251.842 1071.02 251.842C1064.86 251.867 1059.69 246.728 1059.81 240.656Z" fill="black"/>
<path d="M973.196 167.593C973.386 161.398 978.468 156.285 984.405 156.333C990.71 156.408 995.45 161.594 995.45 167.716C995.397 173.985 990.71 178.926 984.359 178.902C978.271 178.951 973.143 173.985 973.196 167.593Z" fill="black"/>
<path d="M891.339 288.963C891.464 283.973 895.56 279.892 900.346 279.916C905.494 279.72 909.274 284.022 909.202 288.84C909.149 294.003 905.474 297.788 900.346 297.739C895.632 297.543 891.537 293.486 891.339 288.963Z" fill="black"/>
<path d="M1004.21 266.494C1004.35 260.52 1009.21 255.136 1015.54 255.382C1021.6 255.333 1026.8 260.422 1026.8 266.518C1026.83 272.837 1021.43 277.852 1015.57 277.655C1009.26 277.704 1004.21 272.689 1004.21 266.494Z" fill="black"/>
<path d="M1135.28 312.022C1135.45 305.68 1140.39 300.862 1146.64 300.739C1152.77 300.763 1157.73 305.926 1157.49 312.195C1157.51 318.218 1152.36 323.356 1146.37 323.135C1140.43 323.208 1135.36 318.194 1135.28 312.022Z" fill="black"/>
<path d="M1054.38 292.701C1054.17 283.654 1061.84 276.475 1070.7 276.45C1080.03 276.254 1087.27 283.727 1087.09 292.873C1087.04 302.018 1079.78 309.614 1070.68 309.59C1061.67 309.418 1054.21 301.895 1054.38 292.701Z" fill="black"/>
<path d="M1108.83 260.077C1109.17 250.957 1116.34 243.557 1125.44 243.361C1134.42 243.606 1141.93 250.711 1141.81 260.176C1141.61 269.248 1134.4 276.794 1125.19 276.647C1116.22 276.598 1108.98 269.026 1108.83 260.077Z" fill="black"/>
<path d="M967.674 299.633C967.694 290.758 975.083 283.481 984.136 283.334C993.557 283.481 1000.6 290.635 1000.68 300.321C1000.58 309.196 993.215 316.669 984.064 316.62C975.057 316.571 967.648 309.048 967.674 299.633Z" fill="black"/>
<path d="M966.694 219.785C966.766 211.205 973.833 204.248 982.42 204.371C991.032 204.175 997.928 211.5 997.803 220.179C997.928 228.783 990.933 235.568 982.268 235.568C973.538 235.519 966.812 228.684 966.694 219.785Z" fill="black"/>
<path d="M1111.61 160.808C1111.58 149.155 1121.1 139.813 1132.58 139.691C1144.21 139.912 1153.54 149.229 1153.46 161.029C1153.27 172.608 1144.04 181.95 1132.51 181.901C1120.68 181.68 1111.61 172.19 1111.61 160.808Z" fill="black"/>
<path d="M659.031 246.359L659.596 247.466L624.581 264.846L647.866 300.075L647.007 300.96L622.299 264.601L659.031 246.359Z" fill="black"/>
<path d="M588.365 190.136L588.831 190.849L624.017 264.33L623.084 264.919L587.997 192.077L488.281 231.067L508.132 285.029L506.757 285.766L486.196 230.428L486.956 230.06L588.365 190.136Z" fill="black"/>
<path d="M417.493 167.445L488.355 231.068L432.51 263.322H432.314L376.592 239.229L345.921 273.942L345.381 273.524L283.893 225.61L261.909 260.199L260.73 259.708L283.427 223.373L284.285 223.791L345.921 271.828L376.371 237.361L376.665 237.632L432.608 261.896L486.073 230.576L416.488 168.379L417.493 167.445Z" fill="black"/>
<path d="M215.509 110.903L216.319 113.951L243.505 213.958L284.088 223.521L283.646 224.775L242.303 215.089L242.057 214.597L215.877 117.368L207.903 163.266L207.24 163.168L144.157 156.555L94.2993 169.461L45.2018 198.617L18.359 219.268L17.4512 217.768L44.2449 197.61L93.8819 168.085L144.108 155.031L144.182 155.006L206.798 161.422L215.509 110.903Z" fill="black"/>
<path d="M42.7492 201.298L58.8452 225.537L57.422 226.447L41.5225 202.035L42.7492 201.298Z" fill="black"/>
<path d="M62.7203 90.8174L63.0148 91.7026L94.6423 168.699L93.2433 169.093L61.8617 92.7106L22.3334 112.771L21.5728 111.419L62.7203 90.8174Z" fill="black"/>
<path d="M343.245 138.904H344.89L344.424 192.521L376.689 237.338L431.748 210.271L432.166 211.476L376.271 239.304L375.83 238.739L343.098 192.767L343.245 138.904Z" fill="black"/>
<path d="M642.762 92.3665L643.498 93.7187L572.515 131.848L491.226 133.372L490.931 133.151L430.326 107.928L430.915 106.526L491.471 131.873L572.244 130.324L642.762 92.3665Z" fill="black"/>
<path d="M589.075 48.0172L590.474 48.2139L578.254 133.003L576.88 132.954L589.075 48.0172Z" fill="black"/>
<path d="M151.788 37.667L153.285 37.8883L142.489 88.8504L144.501 155.571L178.312 207.394L177.208 208.205L143.422 155.989L143.47 155.842L141.164 88.6048L151.788 37.667Z" fill="black"/>
<path d="M640.308 300.443C640.407 296.436 643.645 293.486 647.399 293.437C651.521 293.535 654.686 296.731 654.66 300.615C654.489 304.475 651.227 307.744 647.056 307.818C643.302 307.818 640.382 304.229 640.308 300.443Z" fill="black"/>
<path d="M650.147 248.301C650.172 244.294 653.239 241.148 657.309 240.951C661.141 241.099 664.133 244.245 664.106 248.326C664.205 252.112 661.141 255.553 657.263 255.185C653.285 255.381 650.049 252.334 650.147 248.301Z" fill="black"/>
<path d="M609.171 267.403C609.491 259.807 615.036 254.201 622.152 254.373C629.464 254.349 635.131 260.175 634.984 267.526C635.008 274.606 629.243 280.211 622.127 280.088C614.668 280.334 609.294 274.262 609.171 267.403Z" fill="black"/>
<path d="M566.331 195.913C566.331 183.597 576.293 173.665 588.904 173.641C601.246 173.763 610.864 183.965 610.791 196.282C610.791 208.672 600.903 218.53 588.536 218.285C576.17 218.161 566.208 208.328 566.331 195.913Z" fill="black"/>
<path d="M618.004 94.2341C618.323 81.9668 628.162 71.937 640.626 72.2069C652.897 72.0841 662.805 82.0653 662.759 94.5782C662.588 106.649 652.72 116.704 640.16 116.728C627.917 116.458 618.029 106.698 618.004 94.2341Z" fill="black"/>
<path d="M562.626 131.209C562.553 124.227 568.465 118.72 575.287 118.646C581.985 118.794 587.653 124.227 587.678 131.184C587.727 138.068 581.961 143.649 574.943 143.796C568.343 143.821 562.528 137.92 562.626 131.209Z" fill="black"/>
<path d="M576.759 49.9098C576.907 41.7726 583.458 35.0858 591.702 35.2333C599.872 35.0612 606.374 41.7972 606.472 50.1311C606.301 58.1946 599.652 64.6355 591.383 64.5126C583.335 64.4634 576.882 57.9241 576.759 49.9098Z" fill="black"/>
<path d="M226.281 212.458C226.306 201.961 234.747 193.774 245.002 193.922C255.48 193.774 263.822 202.403 263.846 212.557C263.625 223.152 255.234 231.56 245.002 231.511C234.624 231.412 226.232 222.98 226.281 212.458Z" fill="black"/>
<path d="M203.193 117.172C203.143 109.181 209.547 102.987 217.644 102.839C225.447 102.912 231.876 109.403 231.679 117.269C231.802 125.309 225.251 131.528 217.571 131.454C209.572 131.331 203.07 125.161 203.193 117.172Z" fill="black"/>
<path d="M196.249 163.733C196.273 157.686 200.984 153.064 207.02 152.72C212.81 152.843 217.595 157.809 217.595 163.733C217.571 169.756 212.639 174.378 206.775 174.451C200.91 174.255 196.298 169.51 196.249 163.733Z" fill="black"/>
<path d="M157.137 204.099C157.284 194.684 164.718 187.431 173.822 187.678C182.851 187.481 190.359 195.102 190.334 204.173C190.212 213.441 182.556 220.841 173.87 220.693C164.399 220.693 157.014 213.122 157.137 204.099Z" fill="black"/>
<path d="M133.509 155.252C133.436 149.45 137.974 145.049 143.667 145.049C149.433 145.124 153.874 149.671 153.997 155.448C153.874 161.103 149.261 165.503 143.618 165.651C137.876 165.356 133.46 160.881 133.509 155.252Z" fill="black"/>
<path d="M126.566 93.2267C126.566 83.9586 133.927 76.6574 143.153 76.6574C152.329 76.6574 159.69 84.0079 159.641 93.3988C159.42 102.421 152.108 109.845 142.932 109.723C133.927 109.698 126.615 102.2 126.566 93.2267Z" fill="black"/>
<path d="M138.833 40.4208C138.907 33.6848 144.256 28.4484 150.881 28.3992C157.653 28.4484 163.026 33.6848 162.904 40.5191C162.855 47.1567 157.432 52.3685 150.807 52.6389C144.281 52.3193 138.858 47.0829 138.833 40.4208Z" fill="black"/>
<path d="M49.8394 90.8672C49.8394 84.2542 55.3847 78.6735 62.0097 78.772C68.659 78.8948 74.1057 84.2542 73.8605 91.0885C73.8112 97.8979 68.4137 103.134 61.7395 103.06C55.2129 102.913 49.8149 97.5781 49.8394 90.8672Z" fill="black"/>
<path d="M13.1354 112.058C13.1108 107.067 17.1102 103.158 22.0421 103.232C26.9494 103.355 30.9979 107.313 31.0715 112.254C30.9488 117.22 26.9494 121.154 22.0667 121.105C16.963 121.055 13.258 117.072 13.1354 112.058Z" fill="black"/>
<path d="M77.1236 170.273C77.1236 160.734 84.7057 153.334 94.103 153.384C103.525 153.384 111.058 160.808 111.033 170.518C111.009 179.664 103.206 187.236 93.8334 187.261C84.5341 187.236 77.0993 179.516 77.1236 170.273Z" fill="black"/>
<path d="M29.2297 198.052C29.3278 191.586 34.4805 186.448 40.9826 186.67C47.2885 186.473 52.2939 191.636 52.2939 198.151C52.2939 204.567 47.1167 209.975 40.7127 209.754C34.2842 209.705 29.107 204.493 29.2297 198.052Z" fill="black"/>
<path d="M52.2924 225.094C52.2188 221.947 54.8933 219.39 58.083 218.997C61.3956 219.218 63.8734 221.8 63.7262 225.094C63.7262 228.314 61.3706 230.822 57.9848 230.748C54.9914 230.65 52.1698 228.265 52.2924 225.094Z" fill="black"/>
<path d="M12.6184 221.308C12.5203 217.891 15.0966 215.211 18.5071 215.335C21.5497 215.211 24.2241 217.916 24.1505 221.333C24.2241 224.529 21.427 227.012 18.458 227.209C15.1947 227.086 12.5203 224.455 12.6184 221.308Z" fill="black"/>
<path d="M412.659 111.616C412.782 102.888 419.75 96.0053 428.436 96.0053C436.974 96.1032 444.262 102.937 444.139 111.689C443.943 120.466 436.901 127.276 428.166 127.226C419.873 127.202 412.536 120.319 412.659 111.616Z" fill="black"/>
<path d="M402.183 172.386C402.33 164.987 408.293 158.89 415.556 158.743C423.113 159.087 429.002 164.962 429.173 172.51C428.904 179.934 423.064 185.859 415.457 185.588C408.219 185.588 402.257 179.762 402.183 172.386Z" fill="black"/>
<path d="M421.101 213.392C421.003 207.492 425.886 202.354 431.922 202.206C438.154 202.379 443.012 207.345 443.208 213.515C443.184 219.907 438.031 224.603 431.897 224.676C425.738 224.578 420.88 219.538 421.101 213.392Z" fill="black"/>
<path d="M334.241 140.673C334.119 134.577 339.173 129.635 345.43 129.611C351.466 129.684 356.348 134.528 356.496 140.846C356.373 146.942 351.392 152.007 345.111 152.007C339.124 151.81 334.143 146.942 334.241 140.673Z" fill="black"/>
<path d="M252.535 261.97C252.314 256.905 256.289 252.874 261.393 252.8C266.325 252.972 270.25 256.955 270.005 261.994C270.005 266.911 266.349 270.697 261.466 270.722C256.191 270.795 252.265 267.034 252.535 261.97Z" fill="black"/>
<path d="M270.495 226.545C270.446 220.276 275.697 214.941 282.077 214.99C288.701 214.99 293.56 220.079 293.584 226.668C293.658 233.256 288.358 238.296 281.905 238.296C275.575 238 270.324 233.01 270.495 226.545Z" fill="black"/>
<path d="M365.354 239.648C365.281 233.453 370.507 228.413 376.567 228.389C382.701 228.389 387.657 233.551 387.364 239.697C387.609 245.695 382.456 250.858 376.518 250.686C370.261 250.735 365.305 245.573 365.354 239.648Z" fill="black"/>
<path d="M496.329 285.03C496.279 278.957 501.211 273.721 507.37 273.893C513.799 273.918 518.804 278.712 518.362 285.079C518.436 291.2 513.48 296.043 507.174 296.289C501.236 296.313 496.084 291.348 496.329 285.03Z" fill="black"/>
<path d="M415.113 265.707C415.211 256.513 422.719 249.064 431.552 249.31C440.95 249.261 448.188 256.685 447.918 265.83C448.262 275.197 440.655 282.572 431.626 282.227C422.351 282.203 415.162 275.098 415.113 265.707Z" fill="black"/>
<path d="M470.025 232.838C469.73 223.791 477.042 216.367 486.17 216.367C495.469 216.465 503.002 224.037 503.076 233.059C502.756 242.303 495.175 249.628 486.293 249.53C477.018 249.555 469.682 241.983 470.025 232.838Z" fill="black"/>
<path d="M328.647 272.762C328.721 263.961 336.033 256.316 345.136 256.488C354.288 256.488 361.722 263.863 361.624 272.861C361.428 282.325 354.165 289.553 345.037 289.627C335.861 289.627 328.549 282.08 328.647 272.762Z" fill="black"/>
<path d="M327.616 192.693C327.591 184.285 334.756 177.303 343.123 177.549C351.907 177.377 359.047 184.285 359.096 193.209C358.949 201.813 351.809 208.574 343.123 208.721C334.461 208.476 327.591 201.616 327.616 192.693Z" fill="black"/>
<path d="M472.503 133.962C472.724 122.162 482.171 112.844 493.752 112.869C505.284 112.869 514.559 122.309 514.559 134.183C514.461 145.492 505.186 155.005 493.457 154.981C481.754 154.76 472.356 145.369 472.503 133.962Z" fill="black"/>
</g>
</g>
</g>
</svg>
