<svg width="199" height="85" viewBox="0 0 199 85" fill="none" xmlns="http://www.w3.org/2000/svg">
<g clip-path="url(#clip0)">
<path d="M3.32538 81.0506C1.10846 78.4189 0 74.8102 0 70.2206C0 66.6456 0.58222 63.4224 1.74666 60.5512C2.9111 57.6799 4.66523 55.4076 7.00904 53.7305C9.35285 52.0572 12.193 51.2186 15.5333 51.2186C19.6873 51.2186 22.6767 52.3454 24.5018 54.5953C26.3268 56.8489 27.2375 59.8586 27.2375 63.6321C27.2375 66.7841 26.8008 69.3484 25.9312 71.3175C25.0616 73.2866 24.0017 74.7016 22.7514 75.5626C21.5011 76.4236 20.262 76.8504 19.0267 76.8504C16.7538 76.8504 15.5333 75.922 15.3654 74.0652H15.2796C14.8578 74.9375 14.3241 75.5776 13.6785 75.9856C13.0328 76.3937 12.2453 76.5996 11.3197 76.5996C10.0582 76.5996 9.0804 76.1578 8.39368 75.2706C7.70696 74.3834 7.3636 73.1368 7.3636 71.5346C7.3636 71.1977 7.38972 70.7185 7.44944 70.0971L7.91223 65.8333C8.38995 61.6667 10.0732 59.5854 12.9656 59.5854C14.7048 59.5854 15.8543 60.4426 16.4179 62.1609H16.5037L16.8844 59.7538H20.7995L19.579 71.5346L19.538 72.2084C19.538 72.7438 19.8179 73.0096 20.3815 73.0096C21.475 73.0096 22.311 72.0475 22.8857 70.1158C23.4605 68.1879 23.7479 66.0541 23.7479 63.7182C23.7479 60.9592 23.0612 58.7842 21.684 57.1933C20.3068 55.6023 18.2019 54.8086 15.3691 54.8086C11.6631 54.8086 8.83781 56.19 6.88588 58.9452C4.93395 61.7042 3.95985 65.5338 3.95985 70.4303C3.95985 73.923 4.78093 76.6295 6.42309 78.5574C8.06525 80.4853 10.5136 81.4512 13.768 81.4512C15.4512 81.4512 16.974 81.2415 18.3362 80.8185C19.6985 80.3955 21.0794 79.6505 22.4827 78.5799L22.1468 82.6341C20.8256 83.5063 19.482 84.1203 18.1048 84.4722C16.7276 84.8241 15.2012 85 13.518 85C8.93858 85 5.54229 83.6823 3.32538 81.0506ZM15.705 70.0073L16.1268 65.9942L16.1678 65.4889C16.1678 64.8712 15.9999 64.407 15.664 64.0963C15.3281 63.7856 14.8765 63.6321 14.3167 63.6321C13.615 63.6321 13.0664 63.838 12.6745 64.246C12.2826 64.6541 12.0288 65.3391 11.9169 66.2937L11.5362 69.8837L11.4951 70.5164C11.4951 71.2501 11.6556 71.7892 11.9803 72.1411C12.3013 72.493 12.7603 72.6689 13.35 72.6689C14.7197 72.6689 15.5072 71.7817 15.705 70.0073Z" fill="#016270"/>
<path d="M29.3013 65.575H38.5645V69.7976H29.3013V65.575Z" fill="#016270"/>
<path d="M42.7708 80.9645C41.5914 79.6842 41.0017 77.8461 41.0017 75.454V59.9147C41.0017 57.5226 41.5914 55.6846 42.7708 54.4043C43.9501 53.124 45.6595 52.4839 47.9062 52.4839C50.153 52.4839 51.8624 53.124 53.0417 54.4043C54.2211 55.6846 54.8108 57.5226 54.8108 59.9147V62.4491H50.4329V59.619C50.4329 57.6761 49.6342 56.7066 48.0331 56.7066C46.432 56.7066 45.6333 57.6761 45.6333 59.619V75.7909C45.6333 77.7076 46.432 78.6622 48.0331 78.6622C49.6342 78.6622 50.4329 77.7039 50.4329 75.7909V70.0072H48.119V65.7846H54.8145V75.454C54.8145 77.8461 54.2248 79.6842 53.0455 80.9645C51.8661 82.2447 50.153 82.8849 47.91 82.8849C45.6632 82.8886 43.9501 82.2485 42.7708 80.9645Z" fill="#016270"/>
<path d="M59.2745 80.9458C58.069 79.6505 57.4644 77.82 57.4644 75.4578V59.9185C57.4644 57.5526 58.069 55.7258 59.2745 54.4305C60.48 53.1353 62.2229 52.4877 64.4958 52.4877C66.7687 52.4877 68.5079 53.1353 69.7171 54.4305C70.9226 55.7258 71.5272 57.5564 71.5272 59.9185V75.4578C71.5272 77.8237 70.9226 79.6543 69.7171 80.9458C68.5116 82.241 66.7687 82.8887 64.4958 82.8887C62.2229 82.8887 60.48 82.241 59.2745 80.9458ZM66.8956 75.7498V59.619C66.8956 57.6762 66.0969 56.7066 64.4958 56.7066C62.8947 56.7066 62.096 57.6762 62.096 59.619V75.7498C62.096 77.6927 62.8947 78.6623 64.4958 78.6623C66.0969 78.666 66.8956 77.6927 66.8956 75.7498Z" fill="#016270"/>
<path d="M74.6399 52.907H81.5034C83.8882 52.907 85.6274 53.4648 86.7247 54.5766C87.8182 55.6884 88.3669 57.3992 88.3669 59.7089V61.5245C88.3669 64.5942 87.3554 66.5371 85.3363 67.3532V67.4393C86.4597 67.7762 87.2509 68.4687 87.7137 69.5094C88.1765 70.5501 88.4079 71.9464 88.4079 73.6909V78.8832C88.4079 79.7292 88.434 80.4105 88.4938 80.9308C88.5497 81.4512 88.6916 81.9641 88.9155 82.4732H84.198C84.0301 81.994 83.9181 81.5448 83.8621 81.1218C83.8061 80.6987 83.7763 79.9388 83.7763 78.842V73.4364C83.7763 72.0849 83.5598 71.1416 83.1231 70.6063C82.6865 70.0709 81.9363 69.8052 80.8726 69.8052H79.2715V82.4732H74.6399V52.907ZM80.9547 65.575C81.8803 65.575 82.5745 65.3354 83.0373 64.8562C83.5001 64.3771 83.7315 63.576 83.7315 62.4492V60.1694C83.7315 59.0987 83.5411 58.3276 83.1642 57.8484C82.7835 57.3692 82.1901 57.1297 81.3765 57.1297H79.2715V65.575H80.9547Z" fill="#016270"/>
<path d="M95.1856 52.907H101.459L106.259 82.4657H101.627L100.784 76.5959V76.682H95.5215L94.6781 82.4657H90.3823L95.1856 52.907ZM100.239 72.6689L98.1751 58.058H98.093L96.0702 72.6689H100.239Z" fill="#016270"/>
<path d="M116.657 80.9645C115.477 79.6842 114.888 77.8461 114.888 75.454V59.9147C114.888 57.5226 115.477 55.6846 116.657 54.4043C117.836 53.124 119.545 52.4839 121.792 52.4839C124.039 52.4839 125.748 53.124 126.928 54.4043C128.107 55.6846 128.697 57.5226 128.697 59.9147V62.4491H124.319V59.619C124.319 57.6761 123.52 56.7066 121.919 56.7066C120.318 56.7066 119.519 57.6761 119.519 59.619V75.7909C119.519 77.7076 120.318 78.6622 121.919 78.6622C123.52 78.6622 124.319 77.7039 124.319 75.7909V70.0072H122.005V65.7846H128.697V75.454C128.697 77.8461 128.107 79.6842 126.928 80.9645C125.748 82.2447 124.035 82.8849 121.792 82.8849C119.545 82.8886 117.832 82.2485 116.657 80.9645Z" fill="#008D91"/>
<path d="M131.683 52.907H138.546C140.931 52.907 142.67 53.4648 143.767 54.5766C144.861 55.6884 145.41 57.3992 145.41 59.7089V61.5245C145.41 64.5942 144.398 66.5371 142.379 67.3532V67.4393C143.502 67.7762 144.294 68.4687 144.756 69.5094C145.219 70.5501 145.451 71.9464 145.451 73.6909V78.8832C145.451 79.7292 145.477 80.4105 145.536 80.9308C145.592 81.4512 145.734 81.9641 145.958 82.4732H141.244C141.077 81.994 140.965 81.5448 140.909 81.1218C140.853 80.6987 140.823 79.9388 140.823 78.842V73.4364C140.823 72.0849 140.606 71.1416 140.17 70.6063C139.733 70.0709 138.983 69.8052 137.915 69.8052H136.314V82.4732H131.683V52.907ZM137.997 65.575C138.923 65.575 139.617 65.3354 140.08 64.8562C140.543 64.3771 140.774 63.576 140.774 62.4492V60.1694C140.774 59.0987 140.584 58.3276 140.207 57.8484C139.83 57.3692 139.233 57.1297 138.419 57.1297H136.314V65.575H137.997Z" fill="#008D91"/>
<path d="M152.228 52.907H158.502L163.302 82.4657H158.67L157.827 76.5959V76.682H152.564L151.721 82.4657H147.425L152.228 52.907ZM157.282 72.6689L155.218 58.058H155.132L153.113 72.6689H157.282Z" fill="#008D91"/>
<path d="M165.53 52.907H172.349C174.651 52.907 176.376 53.5247 177.529 54.7638C178.678 56.0029 179.257 57.8185 179.257 60.2106V63.123C179.257 65.5151 178.682 67.3307 177.529 68.5698C176.379 69.8089 174.651 70.4266 172.349 70.4266H170.158V82.4619H165.526V52.907H165.53ZM172.352 66.2077C173.11 66.2077 173.677 65.998 174.058 65.575C174.439 65.152 174.625 64.4332 174.625 63.4225V59.9186C174.625 58.9041 174.435 58.1891 174.058 57.766C173.681 57.343 173.11 57.1334 172.352 57.1334H170.161V66.2114H172.352V66.2077Z" fill="#008D91"/>
<path d="M181.78 52.907H186.411V64.9423H191.379V52.907H196.011V82.4657H191.379V69.165H186.411V82.4657H181.78V52.907Z" fill="#008D91"/>
<g opacity="0.2">
<g opacity="0.2">
<g opacity="0.2">
<g opacity="0.2">
<g opacity="0.2">
<path opacity="0.2" d="M84.2617 31.8009L84.1609 31.9581L89.3785 34.7396L85.65 39.9992L85.8292 40.1414L89.7032 34.7059L84.2617 31.8009Z" fill="#008D91"/>
</g>
<g opacity="0.2">
<path opacity="0.2" d="M95.2305 23.6101L95.1931 23.6887L89.4568 34.7171L89.6546 34.7882L95.3499 23.9058L110.305 30.3671L106.979 38.4606L107.192 38.5617L110.588 30.2623L110.488 30.2249L95.2305 23.6101Z" fill="#008D91"/>
</g>
<g opacity="0.2">
<path opacity="0.2" d="M121.375 21.0272L110.256 30.3074L118.56 35.5895L118.628 35.5558L127.204 32.1492L131.653 37.5997L131.757 37.5361L141.39 30.5357L144.555 36.0087L144.76 35.8403L141.446 30.255L141.353 30.3149L131.743 37.3227L127.256 31.9133L127.174 31.9208L118.609 35.3087L110.644 30.3523L121.501 21.1844L121.375 21.0272Z" fill="#008D91"/>
</g>
<g opacity="0.2">
<path opacity="0.2" d="M152.382 13.4802L152.229 13.9444L147.619 28.9634L141.398 30.2773L141.413 30.4982L147.802 29.1655L147.81 29.0981L152.292 14.446L153.266 21.4689L153.367 21.4427L162.988 20.7838L170.494 23.0411L177.801 27.7355L181.799 30.9736L181.907 30.7939L177.94 27.5745L170.576 22.8352L163 20.5779L153.427 21.2255L152.382 13.4802Z" fill="#008D91"/>
</g>
<g opacity="0.2">
<path opacity="0.2" d="M178.175 28.181L175.618 31.7261L175.82 31.816L178.361 28.2447L178.175 28.181Z" fill="#008D91"/>
</g>
<g opacity="0.2">
<path opacity="0.2" d="M175.715 11.2155L175.674 11.339L170.475 22.9214L170.639 22.985L175.82 11.5337L181.728 14.7718L181.832 14.5846L175.715 11.2155Z" fill="#008D91"/>
</g>
<g opacity="0.2">
<path opacity="0.2" d="M132.799 17.089L132.59 17.0703L132.34 25.1975L127.208 31.8759L118.986 27.4773L118.889 27.6831L127.249 32.1679L127.301 32.1155L132.541 25.2948L132.799 17.089Z" fill="#008D91"/>
</g>
<g opacity="0.2">
<path opacity="0.2" d="M87.4976 8.44897L87.4043 8.61369L98.0186 14.8242L110.353 15.4568L110.361 15.4156L119.732 11.8743L119.617 11.6721L110.365 15.2023L98.0261 14.6145L87.4976 8.44897Z" fill="#008D91"/>
</g>
<g opacity="0.2">
<path opacity="0.2" d="M95.8836 1.9353L95.6709 1.98397L97.0742 14.9552L97.2869 14.9253L95.8836 1.9353Z" fill="#008D91"/>
</g>
<g opacity="0.2">
<path opacity="0.2" d="M162.406 2.66528L162.197 2.72518L163.585 10.4667L162.899 20.6491L157.517 28.3644L157.692 28.4917L163.111 20.694L163.096 20.6678L163.835 10.4705L162.406 2.66528Z" fill="#008D91"/>
</g>
<g opacity="0.2">
<path opacity="0.2" d="M86.7809 40.1041C86.8406 39.5126 86.3667 39.0035 85.7695 39.0072C85.1873 39.0035 84.6461 39.419 84.6312 40.0292C84.6163 40.6768 85.1164 41.141 85.6837 41.1785C86.3181 41.1897 86.8071 40.6993 86.7809 40.1041Z" fill="#008D91"/>
</g>
<g opacity="0.2">
<path opacity="0.2" d="M85.6165 32.1379C85.6351 31.5015 85.1387 31.0074 84.5528 30.9774C83.9818 30.9849 83.4443 31.4266 83.4443 32.0406C83.4219 32.662 83.9183 33.1524 84.508 33.1486C85.0492 33.1749 85.5978 32.7181 85.6165 32.1379Z" fill="#008D91"/>
</g>
<g opacity="0.2">
<path opacity="0.2" d="M91.7186 35.2263C91.7335 34.1219 90.8937 33.1898 89.7816 33.1599C88.7179 33.1449 87.7811 33.9984 87.7662 35.099C87.7475 36.1734 88.5649 37.1055 89.6957 37.113C90.7743 37.1579 91.6812 36.3119 91.7186 35.2263Z" fill="#008D91"/>
</g>
<g opacity="0.2">
<path opacity="0.2" d="M98.5821 24.6022C98.6456 22.7454 97.1788 21.1432 95.3127 21.0946C93.4243 21.0459 91.8754 22.5096 91.8157 24.4001C91.7522 26.2681 93.2265 27.8478 95.0963 27.8703C97.0072 27.9377 98.5374 26.4665 98.5821 24.6022Z" fill="#008D91"/>
</g>
<g opacity="0.2">
<path opacity="0.2" d="M91.2782 8.84579C91.2894 6.96655 89.8488 5.41674 87.9491 5.33438C86.0606 5.32689 84.523 6.75691 84.4707 8.65112C84.3886 10.5042 85.9113 12.1251 87.77 12.1476C89.6248 12.2 91.2036 10.7213 91.2782 8.84579Z" fill="#008D91"/>
</g>
<g opacity="0.2">
<path opacity="0.2" d="M99.5264 14.7231C99.545 13.7086 98.7016 12.7989 97.6678 12.7802C96.6004 12.739 95.7121 13.615 95.7196 14.5995C95.7009 15.6664 96.4996 16.5462 97.5259 16.6061C98.5784 16.636 99.4405 15.7713 99.5264 14.7231Z" fill="#008D91"/>
</g>
<g opacity="0.2">
<path opacity="0.2" d="M97.761 2.30966C97.7722 1.05933 96.8205 0.0298654 95.5627 -8.26038e-05C94.3274 -0.0487482 93.2861 0.924563 93.2749 2.15992C93.2227 3.40276 94.2192 4.43597 95.4471 4.48838C96.6861 4.52956 97.7125 3.54502 97.761 2.30966Z" fill="#008D91"/>
</g>
<g opacity="0.2">
<path opacity="0.2" d="M150.213 28.8699C150.254 27.2976 149.011 26.0024 147.429 25.9724C145.873 25.9275 144.559 27.1366 144.484 28.6864C144.451 30.2887 145.705 31.6064 147.283 31.67C148.862 31.6925 150.15 30.4272 150.213 28.8699Z" fill="#008D91"/>
</g>
<g opacity="0.2">
<path opacity="0.2" d="M154.236 14.5136C154.24 13.2932 153.326 12.2675 152.135 12.2263C150.93 12.2263 149.937 13.1659 149.866 14.3639C149.847 15.5842 150.795 16.58 152.005 16.5838C153.165 16.6362 154.207 15.7078 154.236 14.5136Z" fill="#008D91"/>
</g>
<g opacity="0.2">
<path opacity="0.2" d="M155.042 21.5849C155.076 20.7202 154.356 19.9415 153.46 19.9228C152.553 19.8966 151.814 20.6228 151.762 21.5101C151.751 22.3823 152.456 23.2021 153.348 23.1909C154.244 23.2133 154.986 22.4983 155.042 21.5849Z" fill="#008D91"/>
</g>
<g opacity="0.2">
<path opacity="0.2" d="M160.749 27.9714C160.798 26.5526 159.704 25.4183 158.301 25.3958C156.909 25.3285 155.755 26.444 155.733 27.8216C155.692 29.1918 156.771 30.371 158.2 30.4309C159.559 30.4271 160.716 29.3265 160.749 27.9714Z" fill="#008D91"/>
</g>
<g opacity="0.2">
<path opacity="0.2" d="M164.63 20.6304C164.657 19.7881 163.974 19.0543 163.115 19.0169C162.253 19.0094 161.533 19.7095 161.51 20.533C161.458 21.409 162.156 22.1839 163.029 22.1914C163.903 22.2101 164.619 21.5101 164.63 20.6304Z" fill="#008D91"/>
</g>
<g opacity="0.2">
<path opacity="0.2" d="M165.985 11.2379C166.008 9.8191 164.933 8.65487 163.582 8.62866C162.16 8.62866 160.995 9.65813 160.969 11.0807C160.906 12.4545 162.04 13.6 163.421 13.6562C164.784 13.6824 165.941 12.608 165.985 11.2379Z" fill="#008D91"/>
</g>
<g opacity="0.2">
<path opacity="0.2" d="M164.418 3.14067C164.433 2.10746 163.623 1.28389 162.612 1.26143C161.611 1.23148 160.749 2.03634 160.731 3.04708C160.697 4.09526 161.507 4.9076 162.514 4.92258C163.504 4.9675 164.369 4.1589 164.418 3.14067Z" fill="#008D91"/>
</g>
<g opacity="0.2">
<path opacity="0.2" d="M177.697 11.2829C177.704 10.2571 176.902 9.43358 175.891 9.40363C174.853 9.35497 174.051 10.1411 174.036 11.1855C173.965 12.1963 174.749 13.0386 175.775 13.1022C176.771 13.1434 177.667 12.2936 177.697 11.2829Z" fill="#008D91"/>
</g>
<g opacity="0.2">
<path opacity="0.2" d="M183.142 14.7044C183.153 13.952 182.571 13.3306 181.832 13.3193C181.06 13.2894 180.474 13.8696 180.429 14.6146C180.406 15.412 180.989 16.0558 181.731 16.0296C182.478 16.0821 183.123 15.4793 183.142 14.7044Z" fill="#008D91"/>
</g>
<g opacity="0.2">
<path opacity="0.2" d="M173.095 23.2208C173.147 21.7646 172.028 20.5929 170.598 20.5404C169.195 20.4656 167.997 21.6148 167.967 23.0748C167.904 24.5048 169.023 25.6878 170.483 25.7327C171.912 25.7701 173.077 24.6508 173.095 23.2208Z" fill="#008D91"/>
</g>
<g opacity="0.2">
<path opacity="0.2" d="M180.246 27.7318C180.276 26.7286 179.507 25.905 178.529 25.9013C177.537 25.8489 176.727 26.6013 176.697 27.6195C176.701 28.5816 177.439 29.3453 178.417 29.4201C179.406 29.4913 180.198 28.6977 180.246 27.7318Z" fill="#008D91"/>
</g>
<g opacity="0.2">
<path opacity="0.2" d="M176.607 31.6962C176.622 31.232 176.226 30.7715 175.745 30.8052C175.264 30.7827 174.846 31.1421 174.838 31.6438C174.816 32.1304 175.211 32.5759 175.696 32.5721C176.204 32.5721 176.588 32.2053 176.607 31.6962Z" fill="#008D91"/>
</g>
<g opacity="0.2">
<path opacity="0.2" d="M182.679 31.3219C182.646 30.8165 182.295 30.4272 181.795 30.4347C181.298 30.3973 180.884 30.7716 180.869 31.2471C180.869 31.7412 181.254 32.1754 181.742 32.1717C182.246 32.2279 182.646 31.8011 182.679 31.3219Z" fill="#008D91"/>
</g>
<g opacity="0.2">
<path opacity="0.2" d="M122.375 12.5369C122.412 11.2043 121.352 10.1224 120.05 10.0924C118.743 10.0363 117.654 11.1107 117.601 12.4097C117.583 13.7424 118.613 14.8205 119.941 14.8355C121.24 14.8991 122.337 13.8846 122.375 12.5369Z" fill="#008D91"/>
</g>
<g opacity="0.2">
<path opacity="0.2" d="M123.655 21.8919C123.703 20.7426 122.819 19.7731 121.658 19.7469C120.546 19.7282 119.624 20.6079 119.605 21.7459C119.564 22.8802 120.419 23.7824 121.557 23.8385C122.711 23.876 123.606 22.9775 123.655 21.8919Z" fill="#008D91"/>
</g>
<g opacity="0.2">
<path opacity="0.2" d="M120.628 28.0388C120.628 27.1104 119.923 26.3018 119.02 26.2831C118.049 26.2419 117.273 26.9981 117.265 27.9115C117.198 28.8661 117.941 29.6635 118.908 29.6747C119.803 29.7047 120.595 28.9672 120.628 28.0388Z" fill="#008D91"/>
</g>
<g opacity="0.2">
<path opacity="0.2" d="M134.168 17.3398C134.202 16.4676 133.456 15.6702 132.515 15.6403C131.586 15.6178 130.832 16.3628 130.776 17.2799C130.772 18.242 131.489 19.0169 132.433 19.0169C133.34 19.0543 134.161 18.2907 134.168 17.3398Z" fill="#008D91"/>
</g>
<g opacity="0.2">
<path opacity="0.2" d="M145.996 36.2333C145.999 35.5033 145.44 34.8332 144.693 34.8781C143.883 34.8257 143.309 35.4172 143.279 36.1734C143.23 36.8959 143.816 37.5547 144.574 37.5622C145.357 37.5734 145.966 36.9969 145.996 36.2333Z" fill="#008D91"/>
</g>
<g opacity="0.2">
<path opacity="0.2" d="M143.424 30.7902C143.458 29.8169 142.67 29.0046 141.722 28.9709C140.752 28.9372 139.923 29.7196 139.92 30.6929C139.841 31.6587 140.618 32.4711 141.629 32.4935C142.581 32.5422 143.391 31.771 143.424 30.7902Z" fill="#008D91"/>
</g>
<g opacity="0.2">
<path opacity="0.2" d="M128.932 32.2539C128.958 31.3405 128.234 30.5431 127.279 30.5319C126.361 30.4982 125.558 31.2356 125.525 32.2202C125.498 33.1261 126.237 33.8898 127.144 33.9459C128.122 33.9534 128.895 33.2309 128.932 32.2539Z" fill="#008D91"/>
</g>
<g opacity="0.2">
<path opacity="0.2" d="M108.782 38.5131C108.797 37.5472 108.073 36.7499 107.118 36.7386C106.207 36.7386 105.457 37.536 105.393 38.4232C105.39 39.3479 106.099 40.1078 107.058 40.1902C107.983 40.1939 108.745 39.4789 108.782 38.5131Z" fill="#008D91"/>
</g>
<g opacity="0.2">
<path opacity="0.2" d="M121.21 35.9937C121.263 34.6198 120.147 33.4706 118.77 33.4144C117.374 33.3957 116.235 34.4663 116.194 35.8552C116.157 37.2365 117.224 38.4232 118.617 38.4532C120.009 38.5168 121.162 37.4087 121.21 35.9937Z" fill="#008D91"/>
</g>
<g opacity="0.2">
<path opacity="0.2" d="M113.097 30.7415C113.093 29.3527 112.022 28.1997 110.63 28.1323C109.271 28.0911 108.099 29.2105 108.043 30.5656C108.01 31.9881 109.103 33.1524 110.499 33.1861C111.869 33.2385 113.056 32.1229 113.097 30.7415Z" fill="#008D91"/>
</g>
<g opacity="0.2">
<path opacity="0.2" d="M134.351 37.5473C134.381 36.151 133.291 34.9718 131.899 34.9493C130.496 34.8857 129.373 35.9713 129.317 37.3976C129.275 38.7752 130.373 39.9506 131.787 39.9806C133.142 40.0742 134.306 38.9362 134.351 37.5473Z" fill="#008D91"/>
</g>
<g opacity="0.2">
<path opacity="0.2" d="M134.9 25.3322C134.937 24.1043 133.911 22.9363 132.567 22.8914C131.287 22.8764 130.164 23.9283 130.145 25.2386C130.1 26.5488 131.164 27.6382 132.44 27.6419C133.777 27.6793 134.855 26.6836 134.9 25.3322Z" fill="#008D91"/>
</g>
<g opacity="0.2">
<path opacity="0.2" d="M113.16 15.6029C113.227 13.8734 111.85 12.391 110.077 12.3498C108.308 12.2674 106.86 13.6525 106.823 15.4419C106.752 17.2089 108.11 18.6838 109.883 18.7475C111.663 18.7811 113.126 17.3923 113.16 15.6029Z" fill="#008D91"/>
</g>
</g>
</g>
</g>
</g>
<path d="M198.194 41.1636L198.287 41.3507L192.95 43.9263L196.507 49.2832L196.313 49.4891L192.67 43.9038L198.194 41.1636Z" fill="#016270"/>
<path d="M187.486 32.6096L187.539 32.677L192.872 43.8663L192.693 43.9824L187.374 32.8567L172.177 38.8313L175.2 47.0595L175.006 47.1307L171.897 38.7153L172.016 38.6591L187.486 32.6096Z" fill="#016270"/>
<path d="M161.436 29.1244L172.21 38.7976L163.757 43.7315L163.675 43.7353L155.251 40.0068L150.586 45.3375L150.508 45.2963L141.14 37.9516L137.751 43.2786L137.606 43.1513L141.062 37.6409L141.192 37.682L150.515 45.038L155.21 39.8009H155.259L163.768 43.492L171.867 38.7677L161.298 29.2854L161.436 29.1244Z" fill="#016270"/>
<path d="M130.712 20.5068L130.888 20.9448L134.952 36.1584L141.129 37.6895L141.103 37.9029L134.75 36.3681V36.3306L130.783 21.4577L129.563 28.503L129.462 28.4356L119.874 27.4398L112.294 29.4613L104.792 33.9011L100.739 36.9895L100.608 36.8323L104.699 33.7252L112.204 29.2404L119.852 27.2264L129.384 28.2671L130.712 20.5068Z" fill="#016270"/>
<path d="M104.46 34.2942L106.853 37.9591L106.67 38.0976L104.24 34.3878L104.46 34.2942Z" fill="#016270"/>
<path d="M107.476 17.4708L107.532 17.5719L112.32 29.3115L112.145 29.3901L107.386 17.7628L101.355 20.8175L101.239 20.6191L107.476 17.4708Z" fill="#016270"/>
<path d="M150.153 24.7633L150.377 24.8007L150.325 32.8792L155.237 39.7897L163.578 35.6606L163.705 35.8553L155.188 40.0405L155.125 39.9919L150.142 32.9653L150.153 24.7633Z" fill="#016270"/>
<path d="M195.749 17.733L195.824 17.8603L185.049 23.7114L172.67 23.8948L172.636 23.8874L163.406 20.0241L163.507 19.8257L172.677 23.6927L184.997 23.5205L195.749 17.733Z" fill="#016270"/>
<path d="M187.553 10.9236L187.766 10.946L185.971 23.8911L185.736 23.8611L187.553 10.9236Z" fill="#016270"/>
<path d="M121.057 9.35498L121.274 9.38867L119.613 17.1602L119.945 27.3051L125.066 35.2076L124.868 35.3349L119.729 27.3837L119.732 27.335L119.389 17.1265L121.057 9.35498Z" fill="#016270"/>
<path d="M195.372 49.3805C195.354 48.7628 195.85 48.3211 196.451 48.3136C197 48.3248 197.533 48.7703 197.518 49.3955C197.492 49.9832 196.988 50.4437 196.443 50.4736C195.813 50.4736 195.313 49.972 195.372 49.3805Z" fill="#016270"/>
<path d="M196.82 41.4106C196.809 40.8378 197.309 40.3512 197.918 40.3699C198.53 40.34 199.034 40.8528 198.996 41.4443C198.996 42.0208 198.5 42.5262 197.88 42.5374C197.298 42.5336 196.828 42.0283 196.82 41.4106Z" fill="#016270"/>
<path d="M190.625 44.2819C190.603 43.2188 191.525 42.3315 192.599 42.339C193.682 42.3652 194.577 43.215 194.551 44.2969C194.529 45.4349 193.663 46.3296 192.558 46.3034C191.457 46.2884 190.599 45.4199 190.625 44.2819Z" fill="#016270"/>
<path d="M184.105 33.4744C184.079 31.5802 185.624 30.0828 187.535 30.0828C189.378 30.1239 190.883 31.6326 190.868 33.4819C190.875 35.3836 189.326 36.881 187.445 36.8697C185.59 36.8735 184.075 35.3686 184.105 33.4744Z" fill="#016270"/>
<path d="M191.961 17.9763C191.991 16.0895 193.484 14.5772 195.399 14.5959C197.253 14.5921 198.78 16.1083 198.757 18.0436C198.754 19.8929 197.194 21.4278 195.354 21.4165C193.469 21.4315 191.954 19.863 191.961 17.9763Z" fill="#016270"/>
<path d="M183.519 23.5541C183.552 22.5284 184.381 21.6898 185.433 21.6973C186.501 21.7048 187.337 22.5958 187.333 23.599C187.341 24.636 186.486 25.5045 185.411 25.5269C184.37 25.5007 183.511 24.6509 183.519 23.5541Z" fill="#016270"/>
<path d="M185.684 11.2117C185.695 9.96139 186.714 8.96562 187.945 8.95813C189.184 8.97685 190.181 9.98759 190.177 11.2117C190.166 12.4733 189.14 13.4691 187.897 13.484C186.665 13.4541 185.691 12.4471 185.684 11.2117Z" fill="#016270"/>
<path d="M132.373 35.9826C132.395 34.429 133.676 33.1263 135.239 33.1937C136.758 33.16 138.065 34.4739 138.102 35.9976C138.068 37.5998 136.743 38.8838 135.213 38.8538C133.612 38.8389 132.351 37.5623 132.373 35.9826Z" fill="#016270"/>
<path d="M128.82 21.454C128.846 20.2336 129.824 19.2566 130.992 19.2903C132.231 19.309 133.161 20.2748 133.161 21.4653C133.157 22.6856 132.213 23.6889 130.992 23.6589C129.817 23.6327 128.846 22.6669 128.82 21.454Z" fill="#016270"/>
<path d="M127.805 28.518C127.783 27.6345 128.536 26.912 129.417 26.9232C130.328 26.9157 131.044 27.6607 131.048 28.5666C131.041 29.4576 130.313 30.2025 129.406 30.1651C128.514 30.1688 127.79 29.4426 127.805 28.518Z" fill="#016270"/>
<path d="M121.852 34.7322C121.859 33.2834 122.998 32.1978 124.349 32.2165C125.76 32.2165 126.861 33.3396 126.875 34.7434C126.868 36.136 125.748 37.2628 124.33 37.2141C122.972 37.2403 121.837 36.106 121.852 34.7322Z" fill="#016270"/>
<path d="M118.228 27.2751C118.224 26.4328 118.922 25.6991 119.81 25.6841C120.68 25.7215 121.382 26.4552 121.363 27.2713C121.371 28.1248 120.635 28.8361 119.784 28.8399C118.9 28.8249 118.224 28.1099 118.228 27.2751Z" fill="#016270"/>
<path d="M117.209 17.8041C117.187 16.4078 118.329 15.3072 119.691 15.3222C121.083 15.3222 122.229 16.4228 122.214 17.8266C122.188 19.2154 121.05 20.3235 119.669 20.3197C118.314 20.346 117.209 19.193 117.209 17.8041Z" fill="#016270"/>
<path d="M119.053 9.77426C119.06 8.74479 119.885 7.9624 120.904 7.92871C121.916 7.95866 122.707 8.78597 122.707 9.79672C122.699 10.7962 121.908 11.6048 120.885 11.6348C119.867 11.6123 119.053 10.7775 119.053 9.77426Z" fill="#016270"/>
<path d="M105.509 17.4635C105.49 16.4078 106.345 15.6629 107.401 15.6554C108.349 15.6704 109.185 16.4602 109.2 17.441C109.166 18.4855 108.36 19.3278 107.345 19.3165C106.337 19.3165 105.513 18.4743 105.509 17.4635Z" fill="#016270"/>
<path d="M99.9373 20.7054C99.9335 19.9267 100.516 19.3278 101.3 19.3502C102.027 19.354 102.647 19.9716 102.617 20.7316C102.636 21.4803 102.016 22.1242 101.303 22.0755C100.505 22.083 99.9335 21.4578 99.9373 20.7054Z" fill="#016270"/>
<path d="M109.663 29.5624C109.655 28.0912 110.816 26.942 112.26 26.9607C113.694 26.9719 114.847 28.1099 114.821 29.5736C114.817 30.9924 113.626 32.1417 112.223 32.1791C110.76 32.1155 109.655 30.955 109.663 29.5624Z" fill="#016270"/>
<path d="M102.37 33.83C102.363 32.7968 103.202 32.0219 104.135 32.0369C105.139 32.0107 105.938 32.8193 105.919 33.8375C105.897 34.7734 105.128 35.5782 104.128 35.5445C103.161 35.5895 102.359 34.7509 102.37 33.83Z" fill="#016270"/>
<path d="M105.893 37.9141C105.882 37.405 106.289 37.0007 106.755 37.0382C107.248 37.012 107.673 37.4125 107.677 37.9179C107.673 38.3933 107.214 38.8126 106.74 38.7714C106.274 38.7901 105.871 38.3709 105.893 37.9141Z" fill="#016270"/>
<path d="M99.8359 37.3153C99.8322 36.8436 100.243 36.4393 100.724 36.4243C101.213 36.4805 101.642 36.8136 101.62 37.3115C101.62 37.8132 101.213 38.1875 100.698 38.1987C100.246 38.2399 99.8247 37.8057 99.8359 37.3153Z" fill="#016270"/>
<path d="M160.749 20.6303C160.749 19.2715 161.824 18.2345 163.137 18.2233C164.436 18.2195 165.522 19.3201 165.5 20.6378C165.481 21.9668 164.429 23 163.111 23C161.79 22.985 160.741 21.9219 160.749 20.6303Z" fill="#016270"/>
<path d="M159.144 29.8769C159.11 28.7314 160.081 27.8105 161.201 27.8068C162.313 27.8255 163.182 28.7576 163.164 29.8807C163.197 31.0224 162.301 31.8909 161.145 31.9059C159.991 31.9022 159.088 30.9738 159.144 29.8769Z" fill="#016270"/>
<path d="M161.943 36.1659C161.954 35.1814 162.734 34.4177 163.649 34.4402C164.612 34.4814 165.354 35.1964 165.351 36.1809C165.343 37.0868 164.604 37.8692 163.649 37.8692C162.712 37.873 161.925 37.0906 161.943 36.1659Z" fill="#016270"/>
<path d="M148.769 25.0403C148.798 24.0969 149.571 23.3183 150.474 23.3257C151.433 23.337 152.154 24.1268 152.154 25.059C152.146 26.0136 151.433 26.766 150.467 26.7623C149.541 26.7698 148.761 26.0136 148.769 25.0403Z" fill="#016270"/>
<path d="M136.318 43.5219C136.337 42.762 136.96 42.1406 137.688 42.1443C138.471 42.1144 139.046 42.7695 139.035 43.5032C139.027 44.2893 138.468 44.8658 137.688 44.8583C136.971 44.8284 136.348 44.2107 136.318 43.5219Z" fill="#016270"/>
<path d="M139.057 38.1463C139.069 37.1356 139.871 36.3607 140.841 36.3345C141.815 36.3906 142.622 37.1805 142.637 38.1538C142.622 39.1196 141.797 39.902 140.812 39.902C139.86 39.9095 139.083 39.0972 139.057 38.1463Z" fill="#016270"/>
<path d="M153.486 40.1004C153.508 39.1907 154.247 38.3709 155.21 38.4083C156.132 38.4009 156.923 39.1758 156.923 40.1041C156.927 41.0662 156.106 41.8299 155.214 41.8C154.255 41.8074 153.486 41.0438 153.486 40.1004Z" fill="#016270"/>
<path d="M173.423 47.0333C173.449 46.0675 174.2 45.3338 175.151 45.3151C176.084 45.3188 176.838 46.1049 176.801 47.0595C176.805 47.9767 176.021 48.7591 175.11 48.7254C174.207 48.7366 173.435 47.973 173.423 47.0333Z" fill="#016270"/>
<path d="M161.118 44.091C161.085 42.7134 162.253 41.6203 163.6 41.6165C165.019 41.5866 166.12 42.7246 166.093 44.1172C166.086 45.5098 164.981 46.6665 163.597 46.6628C162.227 46.6366 161.092 45.4911 161.118 44.091Z" fill="#016270"/>
<path d="M169.4 39.1233C169.452 37.7345 170.542 36.6077 171.927 36.5778C173.293 36.6152 174.435 37.6971 174.416 39.1383C174.386 40.5197 173.289 41.6689 171.889 41.6465C170.524 41.639 169.423 40.486 169.4 39.1233Z" fill="#016270"/>
<path d="M147.929 45.1466C147.932 43.7952 149.056 42.6871 150.433 42.6647C151.866 42.6871 152.937 43.7765 152.949 45.2514C152.934 46.6028 151.814 47.7409 150.422 47.7334C149.052 47.7259 147.925 46.5804 147.929 45.1466Z" fill="#016270"/>
<path d="M147.78 32.9878C147.791 31.6813 148.866 30.6219 150.172 30.6406C151.482 30.6107 152.531 31.7262 152.512 33.0477C152.531 34.3579 151.467 35.3911 150.149 35.3911C148.821 35.3836 147.798 34.3429 147.78 32.9878Z" fill="#016270"/>
<path d="M169.822 24.007C169.818 22.2326 171.266 20.8101 173.013 20.7914C174.782 20.8251 176.2 22.2439 176.189 24.0407C176.159 25.8039 174.756 27.2265 173.002 27.219C171.203 27.1853 169.822 25.7403 169.822 24.007Z" fill="#016270"/>
<path d="M100.982 37.0344L101.068 37.2029L95.7419 39.8495L99.2837 45.214L99.1531 45.3487L95.3948 39.8121L100.982 37.0344Z" fill="#016270"/>
<path d="M90.2332 28.4729L90.3041 28.5815L95.6561 39.7708L95.5142 39.8606L90.1772 28.7686L75.0096 34.7058L78.029 42.9228L77.8199 43.0351L74.6924 34.6085L74.8081 34.5524L90.2332 28.4729Z" fill="#016270"/>
<path d="M64.2421 25.0177L75.0207 34.7059L66.5262 39.6174H66.4964L58.0206 35.9487L53.3554 41.2346L53.2733 41.1709L43.9204 33.8748L40.5764 39.1419L40.3972 39.0671L43.8495 33.5342L43.9801 33.5978L53.3554 40.9126L57.987 35.6642L58.0318 35.7054L66.5412 39.4002L74.6736 34.631L64.0891 25.16L64.2421 25.0177Z" fill="#016270"/>
<path d="M33.5188 16.4077L33.6419 16.8719L37.7772 32.1005L43.9502 33.5567L43.883 33.7476L37.5943 32.2727L37.557 32.1978L33.5747 17.3923L32.3618 24.3814L32.261 24.3664L22.6656 23.3594L15.0818 25.3247L7.61368 29.7645L3.53067 32.9091L3.39258 32.6807L7.46812 29.6111L15.0183 25.1151L22.6581 23.1273L22.6693 23.1236L32.1938 24.1006L33.5188 16.4077Z" fill="#016270"/>
<path d="M7.24056 30.1726L9.68888 33.8637L9.47241 34.0022L7.05396 30.2849L7.24056 30.1726Z" fill="#016270"/>
<path d="M10.2784 13.3492L10.3232 13.484L15.134 25.2087L14.9212 25.2686L10.1478 13.6375L4.13523 16.6922L4.01953 16.4863L10.2784 13.3492Z" fill="#016270"/>
<path d="M52.9484 20.6716H53.1985L53.1276 28.8362L58.0354 35.6606L66.4104 31.539L66.4739 31.7225L57.9719 35.9601L57.9048 35.874L52.926 28.8736L52.9484 20.6716Z" fill="#016270"/>
<path d="M98.5073 13.5851L98.6193 13.791L87.8221 19.5971L75.4574 19.8292L75.4126 19.7956L66.1941 15.9547L66.2837 15.7413L75.4947 19.6009L87.781 19.3651L98.5073 13.5851Z" fill="#016270"/>
<path d="M90.3412 6.83179L90.554 6.86174L88.6953 19.7731L88.4863 19.7656L90.3412 6.83179Z" fill="#016270"/>
<path d="M23.8262 5.25574L24.0539 5.28943L22.4117 13.0497L22.7178 23.2096L27.8607 31.1009L27.6928 31.2244L22.5536 23.2732L22.561 23.2508L22.2102 13.0123L23.8262 5.25574Z" fill="#016270"/>
<path d="M98.134 45.27C98.149 44.6598 98.6416 44.2106 99.2126 44.2031C99.8396 44.2181 100.321 44.7048 100.317 45.2962C100.291 45.884 99.7949 46.3818 99.1604 46.3931C98.5894 46.3931 98.1452 45.8465 98.134 45.27Z" fill="#016270"/>
<path d="M99.6307 37.3301C99.6344 36.7199 100.101 36.2408 100.72 36.2108C101.303 36.2333 101.758 36.7124 101.754 37.3339C101.769 37.9104 101.303 38.4344 100.713 38.3783C100.108 38.4082 99.6158 37.9441 99.6307 37.3301Z" fill="#016270"/>
<path d="M93.3979 40.2388C93.4465 39.0821 94.2899 38.2285 95.3723 38.2547C96.4845 38.251 97.3466 39.1382 97.3242 40.2575C97.3279 41.3356 96.4509 42.1892 95.3685 42.1704C94.234 42.2079 93.4166 41.2832 93.3979 40.2388Z" fill="#016270"/>
<path d="M86.8815 29.3527C86.8815 27.4772 88.3968 25.9648 90.3151 25.9611C92.1924 25.9798 93.6554 27.5333 93.6442 29.4088C93.6442 31.2956 92.1402 32.7967 90.2591 32.7593C88.3781 32.7405 86.8629 31.2431 86.8815 29.3527Z" fill="#016270"/>
<path d="M94.7415 13.8695C94.79 12.0015 96.2866 10.4742 98.1825 10.5153C100.049 10.4966 101.556 12.0165 101.549 13.9219C101.523 15.76 100.022 17.2911 98.1116 17.2948C96.2493 17.2536 94.7452 15.7675 94.7415 13.8695Z" fill="#016270"/>
<path d="M86.3181 19.4998C86.3069 18.4367 87.2063 17.5981 88.2439 17.5869C89.2628 17.6094 90.1249 18.4367 90.1286 19.4961C90.1361 20.5443 89.259 21.3941 88.1916 21.4165C87.1877 21.4203 86.3031 20.5218 86.3181 19.4998Z" fill="#016270"/>
<path d="M88.4678 7.12001C88.4902 5.88091 89.4867 4.86267 90.7407 4.88513C91.9835 4.85893 92.9725 5.88465 92.9874 7.1537C92.9613 8.38157 91.9499 9.36237 90.6922 9.34365C89.468 9.33616 88.4864 8.34039 88.4678 7.12001Z" fill="#016270"/>
<path d="M35.1573 31.8721C35.161 30.2736 36.4449 29.027 38.0049 29.0495C39.5986 29.027 40.8675 30.341 40.8712 31.8871C40.8376 33.5005 39.5612 34.7808 38.0049 34.7733C36.4262 34.7583 35.1498 33.4743 35.1573 31.8721Z" fill="#016270"/>
<path d="M31.6453 17.3623C31.6378 16.1456 32.6119 15.2023 33.8435 15.1798C35.0304 15.191 36.0082 16.1793 35.9783 17.3772C35.997 18.6014 35.0005 19.5485 33.8323 19.5372C32.6156 19.5185 31.6266 18.5789 31.6453 17.3623Z" fill="#016270"/>
<path d="M30.5891 24.4525C30.5928 23.5316 31.3094 22.8278 32.2275 22.7754C33.1083 22.7941 33.8361 23.5503 33.8361 24.4525C33.8324 25.3696 33.0822 26.0734 32.1902 26.0846C31.2982 26.0547 30.5966 25.3322 30.5891 24.4525Z" fill="#016270"/>
<path d="M24.6399 30.5992C24.6623 29.1655 25.7931 28.0611 27.1778 28.0986C28.5512 28.0686 29.6933 29.2291 29.6895 30.6105C29.6709 32.0218 28.5064 33.1486 27.1852 33.1261C25.7446 33.1261 24.6212 31.9731 24.6399 30.5992Z" fill="#016270"/>
<path d="M21.0458 23.161C21.0346 22.2775 21.725 21.6074 22.5909 21.6074C23.468 21.6187 24.1435 22.3112 24.1622 23.1909C24.1435 24.0519 23.4418 24.722 22.5834 24.7445C21.7101 24.6996 21.0383 24.0182 21.0458 23.161Z" fill="#016270"/>
<path d="M19.9897 13.7161C19.9897 12.3048 21.1094 11.193 22.5127 11.193C23.9085 11.193 25.0282 12.3123 25.0207 13.7423C24.9871 15.1162 23.8749 16.2467 22.4791 16.228C21.1094 16.2243 19.9972 15.0825 19.9897 13.7161Z" fill="#016270"/>
<path d="M21.8557 5.67506C21.8669 4.64934 22.6805 3.85197 23.6882 3.84448C24.7183 3.85197 25.5356 4.64934 25.517 5.69003C25.5095 6.70078 24.6847 7.4944 23.677 7.53558C22.6843 7.48691 21.8594 6.68954 21.8557 5.67506Z" fill="#016270"/>
<path d="M8.3191 13.3568C8.3191 12.3498 9.16258 11.5 10.1703 11.515C11.1817 11.5337 12.0102 12.3498 11.9729 13.3905C11.9654 14.4274 11.1444 15.2248 10.1292 15.2135C9.13645 15.1911 8.31537 14.3787 8.3191 13.3568Z" fill="#016270"/>
<path d="M2.7361 16.5836C2.73237 15.8236 3.34071 15.2284 4.09088 15.2397C4.83732 15.2584 5.45313 15.8611 5.46433 16.6135C5.44567 17.3697 4.83732 17.9687 4.09462 17.9612C3.31832 17.9537 2.75476 17.3472 2.7361 16.5836Z" fill="#016270"/>
<path d="M12.4692 25.4483C12.4692 23.9958 13.6225 22.869 15.0519 22.8765C16.4851 22.8765 17.6309 24.007 17.6271 25.4857C17.6234 26.8783 16.4366 28.0313 15.0109 28.0351C13.5964 28.0313 12.4655 26.8558 12.4692 25.4483Z" fill="#016270"/>
<path d="M5.18416 29.6784C5.19909 28.6938 5.98285 27.9114 6.97188 27.9451C7.93105 27.9152 8.69242 28.7013 8.69242 29.6934C8.69242 30.6704 7.90492 31.494 6.93082 31.4603C5.95299 31.4528 5.1655 30.6592 5.18416 29.6784Z" fill="#016270"/>
<path d="M8.69224 33.7962C8.68104 33.317 9.08785 32.9277 9.57303 32.8678C10.0769 32.9015 10.4538 33.2946 10.4314 33.7962C10.4314 34.2866 10.0731 34.6684 9.5581 34.6572C9.10278 34.6422 8.67358 34.2791 8.69224 33.7962Z" fill="#016270"/>
<path d="M2.6574 33.2197C2.64247 32.6994 3.03435 32.2913 3.55312 32.3101C4.01591 32.2913 4.42272 32.7031 4.41152 33.2235C4.42272 33.7101 3.99725 34.0882 3.54565 34.1182C3.04927 34.0995 2.64247 33.6989 2.6574 33.2197Z" fill="#016270"/>
<path d="M63.5068 16.5163C63.5255 15.1873 64.5854 14.1392 65.9066 14.1392C67.2054 14.1541 68.3139 15.1948 68.2952 16.5275C68.2654 17.8639 67.1942 18.9009 65.8656 18.8934C64.6041 18.8897 63.4882 17.8415 63.5068 16.5163Z" fill="#016270"/>
<path d="M61.9133 25.7701C61.9357 24.6434 62.8426 23.715 63.9474 23.6925C65.0969 23.7449 65.9926 24.6396 66.0187 25.7889C65.9777 26.9194 65.0894 27.8216 63.9324 27.7804C62.8314 27.7804 61.9245 26.8932 61.9133 25.7701Z" fill="#016270"/>
<path d="M64.7909 32.0143C64.776 31.1159 65.5187 30.3335 66.4368 30.311C67.3848 30.3372 68.1237 31.0934 68.1536 32.033C68.1499 33.0064 67.3661 33.7214 66.4331 33.7326C65.4963 33.7176 64.7573 32.9502 64.7909 32.0143Z" fill="#016270"/>
<path d="M51.5789 20.941C51.5603 20.0127 52.3291 19.2602 53.2808 19.2565C54.1989 19.2677 54.9416 20.0052 54.964 20.9673C54.9454 21.8956 54.1877 22.6668 53.2323 22.6668C52.3217 22.6369 51.564 21.8956 51.5789 20.941Z" fill="#016270"/>
<path d="M39.1507 39.4115C39.1171 38.6403 39.7217 38.0264 40.498 38.0151C41.2482 38.0413 41.8453 38.6478 41.808 39.4152C41.808 40.1639 41.2519 40.7404 40.5092 40.7442C39.7068 40.7554 39.1096 40.1826 39.1507 39.4115Z" fill="#016270"/>
<path d="M41.8827 34.0171C41.8752 33.0625 42.6739 32.2501 43.6443 32.2576C44.652 32.2576 45.391 33.0325 45.3947 34.0358C45.4059 35.039 44.5997 35.8065 43.6182 35.8065C42.6553 35.7615 41.8566 35.0016 41.8827 34.0171Z" fill="#016270"/>
<path d="M56.3114 36.0124C56.3002 35.069 57.0951 34.3016 58.017 34.2979C58.95 34.2979 59.7039 35.084 59.6592 36.0199C59.6965 36.9333 58.9127 37.7194 58.0095 37.6932C57.0578 37.7007 56.3039 36.9146 56.3114 36.0124Z" fill="#016270"/>
<path d="M76.2337 42.9229C76.2262 41.9982 76.9764 41.2009 77.9132 41.2271C78.891 41.2308 79.6524 41.9608 79.5852 42.9304C79.5964 43.8625 78.8425 44.6 77.8833 44.6374C76.9801 44.6411 76.1964 43.885 76.2337 42.9229Z" fill="#016270"/>
<path d="M63.8801 39.9806C63.8951 38.5805 65.0371 37.4463 66.3807 37.4837C67.8101 37.4762 68.9111 38.6067 68.8701 39.9993C68.9223 41.4256 67.7653 42.5487 66.3919 42.4962C64.9811 42.4925 63.8876 41.4106 63.8801 39.9806Z" fill="#016270"/>
<path d="M72.2327 34.9754C72.1879 33.5978 73.3001 32.4673 74.6885 32.4673C76.103 32.4823 77.2488 33.6353 77.26 35.0091C77.2114 36.4167 76.0582 37.5322 74.7072 37.5173C73.2964 37.521 72.1805 36.368 72.2327 34.9754Z" fill="#016270"/>
<path d="M50.7279 41.0549C50.7391 39.7147 51.8513 38.5505 53.236 38.5767C54.6281 38.5767 55.7589 39.6998 55.744 41.0699C55.7141 42.5111 54.6094 43.6117 53.221 43.623C51.8252 43.623 50.713 42.4737 50.7279 41.0549Z" fill="#016270"/>
<path d="M50.5711 28.8623C50.5673 27.582 51.6571 26.5188 52.9298 26.5563C54.2659 26.5301 55.352 27.582 55.3594 28.9409C55.3371 30.2511 54.251 31.2806 52.9298 31.303C51.6123 31.2656 50.5673 30.2211 50.5711 28.8623Z" fill="#016270"/>
<path d="M72.6096 19.9191C72.6432 18.1222 74.0801 16.7034 75.8417 16.7072C77.5958 16.7072 79.0066 18.1447 79.0066 19.9528C78.9917 21.6748 77.5809 23.1235 75.7969 23.1198C74.0167 23.0861 72.5872 21.6561 72.6096 19.9191Z" fill="#016270"/>
</g>
<defs>
<clipPath id="clip0">
<rect width="199" height="85" fill="white"/>
</clipPath>
</defs>
</svg>
