
<svg width="575" height="246" viewBox="0 0 575 246" fill="none" xmlns="http://www.w3.org/2000/svg">
<path d="M489.473 39.7963C479.807 35.6374 468.664 41.5404 464.368 48.1142C460.072 54.688 458.192 62.4693 456.984 70.2505C454.433 86.2155 454.03 102.449 455.775 118.548C456.312 123.243 457.252 128.476 460.877 131.561C464.368 134.513 469.335 134.781 473.766 133.976C477.793 133.305 481.821 131.695 484.506 128.61C488.534 123.78 487.997 116.804 487.594 110.498C486.117 88.8986 488.399 67.1648 494.307 46.3702" fill="#263238"/>
<path d="M468.529 48.5168C472.96 39.7964 486.385 34.9667 497.26 37.9182C506.389 40.3331 516.19 49.7242 516.861 59.3837C517.801 73.3363 510.283 87.6913 514.713 100.973C519.949 116.401 539.147 123.914 544.115 139.477C546.129 145.916 545.323 153.027 541.967 158.796C540.221 161.747 537.536 164.565 534.18 165.101C529.884 165.772 525.99 162.955 522.634 160.271C513.505 153.027 504.241 145.514 497.931 135.72C490.413 124.183 487.593 110.23 487.459 96.4117C487.325 82.7274 489.742 69.0432 492.292 55.6272" fill="#263238"/>
<path d="M506.792 65.555C508.269 54.0173 499.945 43.5529 488.131 42.3455C477.122 41.2722 467.322 49.4559 465.71 60.457C464.234 70.1164 463.025 79.7759 463.025 83.2641C463.16 93.8626 469.335 98.0216 471.886 99.229C472.423 99.4973 474.034 99.8998 474.706 99.8998C474.706 99.8998 474.706 99.8998 474.706 100.034L472.289 112.242C471.215 120.158 475.645 127.402 483.701 128.476C491.756 129.683 497.932 123.512 499.14 115.462L506.792 65.555Z" fill="white"/>
<path d="M468.127 65.8231C467.993 66.7623 468.53 67.5672 469.469 67.7014C470.409 67.8355 471.215 67.2989 471.349 66.4939C471.483 65.5548 470.946 64.7499 470.006 64.6157C469.201 64.3474 468.395 64.884 468.127 65.8231Z" fill="#263238"/>
<path d="M468.127 63.4085C468.261 63.6768 469.738 62.8719 471.483 63.1402C473.229 63.4085 474.437 64.4818 474.705 64.3476C474.84 64.2135 474.705 63.811 474.168 63.2744C473.631 62.7377 472.692 62.2011 471.618 62.0669C470.544 61.9328 469.47 62.2011 468.932 62.4694C468.395 62.8719 468.127 63.2744 468.127 63.4085Z" fill="#263238"/>
<path d="M485.178 68.5061C485.043 69.4452 485.58 70.2501 486.52 70.3843C487.46 70.5184 488.265 69.9818 488.4 69.1769C488.534 68.2377 487.997 67.4328 487.057 67.2986C486.252 67.1645 485.312 67.7011 485.178 68.5061Z" fill="#263238"/>
<path d="M485.849 66.3598C485.983 66.6281 487.46 65.8232 489.205 66.0915C490.951 66.3598 492.159 67.4331 492.427 67.2989C492.562 67.1648 492.427 66.7623 491.89 66.2257C491.353 65.689 490.414 65.1524 489.34 65.0182C488.266 64.8841 487.192 65.1524 486.654 65.4207C485.983 65.8232 485.715 66.2257 485.849 66.3598Z" fill="#263238"/>
<path d="M477.391 78.7023C477.391 78.5681 476.317 78.2998 474.571 77.7632C474.169 77.629 473.632 77.4949 473.632 77.2265C473.632 76.8241 473.9 76.4216 474.169 75.885C474.706 74.8117 475.377 73.7384 476.048 72.531C478.599 67.8354 480.613 63.9448 480.479 63.8106C480.344 63.6765 478.062 67.4329 475.377 72.1285C474.706 73.3359 474.169 74.4092 473.497 75.4825C473.229 76.0191 472.826 76.5557 472.96 77.2265C473.095 77.629 473.363 77.8973 473.632 78.0315C473.9 78.1657 474.169 78.1657 474.437 78.2998C476.182 78.5681 477.256 78.8365 477.391 78.7023Z" fill="#263238"/>
<path d="M482.492 80.7146C482.224 80.7146 481.955 82.5928 480.075 83.8003C478.196 85.0077 476.182 84.4711 476.048 84.7394C476.048 84.8735 476.451 85.1419 477.39 85.276C478.196 85.4102 479.538 85.276 480.747 84.6052C481.955 83.9344 482.492 82.8611 482.626 82.0562C482.761 81.2512 482.626 80.7146 482.492 80.7146Z" fill="#263238"/>
<path d="M485.446 63.006C485.581 63.5426 487.326 63.5426 489.474 64.0793C491.622 64.6159 493.233 65.4209 493.502 65.0184C493.636 64.8842 493.367 64.3476 492.83 63.8109C492.159 63.2743 491.219 62.6035 490.011 62.3352C488.803 62.0669 487.594 62.0669 486.789 62.201C485.849 62.4694 485.446 62.8718 485.446 63.006Z" fill="#263238"/>
<path d="M469.335 59.7858C469.603 60.1883 470.946 60.0542 472.423 60.1883C473.9 60.3225 475.108 60.8591 475.511 60.4566C475.645 60.3225 475.511 59.7859 474.974 59.3834C474.437 58.9809 473.631 58.4443 472.557 58.3101C471.483 58.1759 470.543 58.4443 470.006 58.7126C469.469 59.2492 469.335 59.6517 469.335 59.7858Z" fill="#263238"/>
<path d="M474.034 43.6874C475.108 51.737 481.418 58.9816 489.205 61.2623C488.936 60.3232 488.802 59.2499 488.534 58.3108C492.024 65.1529 498.066 70.5193 505.316 73.2025C510.283 64.7504 508.403 52.9444 501.154 46.5048C493.904 40.0651 481.955 39.6627 474.168 45.5657" fill="#263238"/>
<path d="M542.639 147.794C542.504 147.794 543.713 146.855 544.653 144.574C545.727 142.428 546.532 138.671 545.727 134.378C545.324 132.232 544.384 129.951 543.176 127.67C541.833 125.39 540.088 123.243 538.074 121.097C534.046 116.803 528.676 113.047 523.843 108.217C521.426 105.802 519.278 103.119 517.936 100.168C516.593 97.2162 515.788 94.1305 515.385 91.179C514.579 85.276 514.982 79.9096 515.385 75.4824C515.788 71.0551 516.056 67.4328 516.325 65.0179C516.459 63.8105 516.593 62.8714 516.593 62.2006C516.728 61.5298 516.728 61.2615 516.728 61.2615C516.728 61.2615 516.728 61.664 516.728 62.2006C516.728 62.8714 516.593 63.8105 516.593 65.0179C516.459 67.567 516.191 71.1893 515.922 75.4824C515.653 79.9096 515.385 85.276 516.19 91.0448C516.593 93.9963 517.399 96.9479 518.741 99.7652C520.084 102.583 522.098 105.266 524.514 107.681C529.347 112.51 534.583 116.267 538.745 120.56C540.759 122.706 542.504 124.987 543.847 127.268C545.19 129.549 545.995 131.963 546.398 134.11C547.203 138.537 546.264 142.294 545.055 144.574C544.518 145.648 543.847 146.453 543.444 146.989C542.907 147.66 542.773 147.928 542.639 147.794Z" fill="#263238"/>
<path d="M507.06 209.508C507.06 209.508 521.56 240.902 523.708 250.024C525.856 259.147 566.267 501.305 566.267 501.305L529.078 503.586L478.598 266.794L499.005 501.976L462.488 505.061C462.488 505.061 434.831 256.598 436.039 249.622C437.785 239.023 446.78 208.569 446.78 208.569L507.06 209.508Z" fill="#263238"/>
<path d="M478.464 265.319C478.464 265.319 478.464 265.587 478.195 265.722C477.927 265.856 477.256 265.99 476.718 265.587C476.181 265.185 475.913 264.38 475.779 263.441C475.644 262.502 475.51 261.563 475.242 260.489C474.57 256.196 473.631 250.293 472.691 243.719C471.751 237.146 470.811 231.243 470.274 226.95C470.006 224.937 469.737 223.193 469.603 221.851C469.469 220.644 469.469 219.973 469.469 219.973C469.469 219.973 469.603 220.644 469.871 221.851C470.14 223.193 470.409 224.937 470.677 226.95C471.348 231.243 472.288 237.146 473.228 243.719C474.168 250.293 475.107 256.196 475.644 260.489C475.779 261.563 475.913 262.502 476.047 263.441C476.181 264.246 476.316 265.051 476.718 265.453C477.121 265.856 477.658 265.856 477.927 265.722C478.33 265.453 478.464 265.319 478.464 265.319Z" fill="#455A64"/>
<path d="M474.705 224.803C474.705 224.803 474.705 224.534 475.108 224.4C475.376 224.266 475.913 223.998 476.584 224.132C477.256 224.266 478.061 224.803 478.195 225.742C478.33 226.547 477.927 227.754 476.987 228.157C476.047 228.693 474.973 228.291 474.302 227.754C473.631 227.084 473.497 226.279 473.631 225.608C473.899 224.266 474.839 223.998 474.839 224.132C474.973 224.266 474.168 224.669 474.034 225.742C474.034 226.279 474.168 226.949 474.571 227.352C475.108 227.754 475.913 228.023 476.584 227.62C477.256 227.352 477.524 226.547 477.524 225.876C477.39 225.205 476.987 224.803 476.45 224.669C475.376 224.4 474.705 224.937 474.705 224.803Z" fill="#455A64"/>
<path d="M410.381 71.0599L410.42 71.1211L410.476 71.1684L459.033 112.493L446.366 135.354L394.685 92.6048L369.631 43.3358L369.629 43.3311L363.993 31.6639L363.945 31.5665L363.862 31.4972C363.472 31.1718 363.045 30.7785 362.573 30.341C362.54 30.3098 362.506 30.2784 362.472 30.2468C362.032 29.8383 361.557 29.3973 361.052 28.956L361.052 28.956L361.048 28.9527C360.072 28.1166 358.945 27.4093 357.665 26.982C356.93 26.7146 356.079 26.4084 355.258 26.1692C354.444 25.9319 353.615 25.7467 352.936 25.7467C352.412 25.7467 352.052 25.4446 351.906 25.0858C351.76 24.7277 351.833 24.3444 352.162 24.0978C352.322 23.9776 352.675 23.8477 353.255 23.7815C353.816 23.7175 354.529 23.7198 355.349 23.8091C356.987 23.9873 359.01 24.5076 361.037 25.4867C361.581 25.7667 362.061 25.9305 362.477 25.9486C362.921 25.9681 363.312 25.8181 363.569 25.4707C363.8 25.1577 363.868 24.7551 363.872 24.3746C363.876 23.983 363.812 23.5415 363.712 23.0866C363.325 21.338 362.312 19.0618 361.767 17.8388C361.751 17.8016 361.734 17.7654 361.719 17.7302C361.184 16.4602 360.149 13.8906 359.315 11.5243C358.897 10.3382 358.534 9.21412 358.308 8.33405C358.195 7.89252 358.121 7.52675 358.089 7.25205C358.074 7.11441 358.07 7.01279 358.075 6.94305C358.076 6.91402 358.079 6.89621 358.081 6.88722L358.09 6.8665C358.224 6.57302 358.376 6.44006 358.496 6.38634C358.608 6.33627 358.758 6.32498 358.964 6.41412C359.409 6.60643 360.013 7.23365 360.531 8.46353C361.074 9.75192 362.224 12.2195 363.411 14.2872C364.002 15.3175 364.616 16.2721 365.18 16.9327C365.459 17.2599 365.75 17.544 366.042 17.7234C366.326 17.898 366.725 18.0379 367.122 17.8395L367.132 17.8346L367.141 17.8294C367.407 17.6816 367.502 17.4154 367.539 17.23C367.577 17.0336 367.574 16.8105 367.553 16.5874C367.51 16.1361 367.379 15.5589 367.197 14.9184C366.832 13.6301 366.233 11.9892 365.602 10.384C364.97 8.77546 364.3 7.18939 363.789 6.00633C363.534 5.41456 363.318 4.92309 363.165 4.57939C363.089 4.40754 363.029 4.2726 362.988 4.18051L362.94 4.07525L362.928 4.0481L362.925 4.04115L362.924 4.03935L362.924 4.03888C362.924 4.03876 362.924 4.03869 362.468 4.24461L362.924 4.03869L362.907 4.00128L362.885 3.96763L362.884 3.96749L362.884 3.96733L362.884 3.96728L362.884 3.96713L362.882 3.96406L362.872 3.94788C362.862 3.93287 362.848 3.90966 362.829 3.87922C362.792 3.81823 362.739 3.72883 362.68 3.61869C362.561 3.39603 362.421 3.09975 362.325 2.78862C362.226 2.47069 362.187 2.17953 362.225 1.94973C362.259 1.74848 362.35 1.58831 362.565 1.46855C362.684 1.4118 362.864 1.402 363.175 1.59651C363.498 1.79862 363.877 2.17406 364.294 2.71412C365.124 3.78739 366.008 5.37638 366.835 7.07914C368.484 10.4757 369.849 14.2017 370.044 14.8502C370.154 15.2313 370.411 15.4996 370.751 15.6086C371.068 15.7103 371.398 15.655 371.661 15.5295C372.183 15.2813 372.662 14.626 372.326 13.8412C372.285 13.7463 372.199 13.5621 372.08 13.3049C371.563 12.1916 370.409 9.70867 369.501 7.16232C368.942 5.5957 368.492 4.04431 368.341 2.809C368.266 2.18954 368.27 1.68366 368.354 1.30818C368.437 0.939784 368.581 0.752328 368.747 0.659772C368.761 0.652465 368.764 0.6533 368.768 0.654493C368.768 0.654705 368.769 0.654928 368.77 0.655119C368.789 0.66001 368.846 0.682396 368.939 0.76791C369.132 0.944345 369.363 1.28006 369.624 1.78498C370.141 2.78237 370.679 4.24512 371.244 5.83722C371.323 6.06052 371.403 6.28616 371.483 6.51299C371.968 7.88659 372.468 9.30361 372.977 10.5078C373.273 11.2103 373.579 11.8544 373.893 12.3842C374.201 12.9042 374.543 13.3596 374.93 13.6387C375.101 13.7621 375.3 13.8771 375.514 13.9105C375.629 13.9285 375.763 13.925 375.898 13.872C376.036 13.8179 376.141 13.7258 376.213 13.6226C376.345 13.4363 376.376 13.2122 376.385 13.0454C376.394 12.8627 376.378 12.6563 376.349 12.4418C376.246 11.6684 375.934 10.5235 375.608 9.33292C375.579 9.22559 375.55 9.11788 375.52 9.01004C375.158 7.67867 374.794 6.30178 374.642 5.20318C374.565 4.65096 374.548 4.20694 374.595 3.89044C374.645 3.55974 374.741 3.50025 374.763 3.49032L374.786 3.47935L374.808 3.466C374.928 3.39395 374.973 3.38198 374.984 3.38019C375.001 3.3863 375.111 3.43547 375.31 3.73391C375.766 4.41678 376.419 5.98827 377.429 9.35227L377.429 9.35229L377.431 9.36099C377.957 11.0033 378.724 14.6931 379.363 18.0069C379.682 19.6563 379.967 21.2014 380.172 22.3342C380.275 22.9006 380.357 23.3637 380.415 23.6853C380.443 23.846 380.465 23.9713 380.48 24.0564L380.497 24.1533L380.501 24.1779L380.503 24.1841L380.503 24.1857L380.503 24.186C380.503 24.1861 380.503 24.1862 380.995 24.1002L380.503 24.1862L380.519 24.2787L380.568 24.359L387.549 35.8967L387.553 35.9035L387.557 35.9102L410.381 71.0599ZM374.987 3.37993C374.987 3.37997 374.986 3.38002 374.985 3.37998C374.986 3.37988 374.987 3.37989 374.987 3.37993Z" fill="white" stroke="black"/>
<path d="M546.212 266.807L546.204 266.778L546.194 266.75L517.181 190.811L540.793 190.427L560.553 255.268L560.601 255.423L560.73 255.521L561.032 255.122C560.73 255.521 560.73 255.521 560.73 255.521L560.73 255.521L560.732 255.522L560.737 255.526L560.757 255.541L560.835 255.601C560.905 255.653 561.007 255.731 561.137 255.83C561.399 256.029 561.775 256.316 562.234 256.668C563.151 257.371 564.4 258.334 565.724 259.373C568.384 261.459 571.31 263.82 572.493 265.001L572.497 265.006C574.992 267.431 576.077 268.69 576.472 269.388C576.567 269.555 576.608 269.668 576.625 269.741C576.633 269.775 576.634 269.798 576.634 269.81C576.634 269.815 576.634 269.819 576.634 269.822C576.633 269.826 576.633 269.828 576.632 269.829C576.629 269.841 576.616 269.874 576.433 270.021C576.412 270.036 576.313 270.087 576.009 269.983C575.708 269.879 575.324 269.661 574.871 269.341C573.971 268.705 572.921 267.755 571.908 266.828C571.838 266.764 571.769 266.7 571.699 266.636C570.781 265.794 569.895 264.981 569.245 264.533C569.067 264.411 568.89 264.303 568.722 264.229C568.567 264.16 568.353 264.088 568.127 264.122C568.003 264.14 567.876 264.191 567.766 264.286C567.658 264.38 567.592 264.496 567.553 264.606C567.482 264.811 567.489 265.042 567.517 265.252C567.582 265.726 567.826 266.241 568.144 266.753C568.468 267.275 568.898 267.841 569.384 268.426C570.22 269.431 571.251 270.526 572.251 271.588C572.413 271.759 572.574 271.93 572.733 272.1C573.888 273.33 574.941 274.478 575.591 275.396C575.919 275.861 576.112 276.222 576.181 276.477C576.214 276.601 576.209 276.665 576.203 276.688C576.201 276.698 576.201 276.703 576.18 276.717L576.178 276.719C576.039 276.82 575.824 276.868 575.467 276.776C575.105 276.683 574.661 276.46 574.148 276.113C573.126 275.421 571.952 274.317 570.809 273.108C568.949 271.14 567.244 268.976 566.481 268.007C566.306 267.786 566.181 267.627 566.114 267.547L566.1 267.53L566.084 267.514C565.52 266.95 564.756 267.097 564.316 267.439C564.091 267.614 563.896 267.876 563.841 268.198C563.783 268.537 563.892 268.876 564.156 269.147C564.226 269.227 564.337 269.35 564.482 269.513C565.393 270.528 567.654 273.048 569.611 275.632C570.756 277.143 571.776 278.649 572.359 279.87C572.653 280.485 572.817 280.988 572.851 281.363C572.884 281.727 572.792 281.874 572.69 281.949C572.502 282.08 572.326 282.09 572.129 282.026C571.905 281.953 571.659 281.781 571.415 281.544C571.176 281.313 570.969 281.05 570.82 280.84C570.746 280.737 570.688 280.648 570.649 280.587C570.63 280.556 570.615 280.532 570.606 280.516L570.596 280.499L570.594 280.496L570.593 280.496L570.593 280.496L570.593 280.495L570.593 280.495L570.575 280.463L570.551 280.434L570.448 280.516C570.551 280.434 570.551 280.434 570.551 280.434L570.551 280.433L570.55 280.432L570.545 280.426L570.526 280.403L570.453 280.312C570.39 280.234 570.297 280.118 570.178 279.972C569.94 279.679 569.599 279.261 569.187 278.763C568.362 277.767 567.251 276.446 566.105 275.15C564.961 273.856 563.774 272.575 562.799 271.665C562.315 271.213 561.865 270.835 561.488 270.593C561.302 270.474 561.107 270.37 560.916 270.316C560.739 270.266 560.456 270.231 560.207 270.41C559.838 270.662 559.784 271.087 559.808 271.409C559.834 271.747 559.953 272.134 560.115 272.532C560.443 273.335 561.008 274.326 561.651 275.331C562.939 277.346 564.598 279.512 565.487 280.537C566.32 281.498 566.594 282.31 566.558 282.806C566.54 283.041 566.457 283.19 566.349 283.285C566.239 283.38 566.052 283.463 565.749 283.466C565.74 283.464 565.721 283.457 565.688 283.442C565.621 283.412 565.531 283.36 565.415 283.282C565.185 283.127 564.893 282.893 564.553 282.593C563.874 281.995 563.043 281.169 562.182 280.267C560.466 278.469 558.667 276.405 557.801 275.341C556.997 274.27 555.425 272.251 554.016 271.087C553.661 270.793 553.298 270.539 552.945 270.368C552.601 270.201 552.21 270.087 551.823 270.157C551.401 270.234 551.088 270.51 550.891 270.911C550.705 271.291 550.615 271.796 550.597 272.414C550.531 274.706 550.073 276.695 549.49 278.183C549.198 278.927 548.879 279.538 548.568 279.996C548.261 280.45 547.986 280.717 547.785 280.835C547.039 281.144 546.105 280.303 546.576 279.36L546.588 279.337L546.597 279.312C547.022 278.181 547.43 275.988 547.567 274.491C547.708 273.215 547.565 271.818 547.289 270.576L547.286 270.564L547.283 270.553C547.09 269.846 546.904 269.222 546.733 268.649C546.535 267.985 546.357 267.388 546.212 266.807Z" fill="white" stroke="black"/>
<path d="M469.469 112.377C469.469 112.377 461.414 109.291 457.655 107.145L418.587 77.4957L401.134 100.839C401.134 100.839 445.706 141.087 446.512 140.819C447.317 140.685 469.469 112.377 469.469 112.377Z" fill="#008D91"/>
<path d="M472.423 112.243L469.47 112.377C460.877 112.646 453.493 118.28 450.808 126.33C447.855 135.319 447.989 138.27 445.975 144.844C441.008 160.809 449.869 180.262 449.869 180.262L446.781 208.435L507.061 209.509L510.149 175.566L521.426 124.72C521.426 124.72 518.875 113.853 509.343 112.914C504.376 112.646 472.423 112.243 472.423 112.243Z" fill="#008D91"/>
<path d="M511.088 113.987C511.088 113.987 525.319 113.987 529.75 130.354C534.046 146.856 542.772 190.055 542.772 190.055L515.653 198.239L501.153 138.806C500.214 135.452 499.677 131.964 499.945 128.476C500.348 122.439 502.63 114.792 511.088 113.987Z" fill="#008D91"/>
<path d="M468.127 113.048L472.96 103.925L481.015 108.486V112.511L483.566 108.486L502.496 103.925V115.194L480.344 117.609L468.127 113.048Z" fill="#008D91"/>
<path d="M453.225 127.001C453.225 127.001 452.956 127.671 452.285 128.879C451.882 129.415 451.479 130.22 451.077 131.16C450.674 132.099 450.137 133.038 449.6 134.245C449.063 135.453 448.526 136.66 448.123 138.002C447.586 139.343 447.183 140.819 446.78 142.429C445.975 145.649 445.304 149.137 445.035 153.028C444.767 156.784 445.035 160.406 445.304 163.76C445.572 165.37 445.706 166.98 446.109 168.322C446.378 169.797 446.78 171.139 447.049 172.212C447.317 173.42 447.72 174.493 448.123 175.432C448.392 176.371 448.794 177.176 449.063 177.847C449.6 179.189 449.868 179.859 449.868 179.859C449.868 179.859 449.466 179.189 448.929 177.981C448.66 177.31 448.257 176.505 447.989 175.566C447.586 174.627 447.183 173.554 446.915 172.346C446.512 171.139 446.109 169.797 445.841 168.322C445.438 166.846 445.304 165.37 445.035 163.626C444.632 160.272 444.498 156.65 444.632 152.893C444.901 149.003 445.572 145.515 446.378 142.295C446.915 140.685 447.317 139.209 447.854 137.868C448.392 136.526 448.929 135.184 449.466 134.111C450.003 132.904 450.54 131.965 450.942 131.025C451.345 130.086 451.882 129.415 452.285 128.879C452.822 127.537 453.225 126.866 453.225 127.001Z" fill="#263238"/>
<path d="M479.538 107.815C479.673 107.815 479.404 108.888 478.867 110.633C478.33 112.242 477.525 114.657 476.719 117.072C476.585 117.475 476.45 117.877 476.316 118.28L476.182 118.682L475.779 118.414C473.765 117.206 472.02 115.731 470.946 114.657C469.872 113.584 469.335 112.779 469.335 112.779C469.469 112.645 472.02 115.328 476.048 117.743L475.511 117.877C475.645 117.475 475.779 117.072 475.913 116.67C476.853 114.121 477.659 111.84 478.33 110.23C479.001 108.754 479.404 107.815 479.538 107.815Z" fill="#263238"/>
<path d="M495.112 116.267C495.112 116.401 494.038 116.804 492.292 117.475C490.547 118.146 487.996 119.085 485.177 120.024L484.774 120.158V119.755C484.774 119.621 484.774 119.487 484.774 119.353C484.371 116.401 483.969 113.584 483.7 111.706C483.432 109.694 483.432 108.486 483.432 108.486C483.566 108.486 483.834 109.694 484.103 111.572C484.506 113.584 484.908 116.267 485.311 119.219C485.311 119.353 485.311 119.487 485.311 119.621L484.908 119.353C487.728 118.414 490.279 117.609 492.024 117.072C494.038 116.401 495.112 116.133 495.112 116.267Z" fill="#263238"/>
<path d="M505.181 197.568C505.316 197.434 507.195 199.447 507.732 202.666C508.269 205.886 507.195 208.301 507.061 208.301C506.792 208.301 507.598 205.752 507.061 202.801C506.524 199.715 504.913 197.702 505.181 197.568Z" fill="#263238"/>
<path d="M540.491 180.53C540.491 180.664 539.014 181.067 536.597 181.738C534.181 182.408 530.824 183.079 527.065 183.884C523.306 184.555 519.95 185.092 517.399 185.36C514.982 185.628 513.371 185.762 513.371 185.628C513.371 185.494 514.848 185.226 517.399 184.823C519.815 184.421 523.306 183.884 526.931 183.079C530.69 182.408 534.046 181.738 536.463 181.201C538.879 180.798 540.356 180.53 540.491 180.53Z" fill="#FAFAFA"/>
<path d="M537.403 164.163C537.403 164.297 535.926 164.833 533.375 165.638C530.824 166.443 527.333 167.382 523.574 168.321C519.681 169.261 516.19 170.066 513.639 170.736C511.089 171.407 509.612 171.81 509.478 171.675C509.478 171.541 510.954 171.005 513.505 170.2C516.056 169.395 519.547 168.456 523.306 167.517C527.199 166.577 530.69 165.772 533.241 165.102C535.791 164.431 537.268 164.028 537.403 164.163Z" fill="#FAFAFA"/>
<path d="M515.653 198.239C515.653 198.239 515.385 197.703 515.116 196.629C514.848 195.422 514.445 194.08 514.042 192.336C513.102 188.714 512.028 183.616 510.686 177.981C509.478 172.347 508.269 167.249 507.598 163.626C507.195 161.882 506.927 160.406 506.658 159.199C506.524 158.126 506.39 157.589 506.39 157.589C506.39 157.589 506.658 158.126 506.927 159.199C507.195 160.406 507.598 161.748 508.001 163.492C508.941 167.114 510.015 172.212 511.357 177.847C512.565 183.482 513.774 188.58 514.445 192.202C514.848 193.946 515.116 195.422 515.385 196.629C515.653 197.703 515.653 198.239 515.653 198.239Z" fill="#263238"/>
<path d="M535.926 151.417C535.926 151.551 515.653 151.283 490.682 150.612C465.71 149.942 445.572 149.271 445.572 149.002C445.572 148.868 465.845 149.137 490.816 149.807C515.653 150.612 535.926 151.283 535.926 151.417Z" fill="#FAFAFA"/>
<path d="M528.944 128.476C528.944 128.476 528.675 128.476 528.138 128.61C527.601 128.61 526.796 128.744 525.856 128.744C523.842 128.879 521.023 129.147 517.532 129.281C510.551 129.684 500.885 130.22 490.144 130.488C479.404 130.757 469.738 130.891 462.756 130.757C459.266 130.757 456.446 130.757 454.433 130.623C453.493 130.623 452.822 130.623 452.15 130.488C451.613 130.488 451.345 130.488 451.345 130.354C451.345 130.354 451.613 130.354 452.15 130.354C452.687 130.354 453.493 130.354 454.433 130.354C456.446 130.354 459.266 130.354 462.756 130.22C469.738 130.086 479.404 129.952 490.144 129.684C500.885 129.415 510.551 129.013 517.532 128.744C521.023 128.61 523.708 128.476 525.856 128.342C526.796 128.342 527.467 128.342 528.138 128.342C528.675 128.476 528.944 128.476 528.944 128.476Z" fill="#FAFAFA"/>
<path d="M432.281 129.55C432.147 129.415 436.712 123.915 442.619 117.207C448.392 110.499 453.359 105.133 453.493 105.267C453.628 105.401 449.063 110.901 443.156 117.609C437.249 124.317 432.415 129.684 432.281 129.55Z" fill="#FAFAFA"/>
<path d="M508 176.639C508 176.773 494.172 175.566 477.256 173.956C460.206 172.212 446.512 170.736 446.512 170.602C446.512 170.468 460.34 171.675 477.256 173.285C494.306 174.895 508 176.505 508 176.639Z" fill="#FAFAFA"/>
<path d="M508.672 195.153C508.672 195.287 495.247 195.153 478.733 194.885C462.22 194.482 448.794 194.08 448.929 193.812C448.929 193.678 462.354 193.812 478.868 194.08C495.381 194.482 508.672 195.019 508.672 195.153Z" fill="#FAFAFA"/>
<path d="M468.127 208.301C468.127 208.301 468.127 207.899 468.127 207.362C468.127 206.691 468.127 205.752 468.127 204.545C468.127 202.13 468.261 198.507 468.664 194.08C468.798 191.934 469.067 189.519 469.335 186.836C469.604 184.287 470.007 181.469 470.409 178.652C471.081 172.883 471.752 166.443 472.423 159.87C473.766 146.454 475.242 134.379 477.391 125.793C478.33 121.5 479.404 118.012 480.076 115.731C480.478 114.658 480.747 113.719 481.015 113.048C481.284 112.377 481.418 112.109 481.418 112.109C481.418 112.109 481.418 112.511 481.15 113.048C480.881 113.719 480.747 114.658 480.344 115.731C479.673 118.146 478.733 121.5 477.793 125.793C475.914 134.379 474.437 146.454 473.094 159.87C472.423 166.578 471.752 172.883 471.081 178.652C470.678 181.603 470.275 184.287 470.007 186.836C469.738 189.385 469.469 191.8 469.335 193.946C468.932 198.373 468.798 201.861 468.664 204.41C468.664 205.618 468.53 206.557 468.53 207.228C468.261 207.899 468.127 208.301 468.127 208.301Z" fill="#263238"/>
<path d="M504.645 149.002H490.011V152.759H504.645V149.002Z" fill="#FAFAFA"/>
<g opacity="0.3">
<path d="M506.927 160.541C500.349 170.468 500.751 184.421 508.001 193.946C508.941 187.641 509.881 181.335 510.686 175.164" fill="black"/>
</g>
<path d="M498.334 66.8968C500.079 70.385 499.274 74.6781 497.931 78.4345C496.723 82.191 495.112 85.9475 495.38 89.8381C495.649 93.4604 497.663 96.8144 497.931 100.437C498.468 106.608 494.575 112.109 492.964 118.012C490.95 125.659 492.964 134.245 498.2 140.148C498.737 140.684 499.408 141.355 500.213 141.355C501.153 141.355 501.824 140.416 502.093 139.477C502.227 138.538 502.093 137.599 502.093 136.66C501.287 127.939 509.745 120.829 511.088 112.109C511.893 106.474 509.477 100.839 509.208 95.0703C508.806 87.8257 511.491 80.8494 512.296 73.739C512.565 71.3241 512.699 68.7751 511.894 66.3602C511.088 64.0795 509.343 61.9329 506.926 61.2621C504.509 60.5913 501.69 61.9329 500.885 64.2137" fill="#263238"/>
<path d="M330.207 42.2476L330.207 42.2477L330.207 42.2479L330.187 42.2856L330.174 42.3267L330.65 42.4795C330.174 42.3267 330.174 42.3267 330.174 42.3269L330.174 42.3274L330.173 42.3295L330.17 42.3374L330.16 42.3683L330.122 42.4882C330.089 42.593 330.041 42.7467 329.979 42.9423C329.857 43.3336 329.684 43.8928 329.481 44.5654C329.075 45.9101 328.549 47.7105 328.069 49.5293C327.589 51.3444 327.152 53.1925 326.927 54.6275C326.816 55.3409 326.753 55.9784 326.771 56.4676C326.78 56.7096 326.81 56.9479 326.882 57.1509C326.953 57.3483 327.097 57.6001 327.391 57.7069C327.827 57.8652 328.223 57.6584 328.493 57.4394C328.775 57.2106 329.048 56.8697 329.306 56.4802C329.829 55.6942 330.375 54.584 330.89 53.3941C331.924 51.0076 332.871 48.2032 333.279 46.7759L333.282 46.7651L333.284 46.7543C333.605 45.4095 334.156 44.698 334.617 44.4432C334.838 44.3214 335.033 44.3039 335.199 44.3482C335.366 44.3929 335.557 44.515 335.737 44.7673C335.739 44.7756 335.747 44.7979 335.754 44.8405C335.767 44.9187 335.776 45.0313 335.776 45.1824C335.776 45.4841 335.742 45.8878 335.678 46.3754C335.548 47.3478 335.304 48.5976 335.012 49.9177C334.428 52.5486 333.662 55.4153 333.26 56.8208C332.792 58.2225 331.937 60.8843 331.746 62.8572C331.698 63.3555 331.69 63.8332 331.749 64.2481C331.808 64.6535 331.94 65.0651 332.232 65.3583C332.55 65.6779 332.978 65.7801 333.444 65.7053C333.888 65.6341 334.39 65.4025 334.952 65.0339C337.048 63.6593 339.173 62.8438 340.912 62.454C341.782 62.259 342.546 62.1726 343.154 62.1726C343.782 62.1726 344.181 62.2648 344.37 62.3697C344.737 62.5739 344.89 62.992 344.781 63.441C344.675 63.8784 344.324 64.2854 343.739 64.3884C342.998 64.4657 342.112 64.7547 341.25 65.1093C340.373 65.4703 339.483 65.9151 338.734 66.3233L338.731 66.3252C337.483 67.018 336.361 67.8566 335.377 68.9804C334.307 70.1833 333.349 71.2762 332.66 72.2404L332.638 72.2713L332.62 72.3052L327.116 83.1721L327.102 83.1986L327.092 83.2265L306.954 138.366L306.451 139.743L307.691 138.96L335.724 121.254L349.305 143.486L316.813 165.087L316.813 165.087C309.32 170.079 299.592 170.342 291.837 165.744L291.832 165.741C283.359 160.847 275.128 149.944 280.227 136.588L307.338 79.4535L307.49 79.1348L307.362 79.0073L313.777 66.3171L313.825 66.223L313.83 66.1178L313.331 66.0915C313.83 66.1178 313.83 66.1178 313.83 66.1177L313.83 66.1173L313.83 66.1156L313.831 66.1087L313.832 66.0814L313.838 65.9744C313.843 65.8804 313.851 65.742 313.86 65.5644C313.88 65.2093 313.909 64.6979 313.945 64.0728C314.019 62.8225 314.124 61.118 314.249 59.3007C314.502 55.6511 314.836 51.5919 315.165 49.8152L315.166 49.812C315.839 46.0437 316.333 44.2714 316.732 43.4746C316.931 43.0764 317.054 43.0311 317.062 43.0283C317.078 43.023 317.112 43.0146 317.322 43.0837C317.355 43.099 317.462 43.1763 317.548 43.5288C317.632 43.8777 317.662 44.3699 317.643 44.9799C317.607 46.1943 317.385 47.7316 317.166 49.2149C317.156 49.2811 317.146 49.3471 317.137 49.4131C316.931 50.7995 316.733 52.1419 316.729 53.0254C316.727 53.2606 316.74 53.4838 316.775 53.6777C316.808 53.8575 316.873 54.0834 317.032 54.2568C317.118 54.3517 317.233 54.4311 317.377 54.4706C317.518 54.5095 317.654 54.501 317.772 54.471C317.993 54.4151 318.191 54.2745 318.362 54.1227C318.744 53.7834 319.058 53.2571 319.328 52.6603C319.603 52.0528 319.854 51.3213 320.089 50.526C320.497 49.1437 320.868 47.5239 321.227 45.956C321.28 45.7219 321.334 45.4889 321.387 45.2581C321.8 43.4642 322.2 41.8093 322.632 40.6624C322.851 40.0822 323.06 39.6851 323.249 39.466C323.341 39.3594 323.403 39.3247 323.429 39.315L323.43 39.3147C323.441 39.3105 323.449 39.3076 323.478 39.3196L323.478 39.3196L323.486 39.3228C323.693 39.4034 323.88 39.5946 324.021 39.9861C324.163 40.3825 324.235 40.9291 324.236 41.6061C324.238 42.9563 323.959 44.6864 323.567 46.4458C323.176 48.1982 322.68 49.9503 322.265 51.3348C322.062 52.0098 321.874 52.6103 321.727 53.0781C321.588 53.523 321.486 53.8479 321.445 54.0027C321.309 54.3868 321.338 54.7619 321.505 55.0746C321.67 55.3832 321.949 55.5938 322.246 55.6969C322.542 55.7997 322.891 55.8078 323.208 55.6622C323.539 55.51 323.784 55.2128 323.885 54.8093L323.889 54.7935L323.892 54.7775C324.021 54.0676 325.021 49.8662 326.356 45.9966C327.025 44.0589 327.767 42.2368 328.512 40.9824C328.887 40.3509 329.241 39.9021 329.557 39.6488C329.866 39.4012 330.056 39.3985 330.192 39.4542L330.192 39.4543L330.202 39.458C330.483 39.566 330.614 39.7409 330.68 39.9623C330.755 40.2108 330.748 40.5347 330.679 40.8929C330.612 41.2437 330.494 41.5839 330.39 41.8411C330.338 41.9685 330.291 42.0725 330.258 42.1437C330.241 42.1793 330.228 42.2065 330.219 42.2242L330.209 42.2434L330.207 42.2473L330.207 42.2476Z" fill="white" stroke="black"/>
<path d="M396.877 60.0098L396.877 60.0119L392.221 114.389L365.639 112.315C365.587 110.517 365.589 106.96 365.604 103.726C365.612 101.966 365.625 100.306 365.635 99.0866C365.641 98.4768 365.645 97.9771 365.649 97.6298L365.653 97.2286L365.654 97.1237L365.654 97.0969L365.654 97.0901L365.654 97.0885L365.654 97.088C365.654 97.0879 365.654 97.0879 365.154 97.0825L365.654 97.0879L365.659 96.6538L365.23 96.5883L365.23 96.5883L365.23 96.5883L365.23 96.5882L365.225 96.5876L365.205 96.5842C365.186 96.581 365.157 96.5759 365.118 96.5686C365.04 96.5541 364.923 96.5309 364.773 96.4972C364.474 96.4298 364.042 96.3204 363.522 96.1536C362.48 95.8195 361.093 95.2581 359.706 94.3499C356.945 92.5431 354.173 89.3639 354.108 83.7949L354.108 83.7885C353.975 78.3216 354.777 66.8127 355.717 56.4775L355.717 56.4775L355.718 56.4728C356.635 45.2083 366.333 36.8244 377.609 37.4782C389.146 38.2656 397.926 48.3532 396.877 60.0098Z" fill="white" stroke="black"/>
<path d="M357.904 65.9576C358.039 66.2259 359.381 65.2868 361.126 65.4209C362.872 65.4209 364.08 66.4942 364.349 66.2259C364.483 66.0917 364.214 65.6892 363.677 65.2868C363.14 64.8843 362.2 64.3477 361.126 64.3477C360.052 64.3477 359.113 64.616 358.576 65.0185C358.039 65.4209 357.77 65.8234 357.904 65.9576Z" fill="#263238"/>
<path d="M374.015 66.2258C374.283 66.4942 375.491 65.4209 377.237 65.4209C378.982 65.2867 380.325 66.2258 380.459 65.9575C380.593 65.8234 380.325 65.4209 379.788 65.1526C379.251 64.7501 378.311 64.3476 377.237 64.4818C376.163 64.4818 375.223 64.8842 374.686 65.4209C374.015 65.6892 373.88 66.0917 374.015 66.2258Z" fill="#263238"/>
<path d="M368.511 76.8244C368.511 76.6902 367.437 76.556 365.692 76.2877C365.289 76.2877 364.752 76.1536 364.752 75.8852C364.618 75.6169 364.886 75.0803 365.02 74.5436C365.423 73.4704 365.826 72.2629 366.363 71.1897C368.242 66.3599 369.585 62.3352 369.316 62.201C369.182 62.0668 367.437 65.9575 365.557 70.9214C365.155 72.1288 364.752 73.2021 364.349 74.4095C364.215 74.9461 363.946 75.4828 364.081 76.1536C364.215 76.556 364.483 76.6902 364.886 76.8244C365.155 76.9585 365.423 76.9585 365.692 76.9585C367.437 76.9585 368.511 76.9585 368.511 76.8244Z" fill="#263238"/>
<path d="M373.747 78.0317C373.478 78.0317 373.478 79.91 371.867 81.2516C370.256 82.5932 368.242 82.459 368.242 82.7273C368.242 82.8615 368.645 83.1298 369.585 83.1298C370.39 83.1298 371.599 82.8615 372.673 82.0565C373.612 81.2516 374.149 80.1783 374.149 79.3733C374.015 78.4342 373.881 78.0317 373.747 78.0317Z" fill="#263238"/>
<path d="M374.418 58.0422C374.552 58.5788 376.298 58.3105 378.446 58.5788C380.459 58.8471 382.205 59.3838 382.473 58.9813C382.608 58.713 382.339 58.3105 381.668 57.908C380.996 57.5055 379.922 56.9689 378.714 56.8347C377.506 56.7006 376.298 56.8347 375.626 57.2372C374.821 57.5055 374.418 57.7739 374.418 58.0422Z" fill="#263238"/>
<path d="M358.308 58.8467C358.71 59.2492 360.053 58.8467 361.798 58.8467C363.409 58.7126 364.886 59.1151 365.154 58.7126C365.289 58.4443 365.02 58.0418 364.483 57.6393C363.812 57.2368 362.872 56.8344 361.664 56.8344C360.456 56.8344 359.516 57.2368 358.979 57.7735C358.308 58.1759 358.173 58.5784 358.308 58.8467Z" fill="#263238"/>
<path d="M385.023 47.4437C386.903 48.9194 388.111 51.066 388.38 53.3467C388.38 53.4809 388.38 53.4809 388.38 53.615C388.783 56.8348 388.783 60.1888 389.185 63.4086C389.722 66.6285 390.796 69.9824 393.213 72.2632C394.153 73.2023 395.898 73.8731 396.838 72.7998C397.106 72.3973 397.241 71.8607 397.241 71.324C397.912 63.4086 400.06 56.4324 399.926 48.2486C399.926 45.9679 398.852 43.9555 397.106 42.6139C395.361 41.4065 393.213 40.0649 391.333 41.004C389.454 41.9432 386.903 45.5655 385.426 47.0412" fill="#263238"/>
<path d="M393.964 65.6442L393.969 65.5197C393.973 65.5186 393.977 65.5176 393.982 65.5165C394.189 65.4646 394.484 65.4038 394.838 65.357C395.548 65.2631 396.463 65.2301 397.353 65.4233C398.238 65.6156 399.073 66.0255 399.676 66.7996C400.28 67.5735 400.699 68.7726 400.635 70.636C400.571 72.4954 400.061 73.7222 399.379 74.5351C398.696 75.35 397.802 75.7957 396.887 76.0204C395.968 76.246 395.047 76.2437 394.35 76.1741C394.039 76.143 393.779 76.0992 393.59 76.0588C393.592 76.0038 393.594 75.9433 393.596 75.8777C393.607 75.5516 393.623 75.1002 393.642 74.5657C393.679 73.4969 393.73 72.0968 393.78 70.7049C393.83 69.3131 393.881 67.9296 393.919 66.8941L393.964 65.6442Z" fill="white" stroke="black"/>
<path d="M395.63 73.6047C395.63 73.6047 395.764 73.7389 396.033 73.873C396.301 74.0072 396.704 74.0072 397.107 73.873C397.912 73.6047 398.718 72.2631 398.718 70.9215C398.718 70.2507 398.583 69.5799 398.449 68.9091C398.181 68.3725 397.912 67.97 397.509 67.8358C397.107 67.7017 396.838 67.97 396.704 68.2383C396.57 68.5066 396.57 68.6408 396.57 68.6408C396.57 68.6408 396.435 68.5066 396.435 68.2383C396.435 68.1042 396.57 67.8359 396.704 67.7017C396.838 67.5675 397.241 67.4334 397.509 67.5675C398.046 67.5675 398.583 68.2383 398.852 68.775C399.12 69.4458 399.255 70.1166 399.255 70.9215C399.12 72.5314 398.315 74.0072 397.107 74.2755C396.57 74.4097 396.033 74.2755 395.898 74.0072C395.63 73.7389 395.496 73.6047 395.63 73.6047Z" fill="#CECECE"/>
<path d="M391.602 42.0773C393.482 38.9917 388.246 34.4302 384.352 33.2228C380.459 32.0154 375.357 33.8936 371.598 35.101C369.181 35.906 366.765 36.9793 364.214 36.9793C362.469 36.8451 360.858 36.3085 359.247 35.7718C357.636 35.2352 355.89 34.6986 354.279 34.8327C352.534 34.9669 350.789 35.906 350.117 37.3818C349.446 38.9917 350.386 41.1382 352.131 41.4065C349.983 40.1991 346.895 41.809 346.492 44.2239C346.09 46.6387 348.64 49.0536 351.057 48.517C349.983 47.712 348.238 49.0536 348.372 50.3952C348.506 51.7368 349.715 52.8101 351.057 53.3467C354.279 54.8225 358.173 54.2858 361.529 53.2126C364.885 52.1393 368.107 50.261 371.33 49.0536C374.686 47.8462 380.325 45.6996 383.681 46.7729C386.098 47.712 387.843 50.6635 389.32 49.9927C390.662 49.3219 391.468 47.9803 391.736 46.5046C392.005 45.0288 391.871 43.5531 391.602 42.0773Z" fill="#263238"/>
<path d="M351.191 41.1384C351.191 41.1384 351.594 41.675 352.4 42.6142C353.205 43.5533 354.682 44.6266 356.696 45.4315C358.71 46.1023 361.529 46.3706 364.214 45.1632C366.899 43.9558 369.182 41.5409 371.732 39.3943C374.283 37.1136 377.505 35.5037 380.593 35.2354C383.681 34.9671 386.5 36.0404 388.111 37.7844C389.723 39.5285 389.991 41.5409 389.857 42.8825C389.857 43.5533 389.588 43.9558 389.454 44.3582C389.32 44.6266 389.186 44.7607 389.186 44.7607C389.051 44.7607 389.454 44.0899 389.454 42.8825C389.454 41.675 389.051 39.7968 387.574 38.1869C386.098 36.577 383.413 35.6379 380.593 35.9062C377.64 36.1745 374.82 37.7844 372.269 40.0651C369.719 42.2117 367.302 44.7607 364.483 45.9681C361.663 47.3097 358.71 46.9073 356.562 46.1023C354.414 45.2974 352.937 43.9558 352.131 43.0166C351.728 42.48 351.46 42.0775 351.326 41.8092C351.191 41.2726 351.191 41.1384 351.191 41.1384Z" fill="#455A64"/>
<path d="M395.495 64.8844C395.495 64.8844 395.092 64.6161 394.824 64.0795C394.555 63.4087 394.287 62.4695 394.421 61.2621C394.555 58.7131 396.838 56.0299 397.106 52.5418C397.24 50.7977 396.972 49.1878 396.301 47.8462C395.629 46.6387 394.421 45.6996 393.347 45.2971C392.273 44.8947 391.333 44.8947 390.796 44.8947C390.125 45.0288 389.856 45.163 389.856 45.0288C389.856 45.0288 390.125 44.7605 390.796 44.4922C391.467 44.358 392.542 44.2239 393.616 44.6263C394.824 45.0288 396.032 45.8338 396.972 47.3095C397.777 48.6511 398.18 50.5294 398.046 52.4076C397.912 54.2858 397.24 55.8957 396.569 57.3715C395.898 58.7131 395.361 60.0547 395.227 61.1279C394.69 63.5428 395.629 64.8844 395.495 64.8844Z" fill="#455A64"/>
<path d="M419.124 237.413L464.099 499.023L428.656 503.317L378.31 270.014L382.472 499.963H348.506L335.08 235.132L419.124 237.413Z" fill="#263238"/>
<path d="M338.437 154.101L325.817 162.016L311.452 134.379C317.762 129.818 338.035 116.804 343.136 113.45C344.479 112.645 345.821 111.84 347.164 111.304C349.58 110.231 352.668 109.426 357.77 108.755C360.992 108.352 363.543 108.084 365.154 107.95C374.686 110.901 384.084 110.901 393.616 107.95C394.69 107.95 395.764 108.084 396.838 108.218C406.236 109.56 415.365 116.134 421.004 122.305L443.425 142.429L421.407 168.724L414.56 160.674L416.171 197.702L422.615 243.853H334.947C334.947 243.853 334.812 232.986 335.618 217.826C336.692 196.629 337.9 163.492 337.9 163.492" fill="#008D91"/>
<path d="M337.498 177.444C337.632 177.444 337.766 175.163 338.035 171.407C338.303 167.65 338.572 162.418 339.109 156.649C339.646 150.88 340.048 145.782 340.451 142.026C340.854 138.269 340.988 135.989 340.854 135.989C340.72 135.989 340.317 138.269 339.78 142.026C339.243 145.782 338.572 151.015 338.169 156.649C337.632 162.418 337.498 167.65 337.363 171.407C337.363 175.029 337.363 177.444 337.498 177.444Z" fill="#263238"/>
<path d="M412.948 140.819C412.814 140.819 412.68 142.429 412.68 144.978C412.68 147.527 412.814 151.149 413.082 155.04C413.351 158.93 413.754 162.553 414.156 165.102C414.559 167.651 414.828 169.261 414.962 169.261C415.096 169.261 414.962 167.651 414.828 165.102C414.559 162.15 414.291 158.796 414.022 155.04C413.754 151.283 413.485 147.929 413.351 144.978C413.217 142.429 413.082 140.819 412.948 140.819Z" fill="#263238"/>
<path d="M405.699 145.246H391.065V149.002H405.699V145.246Z" fill="#FAFAFA"/>
<path d="M419.392 120.964C419.392 121.098 418.184 120.427 415.902 120.427C413.619 120.427 410.397 121.366 407.041 123.647C405.296 124.72 403.55 126.196 401.671 127.672C399.657 129.147 397.375 130.355 394.958 131.562C392.407 132.635 389.722 133.44 386.768 133.977C383.815 134.514 380.727 134.648 377.505 134.514C374.283 134.379 371.329 133.709 368.51 132.77C367.033 132.367 365.69 131.83 364.348 131.16C363.005 130.489 361.797 129.952 360.589 129.147C355.89 126.33 352.668 122.439 349.311 120.159C346.089 117.744 342.599 117.073 340.316 117.207C338.034 117.475 336.96 118.28 336.96 118.146C336.96 118.146 336.96 118.146 337.094 118.012C337.228 117.878 337.363 117.744 337.631 117.61C338.168 117.341 338.974 117.073 340.182 116.805C342.464 116.536 346.089 117.207 349.446 119.622C352.936 121.903 356.158 125.793 360.723 128.476C361.797 129.281 363.14 129.818 364.348 130.355C365.69 130.891 367.033 131.428 368.376 131.83C371.195 132.635 374.149 133.306 377.236 133.44C380.324 133.575 383.412 133.44 386.231 133.038C389.051 132.501 391.87 131.696 394.287 130.623C396.703 129.55 398.986 128.342 400.999 126.867C403.013 125.525 404.759 124.049 406.504 122.976C409.995 120.695 413.351 119.756 415.633 119.89C416.842 119.89 417.647 120.159 418.318 120.293C418.587 120.427 418.855 120.427 418.99 120.561C419.392 120.964 419.392 120.964 419.392 120.964Z" fill="#FAFAFA"/>
<path d="M338.571 149.271C338.437 149.405 337.631 148.063 335.886 146.588C334.946 145.783 333.872 144.978 332.53 144.173C331.187 143.368 329.576 142.697 327.831 142.16C326.086 141.624 324.34 141.356 322.863 141.221C321.252 141.087 319.91 141.087 318.702 141.355C316.285 141.624 314.942 142.16 314.942 142.026C314.942 142.026 315.211 141.892 315.882 141.624C316.553 141.356 317.493 141.087 318.702 140.953C319.91 140.685 321.387 140.685 322.998 140.685C324.609 140.819 326.354 141.087 328.099 141.624C329.845 142.16 331.456 142.965 332.798 143.77C334.141 144.575 335.349 145.514 336.155 146.454C336.557 146.856 336.96 147.259 337.229 147.661C337.497 148.063 337.766 148.332 338.034 148.6C338.437 148.868 338.571 149.137 338.571 149.271Z" fill="#FAFAFA"/>
<path d="M412.68 162.15C412.68 162.15 412.412 162.284 412.009 162.553C411.472 162.821 410.801 163.224 409.995 163.626C409.593 163.894 409.056 164.163 408.518 164.431C407.981 164.699 407.31 164.968 406.773 165.236C405.431 165.773 404.088 166.443 402.343 166.98C401.537 167.248 400.597 167.517 399.658 167.919C398.718 168.187 397.778 168.456 396.704 168.724C394.69 169.261 392.542 169.663 390.26 170.066C385.695 170.736 380.594 171.139 375.089 171.005C369.719 170.736 364.617 169.931 360.053 168.858C357.77 168.187 355.622 167.651 353.743 166.98C352.803 166.577 351.863 166.309 350.923 165.907C349.983 165.504 349.178 165.102 348.372 164.833C346.761 164.163 345.285 163.358 344.076 162.821C343.405 162.553 342.868 162.15 342.331 161.882C341.794 161.614 341.391 161.345 340.988 161.077C340.183 160.54 339.512 160.138 339.109 159.87C339.646 160.138 340.317 160.54 341.123 160.943C341.525 161.211 342.062 161.479 342.599 161.748C343.136 162.016 343.673 162.284 344.345 162.553C345.553 163.089 347.03 163.894 348.641 164.565C349.446 164.833 350.252 165.236 351.192 165.638C352.131 166.041 353.071 166.309 354.011 166.577C355.891 167.248 358.039 167.785 360.321 168.456C364.886 169.529 369.853 170.334 375.223 170.468C380.593 170.602 385.695 170.334 390.26 169.663C392.542 169.261 394.69 168.858 396.704 168.322C397.644 168.053 398.718 167.919 399.523 167.517C400.463 167.248 401.269 166.98 402.074 166.712C403.82 166.175 405.162 165.638 406.505 165.102C407.176 164.833 407.713 164.565 408.25 164.431C408.787 164.163 409.324 163.894 409.727 163.76C410.532 163.358 411.204 163.089 411.741 162.821C412.412 162.284 412.68 162.15 412.68 162.15Z" fill="#FAFAFA"/>
<path d="M436.577 139.612C436.577 139.746 434.966 139.209 432.55 139.343C429.999 139.343 426.508 140.282 423.152 142.161C419.796 144.039 417.245 146.454 415.365 148.198C413.486 149.942 412.277 151.015 412.277 151.015C412.277 151.015 413.217 149.808 415.097 147.929C416.842 146.051 419.527 143.636 422.883 141.624C426.374 139.612 429.999 138.807 432.55 138.941C433.892 138.941 434.832 139.209 435.638 139.343C436.309 139.343 436.712 139.477 436.577 139.612Z" fill="#FAFAFA"/>
<path d="M414.425 190.458C414.425 190.458 414.157 190.592 413.754 190.86C413.217 191.129 412.546 191.397 411.606 191.8C410.666 192.202 409.592 192.739 408.25 193.141C406.907 193.678 405.43 194.214 403.685 194.751C402.88 195.019 401.94 195.288 401 195.556C400.06 195.824 398.986 196.093 398.046 196.361C396.033 196.898 393.75 197.3 391.468 197.703C386.769 198.508 381.533 199.044 376.029 199.044C370.524 199.044 365.288 198.642 360.589 197.971C358.173 197.568 356.025 197.166 353.877 196.629C352.803 196.361 351.863 196.227 350.923 195.959C349.983 195.69 349.043 195.422 348.238 195.154C346.493 194.751 345.016 194.08 343.673 193.678C342.331 193.275 341.122 192.739 340.183 192.336C339.377 191.934 338.572 191.665 338.035 191.397C337.498 191.129 337.363 190.995 337.363 190.995C337.363 190.995 337.632 190.995 338.169 191.263C338.706 191.531 339.511 191.665 340.317 192.068C341.257 192.47 342.465 192.873 343.807 193.275C345.15 193.678 346.761 194.214 348.506 194.617C349.312 194.885 350.252 195.154 351.192 195.288C352.131 195.556 353.205 195.69 354.145 195.959C356.159 196.495 358.441 196.763 360.724 197.166C365.423 197.837 370.658 198.239 376.163 198.239C381.667 198.105 386.769 197.703 391.468 196.898C393.75 196.495 396.033 196.093 398.046 195.556C399.12 195.288 400.06 195.154 401 194.885C401.94 194.617 402.88 194.349 403.685 194.08C405.43 193.678 406.907 193.007 408.25 192.605C409.592 192.202 410.801 191.665 411.74 191.397C412.68 191.129 413.351 190.726 413.888 190.592C414.157 190.458 414.425 190.458 414.425 190.458Z" fill="#FAFAFA"/>
<path d="M419.528 225.608C419.528 225.608 419.259 225.608 418.722 225.608C418.051 225.474 417.245 225.474 416.305 225.34C414.157 225.071 411.204 224.669 407.445 224.266C403.685 223.864 399.121 223.461 394.153 223.327C389.186 223.059 383.681 223.059 377.909 223.059C372.136 223.193 366.631 223.596 361.664 223.998C356.696 224.535 352.266 225.071 348.507 225.608C344.748 226.145 341.794 226.681 339.646 227.084C338.706 227.218 337.901 227.352 337.229 227.486C336.692 227.62 336.424 227.62 336.424 227.62C336.424 227.62 336.692 227.486 337.229 227.352C337.901 227.218 338.572 227.084 339.646 226.815C341.66 226.413 344.748 225.742 348.507 225.206C352.266 224.535 356.696 223.998 361.798 223.461C366.765 222.925 372.27 222.657 378.043 222.522C383.816 222.388 389.32 222.522 394.422 222.791C399.389 223.059 403.954 223.461 407.713 223.998C411.472 224.401 414.56 224.937 416.574 225.206C417.514 225.34 418.319 225.474 418.99 225.608C419.125 225.474 419.528 225.608 419.528 225.608Z" fill="#FAFAFA"/>
<path d="M449.353 179.83L448.149 190.903L424.753 164.954L442.264 143.956L444.894 146.365C443.07 156.064 444.182 164.425 445.76 170.378C446.556 173.382 447.471 175.775 448.189 177.42C448.547 178.242 448.857 178.878 449.078 179.309C449.189 179.525 449.277 179.69 449.338 179.802C449.343 179.812 449.348 179.821 449.353 179.83Z" fill="white" stroke="black"/>
<path d="M111.009 42.2114C99.3285 41.943 88.1854 51.0659 86.1716 62.4694C85.0975 68.3724 86.3058 74.9462 83.4865 80.3126C79.8616 87.423 70.3295 90.777 68.1814 98.4241C66.4361 104.864 70.598 111.84 68.8527 118.28C67.5101 122.975 63.3483 126.195 61.3344 130.622C59.3206 134.915 59.7234 140.148 62.2742 144.038C64.8251 147.929 69.7925 150.21 74.3571 149.539C77.3107 149.136 79.9958 147.661 82.8152 146.721C88.9909 144.709 95.5694 145.514 101.879 146.319C108.189 147.258 114.768 148.197 121.078 146.721C127.388 145.246 133.295 140.55 134.235 134.245C134.906 130.086 133.295 126.061 131.952 122.036C123.629 95.8751 127.522 67.165 121.481 40.3331" fill="#263238"/>
<path d="M87.6489 66.3605C86.0379 64.3482 84.1583 62.3358 82.0102 60.86C79.8622 59.3843 77.1771 58.4451 74.6262 58.9818C72.0754 59.5184 69.6588 61.3966 69.1218 63.9457C68.5848 66.4947 70.5986 69.4462 73.1494 69.5804C71.1356 68.5071 68.4505 70.2512 68.0477 72.3977C67.645 74.6784 69.1218 76.825 71.2699 77.7641C73.2837 78.7032 75.7003 78.4349 77.8483 77.6299C79.9964 76.825 81.7417 75.4834 83.6213 74.0076C85.6351 72.5319 87.6489 70.922 89.6628 69.4462" fill="#263238"/>
<path d="M66.5705 142.563C66.5705 142.563 66.1677 142.429 65.4965 142.026C64.8252 141.624 64.0197 140.819 63.4827 139.477C62.9456 138.136 62.6771 136.258 63.3484 134.245C64.0197 132.233 65.3622 130.355 67.1075 128.476C68.8528 126.598 71.0009 124.72 72.4777 122.171C74.0888 119.622 74.223 116.268 73.5518 113.048C72.8805 109.828 71.6722 106.34 71.6722 102.584C71.6722 100.705 72.2092 98.693 73.2833 97.0831C74.3573 95.4732 75.9683 94.1316 77.5794 93.0583C80.9358 90.9118 84.6949 89.7043 87.6485 87.6919C89.1253 86.6187 90.4679 85.4112 91.2734 83.9355C92.2132 82.4597 92.6159 80.8498 93.0187 79.2399C93.5557 75.8859 93.4215 72.6661 93.69 69.7146C93.8242 66.7631 94.3612 63.9457 95.1668 61.3967C96.6436 56.4328 99.7314 53.213 102.148 51.6031C103.356 50.7981 104.43 50.3956 105.102 50.1273C105.504 49.9932 105.773 49.9932 105.907 49.859C106.041 49.859 106.176 49.859 106.176 49.859C106.176 49.9932 104.565 50.2615 102.282 51.8714C99.9999 53.4813 97.0463 56.7011 95.7038 61.5309C94.8983 63.9457 94.4955 66.7631 94.3612 69.7146C94.227 72.6661 94.3612 75.8859 93.8242 79.374C93.5557 81.1181 93.0187 82.728 92.0789 84.3379C91.1391 85.9479 89.7966 87.2895 88.1855 88.3627C85.0977 90.5093 81.3385 91.7167 78.1164 93.7291C76.5054 94.8024 75.0286 96.0098 73.9545 97.4856C72.8805 98.9613 72.4777 100.84 72.4777 102.584C72.4777 106.206 73.686 109.56 74.3573 112.914C74.6258 114.524 74.8943 116.268 74.7601 117.878C74.6258 119.488 74.0888 121.098 73.2833 122.439C71.6722 125.122 69.5241 127.001 67.7788 128.879C66.0335 130.757 64.6909 132.635 64.0197 134.514C63.3484 136.392 63.6169 138.27 64.0197 139.477C64.5567 140.819 65.228 141.624 65.8992 142.026C66.302 142.429 66.7048 142.563 66.5705 142.563Z" fill="#455A64"/>
<path d="M85.5006 74.678C85.3664 74.5439 86.5747 72.3973 86.7089 69.4458C86.8432 66.4943 85.7691 64.2136 86.0376 64.2136C86.1719 64.0795 87.6487 66.3602 87.5144 69.58C87.2459 72.6657 85.6349 74.8122 85.5006 74.678Z" fill="#455A64"/>
<path d="M92.4816 118.146C92.4816 118.146 92.3474 118.012 91.9446 117.609C91.6761 117.207 91.2733 116.67 90.8706 115.865C90.1993 114.255 89.9308 111.438 91.0048 108.352C91.9446 105.267 94.3612 102.181 96.6435 98.827C97.8518 97.0829 98.9258 95.2047 99.7314 93.1923C100.537 91.0458 100.805 88.7651 100.805 86.3502C100.94 81.5205 99.9999 77.0932 99.7314 72.8001C99.4629 68.6412 99.7314 64.7506 101.074 61.799C102.282 58.8475 104.028 56.8352 105.504 55.7619C106.176 55.2252 106.847 54.9569 107.25 54.6886C107.652 54.5545 107.921 54.4203 107.921 54.4203C107.921 54.5544 106.981 54.8228 105.639 55.896C104.296 56.9693 102.551 58.9817 101.477 61.9332C100.268 64.8847 99.9999 68.6412 100.403 72.8001C100.671 76.9591 101.611 81.5205 101.611 86.3502C101.611 88.7651 101.208 91.1799 100.403 93.3265C99.5971 95.473 98.3888 97.4854 97.1805 99.0953C94.7639 102.449 92.3474 105.401 91.4076 108.486C90.3335 111.438 90.4678 114.121 91.1391 115.731C91.8103 117.475 92.4816 118.146 92.4816 118.146Z" fill="#455A64"/>
<path d="M57.0385 120.963C57.0385 120.963 57.1728 121.231 57.4413 121.634C57.7098 122.036 58.1126 122.573 58.9181 122.975C59.7236 123.378 60.7977 123.78 62.006 123.646C63.2143 123.512 64.6911 122.975 65.7651 121.768C66.8391 120.561 67.6447 118.951 67.9132 117.072C68.1817 115.194 67.9132 113.182 67.3762 111.035C66.8391 108.889 66.0336 106.742 65.4966 104.461C64.9596 102.181 64.4226 99.6318 64.9596 97.0827C65.3623 94.5337 66.7049 92.253 68.316 90.5089C69.927 88.7649 71.8066 87.2891 73.5519 85.9475C75.2972 84.6059 77.0425 83.5326 78.6536 82.4594C80.2646 81.3861 81.6072 80.1787 82.6812 78.9712C84.9635 76.6905 86.3061 74.2756 86.8431 72.5316C87.3801 70.7875 87.2459 69.7142 87.3801 69.7142C87.3801 69.7142 87.5144 70.7875 87.1116 72.5316C86.7088 74.4098 85.3663 76.8247 83.084 79.2395C81.8757 80.447 80.5331 81.6544 78.9221 82.7277C77.311 83.9351 75.5657 85.0084 73.8204 86.35C72.0751 87.6916 70.3298 89.0332 68.7187 90.7772C67.2419 92.5213 65.8994 94.6679 65.4966 97.0827C64.9596 99.4976 65.4966 101.912 66.0336 104.193C66.5706 106.474 67.3762 108.62 67.9132 110.767C68.4502 112.914 68.7187 115.06 68.316 117.072C68.0474 119.085 67.2419 120.829 66.0336 122.036C64.8253 123.244 63.3485 123.915 62.006 123.915C60.6634 123.915 59.4551 123.646 58.6496 123.11C57.8441 122.573 57.3071 122.036 57.1728 121.634C57.0386 121.366 57.0386 121.231 56.9043 121.097C57.0386 120.963 57.0385 120.963 57.0385 120.963Z" fill="#263238"/>
<path d="M142.022 54.9569C143.096 61.9332 144.975 68.7753 147.929 73.0684C150.345 76.5566 155.044 78.5689 155.716 82.5937C156.253 86.0819 154.239 89.57 154.507 93.0582C155.044 98.5587 161.22 102.047 162.965 107.279C164.442 111.706 162.428 116.67 159.072 119.89C155.716 123.11 151.151 124.854 146.721 126.061C140.276 127.805 132.49 128.342 127.925 123.512C124.837 120.292 124.031 115.329 123.629 110.901C122.555 98.827 122.555 86.6185 122.689 74.41" fill="#263238"/>
<path d="M131.99 101.425V101.742H132.052L134.413 113.8C135.45 121.621 131.155 128.432 123.42 129.592C115.713 130.747 109.595 124.856 108.415 116.999L108.415 116.997L100.629 66.5594C99.1922 55.1704 107.446 44.8305 118.975 43.7831L118.978 43.7829C129.834 42.7373 139.417 50.8441 141.125 61.6081C142.603 71.275 143.803 81.0239 143.804 84.4689C143.672 94.952 137.531 98.9664 135.095 100.119L135.095 100.119L135.086 100.124C134.871 100.231 134.382 100.388 133.832 100.521C133.282 100.655 132.761 100.742 132.49 100.742V101.242H132.283H131.99V101.242V101.242V101.242V101.242V101.242V101.242V101.242V101.242V101.242V101.242V101.242V101.242V101.242V101.242V101.243V101.243V101.243V101.243V101.243V101.243V101.243V101.243V101.243V101.243V101.243V101.243V101.243V101.243V101.243V101.243V101.243V101.243V101.243V101.243V101.243V101.243V101.243V101.243V101.243V101.244V101.244V101.244V101.244V101.244V101.244V101.244V101.244V101.244V101.244V101.244V101.244V101.244V101.244V101.244V101.244V101.244V101.244V101.244V101.244V101.244V101.245V101.245V101.245V101.245V101.245V101.245V101.245V101.245V101.245V101.245V101.245V101.245V101.245V101.245V101.245V101.245V101.246V101.246V101.246V101.246V101.246V101.246V101.246V101.246V101.246V101.246V101.246V101.246V101.246V101.246V101.247V101.247V101.247V101.247V101.247V101.247V101.247V101.247V101.247V101.247V101.247V101.248V101.248V101.248V101.248V101.248V101.248V101.248V101.248V101.248V101.248V101.249V101.249V101.249V101.249V101.249V101.249V101.249V101.249V101.249V101.25V101.25V101.25V101.25V101.25V101.25V101.25V101.25V101.25V101.251V101.251V101.251V101.251V101.251V101.251V101.251V101.252V101.252V101.252V101.252V101.252V101.252V101.252V101.252V101.253V101.253V101.253V101.253V101.253V101.253V101.254V101.254V101.254V101.254V101.254V101.254V101.254V101.255V101.255V101.255V101.255V101.255V101.255V101.256V101.256V101.256V101.256V101.256V101.257V101.257V101.257V101.257V101.257V101.257V101.258V101.258V101.258V101.258V101.258V101.259V101.259V101.259V101.259V101.259V101.26V101.26V101.26V101.26V101.26V101.261V101.261V101.261V101.261V101.261V101.262V101.262V101.262V101.262V101.263V101.263V101.263V101.263V101.263V101.264V101.264V101.264V101.264V101.265V101.265V101.265V101.265V101.266V101.266V101.266V101.266V101.267V101.267V101.267V101.267V101.268V101.268V101.268V101.268V101.269V101.269V101.269V101.27V101.27V101.27V101.27V101.271V101.271V101.271V101.271V101.272V101.272V101.272V101.273V101.273V101.273V101.274V101.274V101.274V101.274V101.275V101.275V101.275V101.276V101.276V101.276V101.277V101.277V101.277V101.278V101.278V101.278V101.279V101.279V101.279V101.28V101.28V101.28V101.281V101.281V101.281V101.282V101.282V101.282V101.283V101.283V101.283V101.284V101.284V101.284V101.285V101.285V101.286V101.286V101.286V101.287V101.287V101.287V101.288V101.288V101.289V101.289V101.289V101.29V101.29V101.291V101.291V101.291V101.292V101.292V101.293V101.293V101.293V101.294V101.294V101.295V101.295V101.296V101.296V101.296V101.297V101.297V101.298V101.298V101.299V101.299V101.299V101.3V101.3V101.301V101.301V101.302V101.302V101.303V101.303V101.304V101.304V101.305V101.305V101.305V101.306V101.306V101.307V101.307V101.308V101.308V101.309V101.309V101.31V101.31V101.311V101.311V101.312V101.312V101.313V101.313V101.314V101.314V101.315V101.316V101.316V101.317V101.317V101.318V101.318V101.319V101.319V101.32V101.32V101.321V101.321V101.322V101.323V101.323V101.324V101.324V101.325V101.325V101.326V101.327V101.327V101.328V101.328V101.329V101.329V101.33V101.331V101.331V101.332V101.332V101.333V101.334V101.334V101.335V101.336V101.336V101.337V101.337V101.338V101.339V101.339V101.34V101.341V101.341V101.342V101.342V101.343V101.344V101.344V101.345V101.346V101.346V101.347V101.348V101.348V101.349V101.35V101.35V101.351V101.352V101.353V101.353V101.354V101.355V101.355V101.356V101.357V101.357V101.358V101.359V101.36V101.36V101.361V101.362V101.362V101.363V101.364V101.365V101.365V101.366V101.367V101.368V101.368V101.369V101.37V101.371V101.371V101.372V101.373V101.374V101.375V101.375V101.376V101.425Z" fill="white" stroke="black"/>
<path d="M139.471 66.2264C139.336 66.4947 137.86 65.6898 136.114 65.9581C134.369 66.2264 133.161 67.2997 132.892 67.1655C132.758 67.0314 132.892 66.6289 133.429 66.0922C133.966 65.5556 134.906 65.019 135.98 64.8848C137.054 64.7506 138.128 65.019 138.665 65.2873C139.336 65.6898 139.471 66.0922 139.471 66.2264Z" fill="#263238"/>
<path d="M123.092 69.4461C122.957 69.7144 121.481 68.9095 119.735 69.1778C117.99 69.4461 116.782 70.5194 116.513 70.3852C116.379 70.2511 116.513 69.8486 117.05 69.312C117.587 68.7753 118.527 68.2387 119.601 68.1045C120.675 67.9704 121.749 68.2387 122.286 68.507C122.957 68.9095 123.226 69.312 123.092 69.4461Z" fill="#263238"/>
<path d="M129.938 79.7763C129.938 79.6421 131.012 79.3738 132.758 78.8372C133.16 78.703 133.697 78.5688 133.697 78.3005C133.697 77.898 133.429 77.4956 133.16 76.9589C132.623 75.8857 131.952 74.8124 131.281 73.6049C128.596 68.9094 126.716 64.8846 126.851 64.8846C126.985 64.7504 129.267 68.5069 131.952 73.2025C132.623 74.4099 133.16 75.4832 133.832 76.5564C134.1 77.0931 134.503 77.6297 134.369 78.3005C134.235 78.703 133.966 78.9713 133.697 79.1055C133.429 79.2396 133.16 79.2396 132.892 79.3738C131.012 79.7763 129.938 79.9104 129.938 79.7763Z" fill="#263238"/>
<path d="M124.703 81.923C124.971 81.923 125.24 83.8012 127.119 85.0086C128.999 86.2161 131.013 85.6794 131.147 85.9478C131.147 86.0819 130.744 86.3502 129.804 86.4844C128.999 86.6186 127.656 86.4844 126.448 85.8136C125.24 85.1428 124.703 84.0695 124.568 83.2646C124.434 82.4596 124.568 81.923 124.703 81.923Z" fill="#263238"/>
<path d="M122.152 64.2135C122.018 64.7502 120.138 64.7502 118.124 65.2868C115.976 65.8234 114.365 66.6284 114.097 66.2259C113.962 66.0918 114.231 65.5551 114.768 64.8843C115.439 64.3477 116.379 63.6769 117.722 63.4086C118.93 63.1402 120.138 63.1402 120.944 63.2744C121.749 63.6769 122.152 63.9452 122.152 64.2135Z" fill="#263238"/>
<path d="M137.86 61.2621C137.591 61.6646 136.249 61.5304 134.772 61.6646C133.295 61.7988 132.087 62.3354 131.684 61.9329C131.55 61.7988 131.684 61.2621 132.221 60.8596C132.758 60.4572 133.564 59.9205 134.638 59.7864C135.712 59.6522 136.652 59.9205 137.189 60.323C137.726 60.5913 137.994 60.9938 137.86 61.2621Z" fill="#263238"/>
<path d="M136.249 67.7019C136.115 68.641 136.652 69.4459 137.591 69.5801C138.531 69.7142 139.337 69.1776 139.471 68.3727C139.605 67.4335 139.068 66.6286 138.128 66.4944C137.323 66.3603 136.383 66.8969 136.249 67.7019Z" fill="#263238"/>
<path d="M119.735 70.7878C119.601 71.7269 120.138 72.5319 121.078 72.666C122.018 72.8002 122.823 72.2635 122.957 71.4586C123.092 70.5195 122.555 69.7145 121.615 69.5804C120.675 69.4462 119.87 69.9828 119.735 70.7878Z" fill="#263238"/>
<path d="M121.832 137.672L121.795 137.687L121.791 137.689C121.771 137.694 121.738 137.701 121.69 137.708C121.587 137.725 121.441 137.74 121.253 137.753C120.88 137.78 120.374 137.797 119.776 137.806C118.582 137.825 117.049 137.812 115.532 137.787C114.016 137.762 112.52 137.724 111.403 137.693C110.844 137.677 110.381 137.663 110.057 137.653C109.991 137.651 109.93 137.649 109.876 137.647L102.03 117.851L141.489 110.173L140.333 131.859L139.885 131.998C139.388 132.153 138.677 132.374 137.823 132.64C136.113 133.173 133.826 133.886 131.518 134.607C129.211 135.328 126.882 136.058 125.088 136.624C123.312 137.184 122.023 137.596 121.832 137.672ZM121.808 137.684C121.808 137.684 121.807 137.685 121.805 137.686C121.807 137.685 121.808 137.684 121.808 137.684Z" fill="white" stroke="black"/>
<path d="M55.7636 271.184L55.7545 271.209L55.748 271.234C55.6686 271.552 55.5737 271.893 55.4723 272.256C55.2472 273.065 54.9905 273.986 54.8031 275.013C54.5214 276.287 54.5243 277.681 54.6615 278.919C54.7306 279.676 54.8678 280.6 55.0567 281.458C55.2412 282.296 55.4862 283.125 55.7913 283.665C56.0192 284.131 55.9033 284.58 55.6405 284.876C55.3669 285.185 55.0036 285.27 54.7206 285.134C54.5152 285.017 54.2274 284.745 53.9023 284.283C53.5791 283.824 53.2435 283.212 52.936 282.468C52.3212 280.98 51.8308 278.994 51.7654 276.708C51.7478 276.091 51.6573 275.586 51.4699 275.208C51.2712 274.808 50.9523 274.536 50.5264 274.469C50.139 274.409 49.7492 274.534 49.4076 274.709C49.0571 274.888 48.6955 275.15 48.3403 275.453C46.9314 276.652 45.3552 278.711 44.5558 279.776C43.7639 280.831 41.9972 282.93 40.293 284.767C39.4411 285.685 38.6135 286.528 37.9373 287.138C37.5981 287.444 37.3072 287.683 37.0767 287.841C36.9612 287.921 36.8712 287.973 36.8053 288.004C36.774 288.019 36.7548 288.025 36.7461 288.028C36.4349 288.025 36.2457 287.946 36.1375 287.857C36.0344 287.772 35.9556 287.639 35.939 287.418C35.903 286.938 36.1752 286.126 37.0198 285.087C37.9043 283.999 39.5283 281.802 40.7829 279.769C41.4082 278.755 41.956 277.76 42.2706 276.954C42.4263 276.556 42.5393 276.168 42.5604 275.83C42.5806 275.505 42.5196 275.08 42.145 274.83C41.8948 274.664 41.6179 274.692 41.4278 274.745C41.2312 274.8 41.0315 274.905 40.8414 275.027C40.4574 275.273 40.0056 275.658 39.5237 276.117C38.5542 277.041 37.387 278.34 36.2683 279.651C35.1471 280.965 34.065 282.303 33.2637 283.312C32.8629 283.817 32.5319 284.239 32.3011 284.536C32.1857 284.684 32.0953 284.801 32.0336 284.881L31.9632 284.973L31.9451 284.996L31.9404 285.002L31.9392 285.004L31.9389 285.004C31.9388 285.004 31.9388 285.004 32.3357 285.308L31.9388 285.004L31.9099 285.042L31.8888 285.084L31.8888 285.084L31.8887 285.084L31.8886 285.085L31.8886 285.085L31.8868 285.088L31.8775 285.106C31.869 285.122 31.8556 285.147 31.8377 285.18C31.8019 285.244 31.7484 285.337 31.6796 285.447C31.5406 285.668 31.3459 285.945 31.1155 286.19C30.8802 286.44 30.6384 286.624 30.4113 286.705C30.2098 286.778 30.0121 286.775 29.7847 286.631L29.7832 286.63C29.6741 286.561 29.5767 286.428 29.5966 286.074C29.6171 285.709 29.765 285.209 30.0435 284.592C30.5963 283.366 31.5864 281.84 32.7062 280.304C34.8016 277.428 37.2812 274.609 37.9699 273.825C38.0104 273.779 38.0446 273.74 38.0723 273.709C38.3355 273.439 38.4459 273.1 38.3874 272.761C38.3315 272.438 38.1326 272.176 37.8978 272.007C37.4215 271.663 36.6464 271.604 36.1136 272.243C36.0264 272.348 35.856 272.572 35.6179 272.884C34.8198 273.933 33.2616 275.98 31.53 277.878C30.4125 279.103 29.2598 280.222 28.2456 280.925C27.737 281.278 27.2921 281.505 26.9254 281.601C26.5652 281.695 26.3341 281.651 26.1737 281.542L26.1614 281.533L26.1486 281.526C26.1398 281.52 26.1345 281.516 26.1316 281.514L26.1287 281.511L26.1283 281.511C26.1281 281.51 26.1278 281.509 26.1273 281.508C26.1235 281.495 26.1134 281.442 26.1411 281.325C26.1987 281.081 26.3788 280.724 26.6987 280.256C27.3296 279.332 28.3698 278.164 29.5163 276.908C29.6882 276.72 29.8622 276.531 30.0372 276.34C31.0174 275.27 32.0279 274.168 32.8495 273.158C33.3343 272.562 33.7631 271.986 34.086 271.457C34.4028 270.939 34.6461 270.421 34.7107 269.948C34.7391 269.739 34.747 269.51 34.6773 269.307C34.6397 269.197 34.5744 269.08 34.4648 268.985C34.3527 268.888 34.2224 268.838 34.0967 268.822C33.8701 268.793 33.6574 268.871 33.5073 268.942C33.3426 269.02 33.1687 269.13 32.9939 269.256C32.3748 269.702 31.5336 270.495 30.6542 271.323C30.5583 271.414 30.4619 271.504 30.3653 271.595C29.3623 272.539 28.3167 273.504 27.4109 274.152C26.9559 274.478 26.5664 274.701 26.257 274.807C25.9551 274.911 25.8317 274.872 25.7865 274.844C25.6121 274.704 25.5999 274.672 25.5961 274.658L25.596 274.658C25.5956 274.657 25.5878 274.632 25.6036 274.562C25.6207 274.486 25.6633 274.369 25.7584 274.197C26.1545 273.482 27.2415 272.189 29.7355 269.697C30.9209 268.513 33.817 266.116 36.4424 263.997C37.7498 262.942 38.9819 261.962 39.8873 261.246C40.3399 260.888 40.7108 260.596 40.9685 260.393L41.2661 260.159L41.3439 260.099L41.3637 260.083L41.3687 260.079L41.3699 260.078L41.3702 260.078C41.3703 260.078 41.3703 260.078 41.0623 259.684L41.3703 260.078L41.4982 259.978L41.5429 259.822L60.2348 194.58H83.845L55.7636 271.184Z" fill="white" stroke="black"/>
<path d="M257.522 46.3622L257.54 46.3465L257.541 46.3451L262.23 42.4627L262.3 42.4048L262.345 42.3258C262.481 42.0893 262.627 41.8408 262.78 41.5789C263.221 40.8282 263.726 39.9679 264.228 38.9682C264.897 37.887 265.187 36.57 265.435 35.447C265.452 35.3669 265.47 35.2878 265.487 35.2099L265.489 35.2004L265.491 35.1908C265.765 33.6877 265.907 31.4861 265.764 30.3437L265.762 30.3299L265.76 30.3163C265.664 29.7909 265.898 29.3809 266.23 29.1639C266.565 28.9442 266.944 28.9472 267.21 29.1634C267.366 29.3263 267.564 29.6598 267.75 30.185C267.937 30.7129 268.098 31.3932 268.195 32.1933C268.389 33.7928 268.325 35.8419 267.738 38.059L267.738 38.0589L267.735 38.0724C267.593 38.6727 267.551 39.1837 267.635 39.598C267.723 40.0359 267.958 40.3816 268.348 40.5612C268.704 40.7256 269.112 40.7135 269.488 40.6397C269.873 40.5642 270.291 40.4109 270.712 40.218C272.372 39.4577 274.417 37.9249 275.483 37.1256L275.502 37.1114C276.56 36.3184 278.829 34.7845 280.967 33.4825C282.036 32.8314 283.062 32.2447 283.882 31.8392C284.293 31.6358 284.641 31.4839 284.909 31.3918C285.044 31.3456 285.148 31.3183 285.223 31.3054C285.264 31.2983 285.288 31.2972 285.297 31.2969C285.562 31.3735 285.709 31.4947 285.785 31.6106C285.861 31.7268 285.901 31.8905 285.855 32.1188C285.759 32.5995 285.284 33.3064 284.195 34.0107L284.186 34.0161L284.178 34.022C283.024 34.8359 280.86 36.4918 279.096 38.0843C278.218 38.8778 277.419 39.6732 276.896 40.3509C276.637 40.686 276.422 41.0229 276.309 41.3374C276.2 41.6399 276.139 42.0662 276.437 42.407C276.636 42.6338 276.913 42.6761 277.106 42.6746C277.309 42.6731 277.529 42.6247 277.745 42.5579C278.181 42.4228 278.721 42.1737 279.311 41.8613C280.498 41.2329 281.979 40.2991 283.418 39.341C284.859 38.3808 286.269 37.3878 287.319 36.6355C287.844 36.2591 288.279 35.9427 288.583 35.7202C288.735 35.6089 288.854 35.5212 288.935 35.4611L289.028 35.3924L289.052 35.3746L289.058 35.3701L289.06 35.3689L289.06 35.3686C289.061 35.3685 289.061 35.3684 288.762 34.9672L289.061 35.3684L289.096 35.3418L289.127 35.3097L289.127 35.3096L289.127 35.3094L289.127 35.3093L289.13 35.3064L289.143 35.2921C289.156 35.279 289.176 35.259 289.202 35.2334C289.254 35.1822 289.33 35.1092 289.426 35.0247C289.618 34.8539 289.878 34.6444 290.162 34.4727C290.453 34.2969 290.729 34.1847 290.961 34.1633C291.162 34.1446 291.323 34.1921 291.47 34.3532C291.544 34.448 291.593 34.6105 291.468 34.9499C291.338 35.3039 291.049 35.7497 290.607 36.27C289.728 37.3035 288.355 38.5025 286.86 39.6713C283.873 42.0057 280.505 44.1371 279.927 44.4578L279.91 44.4676L279.893 44.4789C279.57 44.6937 279.389 45.0067 279.365 45.3507C279.342 45.6765 279.463 45.9797 279.641 46.2083C279.989 46.6548 280.699 46.9656 281.373 46.5279C281.523 46.4393 281.801 46.2414 282.143 45.9952C282.263 45.9084 282.395 45.8134 282.536 45.7112C282.826 45.501 283.158 45.2604 283.526 44.9977C284.615 44.218 285.994 43.2569 287.398 42.385C288.809 41.5094 290.219 40.7402 291.378 40.3289C291.959 40.1225 292.443 40.0188 292.814 40.0194C293.18 40.0201 293.371 40.1194 293.478 40.2491L293.482 40.2542C293.495 40.2691 293.495 40.2722 293.494 40.2767C293.494 40.2774 293.494 40.2781 293.494 40.2788C293.494 40.2993 293.484 40.3597 293.421 40.4688C293.29 40.6941 293.012 40.9908 292.575 41.3534C291.713 42.0696 290.401 42.9066 288.968 43.7998C288.788 43.9116 288.607 44.0242 288.425 44.1373C287.167 44.919 285.864 45.729 284.776 46.5044C284.152 46.9489 283.587 47.3905 283.135 47.818C282.691 48.2383 282.319 48.6784 282.127 49.1251C282.042 49.3243 281.973 49.5444 281.983 49.7592C281.989 49.8741 282.017 50.0027 282.092 50.1238C282.168 50.2482 282.276 50.3359 282.393 50.3908C282.604 50.4905 282.834 50.4783 283.001 50.4535C283.183 50.4264 283.383 50.3688 283.586 50.2966C284.336 50.0311 285.417 49.464 286.536 48.8777C286.611 48.8382 286.687 48.7986 286.762 48.759C287.986 48.1182 289.253 47.4633 290.295 47.0738C290.818 46.878 291.249 46.7634 291.568 46.7393C291.904 46.7141 291.98 46.7954 291.991 46.8099L291.991 46.8099L291.997 46.8174C292.144 47.001 292.143 47.035 292.143 47.0396C292.143 47.0396 292.143 47.0442 292.14 47.0554C292.137 47.0673 292.13 47.0887 292.113 47.1207C292.077 47.1873 292.005 47.2872 291.866 47.4257C291.288 48.0029 289.879 48.9432 286.778 50.6269L286.778 50.6273C285.325 51.4191 281.892 52.9522 278.796 54.2971C277.254 54.9672 275.803 55.5871 274.739 56.0396C274.206 56.2658 273.77 56.4501 273.467 56.5778L273.118 56.7251L273.026 56.7635L273.003 56.7733L272.997 56.7757L272.996 56.7763L272.995 56.7765C272.995 56.7765 272.995 56.7765 273.189 57.2376L272.995 56.7765L272.905 56.8145L272.835 56.8839L271.627 58.0914L271.627 58.0913L271.621 58.0979L224.974 106.453L183.164 123.377L176.593 100.332C176.852 100.229 177.224 100.08 177.697 99.8906C178.67 99.5005 180.066 98.9384 181.759 98.2505C185.144 96.8747 189.715 94.9955 194.459 92.9818C199.202 90.9684 204.122 88.8191 208.202 86.9034C212.257 84.9992 215.542 83.2995 216.973 82.1849C219.815 80.0201 229.969 71.0486 239.387 62.6416C244.104 58.4318 248.644 54.3563 252.005 51.3332C253.685 49.8217 255.071 48.5732 256.036 47.7027C256.519 47.2674 256.897 46.9266 257.154 46.6946L257.447 46.4299L257.522 46.3622Z" fill="white" stroke="black"/>
<path d="M94.4958 206.289C94.4958 206.289 79.1907 230.437 77.0427 239.694C75.0289 248.012 41.5994 427.786 34.7524 465.082C34.0812 468.973 36.3635 472.595 40.1226 473.802L70.3299 482.925C74.6261 484.267 79.0565 481.584 79.9963 477.156L117.319 302.884L106.176 475.547C105.907 480.779 110.069 485.072 115.305 484.938L144.976 483.999C149.54 483.864 153.299 480.242 153.568 475.681C156.119 434.091 167.665 244.927 165.382 239.024C162.831 232.316 155.85 209.106 155.85 209.106L94.4958 206.289Z" fill="#263238"/>
<path d="M130.342 214.741C130.342 214.741 130.342 215.009 130.342 215.68C130.342 216.351 130.342 217.29 130.208 218.363C130.073 220.778 129.939 224.132 129.536 228.291C128.865 236.743 127.791 248.281 125.912 261.026C124.032 273.771 121.884 285.309 120.139 293.492C119.333 297.651 118.528 301.005 117.991 303.286C117.722 304.359 117.588 305.298 117.319 305.969C117.185 306.506 117.051 306.908 117.051 306.908C117.051 306.908 117.051 306.64 117.185 305.969C117.319 305.298 117.454 304.359 117.722 303.286C118.125 300.871 118.796 297.517 119.602 293.492C121.213 285.174 123.361 273.771 125.24 261.026C127.12 248.281 128.328 236.743 129.134 228.291C129.536 224.132 129.805 220.778 129.939 218.363C130.073 217.29 130.073 216.351 130.208 215.68C130.342 215.009 130.342 214.741 130.342 214.741Z" fill="#455A64"/>
<path d="M157.327 214.741C157.327 214.741 157.059 214.741 156.656 214.875C156.119 214.875 155.448 214.875 154.776 215.009C153.031 215.144 150.614 215.143 147.661 215.143C141.619 215.278 133.296 215.278 124.032 215.009C114.768 214.741 106.445 214.339 100.537 213.802C97.5838 213.534 95.033 213.399 93.4219 213.265C92.6164 213.131 91.9451 213.131 91.5424 212.997C91.1396 212.997 90.8711 212.863 90.8711 212.863C90.8711 212.863 91.1396 212.863 91.5424 212.863C92.0794 212.863 92.7507 212.863 93.4219 212.997C95.1672 213.131 97.5838 213.265 100.537 213.399C106.579 213.668 114.903 214.07 124.032 214.339C133.161 214.607 141.619 214.741 147.527 214.741C150.48 214.741 152.897 214.741 154.642 214.741C155.448 214.741 156.119 214.741 156.522 214.741C157.193 214.607 157.327 214.741 157.327 214.741Z" fill="#455A64"/>
<path d="M135.578 214.473C135.578 214.473 135.578 215.278 135.578 216.753C135.578 218.363 135.444 220.376 135.309 222.925C135.041 228.157 134.772 235.401 134.37 243.451C134.101 247.476 133.967 251.232 133.698 254.72C133.43 258.208 132.624 261.294 131.416 263.709C130.073 265.99 128.462 267.465 127.12 268.27C126.448 268.673 125.911 268.807 125.509 268.941C125.106 269.075 124.972 269.075 124.972 269.075C124.972 268.941 125.777 268.807 126.986 268.002C128.194 267.197 129.805 265.721 131.013 263.441C132.221 261.16 132.893 258.074 133.161 254.72C133.43 251.232 133.564 247.476 133.698 243.451C134.101 235.401 134.504 228.157 134.772 222.925C134.907 220.376 135.041 218.363 135.175 216.753C135.444 215.278 135.444 214.473 135.578 214.473Z" fill="#455A64"/>
<path d="M101.075 229.365C101.075 229.365 101.075 229.901 101.075 230.975C100.94 231.914 100.806 233.39 100.269 235.134C99.3294 238.622 97.1813 243.317 93.1537 247.074C89.126 250.83 84.2929 252.708 80.8022 253.379C79.0569 253.782 77.5801 253.782 76.6404 253.782C75.7006 253.782 75.0293 253.782 75.0293 253.648C75.0293 253.513 77.3116 253.648 80.668 252.843C84.0244 252.038 88.7233 250.159 92.6167 246.537C96.5101 242.915 98.7924 238.353 99.7322 234.999C100.806 231.511 100.806 229.231 101.075 229.365Z" fill="#455A64"/>
<path d="M165.114 254.586C165.114 254.586 164.711 254.586 164.04 254.318C163.368 254.05 162.428 253.781 161.354 253.111C160.28 252.574 158.938 251.769 157.73 250.696C156.387 249.622 155.179 248.281 153.97 246.805C152.762 245.329 151.822 243.719 151.151 242.11C150.48 240.634 149.943 239.158 149.674 237.951C149.406 236.743 149.271 235.67 149.271 234.999C149.271 234.328 149.271 233.926 149.271 233.926C149.406 233.926 149.54 235.402 150.211 237.816C150.48 239.024 151.017 240.365 151.688 241.841C152.359 243.317 153.299 244.793 154.507 246.268C155.716 247.744 156.924 248.952 158.132 250.025C159.341 251.098 160.549 251.903 161.623 252.574C163.637 253.916 165.114 254.452 165.114 254.586Z" fill="#455A64"/>
<path d="M111.278 233.657C111.278 233.657 111.278 233.925 111.278 234.194C111.278 234.596 111.143 235.267 111.009 235.938C110.741 237.548 110.472 239.828 110.069 242.646C109.264 248.549 108.056 257.001 106.31 267.465C102.954 288.394 97.9864 317.238 91.408 348.9C84.8295 380.561 78.1167 409.003 72.8808 429.53C70.1957 439.726 68.0476 448.044 66.4366 453.812C65.6311 456.63 65.094 458.91 64.557 460.386C64.2885 461.057 64.1542 461.728 64.02 462.13C63.8857 462.533 63.8857 462.667 63.8857 462.667C63.8857 462.667 63.8857 462.399 64.02 462.13C64.1542 461.728 64.2885 461.191 64.4228 460.386C64.8255 458.776 65.3625 456.63 66.1681 453.812C67.6449 448.044 69.7929 439.726 72.3438 429.53C77.4455 409.003 84.1582 380.561 90.7367 348.9C97.3152 317.238 102.417 288.394 105.773 267.599C107.519 257.135 108.861 248.683 109.667 242.78C110.069 239.828 110.472 237.682 110.741 236.072C110.875 235.267 111.009 234.73 111.009 234.328C111.278 233.925 111.278 233.657 111.278 233.657Z" fill="#455A64"/>
<path d="M114.365 48.3833C110.338 53.0789 109.264 59.921 111.412 65.6898C112.889 69.5805 115.842 73.0686 115.708 77.2275C115.439 82.3256 110.203 86.3504 110.472 91.5826C110.74 97.3514 118.259 100.974 118.259 106.877C118.259 112.78 114.634 115.06 107.787 116.268C103.356 117.073 100.94 111.572 98.6575 107.682C96.5094 103.791 95.7039 99.2296 95.3012 94.8024C94.4956 87.2895 94.3614 79.7766 94.8984 72.3978C95.3011 66.3606 96.2409 60.1893 99.3288 55.0912C102.551 49.859 108.055 45.9684 114.097 44.8951" fill="#263238"/>
<path d="M143.633 59.1157C141.485 62.4697 134.37 60.4573 130.208 58.0425C125.777 60.994 119.467 59.6524 116.38 55.2251C113.963 58.3108 108.996 57.2375 107.25 53.7494C105.505 50.2612 106.445 45.4315 108.996 42.48C111.412 39.3943 115.037 37.9186 118.662 37.2478C127.12 35.6379 136.384 38.9919 141.351 46.6389C143.633 50.1271 145.11 54.9568 143.633 59.1157Z" fill="#263238"/>
<path d="M143.768 58.4453C143.634 58.5794 142.426 56.2987 139.875 53.3472C137.324 50.3957 133.028 46.6393 127.121 45.0294C121.348 43.4194 115.575 44.4927 112.084 46.2368C108.459 47.9809 107.117 50.2616 106.982 50.1274C106.982 50.1274 106.982 49.9933 107.251 49.7249C107.385 49.4566 107.654 49.0541 108.056 48.6517C108.862 47.8467 110.07 46.7734 111.816 45.7002C115.306 43.8219 121.213 42.6145 127.255 44.3586C130.208 45.1635 132.894 46.6393 135.042 48.2492C137.19 49.8591 138.935 51.6032 140.143 53.0789C141.486 54.6888 142.291 56.0304 142.963 56.9695C143.5 57.9087 143.768 58.4453 143.768 58.4453Z" fill="#455A64"/>
<path d="M122.823 59.7861C122.689 59.7861 122.421 58.5787 121.615 56.8346C120.81 55.0906 119.333 52.6757 116.782 51.0658C114.231 49.4559 111.412 49.0534 109.532 49.3217C107.518 49.59 106.579 50.2608 106.444 50.1267C106.444 50.1267 106.713 49.8584 107.116 49.59C107.653 49.3217 108.324 48.9192 109.398 48.7851C111.412 48.3826 114.5 48.6509 117.05 50.395C119.736 52.1391 121.212 54.6881 121.884 56.5663C122.823 58.5787 122.958 59.7861 122.823 59.7861Z" fill="#455A64"/>
<path d="M101.342 117.475C101.342 117.475 83.2178 122.573 76.5051 133.842C69.6581 144.978 48.8486 223.595 48.8486 223.595L72.8802 226.278L92.8842 173.956L97.8516 190.324L94.7638 206.423L156.118 209.24L160.414 138.806L226.065 107.011L233.449 99.3635L214.385 79.2396L207.135 86.0817L141.35 110.23C141.35 110.23 143.767 129.684 126.045 132.501C107.786 135.05 101.342 117.475 101.342 117.475Z" fill="#FBBC05"/>
<path d="M151.017 143.77H136.383V147.527H151.017V143.77Z" fill="#FAFAFA"/>
<path d="M85.769 150.612C85.9033 150.612 88.7226 159.199 91.9447 169.797C95.1668 180.53 97.5834 189.25 97.4492 189.25C97.3149 189.25 94.4956 180.664 91.2735 170.065C88.0513 159.467 85.6347 150.746 85.769 150.612Z" fill="#263238"/>
<path d="M171.825 123.244C171.96 123.378 167.932 125.793 164.441 130.488C160.951 135.05 159.743 139.611 159.474 139.611C159.34 139.611 159.608 138.404 160.28 136.66C160.951 134.916 162.159 132.501 163.904 130.086C165.65 127.805 167.664 125.927 169.14 124.854C170.751 123.78 171.825 123.244 171.825 123.244Z" fill="#263238"/>
<g opacity="0.2">
<path d="M86.9769 154.369C85.5001 160.943 84.8288 167.785 84.9631 174.493C84.9631 176.103 84.9631 177.847 85.5001 179.457C86.0371 181.067 86.9769 182.543 88.4537 183.348C90.3333 180.799 92.0786 177.981 92.4813 174.762C92.6156 172.615 92.0786 170.334 91.4073 168.188C90.0648 163.358 88.588 158.528 87.2454 153.564" fill="black"/>
</g>
<path d="M103.088 113.585C106.31 115.865 107.384 120.158 107.25 124.183C107.116 128.074 105.907 131.964 105.773 135.989C105.639 139.88 106.579 144.307 109.801 146.588C115.037 144.844 120.138 143.1 125.374 141.356C122.286 139.612 121.615 135.453 122.286 131.964C122.958 128.476 124.569 125.256 124.703 121.634C125.24 112.377 118.527 104.462 115.439 100.705" fill="#263238"/>
<path d="M175.466 200.215L207.844 199.29V218.184L174.858 221.891L174.856 221.891C168.169 222.677 161.481 220.188 156.89 215.207C150.989 208.787 149.675 199.482 153.481 191.615L161.848 174.37L182.952 185.429L175.016 199.469L174.58 200.24L175.466 200.215Z" fill="white" stroke="black"/>
<path d="M204.047 110.767C198.543 101.51 196.932 89.0334 195.589 78.3007C194.918 73.2026 193.844 66.0922 197.334 62.8724C201.094 59.5184 201.496 54.2862 205.927 51.603C210.357 49.054 216.264 48.7856 220.426 51.7371" fill="#263238"/>
<path d="M234.964 129.525L234.964 129.525L234.964 129.534C234.705 137.692 227.575 143.921 219.394 143.273C211.98 142.633 208.041 135.728 208.173 128.217H208.173L208.173 128.211L208.307 105.136H208.307L208.307 105.125L207.64 62.4665C220.13 54.1746 236.203 53.1262 249.6 59.828L249.6 59.8425C249.602 60.0516 249.604 60.3599 249.607 60.7568C249.612 61.5505 249.619 62.6982 249.625 64.1136C249.635 66.9445 249.639 70.8461 249.614 75.1288C249.564 83.7002 249.396 93.7786 248.927 99.8625C248.473 105.765 245.277 108.952 242.184 110.684C240.63 111.553 239.101 112.055 237.959 112.339C237.389 112.481 236.917 112.567 236.59 112.619C236.427 112.644 236.299 112.661 236.214 112.671C236.172 112.676 236.14 112.68 236.119 112.682L236.097 112.684L236.092 112.684L236.091 112.685L236.091 112.685L236.091 112.685L235.65 112.723L235.635 113.166L236.135 113.183L235.635 113.166L235.635 113.167L235.635 113.168L235.635 113.172L235.634 113.19L235.632 113.26L235.623 113.533C235.615 113.773 235.603 114.124 235.587 114.572C235.555 115.466 235.509 116.744 235.451 118.278C235.333 121.346 235.165 125.436 234.964 129.525Z" fill="white" stroke="black"/>
<path d="M237.208 84.7406C235.06 82.1915 231.704 81.1183 228.884 82.8624C226.065 84.7406 224.991 88.7654 226.468 91.7169C227.542 93.8634 229.958 95.7416 232.509 96.2783C234.792 96.8149 236.403 98.9615 236.134 101.376C235.731 104.462 230.63 105.535 228.347 108.084C224.723 111.975 216.936 113.719 211.566 114.256C206.33 114.792 207.001 114.926 203.913 110.633C201.765 107.548 201.094 104.462 200.959 100.706C200.825 91.7169 200.691 82.7282 200.422 73.7395C200.422 70.5197 200.288 67.1657 201.094 64.08C201.899 60.8602 203.51 57.9087 206.195 56.0305C209.149 54.1523 212.908 53.8839 216.264 52.8107C220.561 51.4691 224.051 48.6517 228.079 46.6393C232.107 44.6269 236.94 43.4195 240.833 45.4319C243.652 46.9077 245.532 49.725 248.351 51.3349C252.245 53.6156 257.615 53.079 259.629 58.8478C260.3 60.8602 260.166 63.0068 259.495 65.0192C256.809 72.9346 247.009 76.0202 240.028 72.6662C239.893 74.0078 241.236 76.9593 239.759 81.2524C239.491 82.7282 239.356 84.7406 237.208 84.7406Z" fill="#263238"/>
<path d="M235.06 92.3876C235.06 92.3876 235.06 92.6559 234.926 92.9242C234.657 93.1925 234.255 93.595 233.583 93.595C232.241 93.7292 230.496 92.2534 230.361 90.241C230.361 89.3019 230.63 88.2286 231.301 87.692C231.838 87.0212 232.644 86.7529 233.181 86.6187C234.389 86.3504 235.194 86.887 235.06 86.887C235.06 87.0212 234.255 86.887 233.315 87.1553C232.375 87.4237 231.033 88.6311 231.167 90.241C231.167 91.8509 232.509 93.0584 233.449 93.0584C234.523 93.0584 234.926 92.3876 235.06 92.3876Z" fill="#7C5142"/>
<path d="M204.987 64.4824C211.566 61.6651 215.191 53.213 212.64 46.3709C210.089 39.6629 201.899 35.504 195.052 37.6505C188.205 39.7971 183.641 47.7125 185.386 54.6888C185.655 55.4937 185.923 56.4328 185.386 57.2378C184.849 58.1769 183.641 58.3111 182.701 58.5794C179.21 59.921 178.808 65.1532 181.358 67.8364C183.909 70.5196 188.071 70.9221 191.696 69.9829C190.756 73.0686 193.576 76.4226 196.932 76.8251C200.154 77.2276 203.376 75.2152 205.121 72.532C206.867 69.8488 207.538 66.4948 207.941 63.275" fill="#263238"/>
<path d="M213.312 49.5909C213.312 49.5909 213.446 49.9934 213.312 50.7984C213.312 51.6033 213.177 52.8108 212.775 54.1524C212.103 56.9697 210.492 60.7262 207.404 63.946C204.316 67.0316 200.423 68.7757 197.604 69.4465C196.261 69.7148 195.053 69.849 194.247 69.9832C193.442 69.9832 193.039 69.9832 193.039 69.9832C193.039 69.849 194.784 69.849 197.469 69.044C200.155 68.2391 203.779 66.6292 206.867 63.5435C209.955 60.4578 211.566 56.8355 212.372 54.1524C213.043 51.335 213.177 49.5909 213.312 49.5909Z" fill="#F5F5F5"/>
<path d="M199.752 38.321C199.752 38.321 199.886 38.1869 200.154 38.1869C200.423 38.1869 200.826 38.0527 201.228 38.0527C202.168 38.0527 203.645 38.4552 205.122 39.5285C205.793 40.0651 206.464 40.7359 207.001 41.675C207.538 42.6141 207.941 43.5533 208.21 44.7607C208.747 47.0414 208.478 49.5904 207.941 52.2736C206.867 57.5058 204.316 61.6648 202.168 64.348C201.094 65.6895 200.154 66.7628 199.349 67.2995C198.678 67.9702 198.275 68.2386 198.141 68.2386C198.006 68.1044 199.617 66.7628 201.631 63.9455C203.645 61.2623 205.927 56.9692 207.136 52.0053C207.673 49.4563 207.941 47.0414 207.538 44.8949C207.27 43.8216 207.001 42.8825 206.464 41.9434C205.927 41.1384 205.39 40.4676 204.719 39.931C203.377 38.8577 202.034 38.4552 201.228 38.321C200.289 38.1869 199.752 38.321 199.752 38.321Z" fill="#455A64"/>
<path d="M184.849 57.7746C184.849 57.7746 184.983 57.3721 185.251 56.8355C185.52 56.2989 186.191 55.4939 186.997 54.689C188.608 53.079 191.427 51.0667 194.918 50.53C198.543 49.9934 201.765 50.9325 203.779 52.0058C204.853 52.5424 205.524 53.079 206.061 53.4815C206.598 53.884 206.732 54.1523 206.732 54.1523C206.598 54.2865 205.524 53.3474 203.51 52.4082C201.496 51.4691 198.274 50.6642 194.918 51.2008C191.561 51.7374 188.742 53.4815 187.131 54.9573C185.654 56.5672 184.983 57.7746 184.849 57.7746Z" fill="#455A64"/>
<path d="M208.881 62.4701C209.015 62.3359 210.492 63.6775 213.177 65.4216C215.862 67.1656 219.621 69.4464 224.052 71.4587C226.334 72.3979 228.482 73.2028 230.496 73.8736C232.51 74.5444 234.389 75.081 235.866 75.081C237.477 75.081 238.685 74.6786 239.357 74.1419C240.162 73.7395 240.431 73.2028 240.431 73.337C240.431 73.337 240.296 73.8736 239.491 74.4102C238.82 74.9469 237.477 75.4835 235.866 75.6177C234.255 75.6177 232.241 75.2152 230.227 74.5444C228.214 73.8736 225.931 73.2028 223.649 72.1295C219.084 70.1172 215.325 67.8364 212.64 65.9582C211.297 65.0191 210.358 64.2141 209.686 63.5433C209.149 62.8725 208.881 62.6042 208.881 62.4701Z" fill="#455A64"/>
<path d="M205.255 47.0415C205.255 47.0415 205.121 46.5049 205.121 45.2974C205.121 44.2242 205.255 42.6142 205.927 40.736C206.598 38.8578 208.075 36.7112 210.491 35.638C211.7 35.1013 213.176 34.6988 214.653 34.833C216.13 34.9672 217.607 35.7721 218.681 36.8454C219.755 37.9187 220.56 39.2603 220.963 40.736C221.366 42.0776 221.366 43.5534 221.232 44.895C220.963 47.5781 219.889 49.7247 218.949 51.4688C217.875 53.2128 216.935 54.4203 216.264 55.2252C215.593 56.0302 215.19 56.5668 215.19 56.5668C215.19 56.5668 215.459 56.0302 216.13 55.0911C216.801 54.1519 217.607 52.9445 218.547 51.2004C219.486 49.4564 220.426 47.444 220.695 44.895C220.829 43.6875 220.695 42.3459 220.426 41.0043C220.023 39.6627 219.352 38.4553 218.278 37.5162C217.204 36.5771 215.996 35.9063 214.653 35.638C213.311 35.5038 211.968 35.7721 210.894 36.3088C208.612 37.382 207.135 39.2603 206.464 41.0043C205.658 42.7484 205.524 44.3583 205.39 45.4316C205.255 46.5049 205.255 47.0415 205.255 47.0415Z" fill="#263238"/>
<path d="M265.858 146.315L260.568 115.76L260.688 115.635C260.881 115.434 261.164 115.138 261.525 114.759C262.248 114.002 263.284 112.914 264.538 111.588C267.046 108.938 270.425 105.338 273.91 101.546C277.394 97.7544 280.985 93.7665 283.917 90.3389C286.834 86.9286 289.138 84.0277 290.008 82.4296L290.008 82.4297L290.011 82.4222C291.632 79.3183 297.179 66.9547 302.31 55.394C304.877 49.6078 307.345 44.0145 309.17 39.8679C310.082 37.7945 310.834 36.0828 311.358 34.8894C311.62 34.2927 311.825 33.8256 311.965 33.5076L312.124 33.145L312.165 33.0522L312.174 33.0302L314.855 27.5389L314.891 27.4642L314.902 27.3817C315.036 26.3041 315.171 25.0926 315.306 23.6133C315.446 22.3401 315.306 20.9331 314.884 19.6617C314.68 18.916 314.409 18.0343 314.102 17.2161C313.798 16.4078 313.446 15.6217 313.072 15.0961C312.797 14.6786 312.84 14.1922 313.066 13.8359C313.295 13.4737 313.647 13.3285 313.979 13.4389L313.986 13.4413L313.993 13.4435C314.212 13.509 314.544 13.7175 314.948 14.1256C315.343 14.5239 315.773 15.0778 316.193 15.7724C317.033 17.1609 317.817 19.0806 318.209 21.367L318.209 21.367L318.211 21.3805C318.335 21.997 318.51 22.4867 318.756 22.8346C319.016 23.2007 319.371 23.4267 319.803 23.4342C320.198 23.4411 320.566 23.2609 320.878 23.038C321.197 22.8098 321.513 22.4964 321.815 22.1458C322.829 20.971 323.875 19.1589 324.568 17.9584C324.693 17.7424 324.806 17.5462 324.905 17.3771C325.573 16.2438 327.01 13.9053 328.413 11.8364C329.115 10.8008 329.801 9.8423 330.375 9.13815C330.663 8.78489 330.913 8.50706 331.115 8.31775C331.217 8.2229 331.297 8.15928 331.356 8.12069C331.383 8.10291 331.4 8.09429 331.408 8.0907L331.411 8.09012C331.689 8.03956 331.866 8.08665 331.972 8.15369C332.077 8.21911 332.175 8.34158 332.227 8.56595C332.337 9.03976 332.204 9.87537 331.562 10.9668L331.562 10.9668L331.556 10.9775C330.879 12.1941 329.629 14.5918 328.697 16.7763C328.232 17.865 327.837 18.9232 327.636 19.7638C327.537 20.1802 327.476 20.577 327.494 20.9113C327.51 21.2243 327.607 21.6404 327.991 21.8537L328 21.859L328.01 21.8639C328.28 21.9985 328.551 21.939 328.739 21.8595C328.929 21.7788 329.114 21.6458 329.286 21.4978C329.633 21.1989 330.024 20.7508 330.433 20.2244C331.255 19.165 332.215 17.7001 333.123 16.2291C334.034 14.7547 334.901 13.2608 335.54 12.1363C335.86 11.5739 336.123 11.1033 336.307 10.7732C336.398 10.6081 336.47 10.4781 336.519 10.3893L336.574 10.2876L336.589 10.2614L336.592 10.2546L336.593 10.2529L336.594 10.2524C336.594 10.2523 336.594 10.2523 336.155 10.013L336.594 10.2523L336.61 10.2227L336.622 10.1916L336.622 10.1915L336.622 10.1914L336.622 10.1912L336.623 10.1871L336.631 10.168C336.638 10.1505 336.649 10.1237 336.664 10.0892C336.693 10.0201 336.737 9.92058 336.795 9.80258C336.911 9.56434 337.077 9.26129 337.28 8.98309C337.488 8.69878 337.709 8.47593 337.925 8.35689C338.12 8.24957 338.297 8.23016 338.499 8.32173L338.499 8.32184L338.509 8.32611C338.638 8.38159 338.755 8.50221 338.791 8.8448C338.829 9.20321 338.762 9.71193 338.583 10.3568C338.226 11.637 337.479 13.2756 336.601 14.9456C334.852 18.2755 332.649 21.6116 332.248 22.2124C332.031 22.5376 331.988 22.8998 332.098 23.2262C332.203 23.5367 332.432 23.7746 332.692 23.9175C332.953 24.0611 333.279 24.1273 333.606 24.0527C333.94 23.9766 334.233 23.7628 334.432 23.4235C334.516 23.2946 334.674 23.014 334.873 22.6577L334.928 22.5609C335.135 22.1918 335.395 21.7281 335.697 21.2023C336.355 20.056 337.208 18.6211 338.13 17.2518C339.056 15.8767 340.034 14.5925 340.94 13.7315C341.394 13.2999 341.806 12.9979 342.162 12.8365C342.509 12.6794 342.752 12.6768 342.93 12.7494C342.936 12.7662 342.95 12.8237 342.935 12.9475C342.904 13.2077 342.767 13.5945 342.512 14.1065C342.009 15.1179 341.148 16.427 340.203 17.8343C340.1 17.9891 339.995 18.145 339.889 18.3017C339.047 19.5543 338.173 20.8535 337.493 22.0224C337.11 22.6807 336.78 23.311 336.549 23.8795C336.323 24.4364 336.171 24.9848 336.192 25.4631C336.192 25.4634 336.192 25.4638 336.192 25.4641L336.692 25.4414C336.758 26.9548 338.147 25.1764 339.784 23.0819C341.485 20.906 343.452 18.389 344.478 18.8676M265.858 146.315L344.478 18.8676M265.858 146.315L307.928 101.244L330.444 38.0283L330.448 38.0187L330.981 36.4184L331.016 36.3144L331.091 36.2345L331.456 36.5766C331.091 36.2345 331.091 36.2345 331.091 36.2344L331.091 36.2341L331.093 36.233L331.097 36.2283L331.114 36.21L331.182 36.1378L331.44 35.8611C331.664 35.6214 331.987 35.2758 332.38 34.8528C333.166 34.0066 334.234 32.8506 335.366 31.611C337.637 29.1224 340.136 26.3251 341.125 25.0071L341.127 25.004C343.284 22.1752 344.172 20.7274 344.443 19.9588C344.508 19.7751 344.528 19.6546 344.531 19.5797C344.533 19.5104 344.52 19.4876 344.519 19.485C344.508 19.4646 344.476 19.4257 344.264 19.3192M265.858 146.315L344.264 19.3192M344.478 18.8676L344.255 19.3148C344.258 19.3163 344.261 19.3177 344.264 19.3192M344.478 18.8676L344.267 19.3207C344.266 19.3202 344.265 19.3197 344.264 19.3192" fill="white" stroke="black"/>
<path d="M187.132 232.45C187.132 232.45 173.707 262.77 170.887 292.821L156.656 485.474L204.048 490.438L218.011 290.675C218.011 290.675 261.509 492.316 263.12 492.316C264.866 492.316 301.249 478.766 301.249 478.766L258.421 233.389L187.132 232.45Z" fill="#455A64"/>
<path d="M288.897 127.939L269.967 103.12L269.161 103.791L239.088 122.707L207.001 123.78C207.001 123.78 184.446 123.78 175.988 141.489C175.049 143.502 156.521 180.396 156.521 180.396L185.118 190.86L189.682 177.712L195.59 207.63L187.132 232.315L258.824 236.206L252.916 200.385L258.287 157.454L288.897 127.939Z" fill="#FBBC05"/>
<path d="M239.088 185.762C239.088 185.762 239.222 186.433 239.088 187.774C238.953 189.116 238.551 190.994 237.745 193.275C236 197.702 231.838 203.337 225.259 206.691C218.681 210.045 211.834 210.581 207.135 210.313C204.718 210.179 202.839 209.911 201.496 209.776C200.154 209.508 199.482 209.374 199.482 209.374C199.482 209.24 202.436 209.776 207.135 209.776C211.834 209.776 218.412 209.24 224.857 206.02C231.167 202.8 235.463 197.434 237.208 193.141C238.953 188.713 238.819 185.762 239.088 185.762Z" fill="#263238"/>
<path d="M195.858 209.106C195.589 209.106 192.233 193.677 188.205 174.358C184.177 155.174 181.09 139.477 181.358 139.477C181.627 139.477 184.983 154.905 189.011 174.224C193.038 193.409 196.126 208.972 195.858 209.106Z" fill="#263238"/>
</svg>
