
<svg xmlns="http://www.w3.org/2000/svg" fill="none" viewBox="0 0 500 500" height="500" width="500">
<path fill="#EFEFEF" d="M251.92 456.47C346.32 456.47 422.85 446.3 422.85 433.76C422.85 421.22 346.32 411.05 251.92 411.05C157.52 411.05 80.9902 421.22 80.9902 433.76C80.9902 446.3 157.52 456.47 251.92 456.47Z"></path>
<path fill="#006366" d="M205.82 405.82L201.56 427.86C201.28 429.28 200.52 430.57 199.4 431.49C198.28 432.41 196.88 432.92 195.43 432.92H156.47C155.01 432.92 153.6 432.42 152.48 431.49C151.36 430.56 150.6 429.27 150.32 427.84C148.38 417.56 142.34 393.95 125.96 378.25L205.81 405.83L205.82 405.82Z"></path>
<path fill="#006366" d="M355.55 381.31C355.55 381.31 346.51 405.67 345.49 426.78C345.41 428.44 344.69 430 343.49 431.14C342.29 432.28 340.69 432.92 339.04 432.92H308.37C307.26 432.92 306.16 432.63 305.19 432.09C304.22 431.54 303.41 430.76 302.83 429.8L283.78 398.27L355.55 381.31Z"></path>
<path fill="#F69D94" d="M242.77 138.23C166.17 138.23 101.49 180.25 80.7498 237.85C80.4098 238.8 79.8298 239.64 79.0598 240.3C78.2898 240.95 77.3598 241.39 76.3698 241.57L50.6398 246.16C48.3898 246.56 46.3598 247.75 44.9098 249.52C43.4598 251.29 42.6898 253.52 42.7498 255.8L43.9098 307.33C43.9598 309.47 44.7198 311.54 46.0798 313.19C47.4398 314.85 49.3098 316 51.4098 316.46L80.3898 322.9C81.2598 323.09 82.0698 323.48 82.7598 324.04C83.4498 324.6 83.9998 325.31 84.3698 326.12C108.3 379.12 170.19 416.88 242.8 416.88C336.13 416.88 411.79 354.5 411.79 277.56C411.79 200.62 336.12 138.23 242.79 138.23H242.77Z"></path>
<path fill="#008D91" d="M242.77 138.23C166.17 138.23 101.49 180.25 80.7498 237.85C80.4098 238.8 79.8298 239.64 79.0598 240.3C78.2898 240.95 77.3598 241.39 76.3698 241.57L50.6398 246.16C48.3898 246.56 46.3598 247.75 44.9098 249.52C43.4598 251.29 42.6898 253.52 42.7498 255.8L43.9098 307.33C43.9598 309.47 44.7198 311.54 46.0798 313.19C47.4398 314.85 49.3098 316 51.4098 316.46L80.3898 322.9C81.2598 323.09 82.0698 323.48 82.7598 324.04C83.4498 324.6 83.9998 325.31 84.3698 326.12C108.3 379.12 170.19 416.88 242.8 416.88C336.13 416.88 411.79 354.5 411.79 277.56C411.79 200.62 336.12 138.23 242.79 138.23H242.77Z"></path>
<path fill="white" d="M288.24 167.64C287.82 167.64 287.4 167.59 286.98 167.5C285.49 167.17 284.06 166.84 282.65 166.51C272.97 163.97 262.99 162.71 252.98 162.78C242.12 162.78 231.28 163.74 220.58 165.64C218.97 165.9 217.44 166.16 215.96 166.37C215.21 166.48 214.45 166.44 213.72 166.26C212.99 166.08 212.3 165.75 211.69 165.3C211.08 164.85 210.57 164.29 210.18 163.64C209.79 162.99 209.53 162.28 209.42 161.53C209.31 160.78 209.35 160.02 209.53 159.29C209.71 158.56 210.04 157.87 210.49 157.26C210.94 156.65 211.5 156.14 212.15 155.75C212.8 155.36 213.52 155.1 214.26 154.99C215.69 154.78 217.17 154.54 218.73 154.29C230.03 152.28 241.48 151.28 252.96 151.29C263.84 151.22 274.69 152.57 285.22 155.31C286.6 155.63 288 155.95 289.46 156.28C290.84 156.59 292.07 157.39 292.89 158.54C293.72 159.69 294.09 161.11 293.93 162.52C293.78 163.93 293.11 165.23 292.05 166.18C290.99 167.13 289.62 167.65 288.21 167.65L288.24 167.64Z"></path>
<path fill="#006366" d="M138.71 131.75C140.32 138.09 141.46 144.55 142.12 151.06C142.63 157.49 142.52 163.96 141.79 170.37L177.63 158.7L138.72 131.76L138.71 131.75Z"></path>
<path fill="#008D91" d="M165.68 185.28C165.68 185.28 168.95 165.52 160.86 154.39C154.3 146.08 146.87 138.5 138.7 131.76C138.7 131.76 164.02 132.92 178.01 151.07C188.89 165.19 187.82 184.03 187.82 184.03L165.67 185.29L165.68 185.28Z"></path>
<path fill="white" d="M133.98 235.76C133.18 237.04 132.03 238.06 130.66 238.71C129.29 239.35 127.77 239.59 126.28 239.4C124.78 239.2 123.37 238.58 122.22 237.61C121.07 236.64 120.22 235.35 119.77 233.91C119.32 232.47 119.31 230.93 119.71 229.47C120.12 228.02 120.93 226.71 122.06 225.71C123.19 224.71 124.58 224.05 126.07 223.81C127.56 223.58 129.09 223.77 130.47 224.38C132.44 225.43 133.91 227.22 134.56 229.35C135.22 231.48 135 233.79 133.97 235.76H133.98Z"></path>
<path fill="#006366" d="M399.98 257.73C399.06 257.73 398.17 257.41 397.46 256.82C396.75 256.24 396.26 255.42 396.08 254.52C395.9 253.62 396.04 252.68 396.47 251.87C396.9 251.06 397.6 250.42 398.45 250.07C404.31 247.55 409.83 244.31 414.87 240.41C410.06 237.23 405.91 233.16 407.55 223.02C407.97 220.29 409.41 217.82 411.58 216.1C413.75 214.38 416.48 213.54 419.24 213.76C424.86 214.09 430.7 218.45 431.1 227.48C431.19 230.97 430.25 234.41 428.39 237.36C432.03 237.82 435.73 237.15 438.99 235.45C444.75 232.24 447.65 225.42 447.61 215.19C447.61 214.67 447.71 214.15 447.91 213.66C448.11 213.18 448.4 212.74 448.77 212.36C449.14 211.99 449.58 211.69 450.06 211.49C450.54 211.29 451.06 211.18 451.59 211.18H451.6C452.65 211.18 453.67 211.6 454.41 212.34C455.16 213.08 455.58 214.09 455.58 215.15C455.63 231.77 448.7 239.14 442.88 242.39C436.63 245.64 429.36 246.33 422.61 244.31C416.33 249.79 409.2 254.23 401.51 257.44C401.02 257.64 400.51 257.74 399.99 257.74M418.56 221.7C417.81 221.66 417.06 221.9 416.48 222.38C415.9 222.86 415.52 223.55 415.43 224.3C414.43 230.47 415.98 231.75 420.65 234.64C422.23 232.72 423.12 230.32 423.15 227.83C422.96 223.5 420.77 221.83 418.79 221.72H418.57"></path>
<path fill="#006366" d="M75.7899 315.86C74.2199 313.89 71.9699 312.57 69.4899 312.16L43.8799 306.59L43.9099 307.33C43.9299 308.76 44.2799 310.17 44.9199 311.45C45.5699 312.73 46.4999 313.84 47.6399 314.71C50.0999 316.27 52.9099 317.19 55.8199 317.39L80.8999 322.85C79.0999 320.54 77.3899 318.22 75.7899 315.87"></path>
<path fill="#006366" d="M334.22 160.38C369.27 185.91 391.37 223.23 391.37 264.82C391.37 341.77 315.71 404.14 222.38 404.14C190.53 404.33 159.12 396.72 130.89 381.97C160.69 403.69 199.86 416.88 242.76 416.88C336.09 416.88 411.75 354.5 411.75 277.56C411.75 228.41 380.86 185.19 334.21 160.39L334.22 160.38Z"></path>
</svg>
