<svg xmlns="http://www.w3.org/2000/svg" width="547" height="350" fill="none" viewBox="0 0 547 350">
  <g clip-path="url(#a)">
    <path fill="#EBEBEB" d="M59.108 279.671c3.305-1.731 7.162-1.888 10.861-1.337 1.968.314 4.014.944 5.352 2.36 1.338 1.494 1.574 4.091.079 5.349-.945.787-2.204.866-3.385.866-2.833 0-6.06-.551-8.342 1.18-1.338.944-2.204 2.596-3.7 3.068-1.495.472-3.226-.394-4.092-1.81-.787-1.337-.866-3.068-.472-4.641 0 .079.393-3.304 3.699-5.035Zm-7.478-14.554c2.047 2.911 5.904 1.888 7.714.157 1.81-1.73 2.597-4.326 3.305-6.686 1.575-5.507 3.227-11.329 2.047-16.993-.394-1.652-1.023-3.383-2.204-4.642-1.18-1.258-2.99-1.966-4.644-1.573-1.967.551-3.227 2.439-4.092 4.327-2.598 5.428-4.014 11.407-4.014 17.386-.079 2.832.315 5.743 1.889 8.024Zm-5.587 4.17c2.203-2.597 2.597-6.373 1.652-9.598-.944-3.226-3.148-5.979-5.666-8.26a30.651 30.651 0 0 0-10.232-6.058c-1.495-.551-3.07-.944-4.565-.787-1.574.158-3.148.944-3.857 2.36-1.101 2.046-.078 4.563 1.102 6.53 1.968 3.54 4.172 7.002 6.69 10.227 2.047 2.596 4.33 5.114 7.399 6.294 3.07 1.18 6.217 1.022 7.87-1.102"/>
    <path fill="#E0E0E0" d="M51.473 308.464s.079-.472.158-1.337c.078-.944.236-2.124.315-3.54.157-1.495.393-3.305.787-5.193.393-1.966 1.102-4.012 1.889-6.136.865-2.124 1.889-4.012 3.148-5.585 1.259-1.574 2.676-2.675 4.014-3.305 1.338-.629 2.518-.944 3.384-1.022a20.1 20.1 0 0 0 1.338-.158s-.472-.078-1.338 0c-.866.079-2.125.236-3.463.944-1.417.63-2.912 1.731-4.171 3.305-1.26 1.573-2.361 3.54-3.306 5.664-.866 2.203-1.495 4.327-1.889 6.293-.393 1.967-.55 3.777-.708 5.271-.079 1.495-.158 2.754-.158 3.619-.078.708-.078 1.18 0 1.18Z"/>
    <path fill="#E0E0E0" d="M51.71 305.711v-2.36c0-1.495 0-3.698.078-6.373.158-5.349.63-11.171 1.496-19.274.865-7.631 1.967-16.599 3.148-22.421.236-1.337.55-2.517.787-3.54.236-1.022.393-1.966.63-2.674.157-.709.314-1.259.393-1.653.079-.393.157-.629.079-.629 0 0-.079.157-.236.551a22.616 22.616 0 0 0-.473 1.652c-.236.708-.472 1.652-.708 2.675-.236 1.022-.55 2.202-.866 3.54-1.18 5.271-2.44 12.587-3.384 20.769-.866 8.181-1.338 15.576-1.338 21.004 0 2.675 0 4.878.079 6.373.078.708.078 1.258.078 1.73.158.472.236.63.236.63Z"/>
    <path fill="#E0E0E0" d="M51.71 291.393v-1.81a57.346 57.346 0 0 0-.552-4.877c-.314-2.046-.865-4.484-1.574-7.159-.315-1.18-1.102-4.091-2.99-8.418-2.44-5.9-5.825-10.699-8.816-13.688-.708-.787-1.416-1.338-2.046-1.888-.315-.236-.63-.551-.866-.708-.314-.236-.55-.394-.787-.551-.944-.629-1.495-1.023-1.495-.944-.079.078 2.125 1.416 4.958 4.484 2.834 2.989 6.06 7.788 8.58 13.61 1.337 3.147 2.36 5.979 2.99 8.339a70.208 70.208 0 0 1 1.732 7.08c.393 2.046.63 3.698.708 4.878a38.79 38.79 0 0 0 .157 1.652Zm-13.853 25.331 1.417 19.668h25.343l1.417-19.668H37.857Zm31.246-7.788H35.417v7.788h33.686v-7.788Z"/>
    <path fill="#EBEBEB" d="M35.417 335.684v2.124h33.135v-2.124H35.417Z"/>
    <path fill="#E0E0E0" d="m38.566 341.584-1.575-3.776h30.302l-1.81 3.776H38.566Z"/>
    <path fill="#F5F5F5" d="M65.561 323.175s0 .079-.157.158c-.079.157-.236.314-.393.472-.394.472-.866 1.101-1.496 1.888l-.078.079-.08-.079a167.75 167.75 0 0 1-3.62-5.035h.236c-1.101 1.495-2.282 3.225-3.541 5.035l-.079.157-.157-.157c-1.338-1.574-2.755-3.304-4.25-5.035h.236a1.05 1.05 0 0 0-.236.315 489.75 489.75 0 0 0-3.778 4.72l-.158.157-.078-.157c-1.26-1.81-2.519-3.54-3.542-5.035h.236c-1.732 1.967-3.227 3.697-4.408 5.035l-.078.079v-.079c-.551-.944-1.023-1.731-1.338-2.282-.158-.236-.236-.472-.315-.629-.079-.157-.079-.236-.079-.236l.158.157c.078.158.236.315.393.63.315.55.866 1.337 1.417 2.281h-.158c1.102-1.337 2.598-3.068 4.33-5.035l.078-.157.079.157c1.102 1.495 2.282 3.226 3.62 5.035h-.236a489.75 489.75 0 0 1 3.778-4.72c.079-.079.157-.236.236-.315l.157-.157.158.157c1.495 1.731 2.912 3.462 4.25 5.035h-.236c1.338-1.809 2.518-3.54 3.62-5.035l.079-.157.079.157c1.416 2.046 2.676 3.776 3.541 5.035h-.157c.63-.786 1.18-1.416 1.495-1.809.158-.158.315-.315.394-.472l.078-.158Zm.866-6.608c0 .079-6.375.157-14.167.157-7.791 0-14.167-.078-14.167-.157s6.375-.157 14.167-.157 14.167.078 14.167.157Zm1.26 21.477c0 .079-6.926.157-15.427.157-8.5 0-15.426-.078-15.426-.157s6.926-.157 15.426-.157c8.58 0 15.427.078 15.427.157Z"/>
    <path fill="#FAFAFA" d="M381.012 206.98H244.459v84.491h136.553V206.98Z"/>
    <path fill="#EBEBEB" d="M348.035 268.028c-9.445-3.619-20.385 6.372-29.672 2.281-5.431-2.36-7.87-8.496-10.468-13.688-2.676-5.271-7.241-10.778-13.065-10.227-5.903.629-10.704 7.473-16.371 5.821-3.62-1.022-5.43-5.035-6.296-8.653-.866-3.619-1.495-7.631-4.25-10.227-2.755-2.518-8.5-1.889-8.894 1.888v44.763h106.803c-.078 0-14.481-10.699-17.787-11.958Z"/>
    <path fill="#E0E0E0" d="M368.656 279.986c0 .078-25.894.157-57.77.157-31.954 0-57.848-.079-57.848-.157 0-.079 25.894-.158 57.848-.158 31.876 0 57.77.079 57.77.158Zm0-19.589c0 .079-25.894.157-57.77.157-31.954 0-57.848-.078-57.848-.157s25.894-.157 57.848-.157c31.876 0 57.77.078 57.77.157Zm0-19.51c0 .079-25.894.157-57.77.157-31.954 0-57.848-.078-57.848-.157s25.894-.158 57.848-.158c31.876 0 57.77.079 57.77.158Zm0-18.645c0 .079-25.894.157-57.77.157-31.954 0-57.848-.078-57.848-.157s25.894-.157 57.848-.157c31.876 0 57.77.078 57.77.157ZM349.688 13.531s12.042.158 6.847 23.995c-5.116 23.836-4.486 28.32-4.486 37.761 0 11.014 8.894 15.026 8.894 15.026h-16.292l-12.042-55.62V13.531h17.079Z"/>
    <path fill="#E0E0E0" d="M353.23 201.08H188.421l1.416-161.194 155.286-8.103 8.107 169.297Z"/>
    <path fill="#EBEBEB" d="M347.563 196.91H182.754l1.416-161.194 160.087-3.068 3.306 164.262Z"/>
    <path fill="#FAFAFA" d="M344.1 192.426H179.684V31.232l164.573-.393-.157 161.587Z"/>
    <path fill="#263238" d="M344.1 192.426c0-1.494 0-64.666-.079-161.509l.157.158c-47.695.157-104.127.236-164.336.393h-.236l.236-.236v161.194l-.158-.157c98.539.079 162.92.157 164.416.157-1.496 0-65.955.079-164.494.158h-.158V30.996h.472c60.21-.157 116.642-.236 164.337-.393h.158v.157c-.158 97-.315 160.172-.315 161.666Z"/>
    <path fill="#F5F5F5" d="M344.257 30.445c-8.5-9.912 1.338-17.229 4.722-17.386l-156.623-.079c-8.186 0-14.403 7.395-12.987 15.42.237 1.259.63 2.439.63 2.439"/>
    <path fill="#263238" d="M348.35 90.313h3.305c2.204 0 5.352 0 9.288-.079v.236c-1.338-.393-2.598-1.101-3.778-2.203-1.181-1.022-2.125-2.438-2.834-4.012-.708-1.573-1.259-3.304-1.652-5.113-.237-.944-.394-1.888-.551-2.832a61.854 61.854 0 0 1-.237-1.495c-.078-.472-.078-1.023-.078-1.495-.079-2.045.078-4.09.236-6.293.157-2.124.393-4.327.63-6.609.55-4.484 1.18-9.125 1.967-13.924.315-2.046.709-4.091 1.102-6.058.315-1.967.551-3.933.866-5.9.236-1.967.472-3.855.708-5.664.079-.944.236-1.888.236-2.754 0-.944 0-1.81-.157-2.674-.236-1.731-.708-3.462-1.496-4.957-.708-1.494-1.731-2.832-2.99-3.776a5.903 5.903 0 0 0-4.25-.944c-1.417.236-2.755.708-3.778 1.574a10.129 10.129 0 0 0-2.361 2.91c-.551 1.102-.945 2.124-1.181 3.226-.472 2.124 0 3.933.63 5.35.629 1.415 1.259 2.36 1.731 2.989.236.315.394.55.551.708.157.157.157.236.157.236l-.236-.236c-.157-.158-.314-.393-.551-.708-.472-.63-1.18-1.574-1.81-2.99-.629-1.337-1.18-3.304-.708-5.428.236-1.101.551-2.203 1.18-3.304.551-1.101 1.338-2.203 2.44-3.068 1.102-.865 2.44-1.416 3.936-1.652 1.495-.236 3.148.079 4.486 1.022 1.338.945 2.361 2.36 3.148 3.855.787 1.574 1.259 3.226 1.574 5.035.158.866.158 1.81.158 2.754s-.158 1.888-.237 2.753c-.236 1.888-.393 3.776-.708 5.743-.236 1.967-.472 3.933-.866 5.9-.315 1.967-.787 4.012-1.102 6.058-.787 4.799-1.495 9.44-2.046 13.924-.236 2.203-.472 4.406-.63 6.53-.157 2.124-.314 4.248-.236 6.215 0 .472.079 1.023.079 1.495 0 .472.157.944.236 1.416.158.944.394 1.888.551 2.832.394 1.81.945 3.54 1.653 5.113.708 1.574 1.574 2.911 2.755 3.934a9.257 9.257 0 0 0 3.699 2.124l.787.236h-.787c-3.936 0-7.084-.079-9.288-.079h-3.069c-.394.079-.472.079-.472.079ZM246.977 18.015c.079.079-.393.708-.865 1.81-.237.55-.473 1.258-.63 2.045-.157.787-.157 1.73-.157 2.596.078.944.314 1.81.55 2.596a9.24 9.24 0 0 0 .866 1.967c.63 1.023 1.181 1.573 1.102 1.652 0 0-.157-.079-.393-.315-.237-.236-.63-.629-.945-1.18-.393-.55-.708-1.18-1.023-1.966-.315-.787-.472-1.731-.551-2.675-.079-.944 0-1.888.157-2.754.158-.786.394-1.573.709-2.124.236-.55.551-1.022.787-1.258.236-.315.315-.472.393-.394Z"/>
    <path fill="#263238" d="M243.042 12.43c.079.079-1.023.787-2.046 2.517-1.102 1.652-2.047 4.484-1.496 7.553.551 3.068 2.519 5.35 4.093 6.53 1.653 1.258 2.912 1.572 2.834 1.651 0 0-.315-.079-.866-.236-.551-.157-1.338-.55-2.125-1.18-1.732-1.18-3.699-3.461-4.329-6.687-.551-3.147.472-6.057 1.653-7.788.551-.865 1.18-1.495 1.574-1.888a4.44 4.44 0 0 1 .708-.472Zm87.914 125.793h-7.32c-5.037 0-12.356 0-21.407.078-18.103 0-42.974 0-70.52.079h-30.538v-.157c0-20.14.079-37.447.079-49.798 0-6.136.078-11.014.078-14.397v-4.877 4.877c0 3.383 0 8.26.079 14.397 0 12.272.079 29.658.079 49.798l-.158-.158h30.381c27.546 0 52.496.079 70.52.079 9.051 0 16.292.079 21.407.079h7.32Z"/>
    <path fill="#008D91" d="M225.097 121.073h-13.144v13.138h13.144v-13.138Zm19.283-9.362h-13.144v22.499h13.144v-22.499Zm19.361-10.699h-13.143v33.199h13.143v-33.199Zm18.732-11.879H269.33v45.078h13.143V89.133Zm19.204-15.183h-13.143v60.339h13.143v-60.34Zm19.047-11.644h-13.143v71.275h13.143V62.307Z"/>
    <path fill="#263238" d="m211.953 107.62.158-.157c.157-.079.315-.236.551-.315.472-.314 1.18-.786 1.967-1.337 1.811-1.18 4.329-2.832 7.556-4.956 6.454-4.249 15.584-10.149 26.13-17.072l.315-.236v6.294l-.315-.157c3.306-2.203 6.769-4.563 10.311-6.923 14.167-9.44 26.996-18.016 36.283-24.23 4.643-3.069 8.421-5.586 11.019-7.317 1.259-.865 2.282-1.495 2.99-1.967.315-.236.63-.393.787-.472.158-.078.237-.157.315-.157 0 0-.078.079-.236.157-.157.158-.472.315-.787.55-.708.473-1.653 1.181-2.991 2.046-2.597 1.731-6.375 4.327-10.94 7.395-9.287 6.215-22.116 14.869-36.204 24.31-3.542 2.36-6.926 4.64-10.311 6.922l-.314.236v-6.293l.314.157c-10.546 6.844-19.676 12.745-26.209 16.914a780.725 780.725 0 0 0-7.634 4.878c-.866.55-1.574.944-2.046 1.258-.236.158-.394.236-.551.315-.079.157-.158.157-.158.157Z"/>
    <path fill="#263238" d="M309.942 54.203c-.079 0-.079-.629-.158-1.652 0-1.022-.079-2.438-.079-3.933l.237.236h-.473c-1.652 0-3.227 0-4.328-.079-1.102 0-1.811-.078-1.811-.157s.709-.079 1.811-.157c1.101 0 2.597-.08 4.328-.08h.709v.237c0 1.573 0 2.99-.079 3.933-.079 1.023-.157 1.652-.157 1.652Zm-69.497 94.64c0 .079-4.093.236-9.051.236-5.037 0-9.051-.078-9.051-.236 0-.078 4.092-.236 9.051-.236 4.958 0 9.051.079 9.051.236Zm-9.287 6.215c-.079 0-.236-.944-.236-2.124 0-1.18.078-2.124.236-2.124.078 0 .236.944.236 2.124-.079 1.18-.158 2.124-.236 2.124Zm22.194 2.124c0 .079-10.94.236-24.398.236-13.459 0-24.399-.078-24.399-.236 0-.078 10.94-.236 24.399-.236 13.537 0 24.398.079 24.398.236Zm-48.403 6.058c-.079 0-.236-1.338-.236-2.911 0-1.652.078-2.911.236-2.911.157 0 .236 1.338.236 2.911s-.079 2.911-.236 2.911Zm17.315-.708c-.079 0-.236-1.102-.236-2.518 0-1.416.079-2.517.236-2.517.079 0 .236 1.101.236 2.517s-.079 2.518-.236 2.518Z"/>
    <path fill="#263238" d="M240.13 162.846c-.079 0-.236-1.258-.236-2.753 0-1.573.079-2.753.236-2.753.079 0 .236 1.258.236 2.753-.079 1.573-.157 2.753-.236 2.753Zm13.537 0c-.078 0-.236-1.258-.236-2.832 0-1.573.079-2.832.236-2.832.158 0 .236 1.259.236 2.832 0 1.574-.078 2.832-.236 2.832Zm-42.658 1.967c0 .079-2.597.236-5.903.236-3.227 0-5.903-.079-5.903-.236 0-.079 2.598-.236 5.903-.236 3.227.079 5.903.157 5.903.236Zm15.033 0c0 .079-2.047.236-4.486.236-2.519 0-4.487-.079-4.487-.236 0-.079 2.047-.236 4.487-.236 2.518.079 4.486.157 4.486.236Zm19.125.551c0 .079-2.125.236-4.801.236s-4.801-.079-4.801-.236c0-.157 2.125-.236 4.801-.236s4.801.079 4.801.236Zm15.584-.866c0 .079-2.283.236-5.116.236-2.834 0-5.116-.078-5.116-.236 0-.078 2.282-.236 5.116-.236 2.755.079 5.116.158 5.116.236Zm-55.645 6.058c-.079 0-.236-.787-.236-1.731 0-.944.079-1.73.236-1.73.157 0 .236.786.236 1.73s-.079 1.731-.236 1.731Z"/>
    <path fill="#263238" d="M216.282 170.556c0 .079-4.722.236-10.625.236s-10.625-.079-10.625-.236c0-.079 4.722-.236 10.625-.236s10.625.157 10.625.236Z"/>
    <path fill="#263238" d="M216.282 175.434c-.078 0-.236-1.102-.236-2.439 0-1.338.079-2.439.236-2.439.158 0 .236 1.101.236 2.439 0 1.337-.078 2.439-.236 2.439Zm-21.25.393c-.079 0-.236-1.18-.236-2.596 0-1.416.078-2.596.236-2.596.157 0 .236 1.18.236 2.596 0 1.416-.079 2.596-.236 2.596Zm45.491-5.271c-.078 0-.236-.787-.236-1.731 0-.944.079-1.73.236-1.73.079 0 .237.786.237 1.73s-.079 1.731-.237 1.731Z"/>
    <path fill="#263238" d="M266.417 170.556c0 .079-8.027.236-17.944.236s-17.945-.079-17.945-.236c0-.079 8.028-.236 17.945-.236s17.944.157 17.944.236Z"/>
    <path fill="#263238" d="M251.778 175.434c-.078 0-.236-1.102-.236-2.439 0-1.338.079-2.439.236-2.439.079 0 .236 1.101.236 2.439-.078 1.337-.157 2.439-.236 2.439Zm15.348 0c-.079 0-.236-1.102-.236-2.439 0-1.338.079-2.439.236-2.439.157 0 .236 1.101.236 2.439 0 1.337-.079 2.439-.236 2.439Zm-36.677.393c-.078 0-.236-1.18-.236-2.596 0-1.416.079-2.596.236-2.596.079 0 .236 1.18.236 2.596 0 1.416-.078 2.596-.236 2.596Zm-31.167 2.989c0 .079-1.889.236-4.171.236-2.283 0-4.172-.078-4.172-.236 0-.078 1.889-.236 4.172-.236 2.282 0 4.171.079 4.171.236Zm20.778-.629c0 .079-2.046.236-4.565.236-2.518 0-4.565-.079-4.565-.236 0-.157 2.047-.236 4.565-.236 2.519.079 4.565.157 4.565.236Zm15.033 0c0 .079-1.81.236-4.014.236s-4.014-.079-4.014-.236c0-.157 1.81-.236 4.014-.236 2.282.079 4.014.157 4.014.236Zm20.306 0c0 .079-1.968.236-4.329.236-2.361 0-4.329-.079-4.329-.236 0-.157 1.968-.236 4.329-.236 2.361.079 4.329.157 4.329.236Zm16.213-.551c0 .079-1.968.236-4.407.236-2.44 0-4.408-.078-4.408-.236 0-.078 1.968-.236 4.408-.236 2.439.079 4.407.158 4.407.236Zm59.816 3.226h-55.487v-34.379h55.487v34.379Zm-55.487-.079h55.408v-34.3h-55.408v34.3Z"/>
    <path fill="#008D91" d="M318.048 171.343c-3.856-1.495-8.264 2.596-12.042.944-2.203-.944-3.227-3.462-4.25-5.586-1.102-2.124-2.912-4.405-5.273-4.169-2.44.236-4.329 3.068-6.69 2.36-1.495-.393-2.204-2.046-2.597-3.54-.394-1.495-.63-3.147-1.732-4.17-1.102-1.022-3.463-.786-3.62.787v18.173h43.366s-5.903-4.327-7.162-4.799Z"/>
    <path fill="#E0E0E0" d="M326.391 176.142s-10.546.078-23.454.078c-12.987 0-23.454 0-23.454-.078 0 0 10.546-.079 23.454-.079 12.908.079 23.454.079 23.454.079Z"/>
    <path fill="#263238" d="M326.391 168.196s-10.546.079-23.454.079c-12.987 0-23.454 0-23.454-.079s10.546-.079 23.454-.079c12.908.079 23.454.079 23.454.079Zm0-7.946s-10.546.079-23.454.079c-12.987 0-23.454 0-23.454-.079 0-.078 10.546-.078 23.454-.078 12.908.078 23.454.078 23.454.078Zm0-7.552s-10.546.079-23.454.079c-12.987 0-23.454 0-23.454-.079s10.546-.079 23.454-.079c12.908.079 23.454.079 23.454.079ZM201.407 42.56h.315c.236 0 .472 0 .866.079.393.079.787.157 1.338.472.472.236.944.63 1.416 1.18.394.55.787 1.259.945 2.046.157.786 0 1.73-.315 2.596a9.352 9.352 0 0 1-.63 1.258c-.236.394-.472.787-.708 1.259-.394.865-.787 1.888-.945 2.91v.08h-.078c-.63 0-1.338 0-2.047-.08-.708 0-1.495 0-2.125-.078h-.078v-.078c0-1.023-.394-2.046-.866-2.911a18.003 18.003 0 0 0-.708-1.259 17.621 17.621 0 0 1-.709-1.259c-.393-.865-.393-1.73-.236-2.517a5.365 5.365 0 0 1 .866-2.046c.393-.55.944-.944 1.417-1.18a6.466 6.466 0 0 1 1.259-.472c.393-.078.629-.078.866-.078-.079 0 0 0 .157.078h-.315c-.157 0-.472.079-.866.158-.393.078-.787.236-1.259.472-.472.236-.944.63-1.338 1.18a5.578 5.578 0 0 0-.866 1.967c-.157.786-.157 1.652.236 2.438.158.394.473.787.709 1.18.236.394.472.787.708 1.259.472.865.945 1.888.945 2.99l-.079-.08c.708 0 1.417 0 2.125.08.708 0 1.417 0 2.046.078l-.078.079c.157-1.102.551-2.046.944-2.99.236-.472.472-.865.708-1.258.237-.394.473-.787.63-1.26.315-.864.472-1.73.315-2.517-.157-.786-.472-1.494-.866-1.966-.393-.55-.866-.944-1.338-1.18a6.472 6.472 0 0 0-1.259-.472c-.394-.079-.63-.079-.866-.079-.079-.079-.157-.079-.236-.079Z"/>
    <path fill="#263238" d="M201.958 54.125v-.236c0-.158-.079-.394-.079-.708a54.089 54.089 0 0 1-.236-2.754v-1.966c0-.315.079-.708.315-1.023a1.89 1.89 0 0 1 .787-.787c.394-.157.866-.078 1.102.236a.851.851 0 0 1 .236.551.715.715 0 0 1-.236.55c-.158.158-.315.315-.551.394-.236.079-.394.157-.63.157-.393.079-.865.079-1.338.079-.472 0-.865 0-1.338-.079-.236-.078-.393-.078-.629-.236-.158-.078-.394-.236-.473-.393-.157-.157-.236-.393-.314-.55-.079-.237 0-.394.078-.63a.806.806 0 0 1 .473-.393c.157-.08.393-.08.629.078a.947.947 0 0 1 .394.394c.078.157.157.314.236.55.079.394.079.708.079 1.102v5.585-.944c0-.63 0-1.573-.079-2.753V48.46c0-.315 0-.708-.079-1.023 0-.157-.079-.315-.157-.472a.948.948 0 0 0-.394-.393c-.157-.08-.393-.08-.551-.08a.945.945 0 0 0-.393.394c-.079.158-.158.394-.079.551 0 .236.157.393.236.55.236.315.708.473 1.102.551.394.079.866.079 1.338.079.472 0 .866 0 1.338-.079.236 0 .394-.078.63-.157.157-.079.393-.236.472-.393a.715.715 0 0 0 .236-.551.715.715 0 0 0-.236-.55c-.236-.315-.708-.394-1.023-.237-.394.158-.63.394-.787.708a2.413 2.413 0 0 0-.236 1.023v1.968c.078 1.18.157 2.124.157 2.753 0 .315.079.55.079.787-.079.079-.079.157-.079.236Z"/>
    <path fill="#263238" d="M199.282 54.125v2.518-.08c.394.473.866 1.023 1.338 1.653h-.079 1.653-.079c.237-.315.551-.63.866-.944.158-.158.315-.315.394-.472v.078c0-.944 0-1.888.078-2.675l.079.08c-1.18 0-2.204-.08-2.991-.08h-.865c-.315-.078-.394-.078-.394-.078h4.329v2.753c-.158.158-.315.315-.394.472-.314.315-.551.63-.865.944h-1.811c-.472-.629-.944-1.18-1.338-1.73 0-.708.079-1.338.079-1.81-.079-.393-.079-.63 0-.63Z"/>
    <path fill="#263238" d="M203.296 56.642s-.079 0-.157-.078c-.079-.079-.237-.08-.394-.158-.394-.157-.866-.314-1.417-.314s-1.102.157-1.495.236c-.157.078-.315.157-.394.157a.604.604 0 0 1 .394-.157c.393-.158.866-.315 1.495-.236.63 0 1.102.157 1.496.314.157.079.315.158.393.236.079-.078.079 0 .079 0Zm.079-.629s-.079 0-.158-.079c-.079-.078-.236-.078-.393-.157a3.433 3.433 0 0 0-1.417-.315c-.551 0-1.102.158-1.495.236-.158.079-.315.158-.394.158a.602.602 0 0 1 .394-.158c.393-.157.865-.315 1.495-.236.63 0 1.102.157 1.495.315.158.079.315.157.394.236 0-.079.079 0 .079 0Zm0-.629s-.079 0-.158-.079-.236-.079-.393-.157c-.394-.158-.866-.315-1.417-.315s-1.102.157-1.495.236c-.158.079-.315.157-.394.157a.602.602 0 0 1 .394-.157c.393-.157.865-.315 1.495-.236.63 0 1.102.157 1.495.315.158.078.315.157.394.236 0-.079.079 0 .079 0Z"/>
    <path fill="#EBEBEB" d="M218.407 72.297s-1.574 14.476.473 22.421l19.361-.865s-4.171-14.318-1.574-20.69l-18.26-.865Z"/>
    <path fill="#008D91" d="M218.486 71.825s.157 15.656.945 20.455l19.676-.945s-1.732-15.419-1.102-19.51h-19.519Z"/>
    <path fill="#fff" d="M235.014 78.434c0 .078-2.912.314-6.611.55-3.62.237-6.611.315-6.611.237 0-.08 2.912-.315 6.611-.551 3.62-.158 6.611-.315 6.611-.236Zm0 3.304c0 .079-2.912.314-6.611.55-3.62.237-6.611.315-6.611.237 0-.08 2.912-.315 6.611-.551 3.62-.157 6.611-.315 6.611-.236Zm-3.305 3.304s-.394.079-1.102.157a86.86 86.86 0 0 1-2.676.236c-1.023.079-1.968.079-2.676.158h-1.102s.393-.08 1.102-.158a85.957 85.957 0 0 1 2.676-.236c1.023-.078 1.967-.078 2.676-.157.629-.079 1.102-.079 1.102 0Z"/>
    <path fill="#263238" d="M263.269 46.415c0 .079-11.491.236-25.658.236-14.167 0-25.658-.079-25.658-.236 0-.078 11.491-.236 25.658-.236 14.167 0 25.658.079 25.658.236Zm-32.505 4.642c0 .078-4.329.236-9.602.236-5.352 0-9.602-.079-9.602-.236 0-.079 4.329-.236 9.602-.236 5.273.078 9.602.157 9.602.236Zm10.232 0c0 .078-1.653.236-3.699.236-2.047 0-3.7-.079-3.7-.236 0-.079 1.653-.236 3.7-.236 2.046.078 3.699.157 3.699.236Zm107.354 49.247c0-.157 0-.315-.079-.55 0-.473-.079-1.18-.157-2.046-.158-1.81-.315-4.327-.473-7.474-.393-6.293-.944-15.026-1.495-24.623-.551-9.598-1.023-18.252-1.417-24.624-.157-3.147-.315-5.664-.393-7.474 0-.865-.079-1.494-.079-2.045v-.708.157c0 .158 0 .315.079.55 0 .473.079 1.181.157 2.046.158 1.81.315 4.327.472 7.474.394 6.294.945 15.026 1.496 24.624.551 9.597 1.023 18.251 1.417 24.623.157 3.147.314 5.664.393 7.474 0 .865.079 1.495.079 2.045v.551Zm-4.093-87.244h-25.894c-15.977 0-38.093-.08-62.492-.08a38900.47 38900.47 0 0 1-64.696-.236c-3.542.866-6.375 2.911-8.185 5.114-1.889 2.203-2.755 4.642-3.227 6.608-.394 1.967-.394 3.54-.315 4.642.079.55.079.944.157 1.18.079.236.079.393.079.393s-.157-.55-.236-1.573c-.079-1.023-.157-2.675.236-4.642.394-1.966 1.338-4.405 3.148-6.687 1.889-2.281 4.723-4.326 8.343-5.27 15.977 0 39.038.078 64.696.078 24.399.079 46.436.157 62.492.236 7.949.079 14.482.079 18.968.079 2.204 0 3.935 0 5.116.078h1.338c.315.08.472.08.472.08Z"/>
    <path fill="#008D91" d="m362.359 316.646-1.259 16.127s-15.977 5.114-16.056 8.103l31.246.393.945-24.702-14.876.079Z"/>
    <path fill="#EBEBEB" d="M370.702 331.121c.63.157 1.023.787.945 1.416-.158.629-.787 1.101-1.417.944-.63-.157-1.181-.944-.944-1.495.157-.629 1.023-1.101 1.574-.786m5.352 10.069-.079-2.517-29.593.157s-1.732 1.023-1.653 1.967l31.325.393Z"/>
    <path fill="#263238" d="M360.549 332.616c0 .157.787.236 1.574.629.787.472 1.181 1.101 1.338 1.023.158 0-.078-.944-1.023-1.495-1.023-.472-1.889-.315-1.889-.157Zm-3.227 1.495c0 .157.63.393 1.181 1.022.551.63.708 1.338.866 1.259.157 0 .236-.865-.473-1.652-.708-.787-1.574-.787-1.574-.629Zm-1.731 3.933c.157 0 .315-.708-.079-1.573-.393-.866-1.102-1.102-1.181-1.023-.078.157.394.55.709 1.259.315.708.393 1.337.551 1.337Zm5.116-9.126c.078.158.787-.078 1.652-.078.866 0 1.575.314 1.653.157.079-.079-.551-.629-1.574-.708-1.102 0-1.81.551-1.731.629Zm-.158-3.225c0 .078.63.157 1.574-.079a5.778 5.778 0 0 0 1.653-.551c.315-.157.551-.314.866-.472.157-.078.315-.157.472-.393.158-.157.236-.551.079-.787-.157-.236-.472-.314-.708-.314-.237 0-.394.078-.551.078-.315.079-.63.236-.945.394-.551.314-1.102.629-1.417 1.022-.708.708-.944 1.259-.865 1.338.078.078.393-.472 1.102-1.023.393-.315.787-.551 1.338-.865.314-.158.551-.236.865-.315.315-.079.63-.079.709 0v.157c-.079.079-.236.158-.315.315-.236.157-.551.315-.787.472-.551.315-1.023.472-1.496.629-.944.236-1.574.315-1.574.394Z"/>
    <path fill="#263238" d="M360.785 325.929c.079 0 .315-.551.394-1.495 0-.472-.079-1.101-.236-1.731-.079-.314-.236-.629-.394-.944-.157-.314-.393-.708-1.023-.786-.315 0-.551.236-.629.472-.079.236-.079.393-.158.55-.079.394 0 .708 0 1.023.157.629.394 1.18.708 1.573.63.787 1.26.945 1.26.866.078-.079-.473-.394-.945-1.102-.236-.393-.472-.865-.551-1.416a1.933 1.933 0 0 1 0-.944c0-.314.158-.629.315-.55.158 0 .394.236.551.472.157.236.315.55.394.865.236.551.314 1.101.314 1.573.079.944-.078 1.495 0 1.574Z"/>
    <path fill="#008D91" d="m429.889 313.971 3.62 18.881 7.162 14.082a1.876 1.876 0 0 1-1.023 2.674c-.551.236-1.259.236-1.81-.157-3.463-2.124-16.135-10.07-16.292-11.407-.236-1.652-5.116-19.667-5.116-19.667l13.459-4.406Z"/>
    <path fill="#EBEBEB" d="m439.648 349.608-18.417-12.823.157.787c.158.708.551 1.337 1.102 1.731 1.496 1.18 5.667 4.248 15.269 10.148.63.393 1.259.393 1.889.157Zm-15.82-18.408c.551.236.866.865.63 1.416-.236.551-.866.865-1.417.629s-.944-1.023-.708-1.573c.236-.551 1.102-.866 1.574-.551"/>
    <path fill="#263238" d="M433.588 342.292c.079 0 .315-1.022 1.338-1.809.944-.787 2.046-.787 2.046-.866 0-.078-.236-.157-.708-.078-.472 0-1.102.236-1.653.629a3.718 3.718 0 0 0-1.023 1.416c-.079.472-.079.708 0 .708Zm1.889 2.282c.078.078.55-.708 1.495-1.18.866-.472 1.81-.472 1.81-.63 0-.078-.944-.314-1.967.236-1.102.551-1.417 1.495-1.338 1.574Zm-5.037-4.957c.078.079.865-1.101 2.203-1.966 1.338-.866 2.676-1.102 2.676-1.259 0-.079-1.416-.079-2.912.865-1.495 1.023-2.125 2.36-1.967 2.36Zm-1.574-5.664c.078.079 1.023-.55 2.361-.865 1.338-.393 2.518-.236 2.518-.393 0-.079-1.18-.394-2.597 0-1.495.314-2.361 1.18-2.282 1.258Zm-1.26-5.507c.079.079 1.023-.786 2.44-1.022s2.597.236 2.597.078c0-.078-.236-.236-.708-.393-.472-.157-1.181-.236-1.968-.079-.787.158-1.416.472-1.81.787-.393.315-.551.629-.551.629Zm2.204-2.045s0-.236-.158-.708c-.157-.472-.393-1.101-.944-1.731-.315-.315-.551-.708-1.181-.865-.314-.079-.629.078-.865.393-.158.315-.158.63-.079.944.315 1.18 1.574 2.124 2.912 1.967 1.417-.157 2.44-1.18 2.755-2.281.078-.315.078-.63-.158-.945-.236-.314-.629-.314-.865-.236-.551.236-.787.63-1.102.945-.551.629-.787 1.258-.945 1.73-.157.472-.157.708-.157.708.079 0 .315-1.022 1.338-2.281.236-.315.551-.63.944-.787.158-.079.394 0 .472.157.079.158.079.394.079.63-.236.944-1.259 1.888-2.44 1.967-1.18.078-2.282-.708-2.518-1.652-.079-.237-.079-.473.078-.63.079-.157.237-.236.473-.236.393.079.708.394 1.023.708 1.102 1.18 1.259 2.282 1.338 2.203Z"/>
    <path fill="#263238" d="M362.123 168.196c-.236 0-2.597 158.205-2.597 158.205l19.126-.63 6.611-77.804 1.574-57.114 12.986 52.787 16.214 82.918 19.125-4.799-24.32-154.664-22.903-4.406-25.816 5.507ZM403.68 70.41c2.282-4.485 2.99-12.666.393-17.15-2.597-4.485-7.949-7.71-12.908-9.205-.865-.236-1.731-.472-2.597-.157-.787.314-1.495 1.18-1.18 2.045-.945-.708-1.968-1.416-3.149-1.81-1.18-.393-2.518-.314-3.463.473-.944.786-1.18 2.36-.314 3.225-1.338-.63-3.149-.314-4.251.63-1.101 1.022-1.574 2.753-1.101 4.17.472 1.337 1.574 2.91 2.518 4.011 1.023 1.023 1.102 2.046.787 3.462"/>
    <path fill="#fff" d="M384.869 107.62c.158-2.202.472-21.791.472-21.87 0 0-7.319-.865-7.634-8.181-.158-3.462.157-10.7.472-17.308.315-7.001 6.06-12.587 13.065-12.823h.709c7.555.236 11.569 6.766 11.176 14.318l-1.023 42.01"/>
    <path fill="#EB996E" d="M385.341 85.75s4.565.157 9.366-3.068c0 0-2.203 4.563-9.444 4.09l.078-1.022Z"/>
    <path fill="#263238" d="M379.36 65.217c0 .551.472 1.023 1.023 1.023.551 0 1.023-.393 1.023-.944 0-.55-.472-1.023-1.023-1.023-.551 0-1.023.394-1.023.944Zm.472-1.337c.157.157.866-.472 2.046-.472 1.102-.079 1.968.472 2.047.393.078-.078-.079-.314-.472-.55a3.172 3.172 0 0 0-1.653-.472c-.709 0-1.26.314-1.574.55-.315.236-.473.472-.394.55Zm10.704 1.495c0 .55.472 1.022 1.023 1.022.551 0 1.023-.393 1.023-.944 0-.55-.472-1.022-1.023-1.022-.551 0-1.023.393-1.023.944Zm.236-1.652c.158.157.866-.472 2.047-.472 1.101-.079 1.967.472 2.046.393.079-.079-.079-.315-.472-.55a3.171 3.171 0 0 0-1.653-.473c-.708 0-1.259.315-1.574.551-.315.236-.394.472-.394.55Zm-3.778 8.417c0-.078-.708-.157-1.81-.236-.315 0-.551-.078-.629-.236-.079-.236 0-.55.157-.865.236-.708.472-1.416.787-2.203 1.102-3.147 1.81-5.664 1.732-5.743-.158-.078-1.102 2.439-2.204 5.586a71.267 71.267 0 0 1-.709 2.203c-.078.314-.236.708-.078 1.1.078.237.315.394.472.394.157.079.315.079.472.079 1.102 0 1.81-.079 1.81-.079Zm3.306.63c-.157 0-.157 1.18-1.181 2.124-1.023.865-2.282.786-2.282.944 0 .078.315.236.866.236.551 0 1.338-.158 1.889-.708.629-.55.865-1.259.865-1.731.079-.55-.078-.865-.157-.865Zm.079-13.374c.157.315 1.259.157 2.518.236 1.338.079 2.361.472 2.519.157.079-.157-.158-.393-.551-.708-.394-.315-1.102-.55-1.889-.63-.787-.078-1.495.08-1.968.315-.472.236-.708.472-.629.63Zm-10.232 1.18c.236.236.944-.079 1.889-.079.944-.078 1.731.079 1.889-.157.079-.158-.079-.394-.394-.63-.314-.236-.944-.393-1.574-.393-.629.079-1.18.315-1.495.55-.315.394-.394.63-.315.709Z"/>
    <path fill="#fff" d="M402.735 67.184c.158-.079 4.959-1.652 4.959 3.304 0 4.956-4.959 3.934-4.959 3.776-.079-.157 0-7.08 0-7.08Z"/>
    <path fill="#EB996E" d="M404.152 72.376s.079.079.236.158c.157.078.393.078.63 0 .551-.158.944-1.023 1.023-1.888 0-.472-.079-.866-.236-1.26-.158-.392-.394-.628-.63-.628-.236-.08-.472.078-.472.236-.079.157 0 .236-.079.236 0 0-.079-.08-.079-.315 0-.079.079-.236.158-.315.157-.078.315-.157.472-.157.394 0 .708.393.866.787.157.393.315.865.315 1.416 0 1.022-.551 1.966-1.26 2.124-.314.078-.629 0-.787-.158-.157-.078-.157-.236-.157-.236Z"/>
    <path fill="#263238" d="M375.031 50.978c-.551 6.451 7.32 9.126 10.783 5.507 1.574-1.652 2.99-3.776 5.194-4.484 1.495-.472 3.148-.236 4.486.472h.079c2.046 1.023 3.227 3.461 3.542 5.743.472 3.146-.079 5.979.787 8.89.157.393.236.865.629 1.1.63.394 1.496.08 1.968-.471.787-.866 1.102-2.124 1.259-3.304.394-2.675.394-5.429-.314-8.025-.709-2.596-2.047-5.113-4.014-6.923-2.519-2.281-5.982-3.382-9.366-3.225-3.385.157-6.612 1.495-9.288 3.619-1.18.944-2.361 2.124-2.912 3.619"/>
    <path fill="#455A64" d="M380.304 47.438s-.236-.079-.708 0c-.473.079-1.023.315-1.653.944a4.493 4.493 0 0 0-1.259 2.517c-.158 1.102.236 2.282.944 3.304.708 1.023 1.732 1.731 2.676 2.125.945.393 1.889.55 2.676.629.787.079 1.417 0 1.889-.079.472-.078.708-.078.63-.157 0-.079-.945.079-2.519-.079-.787-.078-1.653-.236-2.597-.63a5.978 5.978 0 0 1-2.519-1.966c-.708-.944-1.023-2.045-.944-2.99.078-.943.551-1.809 1.102-2.36.551-.55 1.101-.865 1.495-.943.472-.236.787-.236.787-.315Zm3.306-2.281s-.158-.08-.473.078c-.314.157-.629.472-.787 1.023-.157.55.079 1.259.394 1.888.315.63.787 1.337 1.338 1.888 1.181 1.18 2.518 1.967 3.542 2.282 1.023.314 1.731.314 1.731.314 0-.079-.629-.157-1.653-.55-.944-.394-2.282-1.102-3.384-2.282-.551-.55-1.023-1.18-1.338-1.81-.315-.629-.472-1.18-.393-1.651.078-.473.393-.787.55-.945.315-.157.473-.157.473-.236Z"/>
    <path fill="#fff" stroke="#000" stroke-width=".5" d="M298.687 116.825s4.643.236 6.611.55l32.191 8.339c4.486 1.18 8.972-1.573 10.074-6.057 1.259-5.035-2.204-9.755-7.162-10.227m-41.714 7.395.028-.249-.007-.001m-.021.25-1.76-.203a1.332 1.332 0 0 0-.063-.145l-.224.112-.028.248.13.015c.014.039.031.08.056.13m1.889-.157.013-.25h.008m0 0 .005.001.04.002.151.008.554.031c.466.027 1.109.066 1.814.115 1.406.099 3.069.237 4.066.396l.011.002.012.003 32.19 8.339h.001c4.348 1.144 8.699-1.523 9.768-5.875v-.001c1.222-4.885-2.135-9.46-6.943-9.918m-41.669 6.897-2.039-.235-.459-.053.207.413c.031.062.046.107.065.164l.001.002c.019.057.041.124.083.211m43.811-7.399.024-.248m0 0-.024.248m.024-.248-34.158-3.226-5.431-1.259m39.565 4.733-34.158-3.225-.017-.002-.016-.003-5.424-1.258m.05-.245s-12.357-2.202-13.537-2.596m13.537 2.596-.057.244.007.001m.05-.245-.044.246h-.002l-.004-.001m-13.487-2.841c-1.338-.393-1.889.158-1.968.63-.157.786.551 1.652 1.731 2.045.331.132 4.816 1.482 6.251 1.914l.25-.076.095-.026.024-.007.007-.001.002-.001h.001l.06.242m-6.453-4.72-.079.237.004.002m.075-.239-.071.24-.004-.001m6.528 4.481-.071.24h-.002l-.003-.001-.013-.004-.053-.016-.201-.061-.094-.028c-.332.106-.861.288-1.609.579-1.495.55-2.833 2.517-3.463 4.798-.63 2.282-.63 2.911.236 3.226m5.273-8.733.061.243h-.001l-.004.001-.02.006a15.144 15.144 0 0 0-.451.136c-.329.106-.836.282-1.54.556l-.005.001c-.683.252-1.355.838-1.938 1.661-.582.819-1.062 1.854-1.37 2.97-.318 1.15-.461 1.836-.434 2.268.012.206.063.331.133.418.071.088.183.164.369.233m5.2-8.493.061.243.883-.221-.872-.261-.072.239Zm0 0 .072-.239h-.001l-.003-.001-.014-.004-.053-.016-.2-.06-.719-.216-2.207-.666c-.811-.246-1.635-.497-2.28-.696a36.038 36.038 0 0 1-1.192-.379l-.007-.003-.007-.002c-.554-.185-.984-.476-1.254-.799-.271-.322-.371-.661-.311-.96l.002-.008a.62.62 0 0 1 .371-.454c.241-.113.644-.163 1.275.022m1.255 13.214c.315.078.708 0 .945-.158.472-.314.787-.786.944-1.337m-1.889 1.495.086-.235-.013-.005m-.073.24.061-.243.012.003m1.816-1.255c1.023-3.619 3.306-3.933 3.306-3.933m-3.306 3.933-.24-.069v.001m.24.068-.241-.068h.001m3.546-3.865.4.089.052-.045.073-.061.021-.016.005-.005.002-.001v-.001l.155.197m-.708-.157-.034-.248.044-.006.044.01.708.157.516.114-.415.326v.001l-.155-.197m-.708-.157-.035-.248h-.001l-.003.001-.008.001-.025.004a2.614 2.614 0 0 0-.389.113 3.81 3.81 0 0 0-.96.539c-.745.567-1.6 1.597-2.125 3.455m4.254-3.708-.054.244-.184-.041c-.567.511-1.95 1.913-1.887 3.416 0 .314.079.55.236.786-.315.945-.079 2.046.63 2.833.708.786 1.81 1.18 2.833.944.472-.079 1.023-.394 1.023-.944 0-.236-.078-.551-.157-.787m-2.44-6.451.154.197-.004.003-.017.014-.066.055a7.72 7.72 0 0 0-.965.99c-.531.656-1.013 1.499-.977 2.349v.011c0 .264.063.451.194.648l.068.102-.039.116c-.285.854-.072 1.862.579 2.585.653.726 1.664 1.082 2.591.868l.007-.002.008-.001c.203-.034.417-.118.574-.244.153-.122.24-.272.24-.453 0-.191-.065-.466-.139-.692m.232-.095-.224.112-.008-.017m.232-.095-.237.079.005.016m-6.462-2.838c-.144.501-.427.92-.843 1.197a1.046 1.046 0 0 1-.733.126m-1.328-12.974c.319.105 1.331.319 2.639.578 1.326.262 2.983.575 4.601.875 1.619.3 3.201.587 4.378.8l1.417.255.394.071.103.018.027.005h.003"/>
    <path fill="#FFBE9D" d="M305.534 107.07c0 .708-.708 1.258-1.417 1.416-.708.157-1.416.078-2.125.236-2.125.393-3.699 2.36-5.824 2.596-.315 0-.708 0-.787-.315-.079-.236.158-.551.315-.708 1.731-1.652 3.384-3.225 5.116-4.878"/>
    <path fill="#EB996E" d="M300.812 105.417s-.236.158-.63.473c-.393.314-.866.786-1.574 1.416-.708.629-1.417 1.337-2.282 2.124l-.63.629c-.157.236-.551.393-.551.865 0 .236.157.472.394.551.236.079.393.079.55.079.315-.079.709-.158 1.024-.236 1.338-.472 2.282-1.338 3.305-1.888.473-.236 1.023-.472 1.496-.551.472-.079.944-.079 1.416-.157.866-.079 1.653-.472 1.889-.944.315-.472.236-.787.236-.787-.078 0 0 .315-.314.629-.315.394-.945.708-1.811.708-.393 0-.944 0-1.416.079-.551.079-1.102.315-1.574.551-1.102.55-2.047 1.337-3.306 1.809l-.945.236c-.314 0-.55-.079-.55-.236 0-.157.236-.393.472-.629l.629-.63c.787-.786 1.575-1.494 2.204-2.202l1.496-1.495c.314-.158.551-.315.472-.394Zm-6.296 4.878c0 .079-.551-.236-1.338 0-.394.157-.788.393-1.102.865-.315.472-.551 1.023-.787 1.652-.237.63-.394 1.259-.709 1.731-.315.472-.629.866-1.102 1.102-.393.236-.787.157-1.023.078a.543.543 0 0 1-.315-.236l.315.158c.236.078.551.078.945-.158.314-.236.708-.629.944-1.101s.472-1.102.63-1.652c.236-.63.472-1.18.866-1.652.393-.472.865-.787 1.259-.866.472-.078.787-.078 1.023 0 .315 0 .394.079.394.079Zm-7.871-5.507s.472.157 1.259.393c.866.315 1.889.63 2.991.944 1.102.315 2.125.63 2.991.945a49.14 49.14 0 0 1 1.259.393s-.472-.079-1.259-.236c-.787-.157-1.889-.472-3.07-.866-1.18-.393-2.203-.708-2.99-1.022-.709-.315-1.181-.551-1.181-.551Zm8.815 7.395s-.079.157-.236.315c-.158.157-.394.55-.315.944 0 .236.157.393.393.472.237.079.551.157.866.157.315.079.709.158.945.472.236.315.314.708.236 1.102-.079.393-.394.708-.709.865-.314.157-.708.236-1.023.157a4.107 4.107 0 0 1-1.574-.55c-.393-.236-.787-.472-.944-.63a2.352 2.352 0 0 0-.236-.314l.314.314c.158.158.551.394.945.551.393.157.944.393 1.574.472.551.079 1.259-.236 1.495-.865.079-.315 0-.63-.157-.866s-.472-.314-.787-.393c-.315-.079-.63-.079-.866-.236-.236-.157-.472-.394-.472-.63-.079-.55.315-.865.472-1.022 0-.236.079-.315.079-.315Z"/>
    <path fill="#EB996E" d="M296.404 116.353s.158 0 .315.157c.158.157.394.472.394.944s-.315.944-.866 1.259c-.551.236-1.181.314-1.81.078-.63-.236-1.181-.629-1.496-1.022a3.532 3.532 0 0 1-.55-1.416 2.09 2.09 0 0 1 .078-1.023c.079-.236.158-.315.158-.315.078 0-.158.551 0 1.338.078.393.236.865.551 1.258.314.394.787.787 1.416.944.551.158 1.181.158 1.653-.078s.708-.63.787-1.023c0-.393-.157-.708-.315-.865-.236-.158-.315-.158-.315-.236Zm5.51-2.99s0-.236.157-.629c.158-.315.551-.787 1.181-1.023v.236a3.706 3.706 0 0 1-.787-.393c-1.496-.866-2.283-2.046-2.204-2.124.079-.079.866 1.022 2.361 1.888.236.157.551.314.787.393l.236.157-.236.079a2.966 2.966 0 0 0-1.18.944c-.158.315-.236.472-.315.472Zm-10.704-3.225c.078-.079.393.314.472.944.079.629-.236 1.101-.236 1.022-.079 0 .079-.472 0-1.022-.079-.472-.315-.866-.236-.944Z"/>
    <path fill="#008D91" d="m341.03 126.108 22.274-5.114s-1.181 40.751-1.181 41.144c0 .394-1.81 1.023-1.653 4.013l1.575 3.54 48.797.629 1.338-39.571 4.486-30.681-10.232-6.294-3.62-4.877-14.088 14.868-3.463-12.665.078-3.776-3.463 3.776-18.732 5.428-24.792 11.564-16.764-1.258-4.329 14.632 23.769 4.642Z"/>
    <path fill="#263238" d="M386.758 99.045c0 .079-.63.236-1.023 1.102-.157.472-.315 1.022-.315 1.73s0 1.495-.315 2.36l-.157.394-.158-.394c-.472-1.101-.787-2.281-1.101-3.618-.63-2.518-.945-4.878-1.26-6.609a51.736 51.736 0 0 1-.314-2.753c.078 0 .236 1.023.55 2.675.315 1.652.787 4.012 1.338 6.529.315 1.259.63 2.518 1.024 3.54h-.315c.315-.708.315-1.494.393-2.202 0-.708.158-1.338.394-1.81.236-.472.551-.786.787-.865.315-.079.472-.157.472-.079Zm18.024-6.215-.473.708c-.314.394-.787 1.023-1.416 1.731-1.181 1.495-2.912 3.54-4.801 5.743-1.102 1.259-2.125 2.439-2.991 3.54l-.236.236-.079-.315c-.393-1.73-.787-3.146-1.023-4.169-.079-.472-.394-.787-.63-.787s-.393.158-.393.079c0 0 .078-.236.393-.236a.85.85 0 0 1 .551.236c.158.157.236.393.315.629.315 1.023.708 2.439 1.181 4.17l-.315-.079c.866-1.101 1.889-2.281 2.991-3.54 1.889-2.203 3.62-4.248 4.879-5.664.63-.708 1.181-1.259 1.496-1.652.315-.472.551-.708.551-.63Zm-20.779 65.139s0-.157-.078-.551v-7.08c.078-4.72.314-11.171.787-18.33.551-7.159 1.259-13.61 1.967-18.251.315-2.361.63-4.249.787-5.507.079-.63.158-1.102.236-1.495.079-.315.079-.551.079-.551v.551c-.079.393-.079.865-.157 1.495a288.33 288.33 0 0 1-.709 5.507c-.551 4.641-1.259 11.092-1.81 18.251-.551 7.159-.787 13.61-.944 18.33-.079 2.281-.079 4.169-.158 5.586 0 .629 0 1.101-.078 1.494.157.315.157.551.078.551Zm-3.935 9.519c-.079 0-.393-1.574-.393-3.462.078-1.966.314-3.461.393-3.461.157 0 .079 1.573 0 3.54 0 1.809.079 3.383 0 3.383Z"/>
    <path fill="#263238" d="M400.059 156.081s-.472.157-1.259.472c-.787.314-2.046.629-3.463 1.101-2.991.865-7.084 1.888-11.727 2.754-4.644.786-8.894 1.258-11.963 1.494-1.574.079-2.755.158-3.621.158h-1.338s.472-.079 1.338-.158c.945-.078 2.125-.157 3.621-.314 3.069-.315 7.319-.787 11.963-1.574 4.643-.786 8.736-1.809 11.727-2.596a147.02 147.02 0 0 1 3.542-.944c.708-.315 1.18-.472 1.18-.393Zm-37.07-26.512c-.079 0-.157-5.821-.157-12.902 0-7.159.157-12.902.236-12.902.078 0 .157 5.822.157 12.902 0 7.081-.079 12.902-.236 12.902Z"/>
    <path fill="#008D91" d="M415.643 99.36s6.139 5.271 6.533 8.26c.314 2.282 6.375 23.995 9.051 33.671.865 2.989.629 6.215-.551 9.126l-7.871 19.431-12.75-7.552 6.375-18.252-5.273-15.498 4.486-29.186Z"/>
    <path fill="#263238" d="M422.962 169.927s-.078 0-.236-.079c-.157-.079-.393-.236-.708-.393-.63-.315-1.495-.866-2.597-1.495-2.283-1.337-5.431-3.147-9.288-5.428l-.078-.079.078-.157c1.811-5.114 3.936-11.407 6.297-18.252v.158a696.946 696.946 0 0 0-2.283-6.215c-1.888-5.035-3.62-9.834-5.273-14.161-1.574-3.383-2.991-6.608-3.384-9.755-.158-1.573-.158-3.068.157-4.405.236-1.338.709-2.518 1.26-3.541 1.101-2.045 2.361-3.304 3.305-4.169.472-.393.866-.708 1.102-.865.236-.158.394-.236.394-.236s-.158.078-.394.314c-.236.236-.63.472-1.023.944-.866.866-2.125 2.124-3.148 4.17-.551 1.023-.945 2.203-1.181 3.461-.236 1.338-.315 2.754-.079 4.327.394 3.068 1.811 6.294 3.385 9.677 1.653 4.326 3.384 9.125 5.273 14.16a728.647 728.647 0 0 1 2.282 6.215v.157c-2.439 6.845-4.564 13.06-6.375 18.173l-.078-.157a975.868 975.868 0 0 1 9.208 5.507c1.102.629 1.889 1.18 2.519 1.573.236.157.472.315.629.393a.956.956 0 0 1 .236.158Z"/>
    <path fill="#000" d="M390.142 102.271c.866 0 1.732.55 1.889 1.416.158.865 0 1.73.236 2.596.236.865.945 1.652 1.811 1.495.551-.079.865-.551 1.18-.944 1.653-2.125 2.991-4.799 3.935-7.317 0 .079-4.328 5.035-4.328 5.035-.158-1.259-.551-2.439-.945-3.619-.157-.393-.315-1.022-.708-1.18-.63-.236-1.338.63-1.732 1.102-.315.393-1.18 1.258-1.338 1.416Zm-7.083-4.484c.157 2.753.551 5.585 1.574 8.102.079.236.236.551.393.709.237.157.551.236.788.078.157-.078.708-1.495.787-1.652.393-1.101 2.046-1.259 2.046-1.259s-.63-2.91-1.102-3.776c-.157-.393-.551-.708-1.023-.63-.472.08-1.023.788-1.102 1.26-.236 2.045-.236 2.91-.551 3.618-.708-2.124-1.338-4.72-1.81-6.45Zm12.121 59.553c.787-.472.944-1.652.393-2.439-.551-.787-1.574-1.023-2.44-.944-.944.078-1.731.551-2.518 1.101-.709.551-1.417 1.18-2.204 1.652-1.968 1.18-4.25 1.416-6.533 1.495-2.282 0-4.565-.157-6.768.315-2.204.393-4.408 1.573-5.51 3.54-.078.078 19.283-1.338 25.58-4.72Z" opacity=".3"/>
    <path fill="#fff" d="M407.772 185.739c-2.754-1.809-3.935-3.54-5.037-5.192v-.157c0-.079-.078-.079-.157-.079a23.66 23.66 0 0 1-1.496-2.596c1.575-1.023 3.621-2.596 1.417-2.911-2.755-.393-4.722-1.73-5.037-2.438-.315-.709.63-1.417 1.338-.945.551.394 1.732.709 2.676.945a7.283 7.283 0 0 0 2.282.157c.473-.079 2.125-1.18 3.857-2.046.236-.078.551-.157.787-.078l.708-.079a2.336 2.336 0 0 0 1.732-1.101l2.518-4.878 7.714 4.563-6.139 8.496c0-.157-4.172 5.429-7.163 8.339Z"/>
    <path fill="#455A64" d="M409.425 186.683c0 .079-.708-.236-1.81-.865-1.023-.629-2.44-1.652-3.62-3.068-1.26-1.416-2.126-2.832-2.598-3.934-.472-1.101-.708-1.809-.629-1.888.157-.078 1.101 2.832 3.541 5.586 2.362 2.753 5.116 4.012 5.116 4.169Zm-24.32 4.957s-.078 0-.236-.079c-.157-.079-.315-.157-.551-.315-.472-.393-.944-1.022-1.259-1.966-.315-.945-.551-2.125-.866-3.383-.315-1.259-.551-2.675-.866-4.17a360.263 360.263 0 0 1-1.338-7.631c-.157-.944-.236-1.73-.314-2.281-.079-.551-.079-.866-.079-.866s.079.315.236.866c.157.629.236 1.416.394 2.281.393 1.967.865 4.642 1.416 7.553.315 1.494.551 2.832.866 4.169.236 1.259.472 2.439.787 3.383.315.944.708 1.573 1.102 1.967.394.314.708.393.708.472Zm-.708-17.701s.157-.079.315 0c.236.079.551.236.708.629.236.315.315.944-.079 1.416-.314.472-.944.787-1.652.63-.709-.158-1.102-.787-1.181-1.338-.079-.55.157-1.101.472-1.337.63-.551 1.259-.393 1.181-.393 0 .078-.551.078-1.023.55-.237.236-.394.63-.315 1.102.078.393.393.865.866 1.022.472.158 1.023-.078 1.259-.472.236-.314.236-.786.079-1.101-.079-.551-.63-.629-.63-.708Zm-16.685-3.147s.236.708.236 1.81c0 1.101-.315 2.674-1.181 4.248-.866 1.573-1.968 2.674-2.912 3.304-.945.629-1.574.865-1.653.865 0-.078.63-.393 1.417-1.023.866-.708 1.889-1.809 2.755-3.304.787-1.494 1.101-2.989 1.259-4.09.079-1.102 0-1.81.079-1.81Z"/>
    <path fill="#263238" d="M337.174 115.566c-.079 0 .157-1.731.393-3.934.236-2.124.472-3.854.551-3.854.079 0 .079 1.809-.157 3.933-.236 2.203-.709 3.855-.787 3.855Z"/>
    <path fill="#263238" d="M321.433 106.598s0 .078-.079.314a9.873 9.873 0 0 0-.236.787c-.236.708-.472 1.731-.866 2.989-.787 2.596-1.81 6.294-3.069 10.621l-.158-.236c4.486 1.101 9.838 1.967 15.505 3.068 2.834.551 5.588 1.101 8.107 1.731h-.079c6.375-1.416 11.963-2.675 15.977-3.619 1.968-.394 3.542-.787 4.644-1.023.551-.079.944-.157 1.259-.236.315-.079.472-.079.472-.079s-.157.079-.393.158c-.315.078-.708.157-1.259.314-1.102.236-2.676.63-4.644 1.102-4.014.944-9.523 2.281-15.899 3.776h-.157c-2.518-.629-5.273-1.18-8.107-1.731-5.745-1.022-11.097-1.967-15.505-3.147l-.157-.078.079-.158c1.338-4.326 2.44-8.024 3.227-10.62.393-1.259.708-2.203.944-2.989.079-.315.158-.551.236-.787.158-.079.158-.157.158-.157Z"/>
    <path fill="#AA6550" d="m101.294 288.325-2.283 42.088 15.269 3.697 3.07-41.144-16.056-4.641Z"/>
    <path fill="#008D91" d="m98.539 330.098-2.597 11.407h17.63l.708-7.473-15.741-3.934Z"/>
    <path fill="#263238" d="M113.887 339.853c0 .079-.945.158-2.519.158-1.574 0-3.778 0-6.139-.079a592.792 592.792 0 0 1-6.139-.236c-1.574-.079-2.519-.157-2.519-.236 0-.079.945-.157 2.598-.157 1.574 0 3.778 0 6.139.157 2.282.079 4.407.157 6.139.236 1.495 0 2.44.079 2.44.157Z"/>
    <path fill="#263238" d="M106.488 332.301c.158 0 .158 1.652 0 3.697-.157 2.046-.393 3.698-.472 3.698-.157 0-.157-1.652 0-3.698.079-2.045.315-3.697.472-3.697Z"/>
    <path fill="#fff" d="M95.942 341.505h17.63l.157-1.652-17.472-.472-.315 1.888" opacity=".6"/>
    <path fill="#AA6550" d="m159.221 308.779 3.699 27.928 13.537-.944-2.833-25.568-14.403-1.416Z"/>
    <path fill="#008D91" d="M176.615 332.694s15.19 5.114 15.426 7.867l-29.042.866-.236-7.552 1.102.236c4.25.865 8.657.393 12.75-1.417Z"/>
    <path fill="#fff" d="M166.147 335.212c-.551.157-.944.787-.787 1.337.157.551.787.944 1.338.787.551-.157 1.023-.944.787-1.495-.236-.55-1.023-.944-1.495-.629m-2.991 6.215v-2.36l27.783.078s1.338.551 1.18 1.416l-28.963.866Z" opacity=".6"/>
    <path fill="#263238" d="M177.008 332.537c0 .157-.708.236-1.416.708-.709.472-1.024 1.101-1.181 1.023-.157 0 .079-.866.866-1.416.944-.551 1.81-.394 1.731-.315Zm3.149 1.18c0 .158-.551.394-1.024 1.023-.472.629-.551 1.259-.708 1.259-.157 0-.236-.787.315-1.574.551-.708 1.338-.865 1.417-.708Zm1.81 3.619c-.158 0-.315-.629 0-1.416.314-.787 1.023-1.101 1.023-1.023.079.079-.315.551-.63 1.18-.236.63-.236 1.259-.393 1.259Z"/>
    <path fill="#263238" d="M176.694 332.458c0 .079-.551.158-1.417 0-.472-.078-.945-.157-1.495-.393-.315-.079-.551-.236-.866-.393a1.648 1.648 0 0 1-.472-.315c-.158-.157-.237-.551-.079-.787.157-.236.393-.314.629-.314.237 0 .394 0 .551.078.315.079.63.158.945.315.551.236 1.023.551 1.338.865.708.63.944 1.102.866 1.18-.079.079-.394-.393-1.102-.865-.315-.236-.787-.472-1.338-.708-.236-.079-.551-.157-.866-.236-.315-.079-.551-.079-.63.079v.157c.079.079.158.157.315.236.236.157.551.315.787.393.551.236 1.023.394 1.417.472.866.158 1.417.158 1.417.236Z"/>
    <path fill="#263238" d="M176.536 332.694c-.079 0-.315-.472-.393-1.416 0-.472 0-1.022.157-1.573.079-.315.157-.629.315-.865.157-.315.393-.708.944-.787.315 0 .551.236.63.393.079.158.157.394.157.551.079.315.079.708 0 .944-.078.629-.315 1.18-.551 1.495-.551.786-1.101.944-1.18.944-.079-.079.472-.394.866-1.102.236-.393.393-.865.393-1.416 0-.236 0-.55-.079-.865-.078-.315-.157-.551-.314-.551-.158 0-.394.236-.473.472-.157.236-.236.551-.314.787-.158.551-.237 1.023-.237 1.495 0 .944.158 1.494.079 1.494Z"/>
    <path fill="#263238" d="M112.549 167.567s-10.704 17.858-10.704 28.557l-2.598 130.355 16.922 4.013 12.908-127.288s31.246 127.681 32.269 127.681c1.023 0 16.371-2.753 16.371-2.753l-23.376-159.857-41.792-.708Z"/>
    <path fill="#455A64" d="M119.239 199.978c0 .237-.079.551-.158.945-.157.865-.315 2.124-.551 3.697-.551 3.225-1.259 7.788-2.125 13.531-1.731 11.407-3.856 27.22-5.667 44.763a949.357 949.357 0 0 0-3.541 44.999 2309.68 2309.68 0 0 0-.709 13.689c-.078 1.573-.157 2.832-.157 3.697 0 .394-.079.708-.079.944v-.944c0-.865.079-2.124.079-3.697.079-3.226.236-7.867.551-13.689a832.737 832.737 0 0 1 3.384-44.999c1.81-17.543 4.014-33.356 5.824-44.763.866-5.743 1.653-10.306 2.283-13.531.315-1.573.472-2.832.708-3.697.079-.394.158-.708.158-.945Zm26.759 1.81c.158 0 5.274 28.557 11.491 63.88 6.218 35.323 11.177 63.958 11.098 63.958-.158 0-5.273-28.557-11.491-63.88-6.218-35.244-11.176-63.879-11.098-63.958Zm-17.551 1.18s-.079-.079-.157-.315c-.079-.236-.236-.55-.394-.944-.315-.865-.787-2.124-1.259-3.697-.866-3.147-1.574-7.71-1.181-12.745.079-1.258.236-2.438.473-3.619.236-1.18.472-2.281.787-3.304.629-2.124 1.18-3.933 1.731-5.507.551-1.573 1.023-2.753 1.338-3.618.158-.394.315-.708.394-.944.078-.236.157-.315.157-.315s0 .157-.079.393c-.078.236-.157.63-.314 1.023-.315.944-.709 2.203-1.181 3.697-.472 1.574-1.102 3.383-1.653 5.507-.315 1.023-.551 2.124-.787 3.305-.157 1.18-.315 2.36-.472 3.618-.394 4.957.236 9.441 1.102 12.587.393 1.574.866 2.833 1.102 3.698.236.708.472 1.18.393 1.18Zm4.801-21.87v.944c0 .629.079 1.494.079 2.596.078 2.203.157 5.349.315 9.047l-.079-.157c1.967.786 4.171 1.73 6.532 2.674h-.157a876.584 876.584 0 0 1 5.273-3.225c.079-.079.236-.157.315-.236l-.079.157c.394-4.327.787-8.339 1.102-11.8l.158.157c-4.014 0-7.32-.079-9.76-.079-1.18 0-2.125 0-2.754-.078h-.945s.315 0 .945-.079c.708 0 1.574 0 2.754-.079 2.44 0 5.824-.078 9.838-.078h.236v.236c-.314 3.461-.629 7.552-1.023 11.8v.079l-.078.079c-.079.078-.237.157-.315.236-1.81 1.101-3.621 2.202-5.273 3.225l-.079.079h-.079c-2.361-.944-4.486-1.888-6.532-2.675l-.079-.079v-.078c-.079-3.777-.079-6.923-.158-9.205v-2.517c-.157-.708-.157-1.023-.157-.944Zm-24.477-3.462s0 .315-.079.866c-.079.629-.236 1.416-.393 2.36-.315 2.045-.787 4.956-1.338 8.339l-.079-.158c1.495 1.102 3.148 2.361 4.958 3.619h-.157c1.889-.55 3.935-1.101 5.981-1.652.079 0 .237-.078.315-.078l-.157.157c1.18-3.934 2.204-7.552 3.148-10.699l.158.236c-3.621-.866-6.612-1.574-8.815-2.124-1.024-.236-1.889-.472-2.519-.63-.708-.157-1.023-.236-1.023-.236s.315 0 .866.158c.629.157 1.495.314 2.518.55 2.204.472 5.352 1.18 8.973 1.967l.157.079-.079.157c-.944 3.147-1.967 6.844-3.069 10.699v.079h-.079c-.079 0-.236.079-.315.079a300.02 300.02 0 0 0-5.981 1.652h-.079l-.079-.079a275.021 275.021 0 0 0-4.88-3.698l-.078-.078v-.079c.629-3.461 1.18-6.372 1.574-8.496.157-.944.315-1.731.472-2.36 0-.394.079-.63.079-.63Zm34.158 22.815c0 .078-3.227.865-7.162 1.809-4.014.865-7.241 1.495-7.32 1.337 0-.078 3.227-.865 7.162-1.809 4.014-.865 7.32-1.495 7.32-1.337Z"/>
    <path fill="#455A64" d="M121.915 201.001c0 .079-.709.079-1.811 0-1.102-.078-2.676-.314-4.407-.708-1.732-.393-3.227-.865-4.25-1.337-1.023-.394-1.653-.787-1.653-.787 0-.079.708.157 1.731.551 1.102.315 2.598.787 4.251 1.18 1.652.393 3.226.629 4.328.787 1.102.157 1.811.236 1.811.314Z"/>
    <path fill="#263238" d="M120.026 65.296c.551 1.652-1.417 3.147-3.149 3.54-1.731.393-3.856.63-4.643 2.282-.709 1.416 0 3.146-.63 4.562-1.18 2.675-6.06 2.124-7.005 4.878-.629 1.888 1.181 3.855.945 5.9-.158 1.73-1.81 2.91-3.148 3.934-1.417 1.022-2.834 2.517-2.598 4.248.236 1.966 2.676 3.382 2.44 5.35-.236 1.966-2.833 2.91-3.227 4.798-.472 2.282 2.44 3.776 3.385 5.9.708 1.652.236 3.776 1.495 5.114 1.259 1.337 3.384 1.101 5.195.708l17.944-3.776c-1.18-2.832-.078-6.136 1.653-8.654 1.732-2.517 4.014-4.72 5.51-7.395 1.495-2.675 1.967-6.293 0-8.732m17.315-8.339c-.079 0 0-1.18-.551-2.832-.158-.394-.394-.866-.709-1.18-.314-.315-.787-.158-1.102.393-.55.944-.787 2.281-.787 3.619 0 1.337.237 2.675.787 3.619.315.472.788.708 1.102.393.394-.315.551-.787.709-1.18.551-1.73.472-2.91.551-2.832 0 0 .078.314.078.786 0 .472-.078 1.26-.314 2.125-.158.472-.315.944-.788 1.337-.236.236-.629.315-.944.236-.315-.157-.551-.393-.787-.63-.708-1.1-.866-2.438-.866-3.854s.236-2.754.866-3.855c.157-.236.393-.55.787-.63.315-.157.708 0 .944.237.473.393.63.944.788 1.337.314.865.314 1.652.314 2.124 0 .472 0 .787-.078.787Z"/>
    <path fill="#263238" d="M122.308 96.056c-3.227-5.507-4.171-12.745-4.958-19.038-.394-2.99-1.102-7.16 1.023-9.047 2.204-1.967 2.44-5.035 5.037-6.609 2.597-1.573 6.06-1.652 8.5.08"/>
    <path fill="#fff" d="M131.281 115.487c4.958.394 9.287-3.383 9.444-8.417.236-4.799.394-9.598.394-9.598s7.241-.63 7.792-7.788c.55-7.16.393-23.759.393-23.759-8.107-4.09-17.787-3.54-25.264 1.574l.393 25.253-.079 13.609c0 4.485 2.362 8.733 6.927 9.126Z"/>
    <path fill="#263238" d="M141.827 80.872c-1.259-1.573-3.227-2.124-4.88-1.1-1.653 1.1-2.282 3.46-1.416 5.191.629 1.259 2.046 2.36 3.541 2.675 1.338.315 2.283 1.573 2.125 2.99-.236 1.809-3.227 2.438-4.565 3.933-2.125 2.281-6.689 3.304-9.838 3.619-3.069.314-2.676.393-4.486-2.124-1.259-1.81-1.653-3.62-1.731-5.822-.079-5.27-.158-10.542-.315-15.891 0-1.888-.079-3.855.393-5.664.473-1.888 1.417-3.62 2.991-4.72 1.732-1.18 3.935-1.26 5.982-1.889 2.518-.786 4.565-2.438 6.926-3.618 2.361-1.18 5.194-1.889 7.477-.709 1.653.866 2.754 2.518 4.407 3.462 2.283 1.337 5.51 1.023 6.612 4.484.393 1.18.314 2.439-.079 3.619-1.574 4.641-7.32 6.45-11.491 4.484-.079.787.708 2.518-.158 5.035-.157.787-.236 2.045-1.495 2.045Z"/>
    <path fill="#995037" d="M140.489 85.357s0 .157-.079.314c-.157.158-.393.394-.787.394-.787.078-1.81-.787-1.889-1.967 0-.55.158-1.18.551-1.495.315-.393.787-.55 1.102-.63.709-.156 1.181.158 1.102.158 0 .079-.472 0-1.023.157-.551.158-1.338.866-1.259 1.81 0 .944.787 1.652 1.338 1.652.708 0 .944-.472.944-.393Z"/>
    <path fill="#263238" d="M151.587 79.22c0 .158-2.126.551-4.802 1.023-2.675.472-4.879.708-4.879.55 0-.157 2.125-.55 4.801-1.022 2.597-.393 4.801-.63 4.88-.55Zm-28.728 23.837c.393.944 1.574 1.259 2.519 1.023.944-.236 1.731-.944 2.439-1.652.709-.708 1.417-1.416 2.362-1.652 1.888-.551 4.25.708 5.902-.472 1.496-1.101 1.26-3.54 2.676-4.642.787-.629 1.811-.629 2.598-1.258 1.416-1.102 1.18-3.462 0-4.8-1.26-1.337-3.07-1.887-4.801-2.36l-15.427 6.53 1.732 9.283Z"/>
    <path fill="#455A64" d="M141.197 75.208s-.078 0-.157.079-.236.157-.394.236c-.393.157-.944.393-1.652.63a52.93 52.93 0 0 1-2.834.471c-1.102.158-2.361.158-3.699.472-1.338.315-2.755.866-3.778 2.046-1.023 1.18-1.416 2.91-2.204 4.641-.393.866-1.023 1.652-1.81 2.282-.787.629-1.731 1.022-2.676 1.337-1.889.63-4.014 1.023-5.588 2.36-.787.63-1.259 1.574-1.416 2.518-.158.944 0 1.966 0 2.989s-.079 2.045-.551 2.99c-.473.865-1.26 1.494-2.047 1.966-1.574.944-3.305 1.416-4.643 2.282a5.092 5.092 0 0 0-1.653 1.494c-.394.63-.63 1.259-.63 1.967-.079 1.338.315 2.596.472 3.619.237 1.101.315 2.045.237 2.832-.079.787-.315 1.337-.551 1.731-.237.314-.394.472-.394.472-.079 0 .63-.708.708-2.203.079-.787-.078-1.731-.314-2.753-.237-1.102-.63-2.282-.551-3.698 0-.708.236-1.495.629-2.124a6.956 6.956 0 0 1 1.732-1.652c1.416-.944 3.069-1.416 4.643-2.36.787-.472 1.496-1.023 1.889-1.888.473-.787.551-1.73.473-2.754 0-.944-.158-2.045 0-3.068a4.468 4.468 0 0 1 1.574-2.832c1.731-1.416 3.856-1.81 5.745-2.439.945-.314 1.81-.708 2.597-1.258.787-.551 1.26-1.26 1.653-2.124.787-1.574 1.181-3.383 2.361-4.642 1.102-1.259 2.676-1.888 4.014-2.124 1.338-.315 2.676-.315 3.7-.472a19.151 19.151 0 0 0 2.754-.393c1.574-.158 2.361-.63 2.361-.63Z"/>
    <path fill="#455A64" d="M137.026 77.804c0 .079-.551 0-1.496.236a7.113 7.113 0 0 0-3.463 2.046c-.551.63-1.101 1.416-1.338 2.439-.314.944-.314 2.045-.314 3.225 0 1.18.078 2.439-.551 3.697-.315.63-.787 1.18-1.338 1.495-.551.394-1.181.63-1.811.944-.55.315-1.18.63-1.495 1.102-.393.472-.551 1.022-.63 1.652-.078 1.18.158 2.517-.393 3.697-.551 1.102-1.496 1.81-2.361 2.36-.866.551-1.81.944-2.519 1.416-.708.472-1.338.944-1.81 1.495a5.84 5.84 0 0 0-.787 1.573c-.236.944.079 1.495 0 1.495 0 0-.079-.079-.158-.393-.078-.236-.157-.63-.078-1.18.078-.472.315-1.102.708-1.652.394-.63 1.023-1.102 1.81-1.574.787-.472 1.653-.865 2.519-1.416.866-.55 1.731-1.258 2.204-2.203.551-1.022.236-2.202.314-3.54.079-.629.237-1.337.709-1.888.472-.55 1.102-.865 1.653-1.18 1.18-.55 2.44-1.101 2.912-2.281.551-1.102.472-2.36.551-3.462 0-1.18 0-2.281.314-3.304a6.136 6.136 0 0 1 1.496-2.517c1.259-1.338 2.676-1.888 3.699-2.046.472-.078.866-.078 1.181-.078.393-.158.472-.158.472-.158Z"/>
    <path fill="#008D91" d="m142.929 104.159-1.889-3.855-16.213-.63-2.519 5.035h20.306"/>
    <path fill="#455A64" d="M198.574 138.773c-.079-.55 4.25-23.443 5.509-29.737.157-.786-.472-1.573-1.338-1.573h-32.427c-.629 0-1.18.393-1.259 1.023l-6.611 28.006-16.371 1.259.551 1.101h51.946v-.079Z"/>
    <path fill="#EBEBEB" d="m197.157 136.807 5.273-27.771-31.876.236-7.004 27.535h33.607Z"/>
    <path fill="#263238" d="m163.471 136.807 7.005-27.613 31.954-.158-5.273 27.771h-33.686Zm7.083-27.535-7.004 27.535 33.607-.079 5.273-27.692-31.876.236Z"/>
    <path fill="#263238" d="M197.157 136.964c0 .079-9.366.236-20.857.236s-20.857-.079-20.857-.236c0-.079 9.366-.236 20.857-.236s20.857.157 20.857.236Z"/>
    <path fill="#455A64" d="M194.953 129.962s-.157 0-.393.079h-1.181c-1.102 0-2.597 0-4.407.079-3.7 0-8.815.078-14.482.078h-4.88l.079-.236c1.102-4.405 2.125-8.181 2.833-11.013.394-1.338.63-2.36.866-3.226.236-.708.315-1.18.393-1.18l-.236 1.18c-.157.787-.472 1.888-.787 3.226-.708 2.832-1.652 6.608-2.676 11.013l-.157-.236h4.644c5.666 0 10.782 0 14.481.079 1.811 0 3.306.079 4.408.079h1.18a.793.793 0 0 0 .315.078Z"/>
    <path fill="#008D91" d="m171.814 128.94.63-2.675h4.092l-.551 2.675h-4.171Zm5.588 0 1.259-5.271h4.093l-1.181 5.271h-4.171Zm5.588 0 .63-2.675h4.092l-.551 2.675h-4.171Zm5.588 0 2.361-10.227h4.093l-2.283 10.227h-4.171Z"/>
    <path fill="#455A64" d="M175.041 131.929c0 .079-.787.236-1.653.158-.945 0-1.653-.079-1.653-.236 0-.079.708-.236 1.653-.158.944 0 1.653.079 1.653.236Zm5.43 0c0 .079-.787.236-1.652.158-.945 0-1.653-.079-1.653-.236 0-.079.708-.236 1.653-.158.944 0 1.652.079 1.652.236Zm5.431-.078c0 .078-.787.236-1.653.157-.944 0-1.653-.079-1.653-.236 0-.079.709-.236 1.653-.157.866.078 1.653.157 1.653.236Zm5.431 0c0 .078-.787.236-1.653.157-.945 0-1.653-.079-1.653-.236 0-.079.708-.236 1.653-.157.866.078 1.653.157 1.653.236Zm-8.028-18.488c0 .079-2.046.236-4.565.236-2.519 0-4.565-.079-4.565-.236 0-.079 2.046-.236 4.565-.236 2.519.079 4.565.157 4.565.236Zm-4.801-1.101c0 .078-.945.236-2.047.236-1.101 0-2.046-.079-2.046-.236 0-.079.945-.236 2.046-.236 1.102 0 2.047.078 2.047.236Z"/>
    <path fill="#008D91" d="m169.689 155.687 18.81-13.609-.708-1.102c-1.023-1.652-2.597-2.989-4.408-3.697l-2.912.55-17.394 2.675 6.612 15.183Zm-66.742-3.146 15.583-6.215-3.463-12.902-12.75 4.327.63 14.79Z"/>
    <path fill="#008D91" d="M169.059 156.002c3.857-1.967 4.88-6.529 2.991-10.463l-16.135-34.536c-.393-.865-.944-1.652-1.653-2.203-6.375-5.507-13.379-4.562-13.379-4.562l-16.843-.472s-13.223 0-18.181 10.463c-.394.786-8.028 16.048-13.144 26.118-2.361 4.641-.079 10.306 4.8 12.115 4.33 1.573 9.052-.472 10.941-4.641l5.509-12.273 3.463 17.622-5.037 14.475 41.793.551-3.227-19.431-1.023-13.846 8.5 17.464c1.889 4.013 6.69 5.586 10.625 3.619Z"/>
    <path fill="#000" d="M118.766 152.777c3.149 2.36 7.792 1.573 11.727.944 3.936-.63 7.635-2.518 10.232-5.507 1.102-1.338 2.046-3.068 1.889-4.799-.157-1.731-1.731-3.461-3.463-3.225-2.046.236-2.991 2.517-3.935 4.326-3.07 5.665-9.996 8.89-16.292 7.631-.079-.157-.709.158-.158.63Zm25.816-27.22c1.023 7.946.551 7.316 2.204 15.183.787 3.855 1.81 7.867 4.486 10.778l-1.338-16.599-5.352-9.362Z" opacity=".2"/>
    <path fill="#008D91" d="m112.391 167.567-1.18-3.462 3.069-2.045 38.33-3.226 2.754 5.114-1.18 4.248-41.793-.629Z"/>
    <path fill="#263238" d="M120.262 101.799c-1.574.629-2.912 1.966-3.385 3.619-.472 1.652-.236 3.461.709 4.877.315.472.787 1.023.708 1.573-.079 1.417-2.361 1.417-3.069 2.675-.473.787-.079 1.888.629 2.596.709.708 1.574 1.023 2.361 1.574.787.55 1.496 1.337 1.417 2.281.787 0 1.259-1.023 1.181-1.809-.158-.787-.63-1.495-.945-2.203-.393-.708-.551-1.652-.079-2.281.551-.708 1.575-.787 2.44-1.102 1.653-.629 2.519-2.753 1.811-4.405-.551-1.18-1.732-2.282-1.102-3.462.315-.629 1.102-.865 1.653-1.18 1.259-.708 2.125-2.045 2.282-3.461.079-1.416-.551-2.911-1.653-3.776M113.808 137.2c.079 0-.236.787-.866 1.967-.551 1.18-1.417 2.832-2.44 4.563a60.047 60.047 0 0 1-2.833 4.326c-.787 1.102-1.259 1.731-1.338 1.653-.079 0 .393-.709 1.102-1.81.708-1.101 1.652-2.675 2.676-4.405a118.329 118.329 0 0 0 2.518-4.485c.709-1.18 1.102-1.888 1.181-1.809Z"/>
    <path fill="#263238" d="M110.109 143.808c.078 0 .236 1.338-.236 2.911-.473 1.574-1.417 2.596-1.496 2.518-.078-.079.63-1.18 1.102-2.597.472-1.573.551-2.832.63-2.832Zm61.232.551c-.078.079-3.384-6.766-7.319-15.262s-7.005-15.419-6.926-15.419c.078-.079 3.384 6.765 7.319 15.262 3.936 8.417 7.084 15.34 6.926 15.419Zm-19.912-35.323c0 .079-.708.315-1.732.944a11.052 11.052 0 0 0-3.384 3.305 10.987 10.987 0 0 0-1.653 4.405c-.157 1.18-.157 1.967-.236 1.967-.079 0-.236-.787-.079-2.046.079-1.258.551-2.989 1.653-4.641 1.102-1.652 2.519-2.754 3.621-3.304 1.023-.472 1.81-.63 1.81-.63Zm-34.079 44.213c-.079 0-1.968-7.946-4.172-17.858-2.204-9.913-3.935-17.937-3.778-17.937.079 0 1.968 7.946 4.172 17.858 2.125 9.912 3.856 17.937 3.778 17.937Z"/>
    <path fill="#AA6550" d="m188.499 142.078 7.635-3.304h-10.153l2.203 2.91"/>
    <path fill="#263238" d="M172.837 142.943c-.079.079-.866-.787-1.81-1.731-1.024-.944-1.889-1.73-1.811-1.809.079-.079 1.024.472 2.047 1.495 1.023 1.022 1.653 1.966 1.574 2.045Zm-14.088 10.07s-.237-.394-.63-1.023a77.327 77.327 0 0 1-1.574-2.989c-1.338-2.518-3.07-6.058-5.037-9.913a355.12 355.12 0 0 0-5.037-9.912c-.63-1.18-1.181-2.203-1.575-2.99-.393-.708-.551-1.101-.551-1.101s.237.393.709 1.023c.393.708.944 1.652 1.653 2.91a454.247 454.247 0 0 1 5.115 9.913c1.889 3.855 3.621 7.395 4.88 9.991.63 1.259 1.102 2.281 1.496 2.989.393.708.629 1.102.551 1.102Zm-15.033-10.621v.236c0 .158-.079.472-.158.787a10.612 10.612 0 0 1-1.023 2.675c-1.18 2.202-3.62 4.72-7.083 6.293-3.463 1.574-6.848 2.046-9.209 2.282-1.18.157-2.203.236-2.833.236-.708.078-1.023.078-1.023 0 0 0 .393-.079 1.023-.158.787-.078 1.731-.236 2.833-.393 2.361-.393 5.746-.865 9.051-2.36 3.306-1.495 5.825-3.934 7.005-6.058 1.181-2.045 1.338-3.618 1.417-3.54Zm-8.422 20.218c0 .079-5.194.551-11.569 1.023-6.375.472-11.57.708-11.649.63 0-.079 5.195-.551 11.57-1.023 6.454-.472 11.648-.708 11.648-.63Zm6.69-3.068c.079 0 .63 1.731.866 3.934.236 2.202.079 4.012 0 4.012-.157 0-.157-1.81-.393-3.934-.236-2.281-.551-4.012-.473-4.012Zm2.676-2.517c.079 0 .236.55.315 1.573.158 1.023.236 2.36.079 3.934-.079 1.494-.394 2.91-.63 3.854-.236.945-.551 1.574-.551 1.495-.157 0 .63-2.36.787-5.428.315-2.989-.078-5.428 0-5.428Zm-1.731-52.63c0 .078-3.778 0-8.343-.236-4.644-.236-8.343-.551-8.343-.708 0-.079 3.778 0 8.343.236 4.644.314 8.343.629 8.343.708Z"/>
    <path fill="#008D91" d="M69.969 118.477c1.102.157 2.204.393 3.148.865l2.361-1.967 4.014 3.068-1.259 2.754c.63.865 1.26 1.809 1.653 2.832l3.07.236.708 5.035-2.834 1.101c-.157 1.102-.393 2.203-.865 3.147l1.967 2.36-3.07 4.012-2.754-1.258c-.866.629-1.81 1.258-2.833 1.652l-.237 3.068-5.037.708-1.102-2.832c-1.101-.158-2.203-.394-3.148-.866l-2.36 1.967-4.015-3.068 1.26-2.754c-.63-.865-1.26-1.809-1.653-2.832l-3.07-.236-.708-5.035 2.833-1.101c.158-1.101.394-2.203.866-3.147l-1.968-2.36 3.07-4.012 2.754 1.259c.866-.63 1.81-1.259 2.834-1.652l.236-3.068 5.037-.708 1.102 2.832Zm-2.046 6.923a5.394 5.394 0 0 0-4.644 6.057c.393 2.99 3.148 5.035 6.06 4.642a5.396 5.396 0 0 0 4.644-6.058 5.396 5.396 0 0 0-6.06-4.641Z"/>
    <path fill="#008D91" d="M67.923 125.4s.078-.079.314-.079c.237 0 .551-.079 1.024 0 .865.079 2.203.393 3.305 1.495 1.18 1.101 1.968 2.989 1.574 5.113-.236 1.023-.708 2.046-1.574 2.832-.787.787-1.967 1.338-3.148 1.574a5.834 5.834 0 0 1-3.463-.63 5.486 5.486 0 0 1-2.282-2.36c-1.024-1.888-.709-4.012.157-5.349.787-1.416 1.968-2.046 2.755-2.36.393-.158.708-.236.944-.236h.394c0 .078-.473.078-1.26.393a5.138 5.138 0 0 0-2.597 2.36c-.708 1.259-.944 3.226-.079 5.035.473.865 1.18 1.652 2.125 2.124.945.551 2.047.708 3.149.551 1.102-.158 2.125-.63 2.912-1.416.787-.708 1.259-1.652 1.495-2.596.472-1.967-.315-3.777-1.338-4.799a4.973 4.973 0 0 0-3.148-1.574c-.787-.078-1.26 0-1.26-.078Z"/>
    <path fill="#008D91" d="M69.969 118.477s0-.079-.079-.158a3.806 3.806 0 0 1-.236-.55c-.236-.472-.472-1.18-.866-2.124l.08.078c-1.26.158-2.992.394-4.96.708l.08-.078c-.08.944-.158 1.966-.237 3.068v.078h-.078c-.945.394-1.89.944-2.834 1.652l-.079.079h-.078c-.866-.393-1.81-.787-2.755-1.259l.157-.078a292.172 292.172 0 0 1-3.07 4.012v-.236c.63.708 1.26 1.495 1.969 2.36l.078.079-.078.078c-.394.944-.709 2.046-.787 3.147v.079l-.08.078c-.865.315-1.888.708-2.833 1.102l.158-.236c.236 1.573.472 3.225.708 5.035l-.157-.158c.944.079 1.967.158 3.07.236h.157l.078.079a11.12 11.12 0 0 0 1.653 2.753l.079.079-.079.079c-.393.865-.866 1.809-1.26 2.753l-.078-.236c1.26.944 2.597 1.967 4.014 3.068h-.236c.708-.629 1.574-1.258 2.361-1.966l.079-.079.157.079c.945.393 2.047.708 3.149.786.078.079-.158-.157.157.158v.157l.079.157.157.394.236.708c.158.472.394.944.551 1.416l-.236-.158c1.653-.236 3.384-.472 5.037-.708l-.157.158.236-3.068v-.158l.157-.078a10.274 10.274 0 0 0 2.834-1.653l.078-.078.08.078c.944.394 1.888.866 2.754 1.259l-.236.079 3.07-4.012v.236c-.63-.787-1.339-1.574-1.969-2.36l-.078-.079.079-.079c.393-1.022.708-2.045.865-3.146v-.079l.079-.079c.944-.393 1.968-.708 2.833-1.023l-.078.158c-.236-1.731-.473-3.383-.63-5.035l.157.157c-1.101-.078-2.046-.157-3.07-.314h-.078v-.079c-.472-1.101-1.023-1.967-1.653-2.832l-.078-.079v-.079c.472-1.022.865-1.888 1.259-2.753v.157c-1.574-1.18-2.833-2.202-4.014-3.068h.157c-.944.787-1.731 1.416-2.36 1.967-1.024-.393-1.81-.629-2.362-.708-.236-.079-.472-.079-.63-.157-.314.236-.393.236-.393.236h.236c.157 0 .315 0 .63.078.55.079 1.338.236 2.36.708h-.078c.63-.55 1.417-1.18 2.283-1.966l.078-.079.079.079c1.18.865 2.44 1.888 4.014 3.068l.079.078-.079.079c-.394.865-.787 1.809-1.26 2.753v-.157c.63.787 1.26 1.81 1.653 2.832l-.157-.078c.945.078 1.968.157 3.07.236h.157v.157c.236 1.573.472 3.225.708 5.035v.157l-.157.079c-.944.314-1.889.708-2.833 1.101l.157-.157c-.157 1.101-.394 2.203-.866 3.225v-.236c.63.787 1.26 1.574 1.968 2.36l.079.158-.08.157-3.069 4.012-.078.158-.158-.079c-.944-.393-1.81-.865-2.754-1.259h.236a9.642 9.642 0 0 1-2.912 1.652l.157-.157-.236 3.068v.157h-.157a784.65 784.65 0 0 1-5.038.708h-.157l-.079-.157c-.157-.472-.393-.944-.55-1.416l-.316-.865-.157-.394-.079-.157v-.157c.394.314.079.078.158.157a12.907 12.907 0 0 1-3.227-.865h.236c-.787.708-1.574 1.337-2.361 1.966l-.158.079-.157-.079c-1.417-1.022-2.755-2.124-4.014-3.068l-.157-.078.078-.158c.472-.944.866-1.888 1.26-2.753v.236c-.709-.944-1.26-1.888-1.653-2.911l.157.157c-1.023-.078-2.125-.157-3.07-.236h-.157v-.157a393.824 393.824 0 0 0-.708-5.035v-.157l.157-.079c1.024-.393 1.968-.708 2.834-1.023l-.158.158c.158-1.18.473-2.282.866-3.226v.158c-.708-.787-1.338-1.652-1.968-2.36l-.078-.079.078-.079a286.195 286.195 0 0 0 3.07-4.012l.079-.079.078.079c.945.472 1.89.865 2.755 1.259h-.157c.944-.708 1.889-1.259 2.912-1.652l-.079.078c.079-1.101.236-2.124.315-3.068v-.078h.078c2.047-.236 3.7-.472 5.038-.63h.078v.079c.315.944.551 1.652.787 2.124.08.236.158.393.158.551.236-.079.236 0 .236 0Z"/>
    <path fill="#263238" d="M59.423 156.553s.078 0 .236-.079h.63c.55 0 1.337.236 2.046.944.708.708 1.259 1.888.944 3.226a3.843 3.843 0 0 1-1.023 1.809c-.551.472-1.18.865-1.968.944a3.825 3.825 0 0 1-2.125-.393c-.63-.315-1.102-.866-1.416-1.495-.63-1.18-.394-2.517.078-3.383.472-.865 1.26-1.259 1.732-1.495.236-.078.472-.157.63-.157.157.079.157.079.236.079 0 0-.315.078-.788.236-.472.236-1.18.629-1.652 1.495-.472.786-.63 2.045 0 3.146a3.637 3.637 0 0 0 1.338 1.338 3.3 3.3 0 0 0 1.967.393 3.024 3.024 0 0 0 1.81-.865 3.502 3.502 0 0 0 .945-1.652c.236-1.18-.236-2.36-.866-2.99-.63-.708-1.416-.944-1.967-1.023-.551-.078-.787-.078-.787-.078Z"/>
    <path fill="#263238" d="m60.682 152.226-.079-.079c0-.078-.079-.157-.157-.314-.158-.315-.315-.787-.551-1.338h.078c-.787.079-1.889.236-3.148.472l.079-.078c-.079.55-.079 1.258-.158 1.888v.078h-.078c-.63.236-1.18.63-1.732 1.023h-.158c-.55-.236-1.101-.472-1.73-.787h.157c-.63.787-1.26 1.652-1.89 2.518v-.158c.394.472.788.944 1.26 1.495l.079.079v.078c-.236.551-.394 1.259-.551 1.967v.079h-.079c-.55.236-1.18.472-1.81.708l.079-.157c.157 1.022.315 2.045.393 3.146l-.078-.078c.63.078 1.259.078 1.888.157h.08v.079c.235.55.629 1.18 1.022 1.73l.079.079v.079c-.236.55-.55 1.18-.787 1.731l-.079-.158c.787.63 1.653 1.259 2.519 1.888h-.158c.473-.393.945-.786 1.496-1.258l.078-.079h.08c.629.236 1.258.393 1.967.551.079 0-.079-.079.079.078v.079l.078.079.079.236.157.472c.08.314.236.629.315.865l-.157-.079c1.023-.157 2.125-.314 3.148-.393l-.079.157c.079-.629.079-1.258.158-1.888v-.078h.078c.63-.236 1.26-.63 1.732-1.023l.079-.079h.078c.551.236 1.18.551 1.732.787l-.157.079c.63-.866 1.259-1.731 1.888-2.518v.157c-.393-.472-.787-1.022-1.259-1.494l-.079-.079v-.079c.237-.629.473-1.337.551-1.966v-.079h.079c.63-.236 1.18-.472 1.81-.629l-.078.157c-.158-1.101-.315-2.124-.394-3.147l.079.079c-.709-.079-1.338-.158-1.89-.158h-.078v-.078c-.315-.708-.63-1.259-1.023-1.731v-.157c.315-.63.55-1.18.787-1.731v.079c-.945-.787-1.81-1.416-2.519-1.967h.08c-.552.472-1.103.865-1.496 1.18a14.45 14.45 0 0 0-1.496-.472c-.157 0-.315-.079-.393-.079v.079h.157c.079 0 .236 0 .394.079.315.078.866.157 1.495.393h-.079c.394-.315.866-.787 1.496-1.259h.079c.708.551 1.574 1.18 2.518 1.888h.079v.079a30.901 30.901 0 0 1-.787 1.731v-.079c.393.551.787 1.101 1.023 1.809l-.079-.078c.63.078 1.26.078 1.89.157h.078v.079c.157 1.023.315 2.045.472 3.147v.078h-.079c-.55.236-1.18.472-1.81.708l.079-.078a6.598 6.598 0 0 1-.551 2.045v-.157c.394.472.787.944 1.26 1.494l.078.079-.079.079c-.63.786-1.26 1.652-1.889 2.517l-.078.079-.08-.079c-.55-.236-1.18-.55-1.73-.786h.157c-.551.393-1.18.786-1.81 1.022l.078-.078c-.078.629-.078 1.258-.157 1.888v.078h-.079c-1.023.158-2.046.315-3.148.394h-.08v-.079c-.078-.315-.236-.629-.315-.865l-.157-.472-.079-.236-.078-.079v-.079c.236.158.078.079.078.079-.708-.079-1.416-.315-2.046-.551h.157c-.472.394-1.023.866-1.495 1.259l-.079.079-.079-.079c-.865-.629-1.731-1.337-2.518-1.888l-.079-.079.079-.078c.236-.63.55-1.181.787-1.731v.157c-.472-.551-.787-1.18-1.023-1.809l.079.078c-.63-.078-1.338-.078-1.89-.157h-.078v-.079c-.157-1.101-.315-2.124-.394-3.146v-.079h.08c.629-.236 1.258-.472 1.81-.629l-.08.078c.08-.708.315-1.416.552-2.045v.078c-.394-.55-.866-1.022-1.26-1.494l-.078-.079.078-.079a41.703 41.703 0 0 0 1.89-2.517l.078-.079h.079c.63.315 1.18.551 1.731.787h-.079c.551-.472 1.181-.787 1.81-1.023l-.078.079c.079-.708.157-1.337.157-1.888v-.079h.08c1.258-.157 2.36-.314 3.147-.393.236.551.394 1.023.473 1.337.078.158.078.236.157.315-.236.157-.236.236-.236.236Zm158.512 87.402s-.236 0-.629.079c-.472 0-1.102 0-1.889.079-1.732 0-4.093.078-7.084.078-5.981 0-14.167 0-23.218.079h-1.889v-.236c0-8.654.079-16.442.079-22.106 0-2.754.079-5.035.079-6.687 0-.787 0-1.338.078-1.81 0-.393 0-.629.079-.629 0 0 0 .236.079.629 0 .472 0 1.023.079 1.81 0 1.573.078 3.855.078 6.687 0 5.664.079 13.452.079 22.106l-.236-.236h1.653c9.051 0 17.236.079 23.218.079 2.912 0 5.352.078 7.083.078.787 0 1.417 0 1.889.079.236-.079.472-.079.472-.079Z"/>
    <path fill="#263238" d="M215.338 216.027s-.315.394-1.023 1.023c-.709.629-1.732 1.495-2.912 2.596a651.469 651.469 0 0 1-9.76 8.339l-.551.472-.157.157-.158-.157c-1.495-1.416-2.99-2.753-4.328-4.012h.236a423.215 423.215 0 0 1-6.375 5.271c-.709.629-1.338 1.101-1.811 1.494l-.708.472.63-.629c.472-.393 1.023-.944 1.731-1.573a715.354 715.354 0 0 0 6.218-5.35l.157-.078.158.157c1.338 1.259 2.833 2.596 4.329 4.012h-.315l.551-.472a529.288 529.288 0 0 1 9.838-8.182c1.259-1.022 2.204-1.809 2.991-2.438.865-.787 1.259-1.102 1.259-1.102Z"/>
    <path fill="#263238" d="M215.338 223.265c-.079 0-.079-.787-.157-2.124 0-1.338-.079-3.147-.079-5.271l.236.236h-.394c-2.125 0-4.092 0-5.509-.079-1.417-.079-2.282-.079-2.282-.157 0-.079.865-.079 2.282-.158 1.417-.078 3.384-.078 5.509-.078h.63v.236c0 2.045 0 3.933-.079 5.271 0 1.258-.078 2.124-.157 2.124Z"/>
  </g>
  <defs>
    <clipPath id="a">
      <path fill="#fff" d="M0 0h547.002v349.766H0z"/>
    </clipPath>
  </defs>
</svg>
