<svg xmlns="http://www.w3.org/2000/svg" width="451" height="446" fill="none" viewBox="0 0 451 446">
  <rect width="445.136" height="445.288" y=".417" fill="#F2F7F8" opacity=".1" rx="222.568"/>
  <g clip-path="url(#a)">
    <path fill="#EBEBEB" d="M200.746 287.531h-19.767v96.478h19.767v-96.478Zm250.064.218h-19.767v96.477h19.767v-96.477ZM35.78 273.593H16.015v110.416H35.78V273.593Zm41.206-49.074H57.219v159.49h19.767v-159.49Zm41.277 33.321H98.496v126.096h19.767V257.84Zm41.205-42.613h-19.767v168.782h19.767V215.227Zm82.483.799h-19.767v167.983h19.767V216.026Zm41.278 55.171h-19.767v112.812h19.767V271.197Zm41.205-47.767h-19.767v160.579h19.767V223.43Zm41.205-36.152h-19.767v196.731h19.767V187.278Zm41.277 35.354H387.15v161.377h19.766V222.632Z"/>
    <path fill="#455A64" d="M260.337 237.731H172.84v145.624h87.497V237.731Z"/>
    <path fill="#000" d="M260.337 239.257H172.84v145.624h87.497V239.257Z" opacity=".3"/>
    <path fill="#455A64" d="M278.505 239.257h-87.497v145.624h87.497V239.257Zm-87.788 69.907c.073.072-3.851 3.194-8.72 7.042-4.869 3.774-8.866 6.823-8.939 6.751-.073-.073 3.851-3.194 8.721-7.042 4.869-3.847 8.865-6.824 8.938-6.751Zm0-8.203c.073.072-3.851 3.194-8.72 7.041-4.869 3.775-8.866 6.824-8.939 6.752-.073-.073 3.851-3.194 8.721-7.042 4.869-3.847 8.865-6.824 8.938-6.751Zm0-8.203c.073.072-3.851 3.194-8.72 7.041-4.869 3.775-8.866 6.824-8.939 6.752-.073-.073 3.851-3.195 8.721-7.042 4.869-3.848 8.865-6.897 8.938-6.751Zm0-8.204c.073.073-3.851 3.195-8.72 7.042-4.869 3.775-8.866 6.824-8.939 6.751-.073-.072 3.851-3.194 8.721-7.041 4.869-3.848 8.865-6.897 8.938-6.752Zm0-8.275c.073.072-3.851 3.194-8.72 7.041-4.869 3.775-8.866 6.824-8.939 6.752-.073-.073 3.851-3.195 8.721-7.042 4.869-3.775 8.865-6.824 8.938-6.751Zm0-8.203c.073.072-3.851 3.194-8.72 7.041-4.869 3.775-8.866 6.824-8.939 6.752-.073-.073 3.851-3.195 8.721-7.042 4.869-3.775 8.865-6.824 8.938-6.751Zm0-8.204c.073.073-3.851 3.195-8.72 7.042-4.869 3.775-8.866 6.824-8.939 6.751-.073-.072 3.851-3.194 8.721-7.041 4.869-3.775 8.865-6.824 8.938-6.752Zm0-8.203c.073.073-3.851 3.194-8.72 7.042-4.869 3.775-8.866 6.824-8.939 6.751-.073-.072 3.851-3.194 8.721-7.041 4.869-3.775 8.865-6.824 8.938-6.752Zm0-8.203c.073.073-3.851 3.194-8.72 7.042-4.869 3.775-8.866 6.824-8.939 6.751-.073-.073 3.851-3.194 8.721-7.042 4.869-3.774 8.865-6.823 8.938-6.751Zm-3.561-5.372c.073.073-3.052 2.614-6.904 5.59-3.924 3.049-7.121 5.444-7.194 5.299-.073-.072 3.052-2.613 6.904-5.589 3.924-3.049 7.122-5.445 7.194-5.3Zm-10.392-.218c.073.073-.727.799-1.744 1.597-1.017.799-1.89 1.38-1.962 1.307-.073-.072.727-.798 1.744-1.597 1.017-.798 1.889-1.379 1.962-1.307Zm-3.779 95.389c-.073-.072 3.852-3.194 8.721-7.041 4.869-3.775 8.866-6.824 8.938-6.752.073.073-3.851 3.194-8.72 7.042-4.869 3.847-8.866 6.896-8.939 6.751Z"/>
    <path fill="#455A64" d="M173.567 343.646c-.073-.072 3.851-3.194 8.72-7.041 4.869-3.775 8.866-6.824 8.939-6.752.073.073-3.852 3.195-8.721 7.042-4.869 3.848-8.938 6.896-8.938 6.751Zm-.509 9.583c-.073-.073 3.851-3.194 8.721-7.042 4.869-3.775 8.865-6.824 8.938-6.751.073.072-3.851 3.194-8.72 7.041-4.869 3.775-8.866 6.824-8.939 6.752Zm0 8.203c-.073-.073 3.851-3.194 8.721-7.042 4.869-3.775 8.865-6.824 8.938-6.751.073.072-3.851 3.194-8.72 7.041-4.869 3.848-8.866 6.824-8.939 6.752Zm0 8.203c-.073-.073 3.851-3.194 8.721-7.042 4.869-3.775 8.865-6.824 8.938-6.751.073.073-3.851 3.194-8.72 7.042-4.869 3.847-8.866 6.824-8.939 6.751Zm0 8.203c-.073-.073 3.851-3.194 8.721-7.042 4.869-3.774 8.865-6.823 8.938-6.751.073.073-3.851 3.194-8.72 7.042-4.869 3.847-8.866 6.824-8.939 6.751Zm3.561 5.445c-.073-.073 3.052-2.614 6.904-5.59 3.924-3.049 7.121-5.445 7.194-5.299.073.072-3.052 2.613-6.904 5.589-3.924 2.977-7.122 5.372-7.194 5.3Zm10.392.145c-.073-.073.727-.799 1.744-1.597 1.017-.799 1.89-1.38 1.962-1.307.073.073-.727.799-1.744 1.597-1.017.799-1.889 1.379-1.962 1.307Zm194.252-103.084h-77.032v102.939h77.032V280.344Z"/>
    <path fill="#000" d="M381.263 281.21h-77.032v102.938h77.032V281.21Z" opacity=".3"/>
    <path fill="#455A64" d="M396.742 281.21H319.71v102.938h77.032V281.21Z"/>
    <path fill="#455A64" d="M319.71 343.138c.073.073-3.343 2.831-7.631 6.171-4.287 3.339-7.776 5.952-7.848 5.88-.073-.073 3.343-2.831 7.63-6.171 4.215-3.339 7.776-5.952 7.849-5.88Zm0-7.187c.073.073-3.343 2.831-7.631 6.171-4.287 3.339-7.776 5.953-7.848 5.88-.073-.073 3.343-2.831 7.63-6.171 4.215-3.339 7.776-5.952 7.849-5.88Zm0-7.187c.073.073-3.343 2.832-7.631 6.171-4.287 3.339-7.776 5.953-7.848 5.88-.073-.073 3.343-2.831 7.63-6.17 4.215-3.34 7.776-5.953 7.849-5.881Zm0-7.186c.073.072-3.343 2.831-7.631 6.17-4.287 3.339-7.776 5.953-7.848 5.88-.073-.072 3.343-2.831 7.63-6.17 4.215-3.34 7.776-5.953 7.849-5.88Zm0-7.187c.073.072-3.343 2.831-7.631 6.17-4.287 3.34-7.776 5.953-7.848 5.88-.073-.072 3.343-2.831 7.63-6.17 4.215-3.339 7.776-5.953 7.849-5.88Zm0-7.187c.073.073-3.343 2.831-7.631 6.17-4.287 3.34-7.776 5.953-7.848 5.881-.073-.073 3.343-2.832 7.63-6.171 4.215-3.339 7.776-5.953 7.849-5.88Zm0-7.187c.073.073-3.343 2.831-7.631 6.171-4.287 3.339-7.776 5.952-7.848 5.88-.073-.073 3.343-2.831 7.63-6.171 4.215-3.339 7.776-5.952 7.849-5.88Zm0-7.187c.073.073-3.343 2.831-7.631 6.171-4.287 3.339-7.776 5.952-7.848 5.88-.073-.073 3.343-2.831 7.63-6.171 4.215-3.339 7.776-5.952 7.849-5.88Zm0-7.187c.073.073-3.343 2.832-7.631 6.171-4.287 3.339-7.776 5.953-7.848 5.88-.073-.073 3.343-2.831 7.63-6.17 4.215-3.34 7.776-5.953 7.849-5.881Zm-3.125-4.718c.073.072-2.616 2.323-6.032 4.936-3.415 2.614-6.25 4.719-6.25 4.646-.072-.072 2.617-2.323 6.032-4.936 3.343-2.614 6.177-4.719 6.25-4.646Zm-9.084-.145c.073.072-.581.726-1.526 1.452-.872.726-1.672 1.234-1.744 1.088-.073-.072.581-.725 1.526-1.451.872-.654 1.671-1.162 1.744-1.089Zm12.209 90.597c.073.073-3.343 2.831-7.631 6.171-4.287 3.339-7.776 5.952-7.848 5.88-.073-.073 3.343-2.831 7.63-6.171 4.215-3.339 7.776-5.952 7.849-5.88Zm0-7.187c.073.073-3.343 2.832-7.631 6.171-4.287 3.339-7.776 5.953-7.848 5.88-.073-.073 3.343-2.831 7.63-6.17 4.215-3.34 7.776-5.953 7.849-5.881Zm0-7.186c.073.072-3.343 2.831-7.631 6.17-4.287 3.339-7.776 5.953-7.848 5.88-.073-.072 3.343-2.831 7.63-6.17 4.215-3.34 7.776-5.953 7.849-5.88Zm0-7.187c.073.072-3.343 2.831-7.631 6.17-4.287 3.34-7.776 5.953-7.848 5.88-.073-.072 3.343-2.831 7.63-6.17 4.215-3.339 7.776-5.953 7.849-5.88Zm-180.517-36.515H56.565v70.126h82.628v-70.126Z"/>
    <path fill="#000" d="M139.193 313.302H56.565v70.126h82.628v-70.126Z" opacity=".3"/>
    <path fill="#455A64" d="M154.09 314.719H71.462v70.126h82.628v-70.126Zm-82.918 57.384c.072.073-3.125 2.686-7.195 5.808-3.997 3.121-7.34 5.59-7.412 5.517-.073-.073 3.125-2.686 7.194-5.808 3.997-3.121 7.34-5.662 7.413-5.517Zm0-6.824c.072.073-3.125 2.686-7.195 5.808-3.997 3.121-7.34 5.59-7.412 5.517-.073-.073 3.125-2.686 7.194-5.808 3.997-3.121 7.34-5.589 7.413-5.517Zm0-6.751c.072.073-3.125 2.686-7.195 5.808-3.997 3.121-7.34 5.589-7.412 5.517-.073-.073 3.125-2.686 7.194-5.808 3.997-3.121 7.34-5.59 7.413-5.517Zm0-6.751c.072.072-3.125 2.686-7.195 5.807-3.997 3.122-7.34 5.59-7.412 5.518-.073-.073 3.125-2.686 7.194-5.808 3.997-3.122 7.34-5.59 7.413-5.517Zm0-6.751c.072.072-3.125 2.686-7.195 5.807-3.997 3.122-7.34 5.59-7.412 5.517-.073-.072 3.125-2.686 7.194-5.807 3.997-3.194 7.34-5.663 7.413-5.517Zm0-6.824c.072.072-3.125 2.686-7.195 5.807-3.997 3.122-7.34 5.59-7.412 5.517-.073-.072 3.125-2.686 7.194-5.807 3.997-3.122 7.34-5.59 7.413-5.517Zm0-6.752c.072.073-3.125 2.686-7.195 5.808-3.997 3.122-7.34 5.59-7.412 5.517-.073-.072 3.125-2.686 7.194-5.807 3.997-3.122 7.34-5.59 7.413-5.518Zm0-6.751c.072.073-3.125 2.686-7.195 5.808-3.997 3.121-7.34 5.589-7.412 5.517-.073-.073 3.125-2.686 7.194-5.808 3.997-3.121 7.34-5.59 7.413-5.517Zm0-6.824c.072.073-3.125 2.686-7.195 5.808-3.997 3.121-7.34 5.59-7.412 5.517-.073-.073 3.125-2.686 7.194-5.808 3.997-3.121 7.34-5.589 7.413-5.517Zm-2.98-4.428c.073.073-2.47 2.178-5.668 4.646s-5.887 4.428-5.96 4.356c-.072-.073 2.471-2.178 5.669-4.646 3.27-2.469 5.887-4.429 5.96-4.356Zm-8.575-.145c.073.072-.581.653-1.454 1.379-.872.653-1.598 1.162-1.671 1.016-.073-.072.581-.653 1.453-1.379.873-.653 1.6-1.089 1.672-1.016Z"/>
    <path fill="#000" d="M264.334 231.561c-.654-.291-1.381-.218-2.108-.146-22.237 2.469-46.8 4.138-69.038 6.607v.217c14.244 4.066 29.141 5.808 43.894 5.082 1.381-.073 2.979-.073 3.924.944 1.018 1.089.727 2.831.436 4.355l-9.375 40.726c-.508 2.105-.799 4.718.873 6.17 2.325 1.96 5.741-.363 7.63-2.686 13.226-15.68 19.258-36.007 24.854-55.68.581-1.96.799-4.791-1.09-5.589Z" opacity=".3"/>
    <path fill="#FBBC05" d="M292.676 224.955c-2.253-2.033-5.378-2.904-8.357-2.759l-5.087 16.261c3.779.145 7.485 2.105 11.118 1.089 2.907-.799 5.087-3.557 5.523-6.533.291-2.977-.944-6.026-3.197-8.058Z"/>
    <path fill="#E0E0E0" d="M284.391 221.833c0-.145.582-.218 1.526-.218 1.018 0 2.471.145 4.215.799 1.745.653 3.634 1.96 5.087 3.993.727 1.016 1.381 2.177 1.672 3.557a9.415 9.415 0 0 1 .145 4.283c-.29 1.452-.944 2.831-1.889 3.847-.945 1.089-2.108 1.815-3.27 2.323-2.399.871-4.651.726-6.468.436a22.22 22.22 0 0 1-3.997-1.234c-.872-.363-1.381-.654-1.308-.799.072-.145.581-.072 1.526.073.945.145 2.325.435 3.997.58 1.671.146 3.633.073 5.595-.725.945-.436 1.817-1.017 2.471-1.815.654-.799 1.163-1.888 1.381-3.049.509-2.323-.218-4.646-1.381-6.389-1.162-1.742-2.689-2.976-4.142-3.702-1.453-.726-2.834-1.016-3.706-1.307-.945-.363-1.454-.508-1.454-.653Z"/>
    <path fill="#FBBC05" d="m238.026 281.578-10.319 28.893 35.9 12.994c1.017-3.485-15.043-17.132-15.043-17.132l7.34-18.222-17.878-6.533Z"/>
    <path fill="#fff" d="M238.026 300.743c-.799-.073-1.526.581-1.598 1.307-.073.725.508 1.524 1.308 1.597.726.072 1.671-.654 1.744-1.38 0-.798-.727-1.669-1.526-1.524" opacity=".6"/>
    <path fill="#F5F5F5" d="m227.707 310.47 1.017-2.903 34.084 13.575s1.38 1.306.726 2.323l-35.827-12.995Z"/>
    <path fill="#263238" d="M249.218 306.405c-.073.145-.945-.072-2.035.218-1.09.218-1.817.799-1.962.726-.145-.073.509-1.016 1.817-1.307 1.308-.435 2.253.218 2.18.363Zm3.197 2.904c0 .218-.872.218-1.744.726s-1.308 1.234-1.526 1.161c-.145 0 .073-1.089 1.163-1.742s2.18-.363 2.107-.145Zm.509 5.227c-.145 0-.072-1.017.727-1.815.799-.799 1.744-.871 1.744-.726.073.145-.654.508-1.308 1.161-.654.726-1.017 1.452-1.163 1.38Zm-2.471-12.486c-.145.145-.872-.436-1.889-.726-1.018-.291-1.89-.291-1.962-.436-.073-.145.944-.508 2.107-.145 1.236.363 1.817 1.161 1.744 1.307Zm.654-4.574c0 .073-.726-.072-1.816-.653-.509-.291-1.09-.726-1.672-1.234-.291-.291-.581-.581-.799-.944a1.4 1.4 0 0 1-.364-.653c-.145-.218-.072-.726.291-.944.291-.218.654-.218.945-.145.291.072.436.217.654.363.363.217.727.508.945.798.581.581 1.017 1.162 1.235 1.67.581 1.089.581 1.815.509 1.815-.073 0-.291-.654-.945-1.597-.291-.436-.727-1.017-1.308-1.452-.291-.218-.581-.508-.945-.726-.363-.218-.654-.363-.799-.218-.073.073-.073.073 0 .218.072.145.145.29.29.435.218.291.509.654.727.871.509.509 1.018.944 1.526 1.307.872.726 1.599 1.017 1.526 1.089Z"/>
    <path fill="#263238" d="M250.817 297.621c-.073 0-.218-.726.145-1.887.145-.581.509-1.234.945-1.888.218-.29.508-.653.872-.943.363-.291.799-.654 1.453-.508.364.145.582.508.582.798 0 .29 0 .508-.073.726a3.575 3.575 0 0 1-.436 1.234c-.363.726-.945 1.234-1.454 1.597-1.017.654-1.816.654-1.816.581 0-.145.726-.218 1.598-.944a4.638 4.638 0 0 0 1.163-1.452c.146-.29.291-.653.364-1.016.072-.436.072-.726-.073-.799-.145-.072-.581.146-.872.363-.291.291-.582.509-.8.799-.436.581-.799 1.161-1.017 1.67-.436.943-.509 1.669-.581 1.669Zm-51.452-98.074c-5.886.145-11.482.943-15.479 5.226-5.378 5.663-11.991 13.721-12.354 19.238-.582 8.348 4.505 10.816 8.139 12.849a10.388 10.388 0 0 0 5.305 1.234l67.948-.508 2.108-11.47-43.967-10.816 1.817-16.552-13.517.799Z"/>
    <path fill="#263238" d="m212.955 198.748 21.365-1.016s36.918 2.032 44.766 9.292c7.849 7.187 6.904 15.39 4.288 23.303-2.616 7.84-25.726 58.148-25.726 58.148s1.89 3.194.799 6.388c-1.598 4.936-6.031 5.735-6.031 5.735l-20.566-7.55s-2.762-1.016-.8-3.63c1.962-2.613 3.27-3.121 3.27-3.121v-5.227s7.195-13.14 7.849-14.882c.654-1.815 7.558-28.457 7.558-28.457l4.578-7.913s-11.119-5.226-20.711-9.001l-22.529-5.517 1.89-16.552Z"/>
    <path fill="#455A64" d="M247.619 292.104c-.072.073-.654-.435-1.817-1.161-1.09-.726-2.688-1.597-4.578-2.323-1.889-.726-3.706-1.089-5.014-1.307-1.308-.218-2.108-.218-2.108-.29 0-.073.8-.073 2.18.072 1.309.145 3.198.508 5.087 1.234 1.89.726 3.561 1.67 4.651 2.469 1.018.726 1.599 1.306 1.599 1.306Zm10.247-3.557c-.073 0-.509-.435-1.163-1.234-.726-.798-1.598-1.96-2.616-3.267a118.916 118.916 0 0 1-2.398-3.412c-.581-.871-.872-1.451-.872-1.524.073 0 .436.508 1.09 1.379a125.814 125.814 0 0 0 2.471 3.34c.945 1.234 1.744 2.395 2.471 3.339.654.798 1.09 1.307 1.017 1.379Zm7.558-65.915c0 .072-.727.217-1.962.653-1.163.363-2.834 1.089-4.433 2.105a22.7 22.7 0 0 0-3.779 3.049c-.872.871-1.381 1.525-1.381 1.452 0 0 .363-.726 1.235-1.67.873-.943 2.181-2.178 3.779-3.194a19.8 19.8 0 0 1 4.579-2.032c1.162-.363 1.962-.436 1.962-.363Z"/>
    <path fill="#455A64" d="M244.422 258.275s0-.145.072-.435c.073-.363.218-.726.291-1.234.291-1.162.727-2.686 1.235-4.574 1.091-3.92 2.544-9.219 4.215-15.099.872-2.904 1.599-5.735 2.399-8.276.944-2.541 2.47-4.428 3.851-5.88 1.381-1.452 2.762-2.396 3.706-3.049.509-.291.873-.508 1.091-.654.29-.145.363-.217.436-.217 0 0-.509.363-1.454 1.016-.872.653-2.18 1.67-3.561 3.121-1.381 1.452-2.834 3.34-3.706 5.808-.799 2.468-1.526 5.372-2.398 8.276-1.672 5.88-3.198 11.107-4.288 15.027-.581 1.887-1.017 3.412-1.381 4.573-.145.508-.29.944-.363 1.234-.073.218-.145.363-.145.363ZM225.527 219.8c-.073 0-.581-3.992-1.017-8.929-.436-4.936-.727-8.929-.582-8.929.073 0 .582 3.993 1.018 8.929.363 4.937.654 8.929.581 8.929Zm-35.609 10.672c-.073 0-.364-.581-1.09-1.597-.654-.944-1.745-2.178-3.125-3.267a16.097 16.097 0 0 0-3.925-2.251c-1.09-.435-1.816-.58-1.744-.653 0-.072.727 0 1.89.363 1.09.363 2.616 1.089 4.069 2.178 1.454 1.089 2.471 2.396 3.125 3.412.582 1.089.872 1.815.8 1.815Zm13.081-14.446c-.073.072-.945-.509-2.544-1.235-1.599-.726-3.851-1.524-6.395-1.887-2.616-.363-5.014-.218-6.686 0-1.671.218-2.761.581-2.761.508 0 0 .218-.145.726-.29.436-.145 1.163-.291 2.035-.508 1.744-.291 4.143-.509 6.831-.146 2.617.363 4.942 1.235 6.468 2.033.8.363 1.381.726 1.817 1.016.291.291.509.436.509.509Z"/>
    <path fill="#455A64" d="M254.16 226.116s-.218 0-.509-.073c-.363-.072-.872-.217-1.526-.363-1.381-.29-3.198-.725-5.523-1.234-4.651-1.016-11.119-2.468-18.313-3.847a603.944 603.944 0 0 0-18.386-3.412c-2.326-.363-4.215-.726-5.596-.944-.654-.145-1.163-.218-1.526-.29-.364-.073-.509-.073-.509-.145 0 0 .218 0 .509.072.363.073.872.145 1.526.218 1.308.145 3.27.436 5.596.871 4.723.726 11.264 1.888 18.458 3.267 7.195 1.452 13.663 2.831 18.314 3.993 2.325.58 4.215 1.016 5.523 1.379.581.145 1.09.29 1.526.363.29.072.436.145.436.145Z"/>
    <path fill="#455A64" d="M211.138 217.26c-.073 0-.218-.872-.945-2.178-.363-.654-.872-1.307-1.526-2.033-.654-.653-1.526-1.379-2.398-2.032-1.744-1.38-3.561-2.324-4.869-3.049-1.308-.726-2.108-1.162-2.108-1.162 0-.073.872.29 2.181.944 1.308.653 3.197 1.597 5.014 2.976.872.726 1.744 1.379 2.398 2.105.654.726 1.235 1.452 1.526 2.106.364.653.509 1.234.582 1.669.145.436.145.654.145.654Z"/>
    <path fill="#263238" d="M286.79 227.495c.072.073-1.018 1.234-1.963 2.977-.872 1.742-1.162 3.339-1.308 3.339-.072 0 0-1.67.945-3.484.945-1.815 2.253-2.904 2.326-2.832Zm54.94-98.147s0 .072-.073.072a1.015 1.015 0 0 0-.218.291c-.218.29-.436.653-.8 1.089-.726.944-1.744 2.395-3.052 4.138-2.689 3.557-6.468 8.638-11.046 14.664l-.073.145-.145-.073c-2.907-2.105-6.177-4.355-9.593-6.824l.218-.072a813.662 813.662 0 0 1-7.267 9.727c-2.761 3.703-5.378 7.187-7.848 10.599l-.073.145-.145-.072c-4.215-2.468-8.212-4.791-11.773-6.897l.218-.072c-4.215 5.227-7.703 9.655-10.174 12.704-1.236 1.524-2.18 2.686-2.835 3.557-.29.363-.581.726-.726.944a.882.882 0 0 1-.291.29s.073-.145.218-.363c.145-.218.436-.581.727-.944.654-.871 1.599-2.032 2.761-3.557 2.471-3.121 5.887-7.477 10.102-12.776l.072-.073.146.073c3.561 2.105 7.558 4.428 11.845 6.896l-.218.073c2.471-3.34 5.16-6.897 7.849-10.599 2.543-3.412 4.942-6.679 7.267-9.728l.073-.145.145.073a774.738 774.738 0 0 1 9.593 6.824h-.218c4.578-6.026 8.43-11.035 11.119-14.592 1.38-1.742 2.398-3.121 3.124-4.065.364-.436.655-.799.873-1.089a.997.997 0 0 1 .218-.291v-.072Z"/>
    <path fill="#263238" d="M340.712 140.092v-.871c.073-.654.073-1.38.145-2.323.146-1.96.364-4.646.654-7.623v-.072l.218.217c-2.761 1.017-5.305 1.888-7.194 2.469-.872.29-1.599.508-2.18.726-.509.145-.8.217-.8.217s.291-.145.8-.363c.581-.217 1.308-.508 2.18-.798 1.817-.653 4.36-1.597 7.122-2.613l.291-.073v.363a451.657 451.657 0 0 1-.8 7.55c-.145.871-.218 1.669-.291 2.323-.072.58-.072.871-.145.871Z"/>
    <path fill="#FBBC05" d="M257.357 171.67c-.363-2.25-6.976-9.582-6.976-9.582s-5.741-14.156-6.759-18.076c-.218-1.016-2.034-6.17-2.688-7.259-2.326-3.92-3.489-3.993-7.486-6.243l-7.703-3.412-.945-2.106c-.799-1.814-2.252-3.266-3.997-4.21l-19.403-9.946-5.959 10.527s-11.482 5.444-12.136 6.315c-2.399 2.977-.727 51.252-.727 51.252s-1.163 18.802-2.471 24.101c-1.308 5.3-2.035 9.147-2.035 9.147l5.741-6.606c3.343-4.21 10.756-6.171 16.061-6.098l45.347.218-2.761-13.503 37.644 7.986s6.322-12.269 6.831-12.559c.509-.218-29.578-9.946-29.578-9.946Z"/>
    <path fill="#0E0E0E" d="M200.455 125.573c-.29-.29 3.561 9.074 6.177 19.31 1.599 6.388 1.962 16.697 1.962 22.432l.945 16.043v14.083l21.729-1.452-3.27-23.593s-2.689-15.244-3.416-21.052c-.654-5.299-3.924-26.569-3.924-26.569s-11.046 10.09-20.203.798Z"/>
    <path fill="#263238" d="M248.782 180.6v-.581c0-.363.145-.871.291-1.452.363-1.234 1.09-2.831 2.471-4.211 1.38-1.379 2.979-2.177 4.215-2.468.581-.145 1.09-.29 1.453-.29h.581c0 .072-.726.145-1.889.581-1.163.363-2.689 1.161-3.997 2.54-1.308 1.307-2.107 2.832-2.471 3.993-.509 1.089-.581 1.888-.654 1.888Zm1.09-8.639c-.073-.073 1.381-.799 3.343-.944 1.962-.145 3.488.29 3.416.436 0 .145-1.526-.146-3.416 0-1.817.072-3.27.653-3.343.508Z"/>
    <path fill="#FBBC05" d="M183.886 127.315s-9.447 3.412-12.209 14.737c-2.035 8.276-10.755 42.177-8.939 47.259 1.817 5.081 36.7 10.018 36.7 10.018l4.142-17.423-17.732-4.864s.218-16.116.436-22.794c.145-6.679-2.398-26.933-2.398-26.933Z"/>
    <path fill="#fff" d="m202.999 184.374 6.177 1.597-3.634 13.43-6.104-.217 3.561-14.81Z"/>
    <path fill="#fff" d="m245.73 195.99-5.596-5.953-11.482-2.904s-10.537 3.122-10.828 3.122c-.218 0-9.157-2.469-9.157-2.469l-3.125 11.398 16.061 1.089 18.386-.726s.945-.871.363-1.525c-.581-.581 3.052 1.017 3.488 1.017.436 0 1.236.362 1.817-.363.364-.218.945-1.743.073-2.686Z"/>
    <path fill="#8B5D54" d="M240.352 198.167c0 .073-.727-.145-1.817-.508-1.09-.363-2.689-.798-4.36-1.234a101.051 101.051 0 0 0-4.433-1.016c-1.163-.218-1.89-.363-1.817-.436 0-.072.727 0 1.89.145 1.162.145 2.761.436 4.505.871 1.744.436 3.271.944 4.361 1.38a20 20 0 0 1 1.671.798Zm5.378-2.178c0 .073-1.018-.29-2.544-.798-1.598-.508-3.779-1.162-6.177-1.888-2.398-.725-4.578-1.451-6.25-1.524-1.671-.145-2.616.218-2.616.073 0 0 .218-.146.654-.218.436-.145 1.163-.218 1.962-.145 1.672 0 3.925.726 6.323 1.452a63.764 63.764 0 0 1 6.177 1.96c.799.29 1.381.58 1.817.725.436.218.654.363.654.363Z"/>
    <path fill="#263238" d="M162.52 187.496s0 .29.073.799c.145.508.436 1.306 1.236 1.96 1.526 1.379 4.433 2.613 8.066 3.266 1.672.581 3.561 1.017 5.669 1.452 2.034.436 4.215.944 6.54 1.38 4.651.943 9.811 1.96 15.188 2.976l-.218.145c.364-1.597.8-3.339 1.236-5.082.945-3.992 1.962-7.84 2.834-11.542l.145.218c-5.886-1.67-11.191-3.194-15.769-4.501-2.399-1.016-4.797-1.307-6.832-1.234-2.107.072-3.851.653-5.159 1.234-1.381.581-2.326 1.234-2.98 1.67a15.13 15.13 0 0 1-.727.508c-.145.145-.218.145-.29.145l.218-.218c.145-.145.363-.363.727-.581.654-.435 1.598-1.089 2.979-1.742 1.381-.581 3.125-1.161 5.232-1.307a15.362 15.362 0 0 1 6.977 1.162c4.578 1.307 9.883 2.759 15.77 4.428l.218.073-.073.218a658.929 658.929 0 0 1-2.834 11.542c-.436 1.742-.872 3.412-1.236 5.082l-.072.217h-.218a821.73 821.73 0 0 1-15.189-2.976c-2.325-.508-4.505-.944-6.54-1.452s-3.924-.944-5.669-1.524c-3.706-.726-6.613-1.96-8.139-3.412-.799-.726-1.09-1.525-1.163-2.105-.072-.509 0-.799 0-.799Z"/>
    <path fill="#263238" d="M186.72 178.277c-.072.072-.654-.509-1.671-1.235-1.09-.726-2.616-1.524-4.506-2.105a19.276 19.276 0 0 0-4.942-.653c-1.308 0-2.034.145-2.107.072 0-.072.799-.29 2.035-.363 1.308-.145 3.125 0 5.087.509 1.889.58 3.488 1.452 4.578 2.25 1.017.871 1.526 1.452 1.526 1.525Z"/>
    <path fill="#263238" d="M189.046 149.892v1.089c0 .653-.073 1.67-.146 2.904a136.875 136.875 0 0 1-1.162 9.437c-.654 3.702-1.454 6.969-2.18 9.292-.218.581-.364 1.089-.582 1.525-.218.435-.363.798-.509 1.161-.29.581-.508.944-.508.944s.145-.363.363-1.016c.145-.363.291-.726.436-1.162.145-.435.363-.944.509-1.524.727-2.323 1.453-5.59 2.107-9.292.654-3.63 1.018-6.969 1.308-9.438.146-1.161.218-2.105.291-2.903 0-.654 0-1.017.073-1.017Zm15.988-8.203s-.073-.218-.291-.581c-.218-.363-.509-.871-1.163-1.234-.581-.363-1.526-.653-2.471-.363-.945.291-1.817 1.162-2.107 2.323l-.073.508-.218-.508a64.294 64.294 0 0 1-2.325-5.807c-1.309-3.92-1.817-7.623-1.745-10.309 0-.653.073-1.306.146-1.815.072-.508.145-1.016.218-1.379.218-.726.29-1.089.363-1.089.073 0-.436 1.597-.436 4.283-.073 2.686.509 6.316 1.817 10.163.727 2.106 1.526 4.066 2.253 5.808l-.364.073c.291-1.307 1.308-2.251 2.326-2.541 1.09-.363 2.035 0 2.689.435a2.913 2.913 0 0 1 1.09 1.38c.072.217.145.363.145.435.145.145.146.218.146.218Zm18.822 1.67s-.073-.291-.146-.871c-.072-.581-.29-1.452-.145-2.541s.654-2.396 1.744-3.34c.509-.508 1.308-.798 2.107-.798.8 0 1.672.29 2.181 1.016l-.291.218c-.218-.581-.436-1.161-.654-1.815-1.308-3.557-2.544-6.824-3.343-9.147a50.017 50.017 0 0 0-1.017-2.758c-.218-.654-.364-1.017-.291-1.017 0 0 .218.363.436 1.017.291.726.654 1.669 1.09 2.758.872 2.323 2.108 5.517 3.488 9.075.218.653.436 1.234.654 1.814l.436 1.162-.726-.944c-.436-.581-1.236-.871-1.89-.944-.727 0-1.381.291-1.889.654-1.018.871-1.526 2.105-1.672 3.121-.145 1.017 0 1.888.073 2.469-.145.58-.145.871-.145.871Zm12.863 1.887c.072 0 1.744 10.599 3.633 23.666 1.89 13.067 3.343 23.738 3.27 23.738-.072 0-1.744-10.599-3.633-23.666-1.89-13.139-3.343-23.738-3.27-23.738Z"/>
    <path fill="#000" d="M196.676 136.172c.073 2.904.727 5.88 1.89 8.566.799-1.016 1.744-2.105 2.979-2.396 1.599-.363 3.125.581 4.288 1.743-.218-1.162-.654-2.323-1.381-3.267s-1.817-1.597-2.979-1.597c-1.163 0-2.326.871-2.544 2.032l-2.18-5.081" opacity=".3"/>
    <path fill="#263238" d="M188.973 140.745c-.073 0-.073-.798-.291-2.032-.218-1.234-.799-2.904-1.817-4.501-.508-.799-1.162-1.452-1.744-2.033a9.613 9.613 0 0 0-1.744-1.379c-1.09-.653-1.817-.944-1.817-1.016 0 0 .218 0 .509.145.145.072.363.145.582.218.218.072.508.217.799.363.581.29 1.163.725 1.817 1.306.654.581 1.235 1.307 1.816 2.105 1.091 1.67 1.599 3.412 1.817 4.646.073.654.073 1.162.073 1.525.073.508 0 .653 0 .653Z"/>
    <path fill="#000" d="m237.373 149.965 4.869 34.192.218.58c1.162-11.76-.582-23.811-5.087-34.772Z" opacity=".3"/>
    <path fill="#E0E0E0" d="m264.334 169.638-15.77 27.586-38.952.871-.073 1.742 37.717-.29 1.163-.073 39.824.073 8.067-13.866 10.246-14.737c.654-.943 0-2.323-1.162-2.25l-39.752.145a1.784 1.784 0 0 0-1.308.799Z"/>
    <path fill="#fff" d="M296.31 185.754s2.034 1.887 1.744 3.484c-.291 1.597-.218 2.759-1.744 2.904 0 0 .072 2.033-2.035 2.396 0 0 .436 2.468-2.471 2.903 0 0-.872 2.686-2.689 2.033-1.817-.653-3.052-1.379-3.052-1.379l-.509-.944s-2.689-1.016-2.035-2.541c.436-.944 1.817-1.161 1.817-1.161s-.581-1.38.145-2.396c.654-.871 2.762-.145 2.762-.145s-.145-1.089.654-2.033c.727-.871 4.07 1.452 4.07 1.452l1.816-2.178 1.527-2.395Z"/>
    <path fill="#8B5D54" d="M291.804 197.369c-.073.072-1.526-.726-3.343-1.888-1.817-1.089-3.198-2.105-3.125-2.178.073-.072 1.526.726 3.343 1.888 1.744 1.089 3.198 2.105 3.125 2.178Zm2.471-2.904c-.073.073-1.454-.653-3.125-1.67-1.672-1.016-2.98-1.887-2.907-1.96.073-.072 1.453.654 3.125 1.67 1.599.944 2.907 1.887 2.907 1.96Zm-3.343-5.517c.072-.145 1.308.581 2.761 1.452 1.454.943 2.617 1.669 2.617 1.742-.073.145-1.381-.436-2.835-1.379-1.453-.871-2.616-1.67-2.543-1.815Z"/>
    <path fill="#263238" d="M306.556 169.783h-.799c-.509 0-1.236 0-2.18.073-1.89 0-4.579.072-7.922.072-6.685 0-15.915 0-26.089.073h-1.889a1.562 1.562 0 0 0-1.454.653c-.581 1.089-1.162 2.178-1.744 3.194-1.163 2.106-2.253 4.138-3.343 6.026-2.18 3.847-4.069 7.332-5.741 10.235-1.599 2.904-2.979 5.227-3.851 6.897-.436.798-.8 1.379-1.091 1.887a4.057 4.057 0 0 0-.29.509c-.073.072-.073.145-.146.145 0 0 0-.073.073-.145.073-.146.145-.291.218-.509.218-.435.582-1.089 1.018-1.887.872-1.67 2.18-4.065 3.778-6.969 1.599-2.904 3.489-6.388 5.669-10.309 1.09-1.96 2.18-3.992 3.343-6.097.581-1.089 1.163-2.106 1.744-3.195.363-.58 1.09-.943 1.744-.871h1.89c10.174 0 19.403.073 26.089.073 3.343 0 6.032.072 7.921.072.945 0 1.599 0 2.18.073h.872Z"/>
    <path fill="#fff" d="M278.578 183.648c-.727.799-.727 1.888-.073 2.541.654.581 1.817.508 2.544-.29.726-.799.726-1.888.072-2.541-.727-.581-1.889-.435-2.543.29Zm-57.411-60.326-.218-6.243s8.357-1.814 7.921-10.235c-.218-4.066-1.308-12.414-2.398-19.891-1.163-8.058-8.358-13.938-16.497-13.43l-.799.072c-8.721 1.017-12.718 9.002-11.41 17.713l2.035 33.103c.363 5.735 5.233 10.164 10.974 10.018 5.959-.217 10.61-5.226 10.392-11.107Z"/>
    <path fill="#263238" d="M225.454 94.793c.073.653-.436 1.234-1.09 1.307-.654.072-1.235-.363-1.308-1.017-.072-.653.436-1.234 1.09-1.306.654-.073 1.236.363 1.308 1.016Zm-.508-3.63c-.146.145-1.09-.435-2.398-.363-1.309.073-2.181.799-2.326.654-.073-.073.073-.363.436-.654.363-.29 1.09-.653 1.89-.726.799-.072 1.526.218 1.889.508.436.218.581.509.509.581Zm-12.064 4.138c.073.653-.436 1.234-1.09 1.307-.654.072-1.235-.363-1.308-1.017-.073-.653.436-1.234 1.09-1.306.654-.073 1.235.435 1.308 1.016Zm-.654-3.121c-.145.145-1.09-.436-2.398-.363-1.308.072-2.18.798-2.326.653-.072-.073.073-.363.436-.653.364-.29 1.09-.654 1.89-.726.799-.073 1.526.218 1.889.508.436.218.582.508.509.58Zm5.305 9.292c0-.073.8-.291 2.108-.509.363-.072.654-.145.654-.363.072-.217-.073-.58-.291-.943a70.76 70.76 0 0 0-1.163-2.468c-1.599-3.485-2.761-6.389-2.616-6.461.145-.073 1.526 2.686 3.125 6.243.363.87.727 1.67 1.09 2.468.145.363.363.799.218 1.307a.882.882 0 0 1-.509.508c-.218.072-.363.072-.581.145-1.235.073-2.035.145-2.035.073Zm-3.706 1.089c.218 0 .291 1.379 1.526 2.323 1.235.943 2.761.653 2.761.871 0 .072-.29.29-.944.363-.654.072-1.526-.073-2.326-.654-.799-.58-1.163-1.379-1.235-1.96-.073-.58.072-.943.218-.943Zm-1.526-15.463c-.073.363-1.381.29-2.907.58-1.526.219-2.689.8-2.907.436-.073-.145.073-.508.581-.87.436-.364 1.236-.727 2.108-.872.872-.145 1.744-.073 2.325.145.509.145.8.363.8.58Zm11.918.362c-.218.291-1.09.074-2.18.146-1.09 0-1.962.29-2.18 0-.073-.145 0-.435.436-.726.363-.29 1.017-.58 1.744-.58.727 0 1.381.217 1.817.508.363.145.508.435.363.653Z"/>
    <path fill="#263238" d="M225.454 83.105s-2.543-5.154-5.159-6.17c-3.198-1.307-4.288 2.178-7.267 1.524-2.98-.653-6.032-1.887-8.866.581-3.125 2.686-1.454 4.356-1.454 8.058.145 15.172-2.398 19.6-3.633 12.559-.146-.799-2.326-1.234-2.835-4.501-.654-4.283-1.162-9.437-.363-12.486.654-2.614 1.962-4.428 4.506-6.534 3.924-3.339 9.592-3.775 13.517-3.557 3.779-.072 11.482 3.92 11.554 10.526Z"/>
    <path fill="#fff" d="M199.656 99.366c-.146-1.306-1.308-2.25-2.616-2.032-1.526.218-3.271 1.234-2.98 4.501.509 5.735 6.177 3.992 6.177 3.847 0-.218-.363-3.92-.581-6.316Z"/>
    <path fill="#8B5D54" d="M198.784 103.577s-.073.073-.291.145a1.13 1.13 0 0 1-.727.073c-.654-.145-1.235-1.089-1.38-2.106-.073-.508 0-1.016.145-1.451.145-.436.363-.726.654-.871.291-.073.509.072.581.217a.72.72 0 0 1 .073.29s.145-.072.073-.362c0-.145-.146-.218-.291-.363-.145-.073-.363-.145-.581-.073-.436.073-.8.508-.945 1.016a2.962 2.962 0 0 0-.218 1.597c.145 1.162.872 2.178 1.671 2.323.436.073.727-.072.872-.217.364-.073.436-.218.364-.218Z"/>
    <path fill="#263238" d="M199.074 88.187c.8.436 1.599.944 2.471.944.872 0 1.89-.581 2.035-1.452.073-.436-.073-.871.145-1.162.291-.363.872-.29 1.381-.29 1.672.072 3.343-1.234 3.634-2.831.436.58 1.453.508 2.107.072.654-.435 1.018-1.161 1.454-1.742.436-.58 1.162-1.161 1.889-1.089.436 0 .872.29 1.236.218.726-.145 1.09-1.016 1.162-1.742.073-.726.073-1.67.727-2.106.581-.435 1.381-.217 2.035-.217.727.072 1.599-.146 1.744-.871.073-.363-.073-.726-.291-1.017-1.017-1.379-2.979-1.887-4.505-1.161-.654-1.888-2.544-3.267-4.506-3.34-1.962-.072-3.997 1.09-4.796 2.904a5.348 5.348 0 0 0-4.651-.944c-1.599.436-2.907 1.743-3.416 3.267-1.453-.29-2.979.363-3.779 1.525-.799 1.161-.872 2.903-.073 4.065-1.017.653-1.816 1.742-1.744 2.904.073 1.161 1.308 2.323 2.399 1.887-.437.944.072 2.178.944 2.614.945.435 2.18.072 2.689-.799"/>
    <path fill="#455A64" d="M216.806 75.41v.363c-.072.29-.145.654-.363 1.162-.218.435-.581 1.016-1.163 1.452-.581.435-1.381.798-2.325.798l.072-.145a2.032 2.032 0 0 1 0 1.597 5.915 5.915 0 0 1-.872 1.452c-.218.218-.363.508-.581.726-.291.218-.581.363-.872.363-.654.145-1.381 0-1.89-.58l.218-.073c-.072 1.161-.654 2.323-1.671 3.121-.509.436-1.163.726-1.817.726-.654 0-1.308-.145-1.889-.29l.145-.073a5.692 5.692 0 0 1-1.235 1.888c-.509.508-1.308.798-1.963.653-1.38-.218-2.325-1.307-2.616-2.323l.146.072c-.654.436-1.381.509-1.963.436-.581-.073-1.09-.29-1.38-.508-.364-.218-.582-.508-.654-.653-.146-.218-.146-.29-.146-.29s.218.435.872.87c.364.218.8.436 1.381.436.582.072 1.236 0 1.817-.436l.073-.072v.145c.218.944 1.162 1.96 2.47 2.178a2.195 2.195 0 0 0 1.817-.654 4.098 4.098 0 0 0 1.163-1.742l.073-.145h.145c.581.145 1.163.29 1.817.29.581 0 1.235-.29 1.744-.653.945-.726 1.453-1.815 1.526-2.904v-.29l.218.218c.436.435 1.09.58 1.672.508.29-.073.581-.145.799-.363.218-.145.363-.436.581-.654.364-.435.654-.943.872-1.379a2.026 2.026 0 0 0 .073-1.452l-.073-.145h.146c.872 0 1.671-.29 2.253-.726a3.922 3.922 0 0 0 1.162-1.38c.218-.943.146-1.524.218-1.524Z"/>
    <path fill="#263238" d="M219.641 95.81s-.218-.436-.364-1.38a5.824 5.824 0 0 1 .582-3.63c.363-.726.944-1.379 1.744-1.96.799-.508 1.744-.943 2.761-1.016.509-.073 1.09 0 1.599.073.509.072 1.09.29 1.599.58 1.017.508 1.817 1.452 2.398 2.541.509 1.09.654 2.323.363 3.412-.072.58-.29 1.089-.581 1.597s-.581.944-.945 1.307a5.654 5.654 0 0 1-2.543 1.452 6.074 6.074 0 0 1-2.544.072c-1.599-.363-2.616-1.234-3.197-1.96-.654-.58-.8-1.089-.872-1.089 0 0 .072.146.145.363.073.145.145.218.218.363.073.145.218.29.363.508.509.726 1.599 1.67 3.198 2.033.799.145 1.744.218 2.689 0 .945-.218 1.889-.726 2.689-1.452a6.278 6.278 0 0 0 1.017-1.306c.291-.509.509-1.017.581-1.597.218-1.162.146-2.469-.436-3.558-.508-1.161-1.38-2.105-2.47-2.613-.509-.29-1.091-.508-1.599-.58-.582-.146-1.09-.146-1.672-.073-1.09.072-2.107.508-2.834 1.016a5.687 5.687 0 0 0-1.744 2.033 5.278 5.278 0 0 0-.509 3.775c0 .217.073.435.146.58.072.145.072.29.145.436.073 0 .073.072.073.072Zm-14.826.87s-.218-.435-.363-1.379a5.83 5.83 0 0 1 .581-3.63c.364-.725.945-1.379 1.745-1.96.799-.508 1.744-.943 2.761-1.016.509-.072 1.09 0 1.599.073.509.072 1.09.29 1.599.58 1.017.509 1.817 1.452 2.398 2.541.509 1.09.654 2.323.363 3.412-.072.581-.29 1.09-.581 1.597-.291.508-.582.944-.945 1.307a5.66 5.66 0 0 1-2.543 1.452 6.074 6.074 0 0 1-2.544.073c-1.599-.364-2.616-1.235-3.197-1.96-.655-.581-.8-1.09-.873-1.09 0 0 .073.146.146.363.072.146.145.218.218.363.072.146.218.29.363.509.509.726 1.599 1.67 3.198 2.032.799.145 1.744.218 2.689 0 .944-.218 1.889-.726 2.688-1.452a6.25 6.25 0 0 0 1.018-1.306c.291-.508.509-1.017.581-1.597.218-1.162.146-2.469-.436-3.558-.508-1.161-1.381-2.105-2.471-2.613-.508-.29-1.09-.508-1.598-.58-.582-.146-1.09-.146-1.672-.073-1.09.072-2.107.508-2.834 1.016a5.687 5.687 0 0 0-1.744 2.033 5.273 5.273 0 0 0-.509 3.775c0 .217.073.435.145.58.073.146.073.29.146.436.072 0 .072.072.072.072Z"/>
    <path fill="#263238" d="M215.644 93.05c0 .073.726-.435 1.744-.507a3.226 3.226 0 0 1 1.744.363s-.145-.146-.436-.29a2.362 2.362 0 0 0-1.308-.219c-.509 0-1.018.218-1.308.363-.291.146-.436.29-.436.29Zm-16.57 4.792c0 .073 1.236-.508 2.689-1.234 1.454-.726 2.616-1.38 2.544-1.452 0-.073-1.236.508-2.689 1.234-1.381.726-2.544 1.38-2.544 1.452Z"/>
    <path fill="#FBBC05" d="M116.955 328.982c-4.942 12.051-18.75 17.858-30.885 12.849-12.137-4.936-17.878-18.729-12.936-30.78 4.942-12.05 18.75-17.858 30.885-12.849 12.064 4.937 17.878 18.73 12.936 30.78Z"/>
    <path fill="#FBBC05" d="M111.723 326.804c-3.779 9.22-14.317 13.575-23.546 9.801-9.23-3.775-13.662-14.301-9.883-23.448 3.779-9.22 14.316-13.575 23.545-9.801 9.23 3.775 13.663 14.302 9.884 23.448Z"/>
    <path fill="#263238" d="M111.723 326.804s0-.072.072-.29c.073-.218.146-.436.291-.799.073-.145.145-.363.218-.58.073-.218.145-.508.145-.726.146-.508.291-1.162.364-1.888.218-1.379.218-3.194-.073-5.154s-1.017-4.21-2.325-6.388c-1.308-2.178-3.198-4.356-5.741-5.953-2.544-1.597-5.596-2.759-9.012-2.831-.872-.073-1.671 0-2.543.072l-1.308.218c-.436.073-.872.145-1.309.291-.871.217-1.67.508-2.543.798-.8.363-1.671.726-2.398 1.234-1.526.944-3.052 2.106-4.215 3.557-1.236 1.452-2.253 3.049-2.98 4.864a19.054 19.054 0 0 0-1.308 5.517c-.145 1.888.073 3.775.509 5.518.218.871.509 1.742.872 2.54.363.799.727 1.597 1.235 2.323.436.799 1.018 1.452 1.526 2.106.582.653 1.09 1.306 1.745 1.814 2.47 2.323 5.45 3.63 8.357 4.284 2.907.653 5.741.435 8.212-.218a18.135 18.135 0 0 0 6.177-2.977c1.599-1.234 2.834-2.468 3.634-3.629.436-.581.799-1.089 1.09-1.597.145-.218.29-.436.363-.654.073-.218.218-.363.291-.581.145-.29.29-.58.363-.798.218.073.291-.073.291-.073s0 .073-.073.291c-.073.218-.218.435-.363.798-.073.145-.146.363-.291.581-.073.218-.218.436-.363.653-.291.509-.582 1.017-1.018 1.597-.799 1.162-2.035 2.469-3.633 3.703a17.578 17.578 0 0 1-6.177 3.049 18.84 18.84 0 0 1-8.358.29c-2.98-.653-6.032-1.96-8.575-4.356-.654-.58-1.235-1.234-1.817-1.887-.509-.726-1.09-1.379-1.526-2.178-.509-.726-.872-1.597-1.235-2.395-.291-.872-.654-1.743-.872-2.614-.436-1.815-.654-3.702-.51-5.59a19.426 19.426 0 0 1 1.309-5.662c.8-1.815 1.817-3.484 3.052-4.936 1.236-1.452 2.762-2.686 4.288-3.63.8-.508 1.599-.871 2.47-1.234.873-.291 1.672-.654 2.544-.799.436-.145.872-.218 1.308-.29l1.308-.218c.873-.072 1.745-.145 2.617-.072 3.415.072 6.54 1.306 9.156 2.903 2.544 1.67 4.433 3.848 5.741 6.026 1.308 2.25 2.035 4.5 2.326 6.533a17.865 17.865 0 0 1 0 5.227c-.073.726-.218 1.307-.364 1.887-.072.291-.145.508-.218.726a4.801 4.801 0 0 1-.218.581c-.145.363-.218.581-.29.799l-.218.217Z"/>
    <path fill="#000" d="M111.505 326.949c-.073-.072.145-.798.363-2.177.218-1.38.509-3.412.218-5.88a16.98 16.98 0 0 0-.945-3.921c-.508-1.379-1.162-2.758-2.107-4.065a12.637 12.637 0 0 0-1.599-1.96c-.581-.581-1.235-1.234-1.889-1.742-.727-.508-1.454-1.089-2.253-1.525-.8-.435-1.599-.798-2.471-1.161-.872-.29-1.744-.581-2.689-.726-.872-.218-1.817-.29-2.689-.29-.872-.073-1.744 0-2.616.072-.872.073-1.672.218-2.47.436-1.6.363-2.98 1.016-4.288 1.669-1.236.726-2.399 1.525-3.27 2.323-1.89 1.67-2.98 3.34-3.707 4.574-.727 1.234-1.017 1.96-1.163 1.887-.072 0 .073-.798.654-2.178.582-1.306 1.672-3.194 3.561-5.009a16.29 16.29 0 0 1 3.416-2.613c1.308-.798 2.834-1.452 4.505-1.96.873-.218 1.745-.436 2.617-.508.872-.073 1.816-.145 2.761-.145.945.072 1.89.145 2.907.29.945.218 1.89.436 2.834.799.945.363 1.817.798 2.689 1.234.872.508 1.672 1.016 2.398 1.597.727.581 1.381 1.234 2.035 1.887.654.654 1.163 1.38 1.672 2.105a20.868 20.868 0 0 1 2.18 4.429c.508 1.452.726 2.903.872 4.21.218 2.614-.218 4.719-.654 6.098-.364 1.597-.8 2.25-.872 2.25Z" opacity=".3"/>
    <path fill="#000" d="m92.828 330.724-1.163 2.904-2.616-1.016 1.09-2.831c-2.543-1.162-4.724-2.977-5.668-4.646l2.689-2.614c.944 1.452 2.543 2.904 4.36 3.848l1.744-4.356c-2.616-1.815-5.45-4.065-3.997-7.84 1.09-2.759 3.997-4.356 8.357-3.194l1.163-2.904 2.616 1.016-1.09 2.832c1.89.943 3.634 2.177 4.651 3.702l-2.543 2.686a10.802 10.802 0 0 0-3.489-2.904l-1.744 4.428c2.617 1.815 5.451 4.066 3.997 7.695-1.162 2.759-4.07 4.283-8.357 3.194Zm1.962-12.558 1.454-3.703c-1.526-.217-2.326.291-2.69 1.162-.363.944.219 1.742 1.236 2.541Zm1.962 8.058c.364-.944-.218-1.743-1.162-2.541l-1.381 3.629c1.38.218 2.253-.217 2.543-1.088Z" opacity=".3"/>
    <path fill="#FBBC05" d="M322.98 351.486c4.579 12.196-1.599 25.844-13.88 30.417-12.209 4.574-25.871-1.597-30.45-13.793-4.578-12.195 1.599-25.843 13.881-30.417 12.209-4.573 25.871 1.598 30.449 13.793Z"/>
    <path fill="#FBBC05" d="M317.748 353.446c3.488 9.293-1.236 19.674-10.538 23.158-9.302 3.485-19.694-1.234-23.182-10.526-3.488-9.292 1.235-19.673 10.537-23.158 9.302-3.484 19.695 1.234 23.183 10.526Z"/>
    <path fill="#263238" d="M317.748 353.446s-.073-.072-.146-.29c-.072-.218-.218-.436-.363-.798-.073-.146-.145-.363-.291-.581-.072-.218-.218-.436-.363-.654-.291-.508-.581-1.016-1.017-1.597-.8-1.161-1.963-2.468-3.561-3.775a18.89 18.89 0 0 0-6.032-3.121c-2.398-.726-5.305-1.016-8.212-.436-2.907.581-5.959 1.815-8.503 3.993-.654.508-1.235 1.162-1.816 1.742-.291.291-.509.654-.8 1.017-.291.363-.509.726-.727 1.089-.508.725-.872 1.524-1.308 2.323-.363.798-.726 1.669-.944 2.54-.509 1.743-.8 3.63-.654 5.517a18.585 18.585 0 0 0 1.09 5.59c.726 1.815 1.671 3.485 2.834 4.937 1.163 1.452 2.616 2.686 4.142 3.702.727.508 1.599.944 2.398 1.307.8.363 1.672.653 2.471.871.8.29 1.672.363 2.544.508.872.073 1.671.145 2.543.145 3.343 0 6.468-1.089 9.084-2.541 2.544-1.524 4.506-3.629 5.887-5.735a17.749 17.749 0 0 0 2.47-6.315c.364-1.96.364-3.775.218-5.155-.072-.725-.218-1.306-.29-1.887-.073-.29-.073-.508-.146-.726a4.867 4.867 0 0 0-.218-.581c-.072-.363-.218-.653-.218-.798-.072-.145-.072-.291-.072-.291s.072.073.072.291c.073.218.146.435.291.798.073.146.145.363.218.581.073.218.145.508.145.726.146.508.291 1.162.364 1.887.218 1.452.218 3.195-.146 5.227-.363 2.033-1.09 4.283-2.47 6.461a18.445 18.445 0 0 1-5.959 5.88c-2.617 1.525-5.814 2.614-9.23 2.614-.872.072-1.744-.073-2.616-.146-.872-.145-1.744-.29-2.616-.58-.872-.218-1.672-.581-2.544-.944-.799-.436-1.671-.799-2.398-1.307-1.526-1.016-3.052-2.25-4.215-3.775-1.235-1.524-2.18-3.194-2.907-5.009-.654-1.887-1.017-3.774-1.163-5.735-.072-1.887.219-3.847.655-5.589.218-.871.581-1.743.944-2.614.436-.798.8-1.597 1.308-2.395.218-.363.509-.726.8-1.089.29-.363.508-.726.799-1.017.582-.653 1.163-1.306 1.89-1.814 2.616-2.251 5.741-3.485 8.648-4.066 2.979-.58 5.886-.217 8.357.509 2.471.725 4.506 1.96 6.104 3.194 1.599 1.306 2.762 2.613 3.561 3.847.436.581.727 1.162 1.018 1.597.145.218.29.436.363.654.073.217.145.435.218.58.145.363.218.581.291.799.145.363.218.435.218.435Z"/>
    <path fill="#000" d="M317.675 353.664c-.072.073-.436-.653-1.235-1.887a19.134 19.134 0 0 0-3.852-4.428 19.125 19.125 0 0 0-3.343-2.251c-1.308-.653-2.761-1.234-4.36-1.524-.799-.146-1.599-.291-2.471-.363a15.652 15.652 0 0 0-2.616 0c-.872.072-1.744.217-2.616.435-.872.218-1.744.508-2.617.871-.872.363-1.671.799-2.47 1.234-.8.436-1.526 1.017-2.181 1.598-.654.58-1.308 1.161-1.816 1.814a17.957 17.957 0 0 0-1.526 1.96c-.873 1.38-1.527 2.759-1.963 4.138-.436 1.38-.726 2.686-.799 3.993a19.897 19.897 0 0 0 .363 5.88c.291 1.379.582 2.105.436 2.178-.072 0-.508-.653-.944-2.033a18.403 18.403 0 0 1-.872-6.098 18.26 18.26 0 0 1 .726-4.21c.436-1.452 1.09-3.049 2.035-4.501.436-.726.945-1.452 1.599-2.178a12.498 12.498 0 0 1 1.962-1.96c.727-.581 1.526-1.234 2.326-1.742.799-.508 1.744-.944 2.616-1.379a21.02 21.02 0 0 1 2.834-.871 19.149 19.149 0 0 1 2.834-.436c.945-.073 1.89-.073 2.762 0 .944.073 1.817.218 2.616.436 1.671.435 3.27 1.016 4.578 1.814a14.405 14.405 0 0 1 3.489 2.541 16.926 16.926 0 0 1 3.706 4.937c.654 1.234.872 2.032.799 2.032Z" opacity=".3"/>
    <path fill="#000" d="m306.556 369.127 1.163 2.904-2.616 1.016-1.09-2.831c-2.616.871-5.451 1.016-7.34.435l.218-3.775c1.671.436 3.852.436 5.814-.145l-1.744-4.355c-3.198.435-6.759.726-8.285-2.977-1.09-2.758 0-5.953 3.924-7.985l-1.163-2.904 2.617-1.016 1.09 2.831c2.035-.581 4.142-.871 5.959-.508l-.073 3.702c-1.599-.218-3.197-.145-4.505.218l1.744 4.428c3.197-.435 6.758-.726 8.212 2.976 1.017 2.759-.073 5.881-3.925 7.986Zm-7.194-10.526-1.454-3.703c-1.235.872-1.526 1.815-1.162 2.686.363.944 1.38 1.162 2.616 1.017Zm6.976 4.573c-.363-.944-1.308-1.089-2.616-1.089l1.381 3.63c1.235-.799 1.599-1.742 1.235-2.541Z" opacity=".3"/>
    <path fill="#FBBC05" d="M117.028 342.049H71.535v8.276h45.493v-8.276Z"/>
    <path fill="#263238" d="M75.968 350.325c-.073 0-.218-1.815-.218-4.065 0-2.251.073-4.066.218-4.066.145 0 .218 1.815.218 4.066 0 2.25-.073 4.065-.218 4.065Zm-2.471 0c-.073 0-.218-1.815-.218-4.065 0-2.251.073-4.066.218-4.066.073 0 .218 1.815.218 4.066 0 2.25-.073 4.065-.218 4.065Zm7.994 0c-.073 0-.218-1.815-.218-4.065 0-2.251.073-4.066.218-4.066.145 0 .218 1.815.218 4.066-.073 2.25-.145 4.065-.218 4.065Zm-2.543 0c-.073 0-.218-1.815-.218-4.065 0-2.251.072-4.066.218-4.066.072 0 .218 1.815.218 4.066 0 2.25-.073 4.065-.218 4.065Zm7.994 0c-.073 0-.218-1.815-.218-4.065 0-2.251.072-4.066.218-4.066.072 0 .218 1.815.218 4.066-.073 2.25-.146 4.065-.218 4.065Zm-2.472 0c-.072 0-.217-1.815-.217-4.065 0-2.251.072-4.066.218-4.066.072 0 .218 1.815.218 4.066-.073 2.25-.146 4.065-.218 4.065Zm7.922 0c-.073 0-.218-1.815-.218-4.065 0-2.251.072-4.066.218-4.066.073 0 .218 1.815.218 4.066 0 2.25-.145 4.065-.218 4.065Zm-2.471 0c-.073 0-.218-1.815-.218-4.065 0-2.251.073-4.066.218-4.066.073 0 .218 1.815.218 4.066-.073 2.25-.145 4.065-.218 4.065Zm7.921 0c-.072 0-.218-1.815-.218-4.065 0-2.251.073-4.066.218-4.066.073 0 .218 1.815.218 4.066 0 2.25-.072 4.065-.218 4.065Zm-2.471 0c-.072 0-.218-1.815-.218-4.065 0-2.251.073-4.066.218-4.066.073 0 .219 1.815.219 4.066 0 2.25-.146 4.065-.219 4.065Zm7.922 0c-.073 0-.218-1.815-.218-4.065 0-2.251.072-4.066.218-4.066.072 0 .218 1.815.218 4.066 0 2.25-.073 4.065-.218 4.065Zm-2.471 0c-.073 0-.218-1.815-.218-4.065 0-2.251.073-4.066.218-4.066.073 0 .218 1.815.218 4.066 0 2.25-.073 4.065-.218 4.065Zm7.921 0c-.073 0-.218-1.815-.218-4.065 0-2.251.073-4.066.218-4.066.073 0 .218 1.815.218 4.066 0 2.25-.073 4.065-.218 4.065Zm-2.471 0c-.072 0-.218-1.815-.218-4.065 0-2.251.073-4.066.218-4.066.073 0 .218 1.815.218 4.066 0 2.25-.072 4.065-.218 4.065Zm7.994 0c-.073 0-.218-1.815-.218-4.065 0-2.251.073-4.066.218-4.066.073 0 .218 1.815.218 4.066-.073 2.25-.145 4.065-.218 4.065Zm-2.543 0c-.073 0-.218-1.815-.218-4.065 0-2.251.072-4.066.218-4.066.072 0 .218 1.815.218 4.066 0 2.25-.073 4.065-.218 4.065Z"/>
    <path fill="#263238" d="M117.028 342.049c0 .073-10.247.218-22.82.218-12.644 0-22.818-.073-22.818-.218 0-.145 10.246-.218 22.819-.218 12.572 0 22.819.073 22.819.218Z"/>
    <path fill="#FBBC05" d="M114.048 350.398H68.555v8.275h45.493v-8.275Z"/>
    <path fill="#263238" d="M73.061 358.673c-.073 0-.218-1.815-.218-4.065 0-2.25.073-4.065.218-4.065.073 0 .218 1.815.218 4.065-.072 2.25-.145 4.065-.218 4.065Zm-2.543 0c-.073 0-.218-1.815-.218-4.065 0-2.25.072-4.065.218-4.065.072 0 .218 1.815.218 4.065 0 2.25-.073 4.065-.218 4.065Zm7.994 0c-.073 0-.218-1.815-.218-4.065 0-2.25.072-4.065.218-4.065.145 0 .218 1.815.218 4.065-.073 2.25-.146 4.065-.218 4.065Zm-2.544 0c-.073 0-.218-1.815-.218-4.065 0-2.25.073-4.065.218-4.065.145 0 .218 1.815.218 4.065 0 2.25-.073 4.065-.218 4.065Zm7.994 0c-.073 0-.218-1.815-.218-4.065 0-2.25.073-4.065.218-4.065.145 0 .218 1.815.218 4.065-.073 2.25-.145 4.065-.218 4.065Zm-2.471 0c-.073 0-.218-1.815-.218-4.065 0-2.25.073-4.065.218-4.065.145 0 .218 1.815.218 4.065-.072 2.25-.145 4.065-.218 4.065Zm7.921 0c-.072 0-.218-1.815-.218-4.065 0-2.25.073-4.065.218-4.065.146 0 .218 1.815.218 4.065 0 2.25-.145 4.065-.218 4.065Zm-2.47 0c-.073 0-.218-1.815-.218-4.065 0-2.25.072-4.065.218-4.065.072 0 .218 1.815.218 4.065-.073 2.25-.146 4.065-.218 4.065Zm7.921 0c-.073 0-.218-1.815-.218-4.065 0-2.25.072-4.065.218-4.065.073 0 .218 1.815.218 4.065 0 2.25-.073 4.065-.218 4.065Zm-2.471 0c-.073 0-.218-1.815-.218-4.065 0-2.25.073-4.065.218-4.065.073 0 .218 1.815.218 4.065 0 2.25-.145 4.065-.218 4.065Zm7.921 0c-.072 0-.218-1.815-.218-4.065 0-2.25.073-4.065.218-4.065.146 0 .218 1.815.218 4.065 0 2.25-.072 4.065-.218 4.065Zm-2.471 0c-.072 0-.218-1.815-.218-4.065 0-2.25.073-4.065.218-4.065.073 0 .218 1.815.218 4.065 0 2.25-.072 4.065-.218 4.065Zm7.994 0c-.072 0-.218-1.815-.218-4.065 0-2.25.073-4.065.218-4.065.146 0 .218 1.815.218 4.065-.072 2.25-.145 4.065-.218 4.065Zm-2.543 0c-.073 0-.218-1.815-.218-4.065 0-2.25.072-4.065.218-4.065.072 0 .218 1.815.218 4.065 0 2.25-.073 4.065-.218 4.065Zm7.994 0c-.073 0-.218-1.815-.218-4.065 0-2.25.072-4.065.218-4.065.145 0 .218 1.815.218 4.065-.073 2.25-.146 4.065-.218 4.065Zm-2.544 0c-.073 0-.218-1.815-.218-4.065 0-2.25.073-4.065.218-4.065.073 0 .218 1.815.218 4.065 0 2.25-.072 4.065-.218 4.065Z"/>
    <path fill="#263238" d="M114.048 350.398c0 .072-10.247.217-22.819.217-12.645 0-22.819-.072-22.819-.217 0-.073 10.247-.218 22.82-.218 12.571 0 22.818.145 22.818.218Z"/>
    <path fill="#FBBC05" d="M117.754 358.673H72.262v8.276h45.492v-8.276Z"/>
    <path fill="#263238" d="M76.767 367.021c-.072 0-.218-1.814-.218-4.065 0-2.25.073-4.065.218-4.065.073 0 .218 1.815.218 4.065-.072 2.251-.145 4.065-.218 4.065Zm-2.543 0c-.073 0-.218-1.814-.218-4.065 0-2.25.073-4.065.218-4.065.145 0 .218 1.815.218 4.065 0 2.251-.073 4.065-.218 4.065Zm7.994 0c-.073 0-.218-1.814-.218-4.065 0-2.25.072-4.065.218-4.065.145 0 .218 1.815.218 4.065-.073 2.251-.146 4.065-.218 4.065Zm-2.471 0c-.073 0-.218-1.814-.218-4.065 0-2.25.073-4.065.218-4.065.145 0 .218 1.815.218 4.065-.073 2.251-.145 4.065-.218 4.065Zm7.921 0c-.073 0-.218-1.814-.218-4.065 0-2.25.073-4.065.218-4.065.146 0 .218 1.815.218 4.065 0 2.251-.145 4.065-.218 4.065Zm-2.471 0c-.072 0-.218-1.814-.218-4.065 0-2.25.073-4.065.218-4.065.146 0 .218 1.815.218 4.065-.072 2.251-.145 4.065-.218 4.065Zm7.921 0c-.072 0-.218-1.814-.218-4.065 0-2.25.073-4.065.218-4.065.146 0 .219 1.815.219 4.065 0 2.251-.073 4.065-.219 4.065Zm-2.47 0c-.073 0-.218-1.814-.218-4.065 0-2.25.072-4.065.218-4.065.145 0 .218 1.815.218 4.065 0 2.251-.146 4.065-.218 4.065Zm7.921 0c-.073 0-.218-1.814-.218-4.065 0-2.25.073-4.065.218-4.065.073 0 .218 1.815.218 4.065 0 2.251-.073 4.065-.218 4.065Zm-2.471 0c-.073 0-.218-1.814-.218-4.065 0-2.25.073-4.065.218-4.065.073 0 .218 1.815.218 4.065 0 2.251-.073 4.065-.218 4.065Zm7.921 0c-.072 0-.218-1.814-.218-4.065 0-2.25.073-4.065.218-4.065.146 0 .218 1.815.218 4.065 0 2.251-.072 4.065-.218 4.065Zm-2.47 0c-.073 0-.218-1.814-.218-4.065 0-2.25.072-4.065.218-4.065.145 0 .218 1.815.218 4.065 0 2.251-.073 4.065-.218 4.065Zm7.993 0c-.072 0-.218-1.814-.218-4.065 0-2.25.073-4.065.218-4.065.146 0 .218 1.815.218 4.065-.072 2.251-.145 4.065-.218 4.065Zm-2.543 0c-.073 0-.218-1.814-.218-4.065 0-2.25.073-4.065.218-4.065.145 0 .218 1.815.218 4.065 0 2.251-.073 4.065-.218 4.065Zm7.994 0c-.073 0-.218-1.814-.218-4.065 0-2.25.072-4.065.218-4.065.145 0 .218 1.815.218 4.065-.073 2.251-.146 4.065-.218 4.065Zm-2.471 0c-.073 0-.218-1.814-.218-4.065 0-2.25.073-4.065.218-4.065.145 0 .218 1.815.218 4.065-.073 2.251-.145 4.065-.218 4.065Zm5.232-8.348c0 .073-10.246.218-22.891.218-12.645 0-22.892-.073-22.892-.218 0-.072 10.247-.217 22.892-.217 12.645.072 22.891.145 22.891.217Z"/>
    <path fill="#FBBC05" d="M114.194 366.877H68.701v8.275h45.493v-8.275Z"/>
    <path fill="#263238" d="M73.207 375.152c-.073 0-.218-1.815-.218-4.065 0-2.25.072-4.065.218-4.065.145 0 .218 1.815.218 4.065-.073 2.25-.146 4.065-.218 4.065Zm-2.544 0c-.073 0-.218-1.815-.218-4.065 0-2.25.073-4.065.218-4.065.145 0 .218 1.815.218 4.065 0 2.25-.073 4.065-.218 4.065Zm7.994 0c-.073 0-.218-1.815-.218-4.065 0-2.25.073-4.065.218-4.065.073 0 .218 1.815.218 4.065-.073 2.25-.145 4.065-.218 4.065Zm-2.471 0c-.073 0-.218-1.815-.218-4.065 0-2.25.073-4.065.218-4.065.073 0 .218 1.815.218 4.065-.072 2.25-.145 4.065-.218 4.065Zm7.921 0c-.072 0-.218-1.815-.218-4.065 0-2.25.073-4.065.218-4.065.146 0 .218 1.815.218 4.065 0 2.25-.145 4.065-.218 4.065Zm-2.47 0c-.073 0-.218-1.815-.218-4.065 0-2.25.072-4.065.218-4.065.145 0 .218 1.815.218 4.065-.073 2.25-.146 4.065-.218 4.065Zm7.921 0c-.073 0-.218-1.815-.218-4.065 0-2.25.072-4.065.218-4.065.072 0 .218 1.815.218 4.065 0 2.25-.073 4.065-.218 4.065Zm-2.471 0c-.073 0-.218-1.815-.218-4.065 0-2.25.073-4.065.218-4.065.145 0 .218 1.815.218 4.065-.073 2.25-.145 4.065-.218 4.065Zm7.921 0c-.072 0-.218-1.815-.218-4.065 0-2.25.073-4.065.218-4.065.145 0 .218 1.815.218 4.065 0 2.25-.073 4.065-.218 4.065Zm-2.471 0c-.072 0-.218-1.815-.218-4.065 0-2.25.073-4.065.218-4.065.146 0 .218 1.815.218 4.065 0 2.25-.145 4.065-.218 4.065Zm7.922 0c-.073 0-.218-1.815-.218-4.065 0-2.25.072-4.065.218-4.065.072 0 .218 1.815.218 4.065 0 2.25-.073 4.065-.218 4.065Zm-2.471 0c-.073 0-.218-1.815-.218-4.065 0-2.25.072-4.065.218-4.065.073 0 .218 1.815.218 4.065 0 2.25-.073 4.065-.218 4.065Zm7.994 0c-.073 0-.218-1.815-.218-4.065 0-2.25.072-4.065.218-4.065.145 0 .218 1.815.218 4.065-.073 2.25-.146 4.065-.218 4.065Zm-2.544 0c-.073 0-.218-1.815-.218-4.065 0-2.25.073-4.065.218-4.065.145 0 .218 1.815.218 4.065 0 2.25-.073 4.065-.218 4.065Zm7.994 0c-.073 0-.218-1.815-.218-4.065 0-2.25.073-4.065.218-4.065.145 0 .218 1.815.218 4.065-.073 2.25-.145 4.065-.218 4.065Zm-2.471 0c-.072 0-.218-1.815-.218-4.065 0-2.25.073-4.065.218-4.065.073 0 .218 1.815.218 4.065-.072 2.25-.145 4.065-.218 4.065Z"/>
    <path fill="#263238" d="M114.194 366.876c0 .073-10.247.218-22.82.218-12.644 0-22.819-.072-22.819-.218 0-.072 10.247-.217 22.82-.217 12.572 0 22.819.145 22.819.217Z"/>
    <path fill="#FBBC05" d="M118.772 375.225H73.279v8.275h45.493v-8.275Z"/>
    <path fill="#263238" d="M77.712 383.573c-.073 0-.218-1.815-.218-4.065 0-2.251.073-4.066.218-4.066.073 0 .218 1.815.218 4.066 0 2.177-.073 4.065-.218 4.065Zm-2.471 0c-.072 0-.218-1.815-.218-4.065 0-2.251.073-4.066.218-4.066.073 0 .218 1.815.218 4.066 0 2.177-.072 4.065-.218 4.065Zm7.922 0c-.073 0-.218-1.815-.218-4.065 0-2.251.072-4.066.218-4.066.072 0 .218 1.815.218 4.066 0 2.177-.073 4.065-.218 4.065Zm-2.471 0c-.073 0-.218-1.815-.218-4.065 0-2.251.072-4.066.218-4.066.072 0 .218 1.815.218 4.066 0 2.177-.073 4.065-.218 4.065Zm7.994 0c-.073 0-.218-1.815-.218-4.065 0-2.251.072-4.066.218-4.066.072 0 .218 1.815.218 4.066-.073 2.177-.146 4.065-.218 4.065Zm-2.544 0c-.073 0-.218-1.815-.218-4.065 0-2.251.073-4.066.218-4.066.073 0 .218 1.815.218 4.066 0 2.177-.073 4.065-.218 4.065Zm7.994 0c-.073 0-.218-1.815-.218-4.065 0-2.251.073-4.066.218-4.066.073 0 .218 1.815.218 4.066-.073 2.177-.145 4.065-.218 4.065Zm-2.471 0c-.073 0-.218-1.815-.218-4.065 0-2.251.073-4.066.218-4.066.145 0 .218 1.815.218 4.066-.072 2.177-.145 4.065-.218 4.065Zm7.921 0c-.072 0-.218-1.815-.218-4.065 0-2.251.073-4.066.218-4.066.073 0 .218 1.815.218 4.066 0 2.177-.145 4.065-.218 4.065Zm-2.47 0c-.073 0-.218-1.815-.218-4.065 0-2.251.072-4.066.218-4.066.072 0 .218 1.815.218 4.066-.073 2.177-.146 4.065-.218 4.065Zm7.921 0c-.073 0-.218-1.815-.218-4.065 0-2.251.073-4.066.218-4.066.073 0 .218 1.815.218 4.066 0 2.177-.073 4.065-.218 4.065Zm-2.471 0c-.073 0-.218-1.815-.218-4.065 0-2.251.073-4.066.218-4.066.145 0 .218 1.815.218 4.066 0 2.177-.145 4.065-.218 4.065Zm7.921 0c-.072 0-.218-1.815-.218-4.065 0-2.251.073-4.066.218-4.066.073 0 .218 1.815.218 4.066 0 2.177-.072 4.065-.218 4.065Zm-2.471 0c-.072 0-.218-1.815-.218-4.065 0-2.251.073-4.066.218-4.066.073 0 .218 1.815.218 4.066 0 2.177-.145 4.065-.218 4.065Zm7.922 0c-.073 0-.218-1.815-.218-4.065 0-2.251.072-4.066.218-4.066.072 0 .218 1.815.218 4.066 0 2.177-.073 4.065-.218 4.065Zm-2.471 0c-.073 0-.218-1.815-.218-4.065 0-2.251.072-4.066.218-4.066.072 0 .218 1.815.218 4.066 0 2.177-.073 4.065-.218 4.065Z"/>
    <path fill="#263238" d="M118.772 375.225c0 .072-10.247.218-22.82.218-12.644 0-22.818-.073-22.818-.218 0-.073 10.246-.218 22.819-.218 12.572.073 22.819.145 22.819.218Z"/>
    <path fill="#000" d="M72.262 358.673c6.758 1.67 14.025 1.96 21.002 1.525 6.976-.436 14.026-1.452 21.002-1.379l-42.004-.146Zm.436-8.203c6.758 1.67 14.025 1.96 21.002 1.525 6.976-.436 14.026-1.452 21.002-1.38l-42.004-.145Zm2.18 16.479c6.758 1.67 14.026 1.96 21.002 1.524 6.977-.435 14.026-1.451 21.002-1.379l-42.004-.145Zm-1.744 8.276c6.758 1.669 14.025 1.96 21.002 1.524 6.977-.435 14.026-1.452 21.002-1.379l-42.004-.145Z" opacity=".3"/>
    <path fill="#fff" d="M72.407 347.639c-.073 0-.218-1.016-.218-2.25 0-1.235.073-2.251.218-2.251.073 0 .218 1.016.218 2.251-.073 1.234-.145 2.25-.218 2.25Zm-2.907 8.857c-.072 0-.218-1.089-.218-2.396s.073-2.396.218-2.396c.146 0 .218 1.089.218 2.396s-.072 2.396-.218 2.396Zm4.07 8.493c-.073 0-.218-.944-.218-2.178 0-1.161.072-2.178.218-2.178.145 0 .218.944.218 2.178 0 1.162-.073 2.178-.218 2.178Zm-4.142 7.768c-.073 0-.218-.872-.218-1.96 0-1.089.072-1.961.218-1.961.072 0 .218.872.218 1.961-.073 1.088-.146 1.96-.218 1.96Zm16.642-21.706c0 .073-3.343.218-7.486.218-4.142 0-7.485-.073-7.485-.218 0-.145 3.343-.218 7.485-.218 4.142.073 7.485.145 7.485.218Zm4.868-7.913c0 .073-3.415.218-7.558.218-4.142 0-7.557-.073-7.557-.218 0-.072 3.415-.218 7.558-.218 4.142.073 7.557.146 7.557.218Zm7.268.145c0 .073-1.09.218-2.471.218s-2.471-.072-2.471-.218c0-.072 1.09-.217 2.47-.217 1.309 0 2.472.072 2.472.217Z"/>
  </g>
  <defs>
    <clipPath id="a">
      <path fill="#fff" d="M16.014 70.401h434.797v313.825H16.014z"/>
    </clipPath>
  </defs>
</svg>
