<?xml version="1.0" encoding="utf-8"?>
<svg viewBox="108.028 7.433 136.769 134.787" xmlns="http://www.w3.org/2000/svg">
  <g transform="matrix(1, 0, 0, 1, 115.96742248535156, 19.86531639099121)">
    <path class="st0" d="M35.14,65.38c-3.53,0.32-4.25-2.47-2.74-4.78l13.46-15.79l-0.39-0.39h-7.2c-2.61,0.38-3.58-2.44-1.99-4.43 l14.5-17.02h-4.24c-2.66,0.07-3.31-2.37-1.61-4.67L58.15,2.61c0.9-1.07,1.87-2.65,3.44-2.61c1.35,0.03,2.16,1.31,2.97,2.24 l14.04,16.38c1.52,2.19,0.22,4.49-2.43,4.49h-3.79l14.4,16.87c1.73,1.71,0.84,4.45-1.14,4.82h-8.37l12.54,14.74l1.38,1.61 c1.05,1.2,0.52,3.95-1.74,4.22C71.35,65.37,53.25,65.38,35.14,65.38L35.14,65.38z" style="fill: rgb(0, 160, 165);"/>
    <path class="st2" d="M61.62,0c1.33,0.05,2.14,1.31,2.94,2.24l14.04,16.38c1.52,2.19,0.22,4.49-2.43,4.49h-3.79l14.4,16.87 c1.73,1.71,0.84,4.45-1.14,4.82h-8.37l12.54,14.74l1.38,1.61c1.05,1.2,0.52,3.95-1.74,4.22l-27.83,0.01V0L61.62,0z" style="fill: rgb(0, 141, 145);"/>
    <polygon class="st3" points="56.21,65.39 66.83,65.39 66.83,96.85 56.21,96.85 56.21,65.39" style="clip-rule: evenodd; fill: rgb(111, 74, 64); fill-rule: evenodd;"/>
  </g>
</svg>