<svg width="1303" height="346" viewBox="0 0 1303 346" fill="none" xmlns="http://www.w3.org/2000/svg">
<g opacity="0.2">
<mask id="mask0_149_11763" style="mask-type:luminance" maskUnits="userSpaceOnUse" x="-5" y="0" width="1308" height="346">
<path d="M1302.02 0.0828857H-4.90039V345.533H648.559H1302.02V0.0828857Z" fill="white"/>
</mask>
<g mask="url(#mask0_149_11763)">
<g opacity="0.2">
<g opacity="0.2">
<g opacity="0.2">
<g opacity="0.2">
<g opacity="0.2">
<path opacity="0.2" d="M548.483 214.453L547.821 215.512L582.088 234.263L557.601 269.717L558.778 270.676L584.22 234.035L548.483 214.453Z" fill="#008D91"/>
</g>
<g opacity="0.2">
<path opacity="0.2" d="M620.519 159.239L620.273 159.768L582.601 234.111L583.9 234.59L621.303 161.232L719.52 204.787L697.676 259.346L699.075 260.027L721.378 204.081L720.721 203.829L620.519 159.239Z" fill="#008D91"/>
</g>
<g opacity="0.2">
<path opacity="0.2" d="M792.222 141.827L719.199 204.385L773.735 239.991L774.182 239.764L830.504 216.8L859.722 253.542L860.406 253.113L923.67 205.924L944.455 242.817L945.802 241.682L924.037 204.032L923.427 204.435L860.314 251.675L830.845 215.21L830.307 215.261L774.057 238.099L721.747 204.687L793.05 142.887L792.222 141.827Z" fill="#008D91"/>
</g>
<g opacity="0.2">
<path opacity="0.2" d="M995.857 90.9529L994.853 94.0821L964.577 195.325L923.721 204.182L923.819 205.671L965.779 196.687L965.831 196.233L995.266 97.4633L1001.66 144.805L1002.33 144.628L1065.51 140.186L1114.81 155.403L1162.79 187.048L1189.05 208.876L1189.76 207.664L1163.71 185.962L1115.35 154.015L1065.59 138.798L1002.72 143.164L995.857 90.9529Z" fill="#008D91"/>
</g>
<g opacity="0.2">
<path opacity="0.2" d="M1165.25 190.051L1148.46 213.948L1149.78 214.554L1166.47 190.48L1165.25 190.051Z" fill="#008D91"/>
</g>
<g opacity="0.2">
<path opacity="0.2" d="M1149.1 75.6866L1148.83 76.5192L1114.68 154.596L1115.76 155.025L1149.79 77.8316L1188.59 99.6596L1189.27 98.3977L1149.1 75.6866Z" fill="#008D91"/>
</g>
<g opacity="0.2">
<path opacity="0.2" d="M867.247 115.28L865.875 115.154L864.233 169.939L830.529 214.958L776.532 185.307L775.895 186.695L830.798 216.927L831.14 216.573L865.553 170.595L867.247 115.28Z" fill="#008D91"/>
</g>
<g opacity="0.2">
<path opacity="0.2" d="M569.734 57.0375L569.121 58.1479L638.83 100.013L719.835 104.277L719.888 104L781.431 80.1276L780.676 78.7646L719.914 102.562L638.879 98.5993L569.734 57.0375Z" fill="#008D91"/>
</g>
<g opacity="0.2">
<path opacity="0.2" d="M624.808 13.1288L623.411 13.4569L632.627 100.896L634.024 100.694L624.808 13.1288Z" fill="#008D91"/>
</g>
<g opacity="0.2">
<path opacity="0.2" d="M1061.69 18.0497L1060.32 18.4535L1069.43 70.639L1064.93 139.279L1029.58 191.287L1030.73 192.145L1066.32 139.581L1066.22 139.405L1071.08 70.6646L1061.69 18.0497Z" fill="#008D91"/>
</g>
<g opacity="0.2">
<path opacity="0.2" d="M565.027 270.425C565.419 266.437 562.307 263.005 558.385 263.03C554.561 263.005 551.007 265.806 550.909 269.92C550.812 274.285 554.096 277.414 557.822 277.667C561.988 277.743 565.199 274.437 565.027 270.425Z" fill="#008D91"/>
</g>
<g opacity="0.2">
<path opacity="0.2" d="M557.38 216.724C557.502 212.434 554.242 209.104 550.394 208.901C546.644 208.952 543.114 211.929 543.114 216.068C542.967 220.257 546.227 223.563 550.1 223.537C553.654 223.715 557.257 220.635 557.38 216.724Z" fill="#008D91"/>
</g>
<g opacity="0.2">
<path opacity="0.2" d="M597.456 237.543C597.554 230.099 592.039 223.815 584.735 223.614C577.749 223.513 571.597 229.266 571.499 236.685C571.376 243.928 576.745 250.211 584.171 250.262C591.255 250.564 597.211 244.861 597.456 237.543Z" fill="#008D91"/>
</g>
<g opacity="0.2">
<path opacity="0.2" d="M642.531 165.926C642.948 153.409 633.315 142.609 621.059 142.281C608.657 141.953 598.485 151.82 598.093 164.564C597.676 177.156 607.358 187.805 619.638 187.956C632.188 188.411 642.237 178.493 642.531 165.926Z" fill="#008D91"/>
</g>
<g opacity="0.2">
<path opacity="0.2" d="M594.563 59.7123C594.636 47.0444 585.175 36.5971 572.699 36.0419C560.296 35.9915 550.198 45.6312 549.855 58.4001C549.316 70.8917 559.316 81.8182 571.523 81.9698C583.704 82.3231 594.073 72.3551 594.563 59.7123Z" fill="#008D91"/>
</g>
<g opacity="0.2">
<path opacity="0.2" d="M648.732 99.3313C648.855 92.4926 643.316 86.3603 636.526 86.2343C629.516 85.9565 623.682 91.8617 623.732 98.4982C623.609 105.69 628.854 111.621 635.594 112.025C642.507 112.226 648.168 106.397 648.732 99.3313Z" fill="#008D91"/>
</g>
<g opacity="0.2">
<path opacity="0.2" d="M637.139 15.6523C637.213 7.22384 630.962 0.284222 622.702 0.082343C614.589 -0.245712 607.75 6.31537 607.677 14.6429C607.334 23.0209 613.879 29.9858 621.943 30.339C630.08 30.6166 636.821 23.9799 637.139 15.6523Z" fill="#008D91"/>
</g>
<g opacity="0.2">
<path opacity="0.2" d="M981.613 194.695C981.883 184.096 973.719 175.365 963.33 175.163C953.111 174.86 944.481 183.011 943.989 193.458C943.772 204.259 952.007 213.141 962.371 213.57C972.741 213.722 981.2 205.192 981.613 194.695Z" fill="#008D91"/>
</g>
<g opacity="0.2">
<path opacity="0.2" d="M1008.03 97.919C1008.06 89.6923 1002.06 82.7781 994.235 82.5004C986.322 82.5004 979.8 88.8342 979.334 96.9099C979.209 105.136 985.435 111.849 993.382 111.874C1001 112.227 1007.84 105.969 1008.03 97.919Z" fill="#008D91"/>
</g>
<g opacity="0.2">
<path opacity="0.2" d="M1013.33 145.587C1013.55 139.758 1008.82 134.508 1002.94 134.382C996.981 134.206 992.127 139.101 991.786 145.082C991.714 150.962 996.344 156.488 1002.2 156.413C1008.09 156.564 1012.96 151.744 1013.33 145.587Z" fill="#008D91"/>
</g>
<g opacity="0.2">
<path opacity="0.2" d="M1050.81 188.638C1051.13 179.074 1043.94 171.428 1034.73 171.276C1025.59 170.822 1018.01 178.342 1017.86 187.628C1017.6 196.865 1024.68 204.814 1034.07 205.218C1042.99 205.192 1050.59 197.773 1050.81 188.638Z" fill="#008D91"/>
</g>
<g opacity="0.2">
<path opacity="0.2" d="M1076.3 139.152C1076.47 133.474 1071.99 128.528 1066.35 128.276C1060.68 128.225 1055.96 132.945 1055.81 138.496C1055.46 144.401 1060.05 149.625 1065.78 149.675C1071.52 149.801 1076.22 145.082 1076.3 139.152Z" fill="#008D91"/>
</g>
<g opacity="0.2">
<path opacity="0.2" d="M1085.2 75.8375C1085.35 66.2734 1078.29 58.4253 1069.41 58.2487C1060.07 58.2487 1052.42 65.1883 1052.25 74.7778C1051.84 84.0386 1059.29 91.7604 1068.36 92.1393C1077.31 92.3159 1084.91 85.0734 1085.2 75.8375Z" fill="#008D91"/>
</g>
<g opacity="0.2">
<path opacity="0.2" d="M1074.9 21.2541C1075 14.2892 1069.68 8.73755 1063.04 8.58615C1056.47 8.38425 1050.81 13.8098 1050.69 20.6232C1050.47 27.689 1055.78 33.165 1062.4 33.2659C1068.9 33.5687 1074.58 28.118 1074.9 21.2541Z" fill="#008D91"/>
</g>
<g opacity="0.2">
<path opacity="0.2" d="M1162.11 76.1407C1162.16 69.2258 1156.89 63.6745 1150.25 63.4726C1143.43 63.1446 1138.17 68.4438 1138.07 75.4841C1137.6 82.2979 1142.75 87.9759 1149.49 88.4046C1156.03 88.6823 1161.91 82.9538 1162.11 76.1407Z" fill="#008D91"/>
</g>
<g opacity="0.2">
<path opacity="0.2" d="M1197.87 99.205C1197.94 94.1331 1194.12 89.9442 1189.27 89.868C1184.2 89.6665 1180.35 93.5776 1180.05 98.5997C1179.9 103.975 1183.73 108.315 1188.6 108.138C1193.51 108.492 1197.75 104.429 1197.87 99.205Z" fill="#008D91"/>
</g>
<g opacity="0.2">
<path opacity="0.2" d="M1131.89 156.614C1132.23 146.798 1124.88 138.9 1115.49 138.546C1106.28 138.041 1098.41 145.788 1098.21 155.63C1097.8 165.27 1105.15 173.244 1114.73 173.547C1124.12 173.799 1131.77 166.254 1131.89 156.614Z" fill="#008D91"/>
</g>
<g opacity="0.2">
<path opacity="0.2" d="M1178.85 187.023C1179.05 180.26 1174 174.708 1167.58 174.683C1161.06 174.33 1155.74 179.402 1155.54 186.266C1155.57 192.751 1160.42 197.899 1166.84 198.403C1173.34 198.883 1178.54 193.534 1178.85 187.023Z" fill="#008D91"/>
</g>
<g opacity="0.2">
<path opacity="0.2" d="M1154.95 213.747C1155.05 210.618 1152.45 207.513 1149.29 207.741C1146.13 207.589 1143.39 210.012 1143.34 213.394C1143.19 216.674 1145.79 219.677 1148.97 219.651C1152.31 219.651 1154.83 217.179 1154.95 213.747Z" fill="#008D91"/>
</g>
<g opacity="0.2">
<path opacity="0.2" d="M1194.83 211.224C1194.61 207.817 1192.31 205.193 1189.03 205.243C1185.76 204.991 1183.04 207.514 1182.94 210.72C1182.94 214.05 1185.47 216.977 1188.68 216.952C1191.99 217.331 1194.61 214.454 1194.83 211.224Z" fill="#008D91"/>
</g>
<g opacity="0.2">
<path opacity="0.2" d="M798.79 84.5941C799.033 75.611 792.072 68.318 783.521 68.1157C774.937 67.7376 767.785 74.9801 767.437 83.7366C767.319 92.7204 774.083 99.9878 782.805 100.089C791.336 100.518 798.54 93.6789 798.79 84.5941Z" fill="#008D91"/>
</g>
<g opacity="0.2">
<path opacity="0.2" d="M807.196 147.656C807.511 139.909 801.706 133.373 794.081 133.197C786.778 133.07 780.723 139.001 780.598 146.672C780.329 154.318 785.944 160.4 793.418 160.778C800.997 161.031 806.874 154.974 807.196 147.656Z" fill="#008D91"/>
</g>
<g opacity="0.2">
<path opacity="0.2" d="M787.315 189.092C787.315 182.834 782.685 177.383 776.755 177.257C770.378 176.98 765.281 182.077 765.229 188.234C764.789 194.669 769.668 200.045 776.019 200.12C781.897 200.322 787.098 195.351 787.315 189.092Z" fill="#008D91"/>
</g>
<g opacity="0.2">
<path opacity="0.2" d="M876.238 116.97C876.461 111.091 871.562 105.716 865.382 105.514C859.281 105.362 854.329 110.384 853.961 116.567C853.935 123.052 858.644 128.276 864.843 128.276C870.8 128.528 876.192 123.38 876.238 116.97Z" fill="#008D91"/>
</g>
<g opacity="0.2">
<path opacity="0.2" d="M953.919 244.331C953.939 239.411 950.268 234.893 945.362 235.196C940.042 234.843 936.272 238.83 936.075 243.928C935.754 248.798 939.602 253.239 944.58 253.29C949.723 253.365 953.722 249.479 953.919 244.331Z" fill="#008D91"/>
</g>
<g opacity="0.2">
<path opacity="0.2" d="M937.027 207.639C937.25 201.078 932.075 195.603 925.849 195.375C919.479 195.148 914.035 200.422 914.015 206.983C913.496 213.494 918.599 218.97 925.239 219.121C931.491 219.45 936.81 214.251 937.027 207.639Z" fill="#008D91"/>
</g>
<g opacity="0.2">
<path opacity="0.2" d="M841.852 217.506C842.022 211.349 837.268 205.974 830.996 205.898C824.967 205.671 819.693 210.642 819.476 217.279C819.299 223.386 824.152 228.534 830.109 228.912C836.532 228.962 841.609 224.092 841.852 217.506Z" fill="#008D91"/>
</g>
<g opacity="0.2">
<path opacity="0.2" d="M709.518 259.699C709.616 253.188 704.861 247.814 698.59 247.738C692.607 247.738 687.681 253.113 687.261 259.093C687.241 265.327 691.897 270.449 698.196 271.005C704.27 271.03 709.275 266.21 709.518 259.699Z" fill="#008D91"/>
</g>
<g opacity="0.2">
<path opacity="0.2" d="M791.139 242.716C791.487 233.455 784.158 225.708 775.114 225.329C765.946 225.203 758.466 232.42 758.197 241.783C757.954 251.094 764.961 259.093 774.109 259.296C783.251 259.724 790.824 252.255 791.139 242.716Z" fill="#008D91"/>
</g>
<g opacity="0.2">
<path opacity="0.2" d="M737.856 207.311C737.829 197.949 730.796 190.177 721.654 189.723C712.729 189.445 705.032 196.991 704.664 206.125C704.447 215.714 711.625 223.563 720.794 223.79C729.791 224.143 737.586 216.623 737.856 207.311Z" fill="#008D91"/>
</g>
<g opacity="0.2">
<path opacity="0.2" d="M877.44 253.189C877.637 243.777 870.479 235.828 861.337 235.676C852.123 235.247 844.748 242.565 844.38 252.18C844.104 261.466 851.315 269.39 860.601 269.592C869.5 270.223 877.145 262.552 877.44 253.189Z" fill="#008D91"/>
</g>
<g opacity="0.2">
<path opacity="0.2" d="M881.046 170.847C881.289 162.57 874.551 154.696 865.724 154.394C857.318 154.293 849.942 161.383 849.818 170.216C849.522 179.048 856.51 186.392 864.89 186.417C873.671 186.669 880.75 179.957 881.046 170.847Z" fill="#008D91"/>
</g>
<g opacity="0.2">
<path opacity="0.2" d="M738.27 105.262C738.71 93.6035 729.667 83.6106 718.023 83.3329C706.405 82.7774 696.895 92.1144 696.652 104.177C696.186 116.088 705.105 126.03 716.749 126.46C728.439 126.686 738.047 117.324 738.27 105.262Z" fill="#008D91"/>
</g>
</g>
</g>
</g>
</g>
<path d="M1296.72 277.567L1297.34 278.828L1262.29 296.19L1285.65 332.301L1284.37 333.689L1260.45 296.038L1296.72 277.567Z" fill="#016270"/>
<path d="M1226.4 219.904L1226.75 220.358L1261.77 295.785L1260.6 296.568L1225.67 221.57L1125.86 261.844L1145.71 317.311L1144.44 317.791L1124.02 261.063L1124.8 260.684L1226.4 219.904Z" fill="#016270"/>
<path d="M1055.32 196.41L1126.08 261.617L1070.56 294.877L1070.02 294.902L1014.7 269.769L984.063 305.703L983.55 305.425L922.027 255.915L899.77 291.824L898.817 290.966L921.514 253.82L922.368 254.097L983.596 303.684L1014.43 268.381H1014.75L1070.63 293.262L1123.82 261.416L1054.41 197.496L1055.32 196.41Z" fill="#016270"/>
<path d="M853.541 138.319L854.697 141.272L881.387 243.827L921.954 254.148L921.783 255.586L880.06 245.24V244.988L854.007 144.729L845.995 192.222L845.332 191.767L782.363 185.055L732.582 198.682L683.313 228.61L656.695 249.429L655.835 248.369L682.702 227.425L731.991 197.192L782.219 183.616L844.819 190.631L853.541 138.319Z" fill="#016270"/>
<path d="M681.133 231.26L696.849 255.965L695.647 256.899L679.688 231.891L681.133 231.26Z" fill="#016270"/>
<path d="M700.941 117.854L701.308 118.535L732.753 197.672L731.604 198.201L700.349 119.822L660.741 140.414L659.979 139.076L700.941 117.854Z" fill="#016270"/>
<path d="M981.219 167.012L982.69 167.264L982.348 221.721L1014.61 268.305L1069.39 240.471L1070.22 241.783L1014.29 269.996L1013.87 269.668L981.146 222.302L981.219 167.012Z" fill="#016270"/>
<path d="M1280.67 119.621L1281.16 120.479L1210.4 159.921L1129.1 161.158L1128.87 161.108L1068.26 135.065L1068.92 133.728L1129.14 159.795L1210.05 158.634L1280.67 119.621Z" fill="#016270"/>
<path d="M1226.84 73.7189L1228.24 73.8699L1216.45 161.133L1214.91 160.93L1226.84 73.7189Z" fill="#016270"/>
<path d="M790.133 63.1447L791.558 63.3718L780.65 115.76L782.83 184.146L816.462 237.417L815.162 238.275L781.412 184.676L781.431 184.348L779.179 115.532L790.133 63.1447Z" fill="#016270"/>
<path d="M1287.7 279.232C1287.63 275.37 1290.91 272.09 1294.91 272.216C1298.93 272.015 1302.24 275.471 1301.99 279.459C1301.99 283.345 1298.73 286.752 1294.66 286.827C1290.84 286.802 1287.75 283.395 1287.7 279.232Z" fill="#016270"/>
<path d="M1247.02 298.587C1246.87 291.421 1252.93 285.44 1259.98 285.49C1267.09 285.667 1272.97 291.395 1272.8 298.688C1272.65 306.36 1266.97 312.391 1259.71 312.214C1252.48 312.113 1246.84 306.258 1247.02 298.587Z" fill="#016270"/>
<path d="M1204.2 225.734C1204.03 212.965 1214.17 202.871 1226.72 202.871C1238.83 203.148 1248.71 213.318 1248.61 225.784C1248.66 238.604 1238.48 248.698 1226.13 248.622C1213.95 248.647 1204 238.503 1204.2 225.734Z" fill="#016270"/>
<path d="M1255.79 121.261C1255.99 108.542 1265.79 98.3479 1278.37 98.4739C1290.55 98.4483 1300.57 108.669 1300.42 121.715C1300.4 134.181 1290.16 144.528 1278.07 144.452C1265.69 144.553 1255.74 133.979 1255.79 121.261Z" fill="#016270"/>
<path d="M1200.35 158.861C1200.56 151.947 1206.01 146.294 1212.92 146.344C1219.93 146.395 1225.42 152.401 1225.4 159.164C1225.45 166.154 1219.83 172.009 1212.77 172.16C1205.94 171.983 1200.29 166.255 1200.35 158.861Z" fill="#016270"/>
<path d="M1214.57 75.6609C1214.64 67.2326 1221.33 60.5201 1229.42 60.4696C1237.55 60.5958 1244.1 67.4092 1244.07 75.6609C1244 84.1654 1237.26 90.878 1229.1 90.9785C1221.01 90.7769 1214.61 83.9887 1214.57 75.6609Z" fill="#016270"/>
<path d="M864.449 242.642C864.594 232.169 873.006 223.387 883.271 223.842C893.247 223.614 901.831 232.471 902.074 242.743C901.851 253.543 893.149 262.199 883.101 261.996C872.586 261.896 864.305 253.29 864.449 242.642Z" fill="#016270"/>
<path d="M841.115 144.704C841.286 136.478 847.709 129.892 855.38 130.119C863.517 130.245 869.624 136.755 869.624 144.781C869.598 153.007 863.398 159.77 855.38 159.568C847.663 159.391 841.286 152.881 841.115 144.704Z" fill="#016270"/>
<path d="M834.45 192.323C834.306 186.367 839.251 181.497 845.037 181.572C851.02 181.522 855.722 186.544 855.749 192.65C855.703 198.657 850.921 203.678 844.965 203.426C839.107 203.451 834.352 198.555 834.45 192.323Z" fill="#016270"/>
<path d="M795.354 234.213C795.4 224.446 802.881 217.128 811.753 217.254C821.02 217.254 828.251 224.825 828.343 234.288C828.297 243.676 820.941 251.271 811.629 250.943C802.71 251.12 795.256 243.473 795.354 234.213Z" fill="#016270"/>
<path d="M771.553 183.944C771.527 178.266 776.111 173.321 781.943 173.219C787.656 173.472 792.267 178.417 792.142 183.919C792.194 189.672 787.361 194.467 781.772 194.493C775.966 194.392 771.527 189.572 771.553 183.944Z" fill="#016270"/>
<path d="M764.861 120.1C764.717 110.688 772.217 103.269 781.162 103.37C790.304 103.37 797.83 110.789 797.731 120.252C797.561 129.614 790.087 137.084 781.017 137.058C772.118 137.235 764.861 129.463 764.861 120.1Z" fill="#016270"/>
<path d="M776.972 65.9712C777.018 59.0316 782.436 53.7575 789.128 53.5304C795.774 53.7323 800.969 59.3092 800.969 66.1226C800.917 72.8601 795.722 78.3109 789.003 78.5131C782.318 78.3615 776.972 72.7341 776.972 65.9712Z" fill="#016270"/>
<path d="M688.023 117.804C687.898 110.688 693.513 105.667 700.448 105.616C706.674 105.717 712.164 111.041 712.263 117.653C712.04 124.694 706.746 130.372 700.08 130.295C693.46 130.295 688.049 124.618 688.023 117.804Z" fill="#016270"/>
<path d="M651.431 139.658C651.406 134.409 655.231 130.372 660.38 130.523C665.155 130.548 669.227 134.711 669.029 139.835C669.154 144.882 665.082 149.222 660.4 148.894C655.159 148.944 651.406 144.73 651.431 139.658Z" fill="#016270"/>
<path d="M715.304 199.363C715.251 189.446 722.876 181.699 732.36 181.825C741.777 181.9 749.35 189.572 749.179 199.438C749.153 209.003 741.331 216.75 732.117 217.002C722.508 216.573 715.251 208.75 715.304 199.363Z" fill="#016270"/>
<path d="M667.407 228.131C667.361 221.166 672.871 215.942 678.998 216.043C685.592 215.867 690.84 221.318 690.715 228.181C690.57 234.49 685.52 239.915 678.952 239.688C672.602 239.992 667.335 234.339 667.407 228.131Z" fill="#016270"/>
<path d="M690.545 255.662C690.472 252.23 693.145 249.504 696.206 249.757C699.444 249.581 702.235 252.28 702.261 255.687C702.235 258.892 699.22 261.718 696.107 261.441C693.047 261.567 690.4 258.741 690.545 255.662Z" fill="#016270"/>
<path d="M650.765 251.625C650.741 248.446 653.439 245.72 656.598 245.619C659.809 245.998 662.627 248.243 662.482 251.6C662.482 254.982 659.809 257.505 656.427 257.58C653.458 257.858 650.692 254.931 650.765 251.625Z" fill="#016270"/>
<path d="M1050.81 139.152C1050.81 129.992 1057.87 123.002 1066.49 122.926C1075.02 122.901 1082.15 130.32 1082.01 139.202C1081.88 148.161 1074.98 155.126 1066.32 155.126C1057.64 155.025 1050.75 147.858 1050.81 139.152Z" fill="#016270"/>
<path d="M1040.27 201.483C1040.04 193.761 1046.42 187.553 1053.78 187.528C1061.08 187.654 1066.79 193.938 1066.67 201.509C1066.88 209.205 1061 215.059 1053.41 215.16C1045.83 215.136 1039.9 208.877 1040.27 201.483Z" fill="#016270"/>
<path d="M1058.65 243.877C1058.72 237.241 1063.84 232.093 1069.85 232.244C1076.18 232.522 1081.05 237.342 1081.03 243.978C1080.98 250.085 1076.13 255.359 1069.85 255.359C1063.7 255.385 1058.53 250.111 1058.65 243.877Z" fill="#016270"/>
<path d="M972.129 168.879C972.32 162.52 977.396 157.271 983.327 157.321C989.625 157.397 994.36 162.721 994.36 169.005C994.308 175.44 989.625 180.512 983.281 180.487C977.199 180.538 972.077 175.44 972.129 168.879Z" fill="#016270"/>
<path d="M890.358 293.464C890.483 288.341 894.575 284.152 899.356 284.177C904.498 283.976 908.274 288.392 908.202 293.338C908.15 298.637 904.478 302.523 899.356 302.472C894.647 302.271 890.555 298.107 890.358 293.464Z" fill="#016270"/>
<path d="M1003.11 270.4C1003.25 264.267 1008.11 258.741 1014.43 258.993C1020.49 258.943 1025.68 264.167 1025.68 270.425C1025.71 276.91 1020.32 282.058 1014.46 281.857C1008.16 281.907 1003.11 276.759 1003.11 270.4Z" fill="#016270"/>
<path d="M1134.04 317.134C1134.21 310.624 1139.15 305.678 1145.39 305.552C1151.52 305.577 1156.47 310.876 1156.23 317.311C1156.25 323.493 1151.11 328.768 1145.12 328.54C1139.19 328.616 1134.12 323.469 1134.04 317.134Z" fill="#016270"/>
<path d="M1053.23 297.3C1053.01 288.014 1060.69 280.645 1069.53 280.62C1078.85 280.418 1086.08 288.089 1085.9 297.477C1085.86 306.864 1078.6 314.662 1069.51 314.637C1060.51 314.46 1053.06 306.738 1053.23 297.3Z" fill="#016270"/>
<path d="M1107.62 263.813C1107.96 254.451 1115.12 246.855 1124.22 246.654C1133.19 246.906 1140.69 254.199 1140.56 263.914C1140.37 273.226 1133.16 280.973 1123.97 280.822C1115 280.771 1107.77 272.999 1107.62 263.813Z" fill="#016270"/>
<path d="M966.613 304.416C966.633 295.306 974.015 287.837 983.058 287.686C992.469 287.837 999.503 295.18 999.582 305.122C999.483 314.232 992.128 321.904 982.986 321.854C973.989 321.803 966.587 314.081 966.613 304.416Z" fill="#016270"/>
<path d="M965.634 222.454C965.706 213.647 972.766 206.505 981.343 206.631C989.946 206.43 996.836 213.949 996.711 222.857C996.836 231.689 989.848 238.654 981.192 238.654C972.471 238.604 965.752 231.588 965.634 222.454Z" fill="#016270"/>
<path d="M1110.39 161.914C1110.37 149.953 1119.88 140.364 1131.35 140.238C1142.97 140.465 1152.28 150.029 1152.21 162.141C1152.01 174.027 1142.8 183.617 1131.28 183.566C1119.46 183.339 1110.39 173.598 1110.39 161.914Z" fill="#016270"/>
<path d="M658.292 249.732L658.857 250.868L623.878 268.708L647.139 304.87L646.281 305.778L621.599 268.456L658.292 249.732Z" fill="#016270"/>
<path d="M587.7 192.019L588.165 192.751L623.314 268.178L622.382 268.783L587.332 194.012L487.72 234.035L507.55 289.425L506.176 290.182L485.637 233.379L486.397 233.001L587.7 192.019Z" fill="#016270"/>
<path d="M417.006 168.727L487.794 234.035L432.007 267.144H431.811L376.147 242.413L345.508 278.045L344.969 277.616L283.545 228.433L261.583 263.938L260.406 263.434L283.079 226.137L283.937 226.565L345.508 275.875L375.926 240.495L376.22 240.773L432.105 265.679L485.514 233.53L416.001 169.686L417.006 168.727Z" fill="#016270"/>
<path d="M215.232 110.687L216.04 113.816L243.198 216.472L283.739 226.288L283.298 227.575L241.997 217.633L241.752 217.128L215.599 117.324L207.633 164.438L206.971 164.337L143.954 157.549L94.148 170.797L45.1016 200.725L18.2868 221.923L17.3799 220.383L44.1457 199.691L93.7309 169.384L143.905 155.984L143.978 155.959L206.53 162.545L215.232 110.687Z" fill="#016270"/>
<path d="M42.6522 203.476L58.7314 228.358L57.3098 229.292L41.4268 204.233L42.6522 203.476Z" fill="#016270"/>
<path d="M62.6027 90.0699L62.8969 90.9786L94.4915 170.015L93.094 170.419L61.745 92.0134L22.2579 112.605L21.498 111.217L62.6027 90.0699Z" fill="#016270"/>
<path d="M342.836 139.43H344.478L344.012 194.468L376.244 240.471L431.246 212.687L431.663 213.924L375.827 242.49L375.386 241.91L342.688 194.72L342.836 139.43Z" fill="#016270"/>
<path d="M642.04 91.6602L642.775 93.0481L571.865 132.187L490.661 133.752L490.367 133.525L429.825 107.634L430.414 106.195L490.906 132.213L571.596 130.623L642.04 91.6602Z" fill="#016270"/>
<path d="M588.409 46.1361L589.806 46.338L577.599 133.373L576.227 133.323L588.409 46.1361Z" fill="#016270"/>
<path d="M151.577 35.5118L153.072 35.7389L142.287 88.0509L144.297 156.539L178.073 209.734L176.97 210.566L143.219 156.967L143.268 156.816L140.964 87.7988L151.577 35.5118Z" fill="#016270"/>
<path d="M639.589 305.248C639.687 301.135 642.922 298.106 646.672 298.056C650.79 298.157 653.952 301.438 653.926 305.425C653.755 309.387 650.497 312.743 646.33 312.819C642.58 312.819 639.662 309.134 639.589 305.248Z" fill="#016270"/>
<path d="M649.417 251.725C649.442 247.612 652.506 244.382 656.571 244.18C660.4 244.332 663.388 247.561 663.362 251.751C663.46 255.637 660.4 259.169 656.525 258.791C652.552 258.993 649.319 255.864 649.417 251.725Z" fill="#016270"/>
<path d="M608.484 271.333C608.804 263.535 614.342 257.781 621.451 257.958C628.755 257.933 634.417 263.913 634.27 271.459C634.294 278.726 628.535 284.48 621.426 284.354C613.975 284.606 608.607 278.373 608.484 271.333Z" fill="#016270"/>
<path d="M565.689 197.949C565.689 185.307 575.64 175.112 588.239 175.087C600.568 175.213 610.176 185.685 610.102 198.328C610.102 211.047 600.225 221.165 587.871 220.913C575.517 220.787 565.566 210.693 565.689 197.949Z" fill="#016270"/>
<path d="M617.309 93.5772C617.627 80.985 627.456 70.6895 639.907 70.9665C652.165 70.8405 662.062 81.0861 662.016 93.9304C661.846 106.321 651.988 116.642 639.441 116.667C627.211 116.389 617.333 106.372 617.309 93.5772Z" fill="#016270"/>
<path d="M561.988 131.531C561.914 124.365 567.821 118.712 574.635 118.636C581.327 118.788 586.988 124.365 587.013 131.506C587.062 138.572 581.302 144.3 574.292 144.451C567.699 144.477 561.889 138.42 561.988 131.531Z" fill="#016270"/>
<path d="M576.105 48.0789C576.253 39.7261 582.797 32.8622 591.033 33.0136C599.195 32.8369 605.69 39.7513 605.788 48.306C605.616 56.583 598.974 63.1946 590.714 63.0684C582.674 63.0179 576.228 56.3055 576.105 48.0789Z" fill="#016270"/>
<path d="M225.993 214.933C226.018 204.157 234.45 195.754 244.695 195.906C255.161 195.754 263.495 204.612 263.519 215.034C263.298 225.91 254.916 234.54 244.695 234.49C234.327 234.389 225.944 225.733 225.993 214.933Z" fill="#016270"/>
<path d="M202.928 117.122C202.879 108.92 209.277 102.562 217.365 102.41C225.16 102.485 231.581 109.148 231.385 117.223C231.508 125.475 224.963 131.859 217.291 131.783C209.301 131.657 202.806 125.323 202.928 117.122Z" fill="#016270"/>
<path d="M195.991 164.917C196.016 158.709 200.722 153.965 206.751 153.612C212.536 153.738 217.316 158.835 217.316 164.917C217.291 171.099 212.364 175.844 206.506 175.919C200.648 175.718 196.04 170.847 195.991 164.917Z" fill="#016270"/>
<path d="M156.92 206.352C157.068 196.687 164.494 189.243 173.588 189.496C182.608 189.293 190.108 197.116 190.083 206.428C189.961 215.942 182.313 223.538 173.637 223.386C164.175 223.386 156.798 215.613 156.92 206.352Z" fill="#016270"/>
<path d="M133.317 156.211C133.244 150.255 137.778 145.738 143.465 145.738C149.225 145.814 153.661 150.483 153.784 156.413C153.661 162.217 149.053 166.734 143.415 166.885C137.68 166.583 133.268 161.989 133.317 156.211Z" fill="#016270"/>
<path d="M126.381 92.5431C126.381 83.0296 133.734 75.5349 142.95 75.5349C152.117 75.5349 159.471 83.0801 159.422 92.7197C159.201 101.981 151.897 109.602 142.73 109.476C133.734 109.451 126.43 101.754 126.381 92.5431Z" fill="#016270"/>
<path d="M138.636 38.3385C138.709 31.4241 144.053 26.049 150.671 25.9985C157.436 26.049 162.803 31.4241 162.681 38.4394C162.632 45.2528 157.215 50.6026 150.597 50.8802C144.078 50.5521 138.66 45.1771 138.636 38.3385Z" fill="#016270"/>
<path d="M49.7345 90.1211C49.7345 83.3329 55.2739 77.6044 61.8921 77.7055C68.5344 77.8316 73.9755 83.3329 73.7305 90.3483C73.6813 97.338 68.2894 102.713 61.6222 102.637C55.1023 102.486 49.71 97.0097 49.7345 90.1211Z" fill="#016270"/>
<path d="M13.0694 111.873C13.045 106.75 17.0402 102.738 21.9669 102.814C26.8691 102.94 30.9133 107.003 30.9869 112.074C30.8644 117.172 26.8691 121.21 21.9914 121.159C16.8931 121.109 13.192 117.02 13.0694 111.873Z" fill="#016270"/>
<path d="M76.9903 171.63C76.9903 161.839 84.5645 154.243 93.952 154.293C103.364 154.293 110.889 161.914 110.864 171.882C110.84 181.27 103.046 189.042 93.6827 189.068C84.3931 189.042 76.966 181.118 76.9903 171.63Z" fill="#016270"/>
<path d="M29.1467 200.145C29.2447 193.508 34.392 188.234 40.8874 188.461C47.1867 188.259 52.1869 193.558 52.1869 200.246C52.1869 206.832 47.0151 212.384 40.6177 212.157C34.1959 212.106 29.0241 206.757 29.1467 200.145Z" fill="#016270"/>
<path d="M52.1855 227.903C52.1119 224.673 54.7836 222.048 57.97 221.645C61.2792 221.872 63.7544 224.522 63.6073 227.903C63.6073 231.209 61.2542 233.782 57.872 233.707C54.8817 233.606 52.0629 231.158 52.1855 227.903Z" fill="#016270"/>
<path d="M12.5525 224.017C12.4545 220.51 15.0281 217.759 18.4351 217.885C21.4744 217.759 24.1461 220.535 24.0726 224.043C24.1461 227.323 21.3519 229.871 18.386 230.074C15.1261 229.948 12.4545 227.247 12.5525 224.017Z" fill="#016270"/>
<path d="M412.176 111.419C412.299 102.461 419.26 95.3953 427.937 95.3953C436.467 95.4957 443.747 102.511 443.624 111.495C443.428 120.503 436.393 127.494 427.668 127.443C419.383 127.418 412.054 120.352 412.176 111.419Z" fill="#016270"/>
<path d="M401.712 173.799C401.859 166.204 407.815 159.946 415.071 159.794C422.62 160.147 428.502 166.178 428.674 173.926C428.405 181.547 422.571 187.628 414.972 187.351C407.741 187.351 401.785 181.37 401.712 173.799Z" fill="#016270"/>
<path d="M420.61 215.891C420.512 209.835 425.39 204.561 431.419 204.409C437.645 204.586 442.498 209.683 442.694 216.017C442.67 222.579 437.522 227.399 431.395 227.474C425.242 227.373 420.389 222.2 420.61 215.891Z" fill="#016270"/>
<path d="M333.84 141.246C333.718 134.989 338.767 129.916 345.017 129.891C351.047 129.966 355.924 134.938 356.071 141.423C355.949 147.681 350.973 152.88 344.699 152.88C338.718 152.678 333.742 147.681 333.84 141.246Z" fill="#016270"/>
<path d="M252.22 265.756C251.999 260.557 255.97 256.419 261.068 256.343C265.995 256.519 269.917 260.608 269.672 265.781C269.672 270.828 266.02 274.714 261.142 274.739C255.872 274.815 251.95 270.954 252.22 265.756Z" fill="#016270"/>
<path d="M270.161 229.392C270.112 222.957 275.357 217.481 281.73 217.531C288.348 217.531 293.202 222.755 293.226 229.518C293.3 236.281 288.005 241.454 281.559 241.454C275.235 241.151 269.99 236.029 270.161 229.392Z" fill="#016270"/>
<path d="M364.921 242.842C364.847 236.483 370.068 231.31 376.122 231.285C382.249 231.285 387.201 236.584 386.907 242.893C387.152 249.05 382.005 254.349 376.073 254.173C369.823 254.223 364.871 248.924 364.921 242.842Z" fill="#016270"/>
<path d="M495.759 289.426C495.71 283.193 500.637 277.818 506.789 277.995C513.211 278.02 518.211 282.941 517.77 289.477C517.844 295.76 512.892 300.732 506.593 300.984C500.661 301.009 495.514 295.912 495.759 289.426Z" fill="#016270"/>
<path d="M414.628 269.592C414.726 260.154 422.226 252.508 431.05 252.76C440.438 252.71 447.669 260.33 447.399 269.718C447.742 279.333 440.144 286.903 431.124 286.55C421.859 286.525 414.677 279.232 414.628 269.592Z" fill="#016270"/>
<path d="M469.483 235.852C469.189 226.566 476.493 218.945 485.612 218.945C494.901 219.046 502.426 226.818 502.5 236.079C502.181 245.568 494.607 253.087 485.734 252.987C476.469 253.012 469.14 245.239 469.483 235.852Z" fill="#016270"/>
<path d="M328.252 276.834C328.326 267.8 335.63 259.952 344.724 260.128C353.866 260.128 361.293 267.699 361.195 276.935C360.998 286.65 353.743 294.069 344.625 294.145C335.458 294.145 328.154 286.398 328.252 276.834Z" fill="#016270"/>
<path d="M327.222 194.644C327.197 186.013 334.354 178.846 342.712 179.099C351.487 178.922 358.62 186.013 358.669 195.174C358.522 204.006 351.389 210.946 342.712 211.097C334.06 210.844 327.197 203.803 327.222 194.644Z" fill="#016270"/>
<path d="M471.959 134.357C472.179 122.244 481.616 112.68 493.185 112.706C504.705 112.706 513.971 122.396 513.971 134.585C513.873 146.193 504.607 155.958 492.891 155.933C481.2 155.706 471.812 146.066 471.959 134.357Z" fill="#016270"/>
</g>
</g>
</svg>
